<svg xmlns="http://www.w3.org/2000/svg" width="682" height="443">
    <style>
        .line {
            stroke: #000;
            stroke-width: 4;
            stroke-linejoin: round;
            stroke-linecap: round;
        }
        .text {
            fill: #000000;
        }

        .higlight {
            fill: #F5A623;
        }
    </style>

    <g fill="none" fill-rule="evenodd">
        <g transform="translate(2)">
            <g class="line">
                <path d="M217.2 212.8c16.1-23.7 47.8-33.8 74.3-21.3 29.4 13.9 42 49 28.1 78.4-13.9 29.4-49 42-78.4 28.1-4.2-2-8.1-4.5-11.7-7.3"/>
                <path d="M242.9 290.4l-14.1-.2 5.7 13"/>

                <circle cx="213.7" cy="247.6" r="28.7"/>
                <circle cx="213.7" cy="247.6" r="34.9"/>
                <path d="M110.4 240.9l-13.2 9.2 13.2 9.3m68-9.3H97.2m-19.3-49.5l.9 15.8 14.6-6.4m27.3-62.1l-41.9 68.5m116.6-15.8l-1 15.8-14.5-6.4m-27.3-62.1l41.8 68.5"/>
                <circle cx="61.9" cy="251.3" r="28.7"/>
                <circle cx="61.9" cy="251.3" r="34.9"/>
                <path d="M27.3 255.9C3.5 272-6.7 303.7 5.8 330.3c13.9 29.4 49 42 78.4 28.1 29.4-13.9 42-49 28.1-78.4-2-4.2-4.5-8.1-7.3-11.7"/>
                <path d="M104.7 281.7l-.2-14.1 13 5.7"/>
                <path d="M76.1 108.3l13 9-13 9m-28.5-9h41.5"/>
                <circle class="higlight" cx="136.33048" cy="114.21371" r="28.7002361"
                        transform="rotate(-75.037 136.33048 114.21371)"/>
                <circle cx="136.33048" cy="114.21371" r="34.9002871" transform="rotate(-75.037 136.33048 114.21371)"/>
                <path d="M104.1 100.8c-18.8-21.7-20.5-55-1.5-77.4 21-24.8 58.1-27.9 83-6.9 24.8 21 27.9 58.1 6.9 83-3 3.6-6.4 6.7-10 9.4"/>
                <path d="M185.6 95.8l-3.9 13.7 14-2.2"/>
                <path d="M490.4 81.1v218.8m65-218.8v218.8m65-218.8v218.8m-186.7-44.4h244m-244-65h244m-244-65h244"/>
                <path d="M490.4 125.5L446 85.4"/>
            </g>

            <g class="text">
                <path d="M75.5 149.1c1.4 1.1 2.3 2.6 2.8 4.4h-3.6c-.4-.9-.9-1.6-1.7-2.2-.8-.5-1.7-.8-2.8-.8-.9 0-1.7.2-2.4.7-.7.4-1.3 1.1-1.7 1.9-.4.8-.6 1.8-.6 2.9 0 1.1.2 2.1.6 2.9.4.8 1 1.5 1.7 1.9.7.4 1.5.7 2.4.7 1.1 0 2-.3 2.8-.8.8-.5 1.3-1.2 1.7-2.2h3.6c-.4 1.9-1.4 3.4-2.8 4.4-1.4 1.1-3.1 1.6-5.3 1.6-1.6 0-3-.4-4.3-1.1-1.2-.7-2.2-1.7-2.9-3.1-.7-1.3-1-2.8-1-4.5 0-1.7.3-3.2 1-4.5.7-1.3 1.6-2.3 2.9-3.1 1.2-.7 2.7-1.1 4.3-1.1 2.1.4 3.9.9 5.3 2zm-12 230.6c1.4 1.1 2.3 2.6 2.8 4.4h-3.6c-.4-.9-.9-1.6-1.7-2.2-.8-.5-1.7-.8-2.8-.8-.9 0-1.7.2-2.4.7-.7.4-1.3 1.1-1.7 1.9-.4.8-.6 1.8-.6 2.9 0 1.1.2 2.1.6 2.9.4.8 1 1.5 1.7 1.9.7.4 1.5.7 2.4.7 1.1 0 2-.3 2.8-.8.8-.5 1.3-1.2 1.7-2.2h3.6c-.4 1.9-1.4 3.4-2.8 4.4-1.4 1.1-3.1 1.6-5.3 1.6-1.6 0-3-.4-4.3-1.1-1.2-.7-2.2-1.7-2.9-3.1-.7-1.3-1-2.8-1-4.5 0-1.7.3-3.2 1-4.5.7-1.3 1.6-2.3 2.9-3.1 1.2-.7 2.7-1.1 4.3-1.1 2.1.4 3.9.9 5.3 2zm85-119.1c1.4 1.1 2.3 2.6 2.8 4.4h-3.6c-.4-.9-.9-1.6-1.7-2.2-.8-.5-1.7-.8-2.8-.8-.9 0-1.7.2-2.4.7-.7.4-1.3 1.1-1.7 1.9-.4.8-.6 1.8-.6 2.9 0 1.1.2 2.1.6 2.9.4.8 1 1.5 1.7 1.9.7.4 1.5.7 2.4.7 1.1 0 2-.3 2.8-.8.8-.5 1.3-1.2 1.7-2.2h3.6c-.4 1.9-1.4 3.4-2.8 4.4-1.4 1.1-3.1 1.6-5.3 1.6-1.6 0-3-.4-4.3-1.1-1.2-.7-2.2-1.7-2.9-3.1-.7-1.3-1-2.8-1-4.5 0-1.7.3-3.2 1-4.5.7-1.3 1.6-2.3 2.9-3.1 1.2-.7 2.7-1.1 4.3-1.1 2.1.4 3.9.9 5.3 2z"/>
                <path d="M203.6.9c.8.5 1.4 1.2 1.7 2.1V.2h3.4v13.3h-3.4v-2.8c-.3.9-.9 1.6-1.7 2.1-.8.5-1.8.8-2.9.8-1.1 0-2.1-.3-3-.8-.9-.5-1.6-1.3-2.1-2.4-.5-1-.8-2.2-.8-3.6s.3-2.6.8-3.6 1.2-1.8 2.1-2.4c.9-.5 1.9-.8 3-.8 1.1.1 2.1.3 2.9.9zm-4.4 3.2c-.6.7-1 1.6-1 2.8 0 1.2.3 2.1 1 2.8.6.7 1.5 1 2.5 1s1.9-.3 2.5-1c.7-.7 1-1.6 1-2.8 0-1.2-.3-2.1-1-2.8-.7-.7-1.5-1-2.5-1-1-.1-1.9.3-2.5 1z"/>
                <path d="M59.8 258.3c-.5.9-1.3 1.7-2.4 2.2-1.1.6-2.4.8-3.9.8s-2.9-.3-4-.8c-1.2-.5-2.1-1.3-2.9-2.2-.7-1-1.1-2.1-1.2-3.4h4.5c.1.9.4 1.6 1 2.2.6.6 1.4.9 2.4.9.9 0 1.6-.2 2-.7.5-.5.7-1.1.7-1.8s-.2-1.2-.6-1.7c-.4-.4-.9-.8-1.4-1-.6-.3-1.4-.6-2.4-.9-1.3-.4-2.4-.9-3.3-1.3-.8-.4-1.6-1.1-2.2-1.9-.6-.8-.9-1.9-.9-3.2 0-1.8.7-3.3 2-4.3 1.3-1.1 3.1-1.6 5.2-1.6 2.3 0 4 .5 5.4 1.6 1.3 1.1 2.1 2.5 2.3 4.4h-4.6c-.1-.8-.4-1.4-1-1.9-.5-.5-1.2-.7-2.1-.7-.8 0-1.4.2-1.9.6-.5.4-.7 1-.7 1.8 0 .6.2 1.1.6 1.6.4.4.8.8 1.4 1 .6.3 1.4.6 2.3.9 1.4.5 2.5.9 3.3 1.4.9.4 1.6 1.1 2.2 1.9.6.8.9 2 .9 3.3.1.9-.2 1.9-.7 2.8zm14.8-18.6c1 .5 1.8 1.2 2.4 2.1.5.9.8 1.9.8 3 0 1.4-.4 2.5-1.1 3.4-.7.9-1.7 1.4-3 1.6v.2c3 .9 4.5 2.6 4.5 5.3 0 1.8-.6 3.3-1.8 4.5-1.2 1.1-3 1.7-5.2 1.7-2.4 0-4.3-.6-5.7-1.8-1.4-1.2-2.2-3-2.4-5.3h4.2c.1 1.1.5 2 1.1 2.6.6.6 1.5 1 2.6 1 1 0 1.7-.3 2.3-.8.5-.5.8-1.2.8-2.1 0-1-.4-1.8-1.2-2.4-.8-.5-1.9-.8-3.5-.8h-.9v-3.5h.9c2.8 0 4.2-.9 4.2-2.9 0-.9-.3-1.5-.8-2s-1.2-.7-2.1-.7c-.9 0-1.6.3-2.2.9-.6.6-.9 1.4-1 2.4h-4.2c.1-2.2.8-3.9 2.1-5 1.3-1.2 3.1-1.8 5.4-1.8 1.5-.4 2.8-.1 3.8.4zm62.7-118.2c-.5.9-1.3 1.7-2.4 2.2-1.1.6-2.4.8-3.9.8s-2.9-.3-4-.8c-1.2-.5-2.1-1.3-2.9-2.2-.7-1-1.1-2.1-1.2-3.4h4.5c.1.9.4 1.6 1 2.2.6.6 1.4.9 2.4.9.9 0 1.6-.2 2-.7.5-.5.7-1.1.7-1.8s-.2-1.2-.6-1.7c-.4-.4-.9-.8-1.4-1-.6-.3-1.4-.6-2.4-.9-1.3-.4-2.4-.9-3.3-1.3-.8-.4-1.6-1.1-2.2-1.9-.6-.8-.9-1.9-.9-3.2 0-1.8.7-3.3 2-4.3 1.3-1.1 3.1-1.6 5.2-1.6 2.3 0 4 .5 5.4 1.6 1.3 1.1 2.1 2.5 2.3 4.4H133c-.1-.8-.4-1.4-1-1.9-.5-.5-1.2-.7-2.1-.7-.8 0-1.4.2-1.9.6-.5.4-.7 1-.7 1.8 0 .6.2 1.1.6 1.6.4.4.8.8 1.4 1 .6.3 1.4.6 2.3.9 1.4.5 2.5.9 3.3 1.4.9.4 1.6 1.1 2.2 1.9.6.8.9 2 .9 3.3.1.9-.2 1.9-.7 2.8zm2.3-14.5v-4h7.7v21.4h-4.5V107h-3.2zm72.7 148.7c-.5.9-1.3 1.7-2.4 2.2-1.1.6-2.4.8-3.9.8s-2.9-.3-4-.8c-1.2-.5-2.1-1.3-2.9-2.2-.7-1-1.1-2.1-1.2-3.4h4.5c.1.9.4 1.6 1 2.2.6.6 1.4.9 2.4.9.9 0 1.6-.2 2-.7.5-.5.7-1.1.7-1.8s-.2-1.2-.6-1.7c-.4-.4-.9-.8-1.4-1-.6-.3-1.4-.6-2.4-.9-1.3-.4-2.4-.9-3.3-1.3-.8-.4-1.6-1.1-2.2-1.9-.6-.8-.9-1.9-.9-3.2 0-1.8.7-3.3 2-4.3 1.3-1.1 3.1-1.6 5.2-1.6 2.3 0 4 .5 5.4 1.6 1.3 1.1 2.1 2.5 2.3 4.4H208c-.1-.8-.4-1.4-1-1.9-.5-.5-1.2-.7-2.1-.7-.8 0-1.4.2-1.9.6-.5.4-.7 1-.7 1.8 0 .6.2 1.1.6 1.6.4.4.8.8 1.4 1 .6.3 1.4.6 2.3.9 1.4.5 2.5.9 3.3 1.4.9.4 1.6 1.1 2.2 1.9.6.8.9 2 .9 3.3.1.8-.2 1.8-.7 2.8zm13.4-12.4c0-.9-.2-1.7-.7-2.2-.5-.5-1.2-.8-2.1-.8-2 0-3 1.4-3.2 4.1h-4.1c.1-2.5.9-4.4 2.3-5.7 1.4-1.3 3.2-2 5.3-2 2.2 0 3.9.6 5.1 1.7 1.2 1.1 1.8 2.7 1.8 4.6 0 1.5-.4 3-1.3 4.5s-2 2.9-3.3 4.1c-1.3 1.3-2.8 2.3-4.3 3.3h9.3v3.5h-15v-3.2c6.8-4.8 10.2-8.8 10.2-11.9z"/>
                <path d="M522.7 96.1c.8.5 1.4 1.2 1.7 2.1v-2.8h3.4v13.3h-3.4V106c-.3.9-.9 1.6-1.7 2.1-.8.5-1.8.8-2.9.8-1.1 0-2.1-.3-3-.8-.9-.5-1.6-1.3-2.1-2.4-.5-1-.8-2.2-.8-3.6s.3-2.6.8-3.6 1.2-1.8 2.1-2.4c.9-.5 1.9-.8 3-.8 1.2 0 2.1.3 2.9.8zm-4.3 3.2c-.6.7-1 1.6-1 2.8 0 1.2.3 2.1 1 2.8.6.7 1.5 1 2.5 1s1.9-.3 2.5-1c.7-.7 1-1.6 1-2.8 0-1.2-.3-2.1-1-2.8-.7-.7-1.5-1-2.5-1-1.1 0-1.9.3-2.5 1zM655 95.1c1.4 1.1 2.3 2.6 2.8 4.4h-3.6c-.4-.9-.9-1.6-1.7-2.2-.8-.5-1.7-.8-2.8-.8-.9 0-1.7.2-2.4.7-.7.4-1.3 1.1-1.7 1.9-.4.8-.6 1.8-.6 2.9 0 1.1.2 2.1.6 2.9.4.8 1 1.5 1.7 1.9.7.4 1.5.7 2.4.7 1.1 0 2-.3 2.8-.8.8-.5 1.3-1.2 1.7-2.2h3.6c-.4 1.9-1.4 3.4-2.8 4.4-1.4 1.1-3.1 1.6-5.3 1.6-1.6 0-3-.4-4.3-1.1-1.2-.7-2.2-1.7-2.9-3.1-.7-1.3-1-2.8-1-4.5 0-1.7.3-3.2 1-4.5.7-1.3 1.6-2.3 2.9-3.1 1.2-.7 2.7-1.1 4.3-1.1 2.2.4 4 1 5.3 2zm-189.3 71.3c-.5.9-1.3 1.7-2.4 2.2-1.1.6-2.4.8-3.9.8s-2.9-.3-4-.8c-1.2-.5-2.1-1.3-2.9-2.2-.7-1-1.1-2.1-1.2-3.4h4.5c.1.9.4 1.6 1 2.2.6.6 1.4.9 2.4.9.9 0 1.6-.2 2-.7.5-.5.7-1.1.7-1.8s-.2-1.2-.6-1.7c-.4-.4-.9-.8-1.4-1-.6-.3-1.4-.6-2.4-.9-1.3-.4-2.4-.9-3.3-1.3-.8-.4-1.6-1.1-2.2-1.9-.6-.8-.9-1.9-.9-3.2 0-1.8.7-3.3 2-4.3 1.3-1.1 3.1-1.6 5.2-1.6 2.3 0 4 .5 5.4 1.6 1.3 1.1 2.1 2.5 2.3 4.4h-4.6c-.1-.8-.4-1.4-1-1.9-.5-.5-1.2-.7-2.1-.7-.8 0-1.4.2-1.9.6-.5.4-.7 1-.7 1.8 0 .6.2 1.1.6 1.6.4.4.8.8 1.4 1 .6.3 1.4.6 2.3.9 1.4.5 2.5.9 3.3 1.4.9.4 1.6 1.1 2.2 1.9.6.8.9 2 .9 3.3.1.8-.1 1.8-.7 2.8zm2.4-14.6v-4h7.7v21.4h-4.5v-17.4h-3.2zm117.3 14.7c-.5.9-1.3 1.7-2.4 2.2-1.1.6-2.4.8-3.9.8s-2.9-.3-4-.8c-1.2-.5-2.1-1.3-2.9-2.2-.7-1-1.1-2.1-1.2-3.4h4.5c.1.9.4 1.6 1 2.2.6.6 1.4.9 2.4.9.9 0 1.6-.2 2-.7.5-.5.7-1.1.7-1.8s-.2-1.2-.6-1.7c-.4-.4-.9-.8-1.4-1-.6-.3-1.4-.6-2.4-.9-1.3-.4-2.4-.9-3.3-1.3-.8-.4-1.6-1.1-2.2-1.9-.6-.8-.9-1.9-.9-3.2 0-1.8.7-3.3 2-4.3 1.3-1.1 3.1-1.6 5.2-1.6 2.3 0 4 .5 5.4 1.6 1.3 1.1 2.1 2.5 2.3 4.4h-4.6c-.1-.8-.4-1.4-1-1.9-.5-.5-1.2-.7-2.1-.7-.8 0-1.4.2-1.9.6-.5.4-.7 1-.7 1.8 0 .6.2 1.1.6 1.6.4.4.8.8 1.4 1 .6.3 1.4.6 2.3.9 1.4.5 2.5.9 3.3 1.4.9.4 1.6 1.1 2.2 1.9.6.8.9 2 .9 3.3.1.9-.2 1.9-.7 2.8zm13.4-12.4c0-.9-.2-1.7-.7-2.2-.5-.5-1.2-.8-2.1-.8-2 0-3 1.4-3.2 4.1h-4.1c.1-2.5.9-4.4 2.3-5.7 1.4-1.3 3.2-2 5.3-2 2.2 0 3.9.6 5.1 1.7 1.2 1.1 1.8 2.7 1.8 4.6 0 1.5-.4 3-1.3 4.5s-2 2.9-3.3 4.1c-1.3 1.3-2.8 2.3-4.3 3.3h9.3v3.5h-15V166c6.8-4.8 10.2-8.7 10.2-11.9zm49.1 12.4c-.5.9-1.3 1.7-2.4 2.2-1.1.6-2.4.8-3.9.8s-2.9-.3-4-.8c-1.2-.5-2.1-1.3-2.9-2.2-.7-1-1.1-2.1-1.2-3.4h4.5c.1.9.4 1.6 1 2.2.6.6 1.4.9 2.4.9.9 0 1.6-.2 2-.7.5-.5.7-1.1.7-1.8s-.2-1.2-.6-1.7c-.4-.4-.9-.8-1.4-1-.6-.3-1.4-.6-2.4-.9-1.3-.4-2.4-.9-3.3-1.3-.8-.4-1.6-1.1-2.2-1.9-.6-.8-.9-1.9-.9-3.2 0-1.8.7-3.3 2-4.3 1.3-1.1 3.1-1.6 5.2-1.6 2.3 0 4 .5 5.4 1.6 1.3 1.1 2.1 2.5 2.3 4.4h-4.6c-.1-.8-.4-1.4-1-1.9-.5-.5-1.2-.7-2.1-.7-.8 0-1.4.2-1.9.6-.5.4-.7 1-.7 1.8 0 .6.2 1.1.6 1.6.4.4.8.8 1.4 1 .6.3 1.4.6 2.3.9 1.4.5 2.5.9 3.3 1.4.9.4 1.6 1.1 2.2 1.9.6.8.9 2 .9 3.3.1.8-.2 1.9-.7 2.8zm14.8-18.6c1 .5 1.8 1.2 2.4 2.1.5.9.8 1.9.8 3 0 1.4-.4 2.5-1.1 3.4-.7.9-1.7 1.4-3 1.6v.2c3 .9 4.5 2.6 4.5 5.3 0 1.8-.6 3.3-1.8 4.5-1.2 1.1-3 1.7-5.2 1.7-2.4 0-4.3-.6-5.7-1.8-1.4-1.2-2.2-3-2.4-5.3h4.2c.1 1.1.5 2 1.1 2.6.6.6 1.5 1 2.6 1 1 0 1.7-.3 2.3-.8.5-.5.8-1.2.8-2.1 0-1-.4-1.8-1.2-2.4-.8-.5-1.9-.8-3.5-.8h-.9v-3.5h.9c2.8 0 4.2-.9 4.2-2.9 0-.9-.3-1.5-.8-2s-1.2-.7-2.1-.7c-.9 0-1.6.3-2.2.9-.6.6-.9 1.4-1 2.4h-4.2c.1-2.2.8-3.9 2.1-5 1.3-1.2 3.1-1.8 5.4-1.8 1.5-.4 2.8-.1 3.8.4zm-16 83.4c-.5.9-1.3 1.7-2.4 2.2-1.1.6-2.4.8-3.9.8s-2.9-.3-4-.8c-1.2-.5-2.1-1.3-2.9-2.2-.7-1-1.1-2.1-1.2-3.4h4.5c.1.9.4 1.6 1 2.2.6.6 1.4.9 2.4.9.9 0 1.6-.2 2-.7.5-.5.7-1.1.7-1.8s-.2-1.2-.6-1.7c-.4-.4-.9-.8-1.4-1-.6-.3-1.4-.6-2.4-.9-1.3-.4-2.4-.9-3.3-1.3-.8-.4-1.6-1.1-2.2-1.9-.6-.8-.9-1.9-.9-3.2 0-1.8.7-3.3 2-4.3 1.3-1.1 3.1-1.6 5.2-1.6 2.3 0 4 .5 5.4 1.6 1.3 1.1 2.1 2.5 2.3 4.4h-4.6c-.1-.8-.4-1.4-1-1.9-.5-.5-1.2-.7-2.1-.7-.8 0-1.4.2-1.9.6-.5.4-.7 1-.7 1.8 0 .6.2 1.1.6 1.6.4.4.8.8 1.4 1 .6.3 1.4.6 2.3.9 1.4.5 2.5.9 3.3 1.4.9.4 1.6 1.1 2.2 1.9.6.8.9 2 .9 3.3.1.9-.1 1.9-.7 2.8zm14.9-18.6c1 .5 1.8 1.2 2.4 2.1.5.9.8 1.9.8 3 0 1.4-.4 2.5-1.1 3.4-.7.9-1.7 1.4-3 1.6v.2c3 .9 4.5 2.6 4.5 5.3 0 1.8-.6 3.3-1.8 4.5-1.2 1.1-3 1.7-5.2 1.7-2.4 0-4.3-.6-5.7-1.8-1.4-1.2-2.2-3-2.4-5.3h4.2c.1 1.1.5 2 1.1 2.6.6.6 1.5 1 2.6 1 1 0 1.7-.3 2.3-.8.5-.5.8-1.2.8-2.1 0-1-.4-1.8-1.2-2.4-.8-.6-1.9-.8-3.5-.8h-.9v-3.5h.9c2.8 0 4.2-.9 4.2-2.9 0-.9-.3-1.5-.8-2s-1.2-.7-2.1-.7c-.9 0-1.6.3-2.2.9-.6.6-.9 1.4-1 2.4h-4.2c.1-2.2.8-3.9 2.1-5 1.3-1.2 3.1-1.8 5.4-1.8 1.5-.4 2.7-.1 3.8.4zm-15.8 77.5c-.5.9-1.3 1.7-2.4 2.2-1.1.6-2.4.8-3.9.8s-2.9-.3-4-.8c-1.2-.5-2.1-1.3-2.9-2.2-.7-1-1.1-2.1-1.2-3.4h4.5c.1.9.4 1.6 1 2.2.6.6 1.4.9 2.4.9.9 0 1.6-.2 2-.7.5-.5.7-1.1.7-1.8s-.2-1.2-.6-1.7c-.4-.4-.9-.8-1.4-1-.6-.3-1.4-.6-2.4-.9-1.3-.4-2.4-.9-3.3-1.3-.8-.4-1.6-1.1-2.2-1.9-.6-.8-.9-1.9-.9-3.2 0-1.8.7-3.3 2-4.3 1.3-1.1 3.1-1.6 5.2-1.6 2.3 0 4 .5 5.4 1.6 1.3 1.1 2.1 2.5 2.3 4.4h-4.6c-.1-.8-.4-1.4-1-1.9-.5-.5-1.2-.7-2.1-.7-.8 0-1.4.2-1.9.6-.5.4-.7 1-.7 1.8 0 .6.2 1.1.6 1.6.4.4.8.8 1.4 1 .6.3 1.4.6 2.3.9 1.4.5 2.5.9 3.3 1.4.9.4 1.6 1.1 2.2 1.9.6.8.9 2 .9 3.3.1.9-.2 1.9-.7 2.8zm14.8-18.6c1 .5 1.8 1.2 2.4 2.1.5.9.8 1.9.8 3 0 1.4-.4 2.5-1.1 3.4-.7.9-1.7 1.4-3 1.6v.2c3 .9 4.5 2.6 4.5 5.3 0 1.8-.6 3.3-1.8 4.5-1.2 1.1-3 1.7-5.2 1.7-2.4 0-4.3-.6-5.7-1.8-1.4-1.2-2.2-3-2.4-5.3h4.2c.1 1.1.5 2 1.1 2.6.6.6 1.5 1 2.6 1 1 0 1.7-.3 2.3-.8.5-.5.8-1.2.8-2.1 0-1-.4-1.8-1.2-2.4-.8-.5-1.9-.8-3.5-.8h-.9v-3.5h.9c2.8 0 4.2-.9 4.2-2.9 0-.9-.3-1.5-.8-2s-1.2-.7-2.1-.7c-.9 0-1.6.3-2.2.9-.6.6-.9 1.4-1 2.4h-4.2c.1-2.2.8-3.9 2.1-5 1.3-1.2 3.1-1.8 5.4-1.8 1.5-.4 2.8-.1 3.8.4zm-196-39.8c-.5.9-1.3 1.7-2.4 2.2-1.1.6-2.4.8-3.9.8s-2.9-.3-4-.8c-1.2-.5-2.1-1.3-2.9-2.2-.7-1-1.1-2.1-1.2-3.4h4.5c.1.9.4 1.6 1 2.2.6.6 1.4.9 2.4.9.9 0 1.6-.2 2-.7.5-.5.7-1.1.7-1.8s-.2-1.2-.6-1.7c-.4-.4-.9-.8-1.4-1-.6-.3-1.4-.6-2.4-.9-1.3-.4-2.4-.9-3.3-1.3-.8-.4-1.6-1.1-2.2-1.9-.6-.8-.9-1.9-.9-3.2 0-1.8.7-3.3 2-4.3 1.3-1.1 3.1-1.6 5.2-1.6 2.3 0 4 .5 5.4 1.6 1.3 1.1 2.1 2.5 2.3 4.4h-4.6c-.1-.8-.4-1.4-1-1.9-.5-.5-1.2-.7-2.1-.7-.8 0-1.4.2-1.9.6-.5.4-.7 1-.7 1.8 0 .6.2 1.1.6 1.6.4.4.8.8 1.4 1 .6.3 1.4.6 2.3.9 1.4.5 2.5.9 3.3 1.4.9.4 1.6 1.1 2.2 1.9.6.8.9 2 .9 3.3.1.9-.2 1.9-.7 2.8zm13.4-12.4c0-.9-.2-1.7-.7-2.2-.5-.5-1.2-.8-2.1-.8-2 0-3 1.4-3.2 4.1h-4.1c.1-2.5.9-4.4 2.3-5.7 1.4-1.3 3.2-2 5.3-2 2.2 0 3.9.6 5.1 1.7 1.2 1.1 1.8 2.7 1.8 4.6 0 1.5-.4 3-1.3 4.5s-2 2.9-3.3 4.1c-1.3 1.3-2.8 2.3-4.3 3.3h9.3v3.5h-15v-3.2c6.7-4.8 10.2-8.7 10.2-11.9zm106.4 12.4c-.5.9-1.3 1.7-2.4 2.2-1.1.6-2.4.8-3.9.8s-2.9-.3-4-.8c-1.2-.5-2.1-1.3-2.9-2.2-.7-1-1.1-2.1-1.2-3.4h4.5c.1.9.4 1.6 1 2.2.6.6 1.4.9 2.4.9.9 0 1.6-.2 2-.7.5-.5.7-1.1.7-1.8s-.2-1.2-.6-1.7c-.4-.4-.9-.8-1.4-1-.6-.3-1.4-.6-2.4-.9-1.3-.4-2.4-.9-3.3-1.3-.8-.4-1.6-1.1-2.2-1.9-.6-.8-.9-1.9-.9-3.2 0-1.8.7-3.3 2-4.3 1.3-1.1 3.1-1.6 5.2-1.6 2.3 0 4 .5 5.4 1.6 1.3 1.1 2.1 2.5 2.3 4.4h-4.6c-.1-.8-.4-1.4-1-1.9-.5-.5-1.2-.7-2.1-.7-.8 0-1.4.2-1.9.6-.5.4-.7 1-.7 1.8 0 .6.2 1.1.6 1.6.4.4.8.8 1.4 1 .6.3 1.4.6 2.3.9 1.4.5 2.5.9 3.3 1.4.9.4 1.6 1.1 2.2 1.9.6.8.9 2 .9 3.3.1.9-.2 1.9-.7 2.8zm13.4-12.3c0-.9-.2-1.7-.7-2.2-.5-.5-1.2-.8-2.1-.8-2 0-3 1.4-3.2 4.1h-4.1c.1-2.5.9-4.4 2.3-5.7 1.4-1.3 3.2-2 5.3-2 2.2 0 3.9.6 5.1 1.7 1.2 1.1 1.8 2.7 1.8 4.6 0 1.5-.4 3-1.3 4.5s-2 2.9-3.3 4.1c-1.3 1.3-2.8 2.3-4.3 3.3h9.3v3.5h-15v-3.2c6.7-4.8 10.2-8.8 10.2-11.9zm-134.3 71.6c-.5.9-1.3 1.7-2.4 2.2-1.1.6-2.4.8-3.9.8s-2.9-.3-4-.8c-1.2-.5-2.1-1.3-2.9-2.2-.7-1-1.1-2.1-1.2-3.4h4.5c.1.9.4 1.6 1 2.2.6.6 1.4.9 2.4.9.9 0 1.6-.2 2-.7.5-.5.7-1.1.7-1.8s-.2-1.2-.6-1.7c-.4-.4-.9-.8-1.4-1-.6-.3-1.4-.6-2.4-.9-1.3-.4-2.4-.9-3.3-1.3-.8-.4-1.6-1.1-2.2-1.9-.6-.8-.9-1.9-.9-3.2 0-1.8.7-3.3 2-4.3 1.3-1.1 3.1-1.6 5.2-1.6 2.3 0 4 .5 5.4 1.6 1.3 1.1 2.1 2.5 2.3 4.4h-4.6c-.1-.8-.4-1.4-1-1.9-.5-.5-1.2-.7-2.1-.7-.8 0-1.4.2-1.9.6-.5.4-.7 1-.7 1.8 0 .6.2 1.1.6 1.6.4.4.8.8 1.4 1 .6.3 1.4.6 2.3.9 1.4.5 2.5.9 3.3 1.4.9.4 1.6 1.1 2.2 1.9.6.8.9 2 .9 3.3.1.9-.2 1.9-.7 2.8zm14.8-18.6c1 .5 1.8 1.2 2.4 2.1.5.9.8 1.9.8 3 0 1.4-.4 2.5-1.1 3.4-.7.9-1.7 1.4-3 1.6v.2c3 .9 4.5 2.6 4.5 5.3 0 1.8-.6 3.3-1.8 4.5-1.2 1.1-3 1.7-5.2 1.7-2.4 0-4.3-.6-5.7-1.8-1.4-1.2-2.2-3-2.4-5.3h4.2c.1 1.1.5 2 1.1 2.6.6.6 1.5 1 2.6 1 1 0 1.7-.3 2.3-.8.5-.5.8-1.2.8-2.1 0-1-.4-1.8-1.2-2.4-.8-.5-1.9-.8-3.5-.8h-.9V281h.9c2.8 0 4.2-.9 4.2-2.9 0-.9-.3-1.5-.8-2s-1.2-.7-2.1-.7c-.9 0-1.6.3-2.2.9-.6.6-.9 1.4-1 2.4H467c.1-2.2.8-3.9 2.1-5 1.3-1.2 3.1-1.8 5.4-1.8 1.5-.2 2.7.1 3.8.6z"/>
                <path d="M523.1 166.4c-.5.9-1.3 1.7-2.4 2.2-1.1.6-2.4.8-3.9.8s-2.9-.3-4-.8c-1.2-.5-2.1-1.3-2.9-2.2-.7-1-1.1-2.1-1.2-3.4h4.5c.1.9.4 1.6 1 2.2.6.6 1.4.9 2.4.9.9 0 1.6-.2 2-.7.5-.5.7-1.1.7-1.8s-.2-1.2-.6-1.7c-.4-.4-.9-.8-1.4-1-.6-.3-1.4-.6-2.4-.9-1.3-.4-2.4-.9-3.3-1.3-.8-.4-1.6-1.1-2.2-1.9-.6-.8-.9-1.9-.9-3.2 0-1.8.7-3.3 2-4.3 1.3-1.1 3.1-1.6 5.2-1.6 2.3 0 4 .5 5.4 1.6 1.3 1.1 2.1 2.5 2.3 4.4h-4.6c-.1-.8-.4-1.4-1-1.9-.5-.5-1.2-.7-2.1-.7-.8 0-1.4.2-1.9.6-.5.4-.7 1-.7 1.8 0 .6.2 1.1.6 1.6.4.4.8.8 1.4 1 .6.3 1.4.6 2.3.9 1.4.5 2.5.9 3.3 1.4.9.4 1.6 1.1 2.2 1.9.6.8.9 2 .9 3.3.1.8-.2 1.8-.7 2.8zM525.5 151.8v-4h7.7v21.4h-4.5v-17.4z"/>
                <path d="M453.6 68.5l-1.2 6.9h-2.1l1.2-6.9h2.1zm-1.6-2.7c.3-.3.6-.4 1.1-.4.3 0 .6.1.8.3.2.2.3.4.3.7 0 .4-.1.7-.4.9-.3.3-.6.4-1.1.4-.3 0-.6-.1-.8-.3-.2-.2-.3-.4-.3-.7 0-.3.1-.7.4-.9zm9 3.2c.4.4.6.9.6 1.6 0 .2 0 .5-.1.8l-.7 4h-2.1l.7-3.8v-.4c0-.3-.1-.6-.3-.8-.2-.2-.5-.3-.8-.3-.4 0-.8.1-1.1.4-.3.3-.5.7-.6 1.2l-.6 3.7h-2.1l1.2-6.9h2.1l-.2 1.2c.3-.4.6-.7 1.1-1 .4-.2.9-.4 1.5-.4.5.1 1.1.3 1.4.7zm8.6.1c.4.5.7 1.1.7 2 0 .3 0 .6-.1.9-.1.7-.4 1.4-.7 1.9-.4.5-.8 1-1.3 1.2-.5.3-1 .4-1.6.4-.5 0-1-.1-1.3-.4-.3-.3-.6-.6-.7-1l-.8 4.6h-2.1l1.8-10.3h2.1l-.2 1.3c.2-.4.6-.7 1-1 .4-.2.9-.4 1.4-.4.7.1 1.3.3 1.8.8zm-2.2 4.1c.3-.3.5-.7.6-1.2v-.4c0-.4-.1-.7-.3-.9-.2-.2-.5-.3-.9-.3s-.8.2-1.2.5c-.3.3-.6.7-.6 1.2v.4c0 .4.1.7.3 1 .2.2.5.3.9.3.4-.2.8-.3 1.2-.6zm11.3-4.7l-1.2 6.9h-2.1l.2-1.3c-.3.4-.6.7-1.1 1-.4.2-.9.4-1.5.4-.7 0-1.2-.2-1.6-.6-.4-.4-.6-.9-.6-1.6 0-.2 0-.5.1-.8l.7-4h2.1l-.7 3.8v.4c0 .4.1.6.3.8.2.2.5.3.8.3.4 0 .8-.1 1.1-.4.3-.3.5-.7.6-1.2l.7-3.7h2.2zm3.1 4.4v.2c0 .2 0 .3.1.4.1.1.3.1.5.1h.7l-.3 1.8h-1c-.7 0-1.2-.1-1.6-.4-.4-.3-.6-.8-.6-1.4 0-.3 0-.5.1-.7l.4-2.6h-.9l.3-1.8h.9l.3-1.7h2.1l-.3 1.7h1.4l-.3 1.8h-1.4l-.4 2.6zm-59.2 36.8c-.3.3-.7.6-1.1.8-.5.2-1 .3-1.6.3-1 0-1.8-.2-2.4-.7-.6-.5-.9-1.2-.9-2h2.3c0 .3 0 .6.2.8.2.2.4.3.8.3.3 0 .5-.1.7-.3.2-.2.3-.4.3-.7 0-.2-.1-.4-.2-.5-.1-.1-.3-.3-.5-.4-.2-.1-.5-.2-.8-.4-.5-.2-.9-.4-1.2-.5-.3-.2-.5-.4-.8-.7-.2-.3-.3-.7-.3-1.2v-.6c.1-.6.5-1.2 1.1-1.5.6-.4 1.3-.6 2.2-.6 1 0 1.8.2 2.3.7.5.5.8 1.1.8 1.9h-2.3c0-.3-.1-.5-.2-.7-.2-.2-.4-.3-.7-.3-.3 0-.5.1-.7.2-.2.2-.3.4-.3.7 0 .2.1.4.2.5.1.1.3.3.5.3s.4.2.8.3c.5.2.9.4 1.2.5.3.2.5.4.8.7.2.3.3.7.3 1.2v.6c0 .6-.2 1-.5 1.3zm4.3-1.5v.2c0 .2 0 .3.1.4.1.1.3.1.5.1h.7l-.3 1.8h-1c-.7 0-1.2-.1-1.6-.4-.4-.3-.6-.8-.6-1.4 0-.3 0-.5.1-.7l.4-2.6h-.9l.3-1.8h.9l.3-1.7h2.1l-.3 1.7h1.4l-.3 1.8h-1.4l-.4 2.6zm7.5-4.1c.4.2.6.6.7 1l.2-1.3h2.1l-1.2 6.9h-2.1l.2-1.3c-.2.4-.6.7-1 1-.4.2-.9.4-1.5.4-.8 0-1.4-.2-1.8-.7-.4-.5-.7-1.2-.7-2 0-.3 0-.7.1-1 .1-.7.4-1.3.7-1.8.3-.5.8-.9 1.3-1.2.5-.3 1-.4 1.6-.4.6 0 1 .2 1.4.4zm-2.1 2c-.3.3-.5.7-.6 1.2v.4c0 .4.1.7.3.9.2.2.5.3.9.3s.8-.2 1.2-.5c.3-.3.6-.7.6-1.2v-.4c0-.4-.1-.7-.3-1-.2-.2-.5-.3-.9-.3-.5.1-.9.3-1.2.6zm8.2 2.1v.2c0 .2 0 .3.1.4.1.1.3.1.5.1h.7l-.3 1.8h-1c-.7 0-1.2-.1-1.6-.4-.4-.3-.6-.8-.6-1.4 0-.3 0-.5.1-.7l.4-2.6h-.9l.3-1.8h.9l.3-1.7h2.1l-.3 1.7h1.4l-.3 1.8h-1.4l-.4 2.6zm8.8-3.7c.5.5.8 1.1.8 1.9 0 .2 0 .4-.1.7 0 .2-.1.4-.2.6H445v.3c0 .8.4 1.1 1.1 1.1.3 0 .6-.1.8-.2.2-.2.4-.4.5-.6h2.3c-.3.8-.7 1.4-1.4 1.8-.7.4-1.5.7-2.4.7-.9 0-1.6-.2-2.1-.7-.5-.5-.8-1.2-.8-2.1 0-.3 0-.5.1-.8.1-.7.4-1.3.8-1.8s.9-.9 1.5-1.2c.6-.3 1.2-.4 1.9-.4.8-.1 1.5.2 2 .7zm-1.3 1.9c0-.3-.1-.6-.3-.7-.2-.2-.5-.2-.8-.2-.4 0-.7.1-1 .3-.3.2-.5.6-.6 1h2.7c-.1-.2 0-.3 0-.4zm144-9.3c.9.5 1.6 1.3 2.1 2.4.5 1 .8 2.2.8 3.6s-.3 2.6-.8 3.6-1.2 1.8-2.1 2.4c-.9.6-1.9.8-3 .8s-2.1-.3-2.9-.8c-.8-.5-1.4-1.3-1.7-2.1v2.8H581V92h3.4v7.2c.3-.9.9-1.6 1.7-2.1.8-.5 1.7-.8 2.9-.8 1.1 0 2.1.2 3 .8zm-6.6 3.1c-.7.7-1 1.6-1 2.8 0 1.2.3 2.1 1 2.8.7.7 1.5 1 2.5 1 1.1 0 1.9-.3 2.5-1 .6-.7 1-1.6 1-2.8 0-1.2-.3-2.1-1-2.8-.7-.7-1.5-1-2.5-1s-1.9.4-2.5 1zM355.2 238.8c.9.5 1.6 1.3 2.1 2.4.5 1 .8 2.2.8 3.6s-.3 2.6-.8 3.6-1.2 1.8-2.1 2.4c-.9.6-1.9.8-3 .8s-2.1-.3-2.9-.8c-.8-.5-1.4-1.3-1.7-2.1v2.8h-3.4v-17.8h3.4v7.2c.3-.9.9-1.6 1.7-2.1.8-.5 1.7-.8 2.9-.8 1.1 0 2.1.3 3 .8zm-6.6 3.2c-.7.7-1 1.6-1 2.8 0 1.2.3 2.1 1 2.8.7.7 1.5 1 2.5 1 1.1 0 1.9-.3 2.5-1 .6-.7 1-1.6 1-2.8 0-1.2-.3-2.1-1-2.8-.7-.7-1.5-1-2.5-1-1-.1-1.8.3-2.5 1zm-110.5-80.3c.9.5 1.6 1.3 2.1 2.4.5 1 .8 2.2.8 3.6s-.3 2.6-.8 3.6-1.2 1.8-2.1 2.4c-.9.6-1.9.8-3 .8s-2.1-.3-2.9-.8c-.8-.5-1.4-1.3-1.7-2.1v2.8h-3.4v-17.8h3.4v7.2c.3-.9.9-1.6 1.7-2.1.8-.5 1.7-.8 2.9-.8 1.1 0 2.1.2 3 .8zm-6.6 3.2c-.7.7-1 1.6-1 2.8 0 1.2.3 2.1 1 2.8.7.7 1.5 1 2.5 1 1.1 0 1.9-.3 2.5-1 .6-.7 1-1.6 1-2.8 0-1.2-.3-2.1-1-2.8-.7-.7-1.5-1-2.5-1-1-.1-1.8.3-2.5 1z"/>
            </g>
        </g>
        <text class="text" font-family="PTMono-Regular, PT Mono" font-size="52" transform="translate(2)">
            <tspan x="194" y="442">“abc”</tspan>
        </text>
    </g>
</svg>
