<?xml version="1.0" encoding="UTF-8"?>
<svg width="682px" height="508px" viewBox="0 0 682 508" version="1.1" xmlns="http://www.w3.org/2000/svg" xmlns:xlink="http://www.w3.org/1999/xlink">
    <g id="Page-1" stroke="none" stroke-width="1" fill="none" fill-rule="evenodd">
        <g id="Group-4" transform="translate(2.000000, 0.000000)">
            <g id="DFA_table">
                <g id="Group" stroke-linecap="round" transform="translate(217.000000, 186.000000)" stroke="#000000" stroke-width="4">
                    <path d="M0.2,26.8 C16.3,3.1 48,-7 74.5,5.5 C103.9,19.4 116.5,54.5 102.6,83.9 C88.7,113.3 53.6,125.9 24.2,112 C20,110 16.1,107.5 12.5,104.7" id="Shape"></path>
                    <polyline id="Shape" stroke-linejoin="round" points="25.9 104.4 11.8 104.2 17.5 117.2"></polyline>
                </g>
                <circle id="Oval" stroke="#000000" stroke-width="4" fill="#F5A623" cx="213.7" cy="247.6" r="28.7"></circle>
                <circle id="Oval" stroke="#000000" stroke-width="4" cx="213.7" cy="247.6" r="34.9"></circle>
                <path d="M110.4,240.9 L97.2,250.1 L110.4,259.4 M178.4,250.1 L97.2,250.1 M77.9,200.6 L78.8,216.4 L93.4,210 M120.7,147.9 L78.8,216.4 M195.4,200.6 L194.4,216.4 L179.9,210 M152.6,147.9 L194.4,216.4" id="Shape" stroke="#000000" stroke-width="4" stroke-linecap="round" stroke-linejoin="round"></path>
                <circle id="Oval" stroke="#000000" stroke-width="4" cx="61.9" cy="251.3" r="28.7"></circle>
                <circle id="Oval" stroke="#000000" stroke-width="4" cx="61.9" cy="251.3" r="34.9"></circle>
                <g id="Group" stroke-linecap="round" transform="translate(0.000000, 255.000000)" stroke="#000000" stroke-width="4">
                    <path d="M27.3,0.9 C3.5,17 -6.7,48.7 5.8,75.3 C19.7,104.7 54.8,117.3 84.2,103.4 C113.6,89.5 126.2,54.4 112.3,25 C110.3,20.8 107.8,16.9 105,13.3" id="Shape"></path>
                    <polyline id="Shape" stroke-linejoin="round" points="104.7 26.7 104.5 12.6 117.5 18.3"></polyline>
                </g>
                <path d="M75.5,149.1 C76.9,150.2 77.8,151.7 78.3,153.5 L74.7,153.5 C74.3,152.6 73.8,151.9 73,151.3 C72.2,150.8 71.3,150.5 70.2,150.5 C69.3,150.5 68.5,150.7 67.8,151.2 C67.1,151.6 66.5,152.3 66.1,153.1 C65.7,153.9 65.5,154.9 65.5,156 C65.5,157.1 65.7,158.1 66.1,158.9 C66.5,159.7 67.1,160.4 67.8,160.8 C68.5,161.2 69.3,161.5 70.2,161.5 C71.3,161.5 72.2,161.2 73,160.7 C73.8,160.2 74.3,159.5 74.7,158.5 L78.3,158.5 C77.9,160.4 76.9,161.9 75.5,162.9 C74.1,164 72.4,164.5 70.2,164.5 C68.6,164.5 67.2,164.1 65.9,163.4 C64.7,162.7 63.7,161.7 63,160.3 C62.3,159 62,157.5 62,155.8 C62,154.1 62.3,152.6 63,151.3 C63.7,150 64.6,149 65.9,148.2 C67.1,147.5 68.6,147.1 70.2,147.1 C72.3,147.5 74.1,148 75.5,149.1 Z M63.5,379.7 C64.9,380.8 65.8,382.3 66.3,384.1 L62.7,384.1 C62.3,383.2 61.8,382.5 61,381.9 C60.2,381.4 59.3,381.1 58.2,381.1 C57.3,381.1 56.5,381.3 55.8,381.8 C55.1,382.2 54.5,382.9 54.1,383.7 C53.7,384.5 53.5,385.5 53.5,386.6 C53.5,387.7 53.7,388.7 54.1,389.5 C54.5,390.3 55.1,391 55.8,391.4 C56.5,391.8 57.3,392.1 58.2,392.1 C59.3,392.1 60.2,391.8 61,391.3 C61.8,390.8 62.3,390.1 62.7,389.1 L66.3,389.1 C65.9,391 64.9,392.5 63.5,393.5 C62.1,394.6 60.4,395.1 58.2,395.1 C56.6,395.1 55.2,394.7 53.9,394 C52.7,393.3 51.7,392.3 51,390.9 C50.3,389.6 50,388.1 50,386.4 C50,384.7 50.3,383.2 51,381.9 C51.7,380.6 52.6,379.6 53.9,378.8 C55.1,378.1 56.6,377.7 58.2,377.7 C60.3,378.1 62.1,378.6 63.5,379.7 Z M148.5,260.6 C149.9,261.7 150.8,263.2 151.3,265 L147.7,265 C147.3,264.1 146.8,263.4 146,262.8 C145.2,262.3 144.3,262 143.2,262 C142.3,262 141.5,262.2 140.8,262.7 C140.1,263.1 139.5,263.8 139.1,264.6 C138.7,265.4 138.5,266.4 138.5,267.5 C138.5,268.6 138.7,269.6 139.1,270.4 C139.5,271.2 140.1,271.9 140.8,272.3 C141.5,272.7 142.3,273 143.2,273 C144.3,273 145.2,272.7 146,272.2 C146.8,271.7 147.3,271 147.7,270 L151.3,270 C150.9,271.9 149.9,273.4 148.5,274.4 C147.1,275.5 145.4,276 143.2,276 C141.6,276 140.2,275.6 138.9,274.9 C137.7,274.2 136.7,273.2 136,271.8 C135.3,270.5 135,269 135,267.3 C135,265.6 135.3,264.1 136,262.8 C136.7,261.5 137.6,260.5 138.9,259.7 C140.1,259 141.6,258.6 143.2,258.6 C145.3,259 147.1,259.5 148.5,260.6 Z" id="Shape" fill="#000000" fill-rule="nonzero"></path>
                <path d="M76.1,108.3 L89.1,117.3 L76.1,126.3 M47.6,117.3 L89.1,117.3" id="Shape" stroke="#000000" stroke-width="4" stroke-linecap="round" stroke-linejoin="round"></path>
                <path d="M203.6,0.9 C204.4,1.4 205,2.1 205.3,3 L205.3,0.2 L208.7,0.2 L208.7,13.5 L205.3,13.5 L205.3,10.7 C205,11.6 204.4,12.3 203.6,12.8 C202.8,13.3 201.8,13.6 200.7,13.6 C199.6,13.6 198.6,13.3 197.7,12.8 C196.8,12.3 196.1,11.5 195.6,10.4 C195.1,9.4 194.8,8.2 194.8,6.8 C194.8,5.4 195.1,4.2 195.6,3.2 C196.1,2.2 196.8,1.4 197.7,0.8 C198.6,0.3 199.6,-8.8817842e-16 200.7,-8.8817842e-16 C201.8,0.1 202.8,0.3 203.6,0.9 Z M199.2,4.1 C198.6,4.8 198.2,5.7 198.2,6.9 C198.2,8.1 198.5,9 199.2,9.7 C199.8,10.4 200.7,10.7 201.7,10.7 C202.7,10.7 203.6,10.4 204.2,9.7 C204.9,9 205.2,8.1 205.2,6.9 C205.2,5.7 204.9,4.8 204.2,4.1 C203.5,3.4 202.7,3.1 201.7,3.1 C200.7,3 199.8,3.4 199.2,4.1 Z" id="Shape" fill="#000000" fill-rule="nonzero"></path>
                <circle id="Oval" stroke="#000000" stroke-width="4.0000329" transform="translate(136.330480, 114.213710) rotate(-75.037000) translate(-136.330480, -114.213710) " cx="136.33048" cy="114.21371" r="28.7002361"></circle>
                <circle id="Oval" stroke="#000000" stroke-width="4.0000329" transform="translate(136.330480, 114.213710) rotate(-75.037000) translate(-136.330480, -114.213710) " cx="136.33048" cy="114.21371" r="34.9002871"></circle>
                <g id="Group" stroke-linecap="round" transform="translate(89.000000, 2.000000)" stroke="#000000" stroke-width="4">
                    <path d="M15.1,98.8 C-3.7,77.1 -5.4,43.8 13.6,21.4 C34.6,-3.4 71.7,-6.5 96.6,14.5 C121.4,35.5 124.5,72.6 103.5,97.5 C100.5,101.1 97.1,104.2 93.5,106.9" id="Shape"></path>
                    <polyline id="Shape" stroke-linejoin="round" points="96.6 93.8 92.7 107.5 106.7 105.3"></polyline>
                </g>
                <path d="M59.8,258.3 C59.3,259.2 58.5,260 57.4,260.5 C56.3,261.1 55,261.3 53.5,261.3 C52,261.3 50.6,261 49.5,260.5 C48.3,260 47.4,259.2 46.6,258.3 C45.9,257.3 45.5,256.2 45.4,254.9 L49.9,254.9 C50,255.8 50.3,256.5 50.9,257.1 C51.5,257.7 52.3,258 53.3,258 C54.2,258 54.9,257.8 55.3,257.3 C55.8,256.8 56,256.2 56,255.5 C56,254.8 55.8,254.3 55.4,253.8 C55,253.4 54.5,253 54,252.8 C53.4,252.5 52.6,252.2 51.6,251.9 C50.3,251.5 49.2,251 48.3,250.6 C47.5,250.2 46.7,249.5 46.1,248.7 C45.5,247.9 45.2,246.8 45.2,245.5 C45.2,243.7 45.9,242.2 47.2,241.2 C48.5,240.1 50.3,239.6 52.4,239.6 C54.7,239.6 56.4,240.1 57.8,241.2 C59.1,242.3 59.9,243.7 60.1,245.6 L55.5,245.6 C55.4,244.8 55.1,244.2 54.5,243.7 C54,243.2 53.3,243 52.4,243 C51.6,243 51,243.2 50.5,243.6 C50,244 49.8,244.6 49.8,245.4 C49.8,246 50,246.5 50.4,247 C50.8,247.4 51.2,247.8 51.8,248 C52.4,248.3 53.2,248.6 54.1,248.9 C55.5,249.4 56.6,249.8 57.4,250.3 C58.3,250.7 59,251.4 59.6,252.2 C60.2,253 60.5,254.2 60.5,255.5 C60.6,256.4 60.3,257.4 59.8,258.3 Z M74.6,239.7 C75.6,240.2 76.4,240.9 77,241.8 C77.5,242.7 77.8,243.7 77.8,244.8 C77.8,246.2 77.4,247.3 76.7,248.2 C76,249.1 75,249.6 73.7,249.8 L73.7,250 C76.7,250.9 78.2,252.6 78.2,255.3 C78.2,257.1 77.6,258.6 76.4,259.8 C75.2,260.9 73.4,261.5 71.2,261.5 C68.8,261.5 66.9,260.9 65.5,259.7 C64.1,258.5 63.3,256.7 63.1,254.4 L67.3,254.4 C67.4,255.5 67.8,256.4 68.4,257 C69,257.6 69.9,258 71,258 C72,258 72.7,257.7 73.3,257.2 C73.8,256.7 74.1,256 74.1,255.1 C74.1,254.1 73.7,253.3 72.9,252.7 C72.1,252.2 71,251.9 69.4,251.9 L68.5,251.9 L68.5,248.4 L69.4,248.4 C72.2,248.4 73.6,247.5 73.6,245.5 C73.6,244.6 73.3,244 72.8,243.5 C72.3,243 71.6,242.8 70.7,242.8 C69.8,242.8 69.1,243.1 68.5,243.7 C67.9,244.3 67.6,245.1 67.5,246.1 L63.3,246.1 C63.4,243.9 64.1,242.2 65.4,241.1 C66.7,239.9 68.5,239.3 70.8,239.3 C72.3,238.9 73.6,239.2 74.6,239.7 Z M137.3,121.5 C136.8,122.4 136,123.2 134.9,123.7 C133.8,124.3 132.5,124.5 131,124.5 C129.5,124.5 128.1,124.2 127,123.7 C125.8,123.2 124.9,122.4 124.1,121.5 C123.4,120.5 123,119.4 122.9,118.1 L127.4,118.1 C127.5,119 127.8,119.7 128.4,120.3 C129,120.9 129.8,121.2 130.8,121.2 C131.7,121.2 132.4,121 132.8,120.5 C133.3,120 133.5,119.4 133.5,118.7 C133.5,118 133.3,117.5 132.9,117 C132.5,116.6 132,116.2 131.5,116 C130.9,115.7 130.1,115.4 129.1,115.1 C127.8,114.7 126.7,114.2 125.8,113.8 C125,113.4 124.2,112.7 123.6,111.9 C123,111.1 122.7,110 122.7,108.7 C122.7,106.9 123.4,105.4 124.7,104.4 C126,103.3 127.8,102.8 129.9,102.8 C132.2,102.8 133.9,103.3 135.3,104.4 C136.6,105.5 137.4,106.9 137.6,108.8 L133,108.8 C132.9,108 132.6,107.4 132,106.9 C131.5,106.4 130.8,106.2 129.9,106.2 C129.1,106.2 128.5,106.4 128,106.8 C127.5,107.2 127.3,107.8 127.3,108.6 C127.3,109.2 127.5,109.7 127.9,110.2 C128.3,110.6 128.7,111 129.3,111.2 C129.9,111.5 130.7,111.8 131.6,112.1 C133,112.6 134.1,113 134.9,113.5 C135.8,113.9 136.5,114.6 137.1,115.4 C137.7,116.2 138,117.4 138,118.7 C138.1,119.6 137.8,120.6 137.3,121.5 Z M139.6,107 L139.6,103 L147.3,103 L147.3,124.4 L142.8,124.4 L142.8,107 L139.6,107 Z M212.3,255.7 C211.8,256.6 211,257.4 209.9,257.9 C208.8,258.5 207.5,258.7 206,258.7 C204.5,258.7 203.1,258.4 202,257.9 C200.8,257.4 199.9,256.6 199.1,255.7 C198.4,254.7 198,253.6 197.9,252.3 L202.4,252.3 C202.5,253.2 202.8,253.9 203.4,254.5 C204,255.1 204.8,255.4 205.8,255.4 C206.7,255.4 207.4,255.2 207.8,254.7 C208.3,254.2 208.5,253.6 208.5,252.9 C208.5,252.2 208.3,251.7 207.9,251.2 C207.5,250.8 207,250.4 206.5,250.2 C205.9,249.9 205.1,249.6 204.1,249.3 C202.8,248.9 201.7,248.4 200.8,248 C200,247.6 199.2,246.9 198.6,246.1 C198,245.3 197.7,244.2 197.7,242.9 C197.7,241.1 198.4,239.6 199.7,238.6 C201,237.5 202.8,237 204.9,237 C207.2,237 208.9,237.5 210.3,238.6 C211.6,239.7 212.4,241.1 212.6,243 L208,243 C207.9,242.2 207.6,241.6 207,241.1 C206.5,240.6 205.8,240.4 204.9,240.4 C204.1,240.4 203.5,240.6 203,241 C202.5,241.4 202.3,242 202.3,242.8 C202.3,243.4 202.5,243.9 202.9,244.4 C203.3,244.8 203.7,245.2 204.3,245.4 C204.9,245.7 205.7,246 206.6,246.3 C208,246.8 209.1,247.2 209.9,247.7 C210.8,248.1 211.5,248.8 212.1,249.6 C212.7,250.4 213,251.6 213,252.9 C213.1,253.7 212.8,254.7 212.3,255.7 Z M225.7,243.3 C225.7,242.4 225.5,241.6 225,241.1 C224.5,240.6 223.8,240.3 222.9,240.3 C220.9,240.3 219.9,241.7 219.7,244.4 L215.6,244.4 C215.7,241.9 216.5,240 217.9,238.7 C219.3,237.4 221.1,236.7 223.2,236.7 C225.4,236.7 227.1,237.3 228.3,238.4 C229.5,239.5 230.1,241.1 230.1,243 C230.1,244.5 229.7,246 228.8,247.5 C227.9,249 226.8,250.4 225.5,251.6 C224.2,252.9 222.7,253.9 221.2,254.9 L230.5,254.9 L230.5,258.4 L215.5,258.4 L215.5,255.2 C222.3,250.4 225.7,246.4 225.7,243.3 Z" id="Shape" fill="#000000" fill-rule="nonzero"></path>
                <path d="M490.4,81.1 L490.4,299.9 M555.4,81.1 L555.4,299.9 M620.4,81.1 L620.4,299.9 M433.7,255.5 L677.7,255.5 M433.7,190.5 L677.7,190.5 M433.7,125.5 L677.7,125.5" id="Shape" stroke="#000000" stroke-width="4" stroke-linecap="round"></path>
                <path d="M522.7,96.1 C523.5,96.6 524.1,97.3 524.4,98.2 L524.4,95.4 L527.8,95.4 L527.8,108.7 L524.4,108.7 L524.4,106 C524.1,106.9 523.5,107.6 522.7,108.1 C521.9,108.6 520.9,108.9 519.8,108.9 C518.7,108.9 517.7,108.6 516.8,108.1 C515.9,107.6 515.2,106.8 514.7,105.7 C514.2,104.7 513.9,103.5 513.9,102.1 C513.9,100.7 514.2,99.5 514.7,98.5 C515.2,97.5 515.9,96.7 516.8,96.1 C517.7,95.6 518.7,95.3 519.8,95.3 C521,95.3 521.9,95.6 522.7,96.1 Z M518.4,99.3 C517.8,100 517.4,100.9 517.4,102.1 C517.4,103.3 517.7,104.2 518.4,104.9 C519,105.6 519.9,105.9 520.9,105.9 C521.9,105.9 522.8,105.6 523.4,104.9 C524.1,104.2 524.4,103.3 524.4,102.1 C524.4,100.9 524.1,100 523.4,99.3 C522.7,98.6 521.9,98.3 520.9,98.3 C519.8,98.3 519,98.6 518.4,99.3 Z M655,95.1 C656.4,96.2 657.3,97.7 657.8,99.5 L654.2,99.5 C653.8,98.6 653.3,97.9 652.5,97.3 C651.7,96.8 650.8,96.5 649.7,96.5 C648.8,96.5 648,96.7 647.3,97.2 C646.6,97.6 646,98.3 645.6,99.1 C645.2,99.9 645,100.9 645,102 C645,103.1 645.2,104.1 645.6,104.9 C646,105.7 646.6,106.4 647.3,106.8 C648,107.2 648.8,107.5 649.7,107.5 C650.8,107.5 651.7,107.2 652.5,106.7 C653.3,106.2 653.8,105.5 654.2,104.5 L657.8,104.5 C657.4,106.4 656.4,107.9 655,108.9 C653.6,110 651.9,110.5 649.7,110.5 C648.1,110.5 646.7,110.1 645.4,109.4 C644.2,108.7 643.2,107.7 642.5,106.3 C641.8,105 641.5,103.5 641.5,101.8 C641.5,100.1 641.8,98.6 642.5,97.3 C643.2,96 644.1,95 645.4,94.2 C646.6,93.5 648.1,93.1 649.7,93.1 C651.9,93.5 653.7,94.1 655,95.1 Z M465.7,166.4 C465.2,167.3 464.4,168.1 463.3,168.6 C462.2,169.2 460.9,169.4 459.4,169.4 C457.9,169.4 456.5,169.1 455.4,168.6 C454.2,168.1 453.3,167.3 452.5,166.4 C451.8,165.4 451.4,164.3 451.3,163 L455.8,163 C455.9,163.9 456.2,164.6 456.8,165.2 C457.4,165.8 458.2,166.1 459.2,166.1 C460.1,166.1 460.8,165.9 461.2,165.4 C461.7,164.9 461.9,164.3 461.9,163.6 C461.9,162.9 461.7,162.4 461.3,161.9 C460.9,161.5 460.4,161.1 459.9,160.9 C459.3,160.6 458.5,160.3 457.5,160 C456.2,159.6 455.1,159.1 454.2,158.7 C453.4,158.3 452.6,157.6 452,156.8 C451.4,156 451.1,154.9 451.1,153.6 C451.1,151.8 451.8,150.3 453.1,149.3 C454.4,148.2 456.2,147.7 458.3,147.7 C460.6,147.7 462.3,148.2 463.7,149.3 C465,150.4 465.8,151.8 466,153.7 L461.4,153.7 C461.3,152.9 461,152.3 460.4,151.8 C459.9,151.3 459.2,151.1 458.3,151.1 C457.5,151.1 456.9,151.3 456.4,151.7 C455.9,152.1 455.7,152.7 455.7,153.5 C455.7,154.1 455.9,154.6 456.3,155.1 C456.7,155.5 457.1,155.9 457.7,156.1 C458.3,156.4 459.1,156.7 460,157 C461.4,157.5 462.5,157.9 463.3,158.4 C464.2,158.8 464.9,159.5 465.5,160.3 C466.1,161.1 466.4,162.3 466.4,163.6 C466.5,164.4 466.3,165.4 465.7,166.4 Z M468.1,151.8 L468.1,147.8 L475.8,147.8 L475.8,169.2 L471.3,169.2 L471.3,151.8 L468.1,151.8 Z M585.4,166.5 C584.9,167.4 584.1,168.2 583,168.7 C581.9,169.3 580.6,169.5 579.1,169.5 C577.6,169.5 576.2,169.2 575.1,168.7 C573.9,168.2 573,167.4 572.2,166.5 C571.5,165.5 571.1,164.4 571,163.1 L575.5,163.1 C575.6,164 575.9,164.7 576.5,165.3 C577.1,165.9 577.9,166.2 578.9,166.2 C579.8,166.2 580.5,166 580.9,165.5 C581.4,165 581.6,164.4 581.6,163.7 C581.6,163 581.4,162.5 581,162 C580.6,161.6 580.1,161.2 579.6,161 C579,160.7 578.2,160.4 577.2,160.1 C575.9,159.7 574.8,159.2 573.9,158.8 C573.1,158.4 572.3,157.7 571.7,156.9 C571.1,156.1 570.8,155 570.8,153.7 C570.8,151.9 571.5,150.4 572.8,149.4 C574.1,148.3 575.9,147.8 578,147.8 C580.3,147.8 582,148.3 583.4,149.4 C584.7,150.5 585.5,151.9 585.7,153.8 L581.1,153.8 C581,153 580.7,152.4 580.1,151.9 C579.6,151.4 578.9,151.2 578,151.2 C577.2,151.2 576.6,151.4 576.1,151.8 C575.6,152.2 575.4,152.8 575.4,153.6 C575.4,154.2 575.6,154.7 576,155.2 C576.4,155.6 576.8,156 577.4,156.2 C578,156.5 578.8,156.8 579.7,157.1 C581.1,157.6 582.2,158 583,158.5 C583.9,158.9 584.6,159.6 585.2,160.4 C585.8,161.2 586.1,162.4 586.1,163.7 C586.2,164.6 585.9,165.6 585.4,166.5 Z M598.8,154.1 C598.8,153.2 598.6,152.4 598.1,151.9 C597.6,151.4 596.9,151.1 596,151.1 C594,151.1 593,152.5 592.8,155.2 L588.7,155.2 C588.8,152.7 589.6,150.8 591,149.5 C592.4,148.2 594.2,147.5 596.3,147.5 C598.5,147.5 600.2,148.1 601.4,149.2 C602.6,150.3 603.2,151.9 603.2,153.8 C603.2,155.3 602.8,156.8 601.9,158.3 C601,159.8 599.9,161.2 598.6,162.4 C597.3,163.7 595.8,164.7 594.3,165.7 L603.6,165.7 L603.6,169.2 L588.6,169.2 L588.6,166 C595.4,161.2 598.8,157.3 598.8,154.1 Z M647.9,166.5 C647.4,167.4 646.6,168.2 645.5,168.7 C644.4,169.3 643.1,169.5 641.6,169.5 C640.1,169.5 638.7,169.2 637.6,168.7 C636.4,168.2 635.5,167.4 634.7,166.5 C634,165.5 633.6,164.4 633.5,163.1 L638,163.1 C638.1,164 638.4,164.7 639,165.3 C639.6,165.9 640.4,166.2 641.4,166.2 C642.3,166.2 643,166 643.4,165.5 C643.9,165 644.1,164.4 644.1,163.7 C644.1,163 643.9,162.5 643.5,162 C643.1,161.6 642.6,161.2 642.1,161 C641.5,160.7 640.7,160.4 639.7,160.1 C638.4,159.7 637.3,159.2 636.4,158.8 C635.6,158.4 634.8,157.7 634.2,156.9 C633.6,156.1 633.3,155 633.3,153.7 C633.3,151.9 634,150.4 635.3,149.4 C636.6,148.3 638.4,147.8 640.5,147.8 C642.8,147.8 644.5,148.3 645.9,149.4 C647.2,150.5 648,151.9 648.2,153.8 L643.6,153.8 C643.5,153 643.2,152.4 642.6,151.9 C642.1,151.4 641.4,151.2 640.5,151.2 C639.7,151.2 639.1,151.4 638.6,151.8 C638.1,152.2 637.9,152.8 637.9,153.6 C637.9,154.2 638.1,154.7 638.5,155.2 C638.9,155.6 639.3,156 639.9,156.2 C640.5,156.5 641.3,156.8 642.2,157.1 C643.6,157.6 644.7,158 645.5,158.5 C646.4,158.9 647.1,159.6 647.7,160.4 C648.3,161.2 648.6,162.4 648.6,163.7 C648.7,164.5 648.4,165.6 647.9,166.5 Z M662.7,147.9 C663.7,148.4 664.5,149.1 665.1,150 C665.6,150.9 665.9,151.9 665.9,153 C665.9,154.4 665.5,155.5 664.8,156.4 C664.1,157.3 663.1,157.8 661.8,158 L661.8,158.2 C664.8,159.1 666.3,160.8 666.3,163.5 C666.3,165.3 665.7,166.8 664.5,168 C663.3,169.1 661.5,169.7 659.3,169.7 C656.9,169.7 655,169.1 653.6,167.9 C652.2,166.7 651.4,164.9 651.2,162.6 L655.4,162.6 C655.5,163.7 655.9,164.6 656.5,165.2 C657.1,165.8 658,166.2 659.1,166.2 C660.1,166.2 660.8,165.9 661.4,165.4 C661.9,164.9 662.2,164.2 662.2,163.3 C662.2,162.3 661.8,161.5 661,160.9 C660.2,160.4 659.1,160.1 657.5,160.1 L656.6,160.1 L656.6,156.6 L657.5,156.6 C660.3,156.6 661.7,155.7 661.7,153.7 C661.7,152.8 661.4,152.2 660.9,151.7 C660.4,151.2 659.7,151 658.8,151 C657.9,151 657.2,151.3 656.6,151.9 C656,152.5 655.7,153.3 655.6,154.3 L651.4,154.3 C651.5,152.1 652.2,150.4 653.5,149.3 C654.8,148.1 656.6,147.5 658.9,147.5 C660.4,147.1 661.7,147.4 662.7,147.9 Z M646.7,231.3 C646.2,232.2 645.4,233 644.3,233.5 C643.2,234.1 641.9,234.3 640.4,234.3 C638.9,234.3 637.5,234 636.4,233.5 C635.2,233 634.3,232.2 633.5,231.3 C632.8,230.3 632.4,229.2 632.3,227.9 L636.8,227.9 C636.9,228.8 637.2,229.5 637.8,230.1 C638.4,230.7 639.2,231 640.2,231 C641.1,231 641.8,230.8 642.2,230.3 C642.7,229.8 642.9,229.2 642.9,228.5 C642.9,227.8 642.7,227.3 642.3,226.8 C641.9,226.4 641.4,226 640.9,225.8 C640.3,225.5 639.5,225.2 638.5,224.9 C637.2,224.5 636.1,224 635.2,223.6 C634.4,223.2 633.6,222.5 633,221.7 C632.4,220.9 632.1,219.8 632.1,218.5 C632.1,216.7 632.8,215.2 634.1,214.2 C635.4,213.1 637.2,212.6 639.3,212.6 C641.6,212.6 643.3,213.1 644.7,214.2 C646,215.3 646.8,216.7 647,218.6 L642.4,218.6 C642.3,217.8 642,217.2 641.4,216.7 C640.9,216.2 640.2,216 639.3,216 C638.5,216 637.9,216.2 637.4,216.6 C636.9,217 636.7,217.6 636.7,218.4 C636.7,219 636.9,219.5 637.3,220 C637.7,220.4 638.1,220.8 638.7,221 C639.3,221.3 640.1,221.6 641,221.9 C642.4,222.4 643.5,222.8 644.3,223.3 C645.2,223.7 645.9,224.4 646.5,225.2 C647.1,226 647.4,227.2 647.4,228.5 C647.5,229.4 647.3,230.4 646.7,231.3 Z M661.6,212.7 C662.6,213.2 663.4,213.9 664,214.8 C664.5,215.7 664.8,216.7 664.8,217.8 C664.8,219.2 664.4,220.3 663.7,221.2 C663,222.1 662,222.6 660.7,222.8 L660.7,223 C663.7,223.9 665.2,225.6 665.2,228.3 C665.2,230.1 664.6,231.6 663.4,232.8 C662.2,233.9 660.4,234.5 658.2,234.5 C655.8,234.5 653.9,233.9 652.5,232.7 C651.1,231.5 650.3,229.7 650.1,227.4 L654.3,227.4 C654.4,228.5 654.8,229.4 655.4,230 C656,230.6 656.9,231 658,231 C659,231 659.7,230.7 660.3,230.2 C660.8,229.7 661.1,229 661.1,228.1 C661.1,227.1 660.7,226.3 659.9,225.7 C659.1,225.1 658,224.9 656.4,224.9 L655.5,224.9 L655.5,221.4 L656.4,221.4 C659.2,221.4 660.6,220.5 660.6,218.5 C660.6,217.6 660.3,217 659.8,216.5 C659.3,216 658.6,215.8 657.7,215.8 C656.8,215.8 656.1,216.1 655.5,216.7 C654.9,217.3 654.6,218.1 654.5,219.1 L650.3,219.1 C650.4,216.9 651.1,215.2 652.4,214.1 C653.7,212.9 655.5,212.3 657.8,212.3 C659.3,211.9 660.5,212.2 661.6,212.7 Z M645.8,290.2 C645.3,291.1 644.5,291.9 643.4,292.4 C642.3,293 641,293.2 639.5,293.2 C638,293.2 636.6,292.9 635.5,292.4 C634.3,291.9 633.4,291.1 632.6,290.2 C631.9,289.2 631.5,288.1 631.4,286.8 L635.9,286.8 C636,287.7 636.3,288.4 636.9,289 C637.5,289.6 638.3,289.9 639.3,289.9 C640.2,289.9 640.9,289.7 641.3,289.2 C641.8,288.7 642,288.1 642,287.4 C642,286.7 641.8,286.2 641.4,285.7 C641,285.3 640.5,284.9 640,284.7 C639.4,284.4 638.6,284.1 637.6,283.8 C636.3,283.4 635.2,282.9 634.3,282.5 C633.5,282.1 632.7,281.4 632.1,280.6 C631.5,279.8 631.2,278.7 631.2,277.4 C631.2,275.6 631.9,274.1 633.2,273.1 C634.5,272 636.3,271.5 638.4,271.5 C640.7,271.5 642.4,272 643.8,273.1 C645.1,274.2 645.9,275.6 646.1,277.5 L641.5,277.5 C641.4,276.7 641.1,276.1 640.5,275.6 C640,275.1 639.3,274.9 638.4,274.9 C637.6,274.9 637,275.1 636.5,275.5 C636,275.9 635.8,276.5 635.8,277.3 C635.8,277.9 636,278.4 636.4,278.9 C636.8,279.3 637.2,279.7 637.8,279.9 C638.4,280.2 639.2,280.5 640.1,280.8 C641.5,281.3 642.6,281.7 643.4,282.2 C644.3,282.6 645,283.3 645.6,284.1 C646.2,284.9 646.5,286.1 646.5,287.4 C646.6,288.3 646.3,289.3 645.8,290.2 Z M660.6,271.6 C661.6,272.1 662.4,272.8 663,273.7 C663.5,274.6 663.8,275.6 663.8,276.7 C663.8,278.1 663.4,279.2 662.7,280.1 C662,281 661,281.5 659.7,281.7 L659.7,281.9 C662.7,282.8 664.2,284.5 664.2,287.2 C664.2,289 663.6,290.5 662.4,291.7 C661.2,292.8 659.4,293.4 657.2,293.4 C654.8,293.4 652.9,292.8 651.5,291.6 C650.1,290.4 649.3,288.6 649.1,286.3 L653.3,286.3 C653.4,287.4 653.8,288.3 654.4,288.9 C655,289.5 655.9,289.9 657,289.9 C658,289.9 658.7,289.6 659.3,289.1 C659.8,288.6 660.1,287.9 660.1,287 C660.1,286 659.7,285.2 658.9,284.6 C658.1,284.1 657,283.8 655.4,283.8 L654.5,283.8 L654.5,280.3 L655.4,280.3 C658.2,280.3 659.6,279.4 659.6,277.4 C659.6,276.5 659.3,275.9 658.8,275.4 C658.3,274.9 657.6,274.7 656.7,274.7 C655.8,274.7 655.1,275 654.5,275.6 C653.9,276.2 653.6,277 653.5,278 L649.3,278 C649.4,275.8 650.1,274.1 651.4,273 C652.7,271.8 654.5,271.2 656.8,271.2 C658.3,270.8 659.6,271.1 660.6,271.6 Z M464.6,231.8 C464.1,232.7 463.3,233.5 462.2,234 C461.1,234.6 459.8,234.8 458.3,234.8 C456.8,234.8 455.4,234.5 454.3,234 C453.1,233.5 452.2,232.7 451.4,231.8 C450.7,230.8 450.3,229.7 450.2,228.4 L454.7,228.4 C454.8,229.3 455.1,230 455.7,230.6 C456.3,231.2 457.1,231.5 458.1,231.5 C459,231.5 459.7,231.3 460.1,230.8 C460.6,230.3 460.8,229.7 460.8,229 C460.8,228.3 460.6,227.8 460.2,227.3 C459.8,226.9 459.3,226.5 458.8,226.3 C458.2,226 457.4,225.7 456.4,225.4 C455.1,225 454,224.5 453.1,224.1 C452.3,223.7 451.5,223 450.9,222.2 C450.3,221.4 450,220.3 450,219 C450,217.2 450.7,215.7 452,214.7 C453.3,213.6 455.1,213.1 457.2,213.1 C459.5,213.1 461.2,213.6 462.6,214.7 C463.9,215.8 464.7,217.2 464.9,219.1 L460.3,219.1 C460.2,218.3 459.9,217.7 459.3,217.2 C458.8,216.7 458.1,216.5 457.2,216.5 C456.4,216.5 455.8,216.7 455.3,217.1 C454.8,217.5 454.6,218.1 454.6,218.9 C454.6,219.5 454.8,220 455.2,220.5 C455.6,220.9 456,221.3 456.6,221.5 C457.2,221.8 458,222.1 458.9,222.4 C460.3,222.9 461.4,223.3 462.2,223.8 C463.1,224.2 463.8,224.9 464.4,225.7 C465,226.5 465.3,227.7 465.3,229 C465.4,229.9 465.1,230.9 464.6,231.8 Z M478,219.4 C478,218.5 477.8,217.7 477.3,217.2 C476.8,216.7 476.1,216.4 475.2,216.4 C473.2,216.4 472.2,217.8 472,220.5 L467.9,220.5 C468,218 468.8,216.1 470.2,214.8 C471.6,213.5 473.4,212.8 475.5,212.8 C477.7,212.8 479.4,213.4 480.6,214.5 C481.8,215.6 482.4,217.2 482.4,219.1 C482.4,220.6 482,222.1 481.1,223.6 C480.2,225.1 479.1,226.5 477.8,227.7 C476.5,229 475,230 473.5,231 L482.8,231 L482.8,234.5 L467.8,234.5 L467.8,231.3 C474.5,226.5 478,222.6 478,219.4 Z M584.4,231.8 C583.9,232.7 583.1,233.5 582,234 C580.9,234.6 579.6,234.8 578.1,234.8 C576.6,234.8 575.2,234.5 574.1,234 C572.9,233.5 572,232.7 571.2,231.8 C570.5,230.8 570.1,229.7 570,228.4 L574.5,228.4 C574.6,229.3 574.9,230 575.5,230.6 C576.1,231.2 576.9,231.5 577.9,231.5 C578.8,231.5 579.5,231.3 579.9,230.8 C580.4,230.3 580.6,229.7 580.6,229 C580.6,228.3 580.4,227.8 580,227.3 C579.6,226.9 579.1,226.5 578.6,226.3 C578,226 577.2,225.7 576.2,225.4 C574.9,225 573.8,224.5 572.9,224.1 C572.1,223.7 571.3,223 570.7,222.2 C570.1,221.4 569.8,220.3 569.8,219 C569.8,217.2 570.5,215.7 571.8,214.7 C573.1,213.6 574.9,213.1 577,213.1 C579.3,213.1 581,213.6 582.4,214.7 C583.7,215.8 584.5,217.2 584.7,219.1 L580.1,219.1 C580,218.3 579.7,217.7 579.1,217.2 C578.6,216.7 577.9,216.5 577,216.5 C576.2,216.5 575.6,216.7 575.1,217.1 C574.6,217.5 574.4,218.1 574.4,218.9 C574.4,219.5 574.6,220 575,220.5 C575.4,220.9 575.8,221.3 576.4,221.5 C577,221.8 577.8,222.1 578.7,222.4 C580.1,222.9 581.2,223.3 582,223.8 C582.9,224.2 583.6,224.9 584.2,225.7 C584.8,226.5 585.1,227.7 585.1,229 C585.2,229.9 584.9,230.9 584.4,231.8 Z M597.8,219.5 C597.8,218.6 597.6,217.8 597.1,217.3 C596.6,216.8 595.9,216.5 595,216.5 C593,216.5 592,217.9 591.8,220.6 L587.7,220.6 C587.8,218.1 588.6,216.2 590,214.9 C591.4,213.6 593.2,212.9 595.3,212.9 C597.5,212.9 599.2,213.5 600.4,214.6 C601.6,215.7 602.2,217.3 602.2,219.2 C602.2,220.7 601.8,222.2 600.9,223.7 C600,225.2 598.9,226.6 597.6,227.8 C596.3,229.1 594.8,230.1 593.3,231.1 L602.6,231.1 L602.6,234.6 L587.6,234.6 L587.6,231.4 C594.3,226.6 597.8,222.6 597.8,219.5 Z M463.5,291.1 C463,292 462.2,292.8 461.1,293.3 C460,293.9 458.7,294.1 457.2,294.1 C455.7,294.1 454.3,293.8 453.2,293.3 C452,292.8 451.1,292 450.3,291.1 C449.6,290.1 449.2,289 449.1,287.7 L453.6,287.7 C453.7,288.6 454,289.3 454.6,289.9 C455.2,290.5 456,290.8 457,290.8 C457.9,290.8 458.6,290.6 459,290.1 C459.5,289.6 459.7,289 459.7,288.3 C459.7,287.6 459.5,287.1 459.1,286.6 C458.7,286.2 458.2,285.8 457.7,285.6 C457.1,285.3 456.3,285 455.3,284.7 C454,284.3 452.9,283.8 452,283.4 C451.2,283 450.4,282.3 449.8,281.5 C449.2,280.7 448.9,279.6 448.9,278.3 C448.9,276.5 449.6,275 450.9,274 C452.2,272.9 454,272.4 456.1,272.4 C458.4,272.4 460.1,272.9 461.5,274 C462.8,275.1 463.6,276.5 463.8,278.4 L459.2,278.4 C459.1,277.6 458.8,277 458.2,276.5 C457.7,276 457,275.8 456.1,275.8 C455.3,275.8 454.7,276 454.2,276.4 C453.7,276.8 453.5,277.4 453.5,278.2 C453.5,278.8 453.7,279.3 454.1,279.8 C454.5,280.2 454.9,280.6 455.5,280.8 C456.1,281.1 456.9,281.4 457.8,281.7 C459.2,282.2 460.3,282.6 461.1,283.1 C462,283.5 462.7,284.2 463.3,285 C463.9,285.8 464.2,287 464.2,288.3 C464.3,289.2 464,290.2 463.5,291.1 Z M478.3,272.5 C479.3,273 480.1,273.7 480.7,274.6 C481.2,275.5 481.5,276.5 481.5,277.6 C481.5,279 481.1,280.1 480.4,281 C479.7,281.9 478.7,282.4 477.4,282.6 L477.4,282.8 C480.4,283.7 481.9,285.4 481.9,288.1 C481.9,289.9 481.3,291.4 480.1,292.6 C478.9,293.7 477.1,294.3 474.9,294.3 C472.5,294.3 470.6,293.7 469.2,292.5 C467.8,291.3 467,289.5 466.8,287.2 L471,287.2 C471.1,288.3 471.5,289.2 472.1,289.8 C472.7,290.4 473.6,290.8 474.7,290.8 C475.7,290.8 476.4,290.5 477,290 C477.5,289.5 477.8,288.8 477.8,287.9 C477.8,286.9 477.4,286.1 476.6,285.5 C475.8,285 474.7,284.7 473.1,284.7 L472.2,284.7 L472.2,281 L473.1,281 C475.9,281 477.3,280.1 477.3,278.1 C477.3,277.2 477,276.6 476.5,276.1 C476,275.6 475.3,275.4 474.4,275.4 C473.5,275.4 472.8,275.7 472.2,276.3 C471.6,276.9 471.3,277.7 471.2,278.7 L467,278.7 C467.1,276.5 467.8,274.8 469.1,273.7 C470.4,272.5 472.2,271.9 474.5,271.9 C476,271.7 477.2,272 478.3,272.5 Z" id="Shape" fill="#000000" fill-rule="nonzero"></path>
                <g id="Group-3" transform="translate(508.000000, 147.000000)" fill="#000000" fill-rule="nonzero">
                    <path d="M15.1,19.4 C14.6,20.3 13.8,21.1 12.7,21.6 C11.6,22.2 10.3,22.4 8.8,22.4 C7.3,22.4 5.9,22.1 4.8,21.6 C3.6,21.1 2.7,20.3 1.9,19.4 C1.2,18.4 0.8,17.3 0.7,16 L5.2,16 C5.3,16.9 5.6,17.6 6.2,18.2 C6.8,18.8 7.6,19.1 8.6,19.1 C9.5,19.1 10.2,18.9 10.6,18.4 C11.1,17.9 11.3,17.3 11.3,16.6 C11.3,15.9 11.1,15.4 10.7,14.9 C10.3,14.5 9.8,14.1 9.3,13.9 C8.7,13.6 7.9,13.3 6.9,13 C5.6,12.6 4.5,12.1 3.6,11.7 C2.8,11.3 2,10.6 1.4,9.8 C0.8,9 0.5,7.9 0.5,6.6 C0.5,4.8 1.2,3.3 2.5,2.3 C3.8,1.2 5.6,0.7 7.7,0.7 C10,0.7 11.7,1.2 13.1,2.3 C14.4,3.4 15.2,4.8 15.4,6.7 L10.8,6.7 C10.7,5.9 10.4,5.3 9.8,4.8 C9.3,4.3 8.6,4.1 7.7,4.1 C6.9,4.1 6.3,4.3 5.8,4.7 C5.3,5.1 5.1,5.7 5.1,6.5 C5.1,7.1 5.3,7.6 5.7,8.1 C6.1,8.5 6.5,8.9 7.1,9.1 C7.7,9.4 8.5,9.7 9.4,10 C10.8,10.5 11.9,10.9 12.7,11.4 C13.6,11.8 14.3,12.5 14.9,13.3 C15.5,14.1 15.8,15.3 15.8,16.6 C15.9,17.4 15.6,18.4 15.1,19.4 Z" id="Path"></path>
                    <polygon id="Path" points="17.5 4.8 17.5 0.8 25.2 0.8 25.2 22.2 20.7 22.2 20.7 4.8"></polygon>
                </g>
                <path d="M490.4,125.5 L446,85.4" id="Shape" stroke="#000000" stroke-width="4" stroke-linecap="round"></path>
                <path d="M453.6,68.5 L452.4,75.4 L450.3,75.4 L451.5,68.5 L453.6,68.5 Z M452,65.8 C452.3,65.5 452.6,65.4 453.1,65.4 C453.4,65.4 453.7,65.5 453.9,65.7 C454.1,65.9 454.2,66.1 454.2,66.4 C454.2,66.8 454.1,67.1 453.8,67.3 C453.5,67.6 453.2,67.7 452.7,67.7 C452.4,67.7 452.1,67.6 451.9,67.4 C451.7,67.2 451.6,67 451.6,66.7 C451.6,66.4 451.7,66 452,65.8 Z M461,69 C461.4,69.4 461.6,69.9 461.6,70.6 C461.6,70.8 461.6,71.1 461.5,71.4 L460.8,75.4 L458.7,75.4 L459.4,71.6 L459.4,71.2 C459.4,70.9 459.3,70.6 459.1,70.4 C458.9,70.2 458.6,70.1 458.3,70.1 C457.9,70.1 457.5,70.2 457.2,70.5 C456.9,70.8 456.7,71.2 456.6,71.7 L456,75.4 L453.9,75.4 L455.1,68.5 L457.2,68.5 L457,69.7 C457.3,69.3 457.6,69 458.1,68.7 C458.5,68.5 459,68.3 459.6,68.3 C460.1,68.4 460.7,68.6 461,69 Z M469.6,69.1 C470,69.6 470.3,70.2 470.3,71.1 C470.3,71.4 470.3,71.7 470.2,72 C470.1,72.7 469.8,73.4 469.5,73.9 C469.1,74.4 468.7,74.9 468.2,75.1 C467.7,75.4 467.2,75.5 466.6,75.5 C466.1,75.5 465.6,75.4 465.3,75.1 C465,74.8 464.7,74.5 464.6,74.1 L463.8,78.7 L461.7,78.7 L463.5,68.4 L465.6,68.4 L465.4,69.7 C465.6,69.3 466,69 466.4,68.7 C466.8,68.5 467.3,68.3 467.8,68.3 C468.5,68.4 469.1,68.6 469.6,69.1 Z M467.4,73.2 C467.7,72.9 467.9,72.5 468,72 L468,71.6 C468,71.2 467.9,70.9 467.7,70.7 C467.5,70.5 467.2,70.4 466.8,70.4 C466.4,70.4 466,70.6 465.6,70.9 C465.3,71.2 465,71.6 465,72.1 L465,72.5 C465,72.9 465.1,73.2 465.3,73.5 C465.5,73.7 465.8,73.8 466.2,73.8 C466.6,73.6 467,73.5 467.4,73.2 Z M478.7,68.5 L477.5,75.4 L475.4,75.4 L475.6,74.1 C475.3,74.5 475,74.8 474.5,75.1 C474.1,75.3 473.6,75.5 473,75.5 C472.3,75.5 471.8,75.3 471.4,74.9 C471,74.5 470.8,74 470.8,73.3 C470.8,73.1 470.8,72.8 470.9,72.5 L471.6,68.5 L473.7,68.5 L473,72.3 L473,72.7 C473,73.1 473.1,73.3 473.3,73.5 C473.5,73.7 473.8,73.8 474.1,73.8 C474.5,73.8 474.9,73.7 475.2,73.4 C475.5,73.1 475.7,72.7 475.8,72.2 L476.5,68.5 L478.7,68.5 Z M481.8,72.9 L481.8,73.1 C481.8,73.3 481.8,73.4 481.9,73.5 C482,73.6 482.2,73.6 482.4,73.6 L483.1,73.6 L482.8,75.4 L481.8,75.4 C481.1,75.4 480.6,75.3 480.2,75 C479.8,74.7 479.6,74.2 479.6,73.6 C479.6,73.3 479.6,73.1 479.7,72.9 L480.1,70.3 L479.2,70.3 L479.5,68.5 L480.4,68.5 L480.7,66.8 L482.8,66.8 L482.5,68.5 L483.9,68.5 L483.6,70.3 L482.2,70.3 L481.8,72.9 Z M422.6,109.7 C422.3,110 421.9,110.3 421.5,110.5 C421,110.7 420.5,110.8 419.9,110.8 C418.9,110.8 418.1,110.6 417.5,110.1 C416.9,109.6 416.6,108.9 416.6,108.1 L418.9,108.1 C418.9,108.4 418.9,108.7 419.1,108.9 C419.3,109.1 419.5,109.2 419.9,109.2 C420.2,109.2 420.4,109.1 420.6,108.9 C420.8,108.7 420.9,108.5 420.9,108.2 C420.9,108 420.8,107.8 420.7,107.7 C420.6,107.6 420.4,107.4 420.2,107.3 C420,107.2 419.7,107.1 419.4,106.9 C418.9,106.7 418.5,106.5 418.2,106.4 C417.9,106.2 417.7,106 417.4,105.7 C417.2,105.4 417.1,105 417.1,104.5 L417.1,103.9 C417.2,103.3 417.6,102.7 418.2,102.4 C418.8,102 419.5,101.8 420.4,101.8 C421.4,101.8 422.2,102 422.7,102.5 C423.2,103 423.5,103.6 423.5,104.4 L421.2,104.4 C421.2,104.1 421.1,103.9 421,103.7 C420.8,103.5 420.6,103.4 420.3,103.4 C420,103.4 419.8,103.5 419.6,103.6 C419.4,103.8 419.3,104 419.3,104.3 C419.3,104.5 419.4,104.7 419.5,104.8 C419.6,104.9 419.8,105.1 420,105.1 C420.2,105.1 420.4,105.3 420.8,105.4 C421.3,105.6 421.7,105.8 422,105.9 C422.3,106.1 422.5,106.3 422.8,106.6 C423,106.9 423.1,107.3 423.1,107.8 L423.1,108.4 C423.1,109 422.9,109.4 422.6,109.7 Z M426.9,108.2 L426.9,108.4 C426.9,108.6 426.9,108.7 427,108.8 C427.1,108.9 427.3,108.9 427.5,108.9 L428.2,108.9 L427.9,110.7 L426.9,110.7 C426.2,110.7 425.7,110.6 425.3,110.3 C424.9,110 424.7,109.5 424.7,108.9 C424.7,108.6 424.7,108.4 424.8,108.2 L425.2,105.6 L424.3,105.6 L424.6,103.8 L425.5,103.8 L425.8,102.1 L427.9,102.1 L427.6,103.8 L429,103.8 L428.7,105.6 L427.3,105.6 L426.9,108.2 Z M434.4,104.1 C434.8,104.3 435,104.7 435.1,105.1 L435.3,103.8 L437.4,103.8 L436.2,110.7 L434.1,110.7 L434.3,109.4 C434.1,109.8 433.7,110.1 433.3,110.4 C432.9,110.6 432.4,110.8 431.8,110.8 C431,110.8 430.4,110.6 430,110.1 C429.6,109.6 429.3,108.9 429.3,108.1 C429.3,107.8 429.3,107.4 429.4,107.1 C429.5,106.4 429.8,105.8 430.1,105.3 C430.4,104.8 430.9,104.4 431.4,104.1 C431.9,103.8 432.4,103.7 433,103.7 C433.6,103.7 434,103.9 434.4,104.1 Z M432.3,106.1 C432,106.4 431.8,106.8 431.7,107.3 L431.7,107.7 C431.7,108.1 431.8,108.4 432,108.6 C432.2,108.8 432.5,108.9 432.9,108.9 C433.3,108.9 433.7,108.7 434.1,108.4 C434.4,108.1 434.7,107.7 434.7,107.2 L434.7,106.8 C434.7,106.4 434.6,106.1 434.4,105.8 C434.2,105.6 433.9,105.5 433.5,105.5 C433,105.6 432.6,105.8 432.3,106.1 Z M440.5,108.2 L440.5,108.4 C440.5,108.6 440.5,108.7 440.6,108.8 C440.7,108.9 440.9,108.9 441.1,108.9 L441.8,108.9 L441.5,110.7 L440.5,110.7 C439.8,110.7 439.3,110.6 438.9,110.3 C438.5,110 438.3,109.5 438.3,108.9 C438.3,108.6 438.3,108.4 438.4,108.2 L438.8,105.6 L437.9,105.6 L438.2,103.8 L439.1,103.8 L439.4,102.1 L441.5,102.1 L441.2,103.8 L442.6,103.8 L442.3,105.6 L440.9,105.6 L440.5,108.2 Z M449.3,104.5 C449.8,105 450.1,105.6 450.1,106.4 C450.1,106.6 450.1,106.8 450,107.1 C450,107.3 449.9,107.5 449.8,107.7 L445,107.7 L445,108 C445,108.8 445.4,109.1 446.1,109.1 C446.4,109.1 446.7,109 446.9,108.9 C447.1,108.7 447.3,108.5 447.4,108.3 L449.7,108.3 C449.4,109.1 449,109.7 448.3,110.1 C447.6,110.5 446.8,110.8 445.9,110.8 C445,110.8 444.3,110.6 443.8,110.1 C443.3,109.6 443,108.9 443,108 C443,107.7 443,107.5 443.1,107.2 C443.2,106.5 443.5,105.9 443.9,105.4 C444.3,104.9 444.8,104.5 445.4,104.2 C446,103.9 446.6,103.8 447.3,103.8 C448.1,103.7 448.8,104 449.3,104.5 Z M448,106.4 C448,106.1 447.9,105.8 447.7,105.7 C447.5,105.5 447.2,105.5 446.9,105.5 C446.5,105.5 446.2,105.6 445.9,105.8 C445.6,106 445.4,106.4 445.3,106.8 L448,106.8 C447.9,106.6 448,106.5 448,106.4 Z M592,97.1 C592.9,97.6 593.6,98.4 594.1,99.5 C594.6,100.5 594.9,101.7 594.9,103.1 C594.9,104.5 594.6,105.7 594.1,106.7 C593.6,107.7 592.9,108.5 592,109.1 C591.1,109.7 590.1,109.9 589,109.9 C587.9,109.9 586.9,109.6 586.1,109.1 C585.3,108.6 584.7,107.8 584.4,107 L584.4,109.8 L581,109.8 L581,92 L584.4,92 L584.4,99.2 C584.7,98.3 585.3,97.6 586.1,97.1 C586.9,96.6 587.8,96.3 589,96.3 C590.1,96.3 591.1,96.5 592,97.1 Z M585.4,100.2 C584.7,100.9 584.4,101.8 584.4,103 C584.4,104.2 584.7,105.1 585.4,105.8 C586.1,106.5 586.9,106.8 587.9,106.8 C589,106.8 589.8,106.5 590.4,105.8 C591,105.1 591.4,104.2 591.4,103 C591.4,101.8 591.1,100.9 590.4,100.2 C589.7,99.5 588.9,99.2 587.9,99.2 C586.9,99.2 586,99.6 585.4,100.2 Z M355.2,238.8 C356.1,239.3 356.8,240.1 357.3,241.2 C357.8,242.2 358.1,243.4 358.1,244.8 C358.1,246.2 357.8,247.4 357.3,248.4 C356.8,249.4 356.1,250.2 355.2,250.8 C354.3,251.4 353.3,251.6 352.2,251.6 C351.1,251.6 350.1,251.3 349.3,250.8 C348.5,250.3 347.9,249.5 347.6,248.7 L347.6,251.5 L344.2,251.5 L344.2,233.7 L347.6,233.7 L347.6,240.9 C347.9,240 348.5,239.3 349.3,238.8 C350.1,238.3 351,238 352.2,238 C353.3,238 354.3,238.3 355.2,238.8 Z M348.6,242 C347.9,242.7 347.6,243.6 347.6,244.8 C347.6,246 347.9,246.9 348.6,247.6 C349.3,248.3 350.1,248.6 351.1,248.6 C352.2,248.6 353,248.3 353.6,247.6 C354.2,246.9 354.6,246 354.6,244.8 C354.6,243.6 354.3,242.7 353.6,242 C352.9,241.3 352.1,241 351.1,241 C350.1,240.9 349.3,241.3 348.6,242 Z M238.1,161.7 C239,162.2 239.7,163 240.2,164.1 C240.7,165.1 241,166.3 241,167.7 C241,169.1 240.7,170.3 240.2,171.3 C239.7,172.3 239,173.1 238.1,173.7 C237.2,174.3 236.2,174.5 235.1,174.5 C234,174.5 233,174.2 232.2,173.7 C231.4,173.2 230.8,172.4 230.5,171.6 L230.5,174.4 L227.1,174.4 L227.1,156.6 L230.5,156.6 L230.5,163.8 C230.8,162.9 231.4,162.2 232.2,161.7 C233,161.2 233.9,160.9 235.1,160.9 C236.2,160.9 237.2,161.1 238.1,161.7 Z M231.5,164.9 C230.8,165.6 230.5,166.5 230.5,167.7 C230.5,168.9 230.8,169.8 231.5,170.5 C232.2,171.2 233,171.5 234,171.5 C235.1,171.5 235.9,171.2 236.5,170.5 C237.1,169.8 237.5,168.9 237.5,167.7 C237.5,166.5 237.2,165.6 236.5,164.9 C235.8,164.2 235,163.9 234,163.9 C233,163.8 232.2,164.2 231.5,164.9 Z" id="Shape" fill="#000000" fill-rule="nonzero"></path>
            </g>
            <g id="Group-2" transform="translate(273.500000, 480.000000) rotate(-90.000000) translate(-273.500000, -480.000000) translate(247.500000, 468.500000)" stroke="#000000" stroke-linecap="round" stroke-linejoin="round" stroke-width="4">
                <polyline id="Shape" points="36.5 0.8 52 11.5 36.5 22.3"></polyline>
                <path d="M0.5,11.5 L49.9,11.5" id="Shape"></path>
            </g>
            <text id="“abc”" font-family="PTMono-Regular, PT Mono" font-size="52" font-weight="normal" fill="#000000">
                <tspan x="194" y="442">“abc”</tspan>
            </text>
        </g>
    </g>
</svg>