<svg xmlns="http://www.w3.org/2000/svg" id="Layer_1" viewBox="0 0 1024 768">
	<style>
		.st5{fill:none;stroke:#000;stroke-width:4;stroke-linejoin:round;stroke-miterlimit:10}.st5,.st6{stroke-linecap:round}.st6,.st7{fill:none;stroke:#000;stroke-width:4;stroke-miterlimit:10}
	</style>
	<path d="M199.6 431.2v218.7M264.6 431.2v218.7M329.6 431.2v218.7M140.1 605.5h316.7M140.1 540.5l315.3.3M140.1 475.5l315.3.3" class="st6"/>
	<path d="M233.1 448.6c.8.5 1.4 1.2 1.7 2.1V448h3.4v13.3h-3.4v-2.8c-.3.9-.9 1.6-1.7 2.1-.8.5-1.8.8-2.9.8-1.1 0-2.1-.3-3-.8-.9-.5-1.6-1.3-2.1-2.4-.5-1-.8-2.2-.8-3.6s.3-2.6.8-3.6 1.2-1.8 2.1-2.4c.9-.5 1.9-.8 3-.8s2.1.3 2.9.8zm-4.4 3.2c-.6.7-1 1.6-1 2.8 0 1.2.3 2.1 1 2.8.6.7 1.5 1 2.5 1s1.9-.3 2.5-1c.7-.7 1-1.6 1-2.8 0-1.2-.3-2.1-1-2.8-.7-.7-1.5-1-2.5-1s-1.9.3-2.5 1zM367.4 445.2c1.4 1.1 2.3 2.6 2.8 4.4h-3.6c-.4-.9-.9-1.6-1.7-2.2-.8-.5-1.7-.8-2.8-.8-.9 0-1.7.2-2.4.7-.7.4-1.3 1.1-1.7 1.9-.4.8-.6 1.8-.6 2.9 0 1.1.2 2.1.6 2.9.4.8 1 1.5 1.7 1.9.7.4 1.5.7 2.4.7 1.1 0 2-.3 2.8-.8.8-.5 1.3-1.2 1.7-2.2h3.6c-.4 1.9-1.4 3.4-2.8 4.4-1.4 1.1-3.1 1.6-5.3 1.6-1.6 0-3-.4-4.3-1.1-1.2-.7-2.2-1.7-2.9-3.1-.7-1.3-1-2.8-1-4.5 0-1.7.3-3.2 1-4.5.7-1.3 1.6-2.3 2.9-3.1 1.2-.7 2.7-1.1 4.3-1.1 2.2.3 3.9.9 5.3 2zM170.3 516.2c-.5.9-1.3 1.6-2.3 2.1-1 .5-2.3.8-3.7.8-1.4 0-2.7-.2-3.9-.7-1.1-.5-2.1-1.2-2.7-2.1-.7-.9-1.1-2-1.2-3.3h4.3c.1.8.4 1.5 1 2.1.6.6 1.3.8 2.3.8.8 0 1.5-.2 2-.7.5-.5.7-1 .7-1.8 0-.6-.2-1.2-.5-1.6-.4-.4-.8-.8-1.4-1-.6-.3-1.3-.5-2.3-.9-1.3-.4-2.3-.8-3.1-1.3-.8-.4-1.5-1-2.1-1.8-.6-.8-.9-1.8-.9-3.1 0-1.8.6-3.2 1.9-4.2 1.3-1 2.9-1.5 5-1.5 2.2 0 3.9.5 5.2 1.6 1.3 1 2 2.4 2.2 4.2h-4.4c-.1-.7-.4-1.3-.9-1.8s-1.2-.7-2.1-.7c-.8 0-1.4.2-1.8.6-.5.4-.7 1-.7 1.7 0 .6.2 1.1.5 1.5.4.4.8.7 1.4 1 .5.3 1.3.5 2.2.8 1.3.5 2.4.9 3.2 1.3.8.4 1.5 1 2.1 1.8.6.8.9 1.9.9 3.2-.1 1.2-.4 2.2-.9 3zM172.6 502.3v-3.8h7.4V519h-4.3v-16.7h-3.1zM167.9 581.4c-.5.9-1.3 1.6-2.3 2.1-1 .5-2.3.8-3.7.8-1.4 0-2.7-.2-3.9-.7-1.1-.5-2.1-1.2-2.7-2.1-.7-.9-1.1-2-1.2-3.3h4.3c.1.8.4 1.5 1 2.1.6.6 1.3.8 2.3.8.8 0 1.5-.2 2-.7.5-.5.7-1 .7-1.8 0-.6-.2-1.2-.5-1.6-.4-.4-.8-.8-1.4-1-.6-.3-1.3-.5-2.3-.9-1.3-.4-2.3-.8-3.1-1.3-.8-.4-1.5-1-2.1-1.8-.6-.8-.9-1.8-.9-3.1 0-1.8.6-3.2 1.9-4.2 1.3-1 2.9-1.5 5-1.5 2.2 0 3.9.5 5.2 1.6 1.3 1 2 2.4 2.2 4.2H164c-.1-.7-.4-1.3-.9-1.8s-1.2-.7-2.1-.7c-.8 0-1.4.2-1.8.6-.5.4-.7 1-.7 1.7 0 .6.2 1.1.5 1.5.4.4.8.7 1.4 1 .5.3 1.3.5 2.2.8 1.3.5 2.4.9 3.2 1.3.8.4 1.5 1 2.1 1.8s.9 1.9.9 3.2c-.1 1.2-.4 2.1-.9 3zM180.7 569.6c0-.9-.2-1.6-.7-2.1s-1.1-.8-2-.8c-1.9 0-2.9 1.3-3 3.9h-4c.1-2.4.8-4.3 2.2-5.5 1.4-1.2 3.1-1.9 5.1-1.9 2.1 0 3.7.5 4.8 1.6 1.1 1.1 1.7 2.6 1.7 4.4 0 1.4-.4 2.9-1.3 4.3-.8 1.4-1.9 2.8-3.2 4-1.3 1.2-2.7 2.3-4.1 3.1h8.9v3.3h-14.4v-3.1c6.7-4.4 10-8.2 10-11.2zM167.4 638.2c-.5.9-1.3 1.6-2.3 2.1-1 .5-2.3.8-3.7.8-1.4 0-2.7-.2-3.9-.7-1.1-.5-2.1-1.2-2.7-2.1-.7-.9-1.1-2-1.2-3.3h4.3c.1.8.4 1.5 1 2.1.6.6 1.3.8 2.3.8.8 0 1.5-.2 2-.7.5-.5.7-1 .7-1.8 0-.6-.2-1.2-.5-1.6-.4-.4-.8-.8-1.4-1-.6-.3-1.3-.5-2.3-.9-1.3-.4-2.3-.8-3.1-1.3-.8-.4-1.5-1-2.1-1.8-.6-.8-.9-1.8-.9-3.1 0-1.8.6-3.2 1.9-4.2 1.3-1 2.9-1.5 5-1.5 2.2 0 3.9.5 5.2 1.6 1.3 1 2 2.4 2.2 4.2h-4.4c-.1-.7-.4-1.3-.9-1.8s-1.2-.7-2.1-.7c-.8 0-1.4.2-1.8.6-.5.4-.7 1-.7 1.7 0 .6.2 1.1.5 1.5.4.4.8.7 1.4 1 .5.3 1.3.5 2.2.8 1.3.5 2.4.9 3.2 1.3.8.4 1.5 1 2.1 1.8.6.8.9 1.9.9 3.2-.1 1.1-.4 2.1-.9 3zM181.6 620.3c1 .5 1.7 1.2 2.3 2 .5.9.8 1.8.8 2.8 0 1.3-.4 2.4-1.1 3.2-.7.8-1.7 1.4-2.8 1.6v.1c2.9.9 4.3 2.5 4.3 5.1 0 1.8-.6 3.2-1.8 4.3-1.2 1.1-2.8 1.6-5 1.6-2.3 0-4.1-.6-5.4-1.7-1.4-1.1-2.1-2.8-2.3-5.1h4c.1 1 .4 1.9 1 2.5.6.6 1.4.9 2.5.9.9 0 1.6-.3 2.2-.8.5-.5.8-1.2.8-2 0-1-.4-1.7-1.1-2.3-.8-.5-1.9-.8-3.3-.8h-.8v-3.3h.8c2.7 0 4.1-.9 4.1-2.8 0-.8-.2-1.5-.7-2-.5-.5-1.1-.7-2-.7-.9 0-1.6.3-2.1.8-.6.6-.9 1.3-1 2.3h-4c.1-2.1.8-3.7 2-4.8 1.2-1.1 3-1.7 5.2-1.7 1.3.1 2.4.4 3.4.8z"/>
	<path d="M199.6 475.5l-44.4-40M396.8 431.2v218.7" class="st6"/>
	<path d="M161.6 415.5l-1.2 6.9h-2.1l1.2-6.9h2.1zm-1.6-2.7c.3-.3.6-.4 1.1-.4.3 0 .6.1.8.3.2.2.3.4.3.7 0 .4-.1.7-.4.9-.3.3-.6.4-1.1.4-.3 0-.6-.1-.8-.3-.2-.2-.3-.4-.3-.7 0-.3.1-.6.4-.9zM169.1 416c.4.4.6.9.6 1.6 0 .2 0 .5-.1.8l-.7 4h-2.1l.7-3.8v-.4c0-.3-.1-.6-.3-.8-.2-.2-.5-.3-.8-.3-.4 0-.8.1-1.1.4-.3.3-.5.7-.6 1.2l-.6 3.7H162l1.2-6.9h2.1l-.2 1.2c.3-.4.6-.7 1.1-1 .4-.2.9-.4 1.5-.4.5.1 1 .3 1.4.7zM177.6 416.1c.4.5.7 1.1.7 2 0 .3 0 .6-.1.9-.1.7-.4 1.4-.7 1.9-.4.5-.8 1-1.3 1.2-.5.3-1 .4-1.6.4-.5 0-1-.1-1.3-.4-.3-.2-.6-.6-.7-1l-.8 4.6h-2.1l1.8-10.3h2.1l-.2 1.3c.2-.4.6-.7 1-1 .4-.2.9-.4 1.4-.4.8.1 1.4.4 1.8.8zm-2.2 4.1c.3-.3.5-.7.6-1.2v-.4c0-.4-.1-.7-.3-.9-.2-.2-.5-.3-.9-.3s-.8.2-1.2.5-.6.7-.6 1.2v.4c0 .4.1.7.3 1 .2.2.5.3.9.3.5-.1.9-.3 1.2-.6zM186.7 415.5l-1.2 6.9h-2.1l.2-1.3c-.3.4-.6.7-1.1 1-.4.2-.9.4-1.5.4-.7 0-1.2-.2-1.6-.6-.4-.4-.6-.9-.6-1.6 0-.2 0-.5.1-.8l.7-4h2.1l-.7 3.8v.4c0 .4.1.6.3.8.2.2.5.3.8.3.4 0 .8-.1 1.1-.4.3-.3.5-.7.6-1.2l.7-3.7h2.2zM189.8 419.9v.2c0 .2 0 .3.1.4s.3.1.5.1h.7l-.3 1.8h-1c-.7 0-1.2-.1-1.6-.4-.4-.3-.6-.8-.6-1.4 0-.3 0-.5.1-.7l.4-2.6h-.9l.3-1.8h.9l.3-1.7h2.1l-.3 1.7h1.4l-.3 1.8h-1.4l-.4 2.6z"/>
	<g>
		<path d="M129.7 462.8c-.3.3-.7.6-1.1.8-.5.2-1 .3-1.6.3-1 0-1.8-.2-2.4-.7-.6-.5-.9-1.2-.9-2h2.3c0 .3 0 .6.2.8.2.2.4.3.8.3.3 0 .5-.1.7-.3.2-.2.3-.4.3-.7 0-.2-.1-.4-.2-.5s-.3-.3-.5-.4c-.2-.1-.5-.2-.8-.4-.5-.2-.9-.4-1.2-.5-.3-.2-.5-.4-.8-.7-.2-.3-.3-.7-.3-1.2v-.6c.1-.6.5-1.2 1.1-1.5.6-.4 1.3-.6 2.2-.6 1 0 1.8.2 2.3.7.5.5.8 1.1.8 1.9h-2.3c0-.3-.1-.5-.2-.7-.2-.2-.4-.3-.7-.3-.3 0-.5.1-.7.2-.2.2-.3.4-.3.7 0 .2.1.4.2.5.1.1.3.3.5.3.2.1.4.2.8.3.5.2.9.4 1.2.5.3.2.5.4.8.7.2.3.3.7.3 1.2v.6c-.1.5-.3.9-.5 1.3zM133.9 461.2v.2c0 .2 0 .3.1.4s.3.1.5.1h.7l-.3 1.8h-1c-.7 0-1.2-.1-1.6-.4-.4-.3-.6-.8-.6-1.4 0-.3 0-.5.1-.7l.4-2.6h-.9l.3-1.8h.9l.3-1.7h2.1l-.3 1.7h1.4l-.3 1.8h-1.4l-.4 2.6zM141.4 457.1c.4.2.6.6.7 1l.2-1.3h2.1l-1.2 6.9h-2.1l.2-1.3c-.2.4-.6.7-1 1-.4.2-.9.4-1.5.4-.8 0-1.4-.2-1.8-.7-.4-.5-.7-1.2-.7-2 0-.3 0-.7.1-1 .1-.7.4-1.3.7-1.8s.8-.9 1.3-1.2 1-.4 1.6-.4c.6.1 1 .2 1.4.4zm-2.1 2c-.3.3-.5.7-.6 1.2v.4c0 .4.1.7.3.9.2.2.5.3.9.3s.8-.2 1.2-.5c.3-.3.6-.7.6-1.2v-.4c0-.4-.1-.7-.3-1-.2-.2-.5-.3-.9-.3-.5.1-.9.3-1.2.6zM147.5 461.2v.2c0 .2 0 .3.1.4s.3.1.5.1h.7l-.3 1.8h-1c-.7 0-1.2-.1-1.6-.4-.4-.3-.6-.8-.6-1.4 0-.3 0-.5.1-.7l.4-2.6h-.9l.3-1.8h.9l.3-1.7h2.1l-.3 1.7h1.4l-.3 1.8H148l-.5 2.6zM156.3 457.5c.5.5.8 1.1.8 1.9 0 .2 0 .4-.1.7 0 .2-.1.4-.2.6H152v.3c0 .8.4 1.1 1.1 1.1.3 0 .6-.1.8-.2.2-.2.4-.4.5-.6h2.3c-.3.8-.7 1.4-1.4 1.8-.7.5-1.5.7-2.4.7-.9 0-1.6-.2-2.1-.7s-.8-1.2-.8-2.1c0-.3 0-.5.1-.8.1-.7.4-1.3.8-1.8s.9-.9 1.5-1.2c.6-.3 1.2-.4 1.9-.4.8 0 1.5.2 2 .7zm-1.3 1.9c0-.3-.1-.6-.3-.7s-.5-.2-.8-.2c-.4 0-.7.1-1 .3s-.5.6-.6 1h2.7v-.4z"/>
	</g>
	<g>
		<path d="M248 505.8c0-.4 0-.8.1-1.1.1-.4.1-.6.1-.7.2-.8.2-1.6.2-2.2 0-.8-.1-1.6-.4-2.3-.3-.7-.6-1.3-1-1.8s-.9-.9-1.3-1.1v-.2h2.8c.4.2.7.5 1.1.9.4.4.8 1 1.1 1.7.3.7.5 1.6.5 2.7 0 .5 0 1-.1 1.4-.1.5-.1.7-.1.8-.1.8-.2 1.5-.2 1.9 0 .6.2 1.1.5 1.6s.9.7 1.7.8v1.1c-.8.1-1.4.4-1.7.8s-.5 1-.5 1.6c0 .4.1 1 .2 1.9 0 .1.1.4.1.8s.1.9.1 1.4c0 1-.2 1.9-.5 2.7-.3.7-.7 1.3-1.1 1.7-.4.4-.8.7-1.1.9h-2.8v-.2c.5-.2.9-.6 1.3-1.1s.8-1.1 1-1.8c.3-.7.4-1.5.4-2.3 0-.7-.1-1.4-.2-2.3 0-.1 0-.4-.1-.7-.1-.4-.1-.7-.1-1.1 0-1.5.8-2.4 2.4-2.8-1.6-.6-2.4-1.5-2.4-3zM211.1 508.5c1.6.3 2.4 1.3 2.4 2.8 0 .4 0 .7-.1 1.1-.1.4-.1.6-.1.7-.2.8-.2 1.6-.2 2.3 0 .8.1 1.6.4 2.3.3.7.6 1.3 1 1.8s.9.9 1.3 1.1v.2H213c-.4-.2-.7-.5-1.1-.9-.4-.4-.8-1-1.1-1.7-.3-.7-.5-1.6-.5-2.7 0-.5 0-1 .1-1.4s.1-.7.1-.8c.1-.8.2-1.5.2-1.9 0-.6-.2-1.1-.5-1.6s-.9-.7-1.7-.8v-1c.8-.1 1.4-.4 1.7-.8s.5-1 .5-1.6c0-.4-.1-1-.2-1.9 0-.1-.1-.4-.1-.8-.1-.5-.1-.9-.1-1.4 0-1 .2-1.9.5-2.7.3-.7.7-1.3 1.1-1.7.4-.4.8-.7 1.1-.9h2.8v.2c-.5.2-.9.6-1.3 1.1-.4.5-.8 1.1-1 1.8-.3.7-.4 1.5-.4 2.3 0 .7.1 1.4.2 2.2 0 .1 0 .3.1.7.1.4.1.8.1 1.1-.1 1.7-.9 2.6-2.4 2.9zM232.2 516.6c-.5.9-1.3 1.6-2.3 2.1-1 .5-2.3.8-3.7.8-1.4 0-2.7-.2-3.9-.7-1.1-.5-2.1-1.2-2.7-2.1-.7-.9-1.1-2-1.2-3.3h4.3c.1.8.4 1.5 1 2.1.6.6 1.3.8 2.3.8.8 0 1.5-.2 2-.7.5-.5.7-1 .7-1.8 0-.6-.2-1.2-.5-1.6-.4-.4-.8-.8-1.4-1-.6-.3-1.3-.5-2.3-.9-1.3-.4-2.3-.8-3.1-1.3-.8-.4-1.5-1-2.1-1.8-.6-.8-.9-1.8-.9-3.1 0-1.8.6-3.2 1.9-4.2 1.3-1 2.9-1.5 5-1.5 2.2 0 3.9.5 5.2 1.6 1.3 1 2 2.4 2.2 4.2h-4.4c-.1-.7-.4-1.3-.9-1.8s-1.2-.7-2.1-.7c-.8 0-1.4.2-1.8.6-.5.4-.7 1-.7 1.7 0 .6.2 1.1.5 1.5.4.4.8.7 1.4 1 .5.3 1.3.5 2.2.8 1.3.5 2.4.9 3.2 1.3.8.4 1.5 1 2.1 1.8s.9 1.9.9 3.2c-.1 1.2-.4 2.1-.9 3zM234.5 502.6v-3.8h7.4v20.5h-4.3v-16.7h-3.1z"/>
	</g>
	<g>
		<path d="M315.1 570.9c0-.4 0-.8.1-1.1.1-.4.1-.6.1-.7.2-.8.2-1.6.2-2.2 0-.8-.1-1.6-.4-2.3-.3-.7-.6-1.3-1-1.8s-.9-.9-1.3-1.1v-.2h2.8c.4.2.7.5 1.1.9.4.4.8 1 1.1 1.7.3.7.5 1.6.5 2.7 0 .5 0 1-.1 1.4-.1.5-.1.7-.1.8-.1.8-.2 1.5-.2 1.9 0 .6.2 1.1.5 1.6s.9.7 1.7.8v1.1c-.8.1-1.4.4-1.7.8s-.5 1-.5 1.6c0 .4.1 1 .2 1.9 0 .1.1.4.1.8s.1.9.1 1.4c0 1-.2 1.9-.5 2.7-.3.7-.7 1.3-1.1 1.7-.4.4-.8.7-1.1.9h-2.8v-.2c.5-.2.9-.6 1.3-1.1s.8-1.1 1-1.8c.3-.7.4-1.5.4-2.3 0-.7-.1-1.4-.2-2.3 0-.1 0-.4-.1-.7-.1-.4-.1-.7-.1-1.1 0-1.5.8-2.4 2.4-2.8-1.6-.5-2.4-1.4-2.4-3zM274.1 573.7c1.6.3 2.4 1.3 2.4 2.8 0 .4 0 .7-.1 1.1-.1.4-.1.6-.1.7-.2.8-.2 1.6-.2 2.3 0 .8.1 1.6.4 2.3.3.7.6 1.3 1 1.8s.9.9 1.3 1.1v.2H276c-.4-.2-.7-.5-1.1-.9-.4-.4-.8-1-1.1-1.7-.3-.7-.5-1.6-.5-2.7 0-.5 0-1 .1-1.4s.1-.7.1-.8c.1-.8.2-1.5.2-1.9 0-.6-.2-1.1-.5-1.6s-.9-.7-1.7-.8v-1.1c.8-.1 1.4-.4 1.7-.8s.5-1 .5-1.6c0-.4-.1-1-.2-1.9 0-.1-.1-.4-.1-.8-.1-.5-.1-.9-.1-1.4 0-1 .2-1.9.5-2.7.3-.7.7-1.3 1.1-1.7.4-.4.8-.7 1.1-.9h2.8v.2c-.5.2-.9.6-1.3 1.1-.4.5-.8 1.1-1 1.8-.3.7-.4 1.5-.4 2.3 0 .7.1 1.4.2 2.2 0 .1 0 .3.1.7.1.4.1.8.1 1.1-.1 1.8-.8 2.7-2.4 3zM293.6 581.5c-.5.9-1.3 1.6-2.3 2.1-1 .5-2.3.8-3.7.8-1.4 0-2.7-.2-3.9-.7-1.1-.5-2.1-1.2-2.7-2.1-.7-.9-1.1-2-1.2-3.3h4.3c.1.8.4 1.5 1 2.1.6.6 1.3.8 2.3.8.8 0 1.5-.2 2-.7.5-.5.7-1 .7-1.8 0-.6-.2-1.2-.5-1.6-.4-.4-.8-.8-1.4-1-.6-.3-1.3-.5-2.3-.9-1.3-.4-2.3-.8-3.1-1.3-.8-.4-1.5-1-2.1-1.8-.6-.8-.9-1.8-.9-3.1 0-1.8.6-3.2 1.9-4.2 1.3-1 2.9-1.5 5-1.5 2.2 0 3.9.5 5.2 1.6 1.3 1 2 2.4 2.2 4.2h-4.4c-.1-.7-.4-1.3-.9-1.8s-1.2-.7-2.1-.7c-.8 0-1.4.2-1.8.6-.5.4-.7 1-.7 1.7 0 .6.2 1.1.5 1.5.4.4.8.7 1.4 1 .5.3 1.3.5 2.2.8 1.3.5 2.4.9 3.2 1.3.8.4 1.5 1 2.1 1.8s.9 1.9.9 3.2c-.1 1.2-.4 2.1-.9 3zM306.4 569.7c0-.9-.2-1.6-.7-2.1-.4-.5-1.1-.8-2-.8-1.9 0-2.9 1.3-3 3.9h-4c.1-2.4.8-4.3 2.2-5.5 1.4-1.2 3.1-1.9 5.1-1.9 2.1 0 3.7.5 4.8 1.6 1.1 1.1 1.7 2.6 1.7 4.4 0 1.4-.4 2.9-1.3 4.3-.8 1.4-1.9 2.8-3.2 4-1.3 1.2-2.7 2.3-4.1 3.1h8.9v3.3h-14.4v-3c6.8-4.6 10-8.3 10-11.3z"/>
	</g>
	<g>
		<path d="M382.5 630.5c0-.4 0-.8.1-1.1.1-.4.1-.6.1-.7.2-.8.2-1.6.2-2.2 0-.8-.1-1.6-.4-2.3-.3-.7-.6-1.3-1-1.8s-.9-.9-1.3-1.1v-.2h2.8c.4.2.7.5 1.1.9.4.4.8 1 1.1 1.7.3.7.5 1.6.5 2.7 0 .5 0 1-.1 1.4s-.1.7-.1.8c-.1.8-.2 1.5-.2 1.9 0 .6.2 1.1.5 1.6s.9.7 1.7.8v1.1c-.8.1-1.4.4-1.7.8-.3.5-.5 1-.5 1.6 0 .4.1 1.1.2 1.9 0 .1.1.4.1.8s.1.9.1 1.4c0 1-.2 1.9-.5 2.7-.3.7-.7 1.3-1.1 1.7-.4.4-.8.7-1.1.9h-2.8v-.2c.5-.2.9-.6 1.3-1.1.4-.5.8-1.1 1-1.8.3-.7.4-1.5.4-2.3 0-.7-.1-1.4-.2-2.3 0-.1 0-.4-.1-.7-.1-.4-.1-.7-.1-1.1 0-1.5.8-2.4 2.4-2.8-1.6-.5-2.4-1.5-2.4-3zM341.5 633.3c1.6.3 2.4 1.3 2.4 2.8 0 .4 0 .7-.1 1.1-.1.4-.1.6-.1.7-.2.8-.2 1.6-.2 2.3 0 .8.1 1.6.4 2.3.3.7.6 1.3 1 1.8s.9.9 1.3 1.1v.2h-2.8c-.4-.2-.7-.5-1.1-.9-.4-.4-.8-1-1.1-1.7-.3-.7-.5-1.6-.5-2.7 0-.5 0-1 .1-1.4s.1-.7.1-.8c.1-.8.2-1.5.2-1.9 0-.6-.2-1.1-.5-1.6s-.9-.7-1.7-.8v-1.1c.8-.1 1.4-.4 1.7-.8s.5-1 .5-1.6c0-.4-.1-1-.2-1.9 0-.1-.1-.4-.1-.8-.1-.5-.1-.9-.1-1.4 0-1 .2-1.9.5-2.7.3-.7.7-1.3 1.1-1.7.4-.4.8-.7 1.1-.9h2.8v.2c-.5.2-.9.6-1.3 1.1-.4.5-.8 1.1-1 1.8-.3.7-.4 1.5-.4 2.3 0 .7.1 1.4.2 2.2 0 .1 0 .3.1.7.1.4.1.8.1 1.1-.1 1.7-.8 2.7-2.4 3zM361.3 640.9c-.5.9-1.3 1.6-2.3 2.1-1 .5-2.3.8-3.7.8-1.4 0-2.7-.2-3.9-.7-1.1-.5-2.1-1.2-2.7-2.1-.7-.9-1.1-2-1.2-3.3h4.3c.1.8.4 1.5 1 2.1.6.6 1.3.8 2.3.8.8 0 1.5-.2 2-.7.5-.5.7-1 .7-1.8 0-.6-.2-1.2-.5-1.6-.4-.4-.8-.8-1.4-1-.6-.3-1.3-.5-2.3-.9-1.3-.4-2.3-.8-3.1-1.3-.8-.4-1.5-1-2.1-1.8-.6-.8-.9-1.8-.9-3.1 0-1.8.6-3.2 1.9-4.2 1.3-1 2.9-1.5 5-1.5 2.2 0 3.9.5 5.2 1.6 1.3 1 2 2.4 2.2 4.2h-4.4c-.1-.7-.4-1.3-.9-1.8s-1.2-.7-2.1-.7c-.8 0-1.4.2-1.8.6-.5.4-.7 1-.7 1.7 0 .6.2 1.1.5 1.5.4.4.8.7 1.4 1 .5.3 1.3.5 2.2.8 1.3.5 2.4.9 3.2 1.3.8.4 1.5 1 2.1 1.8.6.8.9 1.9.9 3.2-.1 1.2-.4 2.1-.9 3zM375.5 623.1c1 .5 1.7 1.2 2.3 2 .5.9.8 1.8.8 2.8 0 1.3-.4 2.4-1.1 3.2-.7.8-1.7 1.4-2.8 1.6v.1c2.9.9 4.3 2.5 4.3 5.1 0 1.8-.6 3.2-1.8 4.3-1.2 1.1-2.8 1.6-5 1.6-2.3 0-4.1-.6-5.4-1.7-1.4-1.1-2.1-2.8-2.3-5.1h4c.1 1 .4 1.9 1 2.5.6.6 1.4.9 2.5.9.9 0 1.6-.3 2.2-.8.5-.5.8-1.2.8-2 0-1-.4-1.7-1.1-2.3-.8-.5-1.9-.8-3.3-.8h-.8v-3.3h.8c2.7 0 4.1-.9 4.1-2.8 0-.8-.2-1.5-.7-2-.5-.5-1.1-.7-2-.7-.9 0-1.6.3-2.1.8-.6.6-.9 1.3-1 2.3h-4c.1-2.1.8-3.7 2-4.8 1.2-1.1 3-1.7 5.2-1.7 1.3 0 2.4.3 3.4.8z"/>
	</g>
	<g>
		<path d="M490.4 506.1c0-.4 0-.8.1-1.1.1-.4.1-.6.1-.7.2-.8.2-1.6.2-2.2 0-.8-.1-1.6-.4-2.3-.3-.7-.6-1.3-1-1.8s-.9-.9-1.3-1.1v-.2h2.8c.4.2.7.5 1.1.9.4.4.8 1 1.1 1.7.3.7.5 1.6.5 2.7 0 .5 0 1-.1 1.4s-.1.7-.1.8c-.1.8-.2 1.5-.2 1.9 0 .6.2 1.1.5 1.6s.9.7 1.7.8v1.1c-.8.1-1.4.4-1.7.8-.3.5-.5 1-.5 1.6 0 .4.1 1.1.2 1.9 0 .1.1.4.1.8s.1.9.1 1.4c0 1-.2 1.9-.5 2.7-.3.7-.7 1.3-1.1 1.7-.4.4-.8.7-1.1.9h-2.8v-.2c.5-.2.9-.6 1.3-1.1.4-.5.8-1.1 1-1.8.3-.7.4-1.5.4-2.3 0-.7-.1-1.4-.2-2.3 0-.1 0-.4-.1-.7-.1-.4-.1-.7-.1-1.1 0-1.5.8-2.4 2.4-2.8-1.6-.5-2.4-1.4-2.4-3zM408.6 508.9c1.6.4 2.4 1.3 2.4 2.8 0 .4 0 .7-.1 1.1-.1.4-.1.6-.1.7-.2.8-.2 1.6-.2 2.3 0 .8.1 1.6.4 2.3.3.7.6 1.3 1 1.8s.9.9 1.3 1.1v.2h-2.8c-.4-.2-.7-.5-1.1-.9-.4-.4-.8-1-1.1-1.7-.3-.7-.5-1.6-.5-2.7 0-.5 0-1 .1-1.4s.1-.7.1-.8c.1-.8.2-1.5.2-1.9 0-.6-.2-1.1-.5-1.6s-.9-.7-1.7-.8v-1.1c.8-.1 1.4-.4 1.7-.8.3-.5.5-1 .5-1.6 0-.4-.1-1-.2-1.9 0-.1-.1-.4-.1-.8s-.1-.9-.1-1.4c0-1 .2-1.9.5-2.7.3-.7.7-1.3 1.1-1.7.4-.4.8-.7 1.1-.9h2.8v.2c-.5.2-.9.6-1.3 1.1s-.8 1.1-1 1.8c-.3.7-.4 1.5-.4 2.3 0 .7.1 1.4.2 2.2 0 .1 0 .3.1.7.1.4.1.8.1 1.1-.1 1.8-.9 2.7-2.4 3zM469.8 516.6c-.5.9-1.3 1.6-2.3 2.1-1 .5-2.3.8-3.7.8-1.4 0-2.7-.2-3.9-.7-1.1-.5-2.1-1.2-2.7-2.1-.7-.9-1.1-2-1.2-3.3h4.3c.1.8.4 1.5 1 2.1.6.6 1.3.8 2.3.8.8 0 1.5-.2 2-.7.5-.5.7-1 .7-1.8 0-.6-.2-1.2-.5-1.6-.4-.4-.8-.8-1.4-1-.6-.3-1.3-.5-2.3-.9-1.3-.4-2.3-.8-3.1-1.3-.8-.4-1.5-1-2.1-1.8-.6-.8-.9-1.8-.9-3.1 0-1.8.6-3.2 1.9-4.2 1.3-1 2.9-1.5 5-1.5 2.2 0 3.9.5 5.2 1.6 1.3 1 2 2.4 2.2 4.2h-4.4c-.1-.7-.4-1.3-.9-1.8s-1.2-.7-2.1-.7c-.8 0-1.4.2-1.8.6-.5.4-.7 1-.7 1.7 0 .6.2 1.1.5 1.5.4.4.8.7 1.4 1 .5.3 1.3.5 2.2.8 1.3.5 2.4.9 3.2 1.3.8.4 1.5 1 2.1 1.8.6.8.9 1.9.9 3.2-.1 1.2-.3 2.1-.9 3zM484.1 498.7c1 .5 1.7 1.2 2.3 2 .5.9.8 1.8.8 2.8 0 1.3-.4 2.4-1.1 3.2-.7.8-1.7 1.4-2.8 1.6v.1c2.9.9 4.3 2.5 4.3 5.1 0 1.8-.6 3.2-1.8 4.3-1.2 1.1-2.8 1.6-5 1.6-2.3 0-4.1-.6-5.4-1.7-1.4-1.1-2.1-2.8-2.3-5.1h4c.1 1 .4 1.9 1 2.5.6.6 1.4.9 2.5.9.9 0 1.6-.3 2.2-.8.5-.5.8-1.2.8-2 0-1-.4-1.7-1.1-2.3-.8-.5-1.9-.8-3.3-.8h-.8v-3.3h.8c2.7 0 4.1-.9 4.1-2.8 0-.8-.2-1.5-.7-2-.5-.5-1.1-.7-2-.7-.9 0-1.6.3-2.1.8-.6.6-.9 1.3-1 2.3h-4c.1-2.1.8-3.7 2-4.8 1.2-1.1 3-1.7 5.2-1.7 1.2.1 2.4.4 3.4.8zM428.5 516.7c-.5.9-1.3 1.7-2.4 2.2-1.1.6-2.4.8-3.9.8s-2.9-.3-4-.8c-1.2-.5-2.1-1.3-2.9-2.2-.7-1-1.1-2.1-1.2-3.4h4.5c.1.9.4 1.6 1 2.2.6.6 1.4.9 2.4.9.9 0 1.6-.2 2-.7.5-.5.7-1.1.7-1.8s-.2-1.2-.6-1.7c-.4-.4-.9-.8-1.4-1-.6-.3-1.4-.6-2.4-.9-1.3-.4-2.4-.9-3.3-1.3-.8-.4-1.6-1.1-2.2-1.9-.6-.8-.9-1.9-.9-3.2 0-1.8.7-3.3 2-4.3 1.3-1.1 3.1-1.6 5.2-1.6 2.3 0 4 .5 5.4 1.6 1.3 1.1 2.1 2.5 2.3 4.4h-4.6c-.1-.8-.4-1.4-1-1.9-.5-.5-1.2-.7-2.1-.7-.8 0-1.4.2-1.9.6-.5.4-.7 1-.7 1.8 0 .6.2 1.1.6 1.6.4.4.8.8 1.4 1 .6.3 1.4.6 2.3.9 1.4.5 2.5.9 3.3 1.4.9.4 1.6 1.1 2.2 1.9.6.8.9 2 .9 3.3.1.9-.2 1.9-.7 2.8zM441.8 504.3c0-.9-.2-1.7-.7-2.2s-1.2-.8-2.1-.8c-2 0-3 1.4-3.2 4.1h-4.1c.1-2.5.9-4.4 2.3-5.7 1.4-1.3 3.2-2 5.3-2 2.2 0 3.9.6 5.1 1.7 1.2 1.1 1.8 2.7 1.8 4.6 0 1.5-.4 3-1.3 4.5s-2 2.9-3.3 4.1c-1.3 1.3-2.8 2.3-4.3 3.3h9.3v3.5h-15v-3.2c6.8-4.8 10.2-8.7 10.2-11.9z"/>
		<g>
			<path d="M455 519c0 .9-.2 1.6-.7 2.1-.5.6-1.2.8-2.1.8v-1.1c.4 0 .6-.1.8-.3.2-.2.3-.5.3-.9v-.2H452v-2.7h2.6c.2.8.4 1.5.4 2.3z"/>
		</g>
	</g>
	<g>
		<path d="M450.9 571c0-.4 0-.8.1-1.1.1-.4.1-.6.1-.7.2-.8.2-1.6.2-2.2 0-.8-.1-1.6-.4-2.3-.3-.7-.6-1.3-1-1.8s-.9-.9-1.3-1.1v-.2h2.8c.4.2.7.5 1.1.9.4.4.8 1 1.1 1.7.3.7.5 1.6.5 2.7 0 .5 0 1-.1 1.4-.1.5-.1.7-.1.8-.1.8-.2 1.5-.2 1.9 0 .6.2 1.1.5 1.6s.9.7 1.7.8v1.1c-.8.1-1.4.4-1.7.8s-.5 1-.5 1.6c0 .4.1 1 .2 1.9 0 .1.1.4.1.8s.1.9.1 1.4c0 1-.2 1.9-.5 2.7-.3.7-.7 1.3-1.1 1.7-.4.4-.8.7-1.1.9h-2.8v-.2c.5-.2.9-.6 1.3-1.1s.8-1.1 1-1.8c.3-.7.4-1.5.4-2.3 0-.7-.1-1.4-.2-2.3 0-.1 0-.4-.1-.7-.1-.4-.1-.7-.1-1.1 0-1.5.8-2.4 2.4-2.8-1.6-.5-2.4-1.5-2.4-3zM409.9 573.8c1.6.3 2.4 1.3 2.4 2.8 0 .4 0 .7-.1 1.1-.1.4-.1.6-.1.7-.2.8-.2 1.6-.2 2.3 0 .8.1 1.6.4 2.3.3.7.6 1.3 1 1.8s.9.9 1.3 1.1v.2h-2.8c-.4-.2-.7-.5-1.1-.9-.4-.4-.8-1-1.1-1.7-.3-.7-.5-1.6-.5-2.7 0-.5 0-1 .1-1.4s.1-.7.1-.8c.1-.8.2-1.5.2-1.9 0-.6-.2-1.1-.5-1.6s-.9-.7-1.7-.8v-1.1c.8-.1 1.4-.4 1.7-.8s.5-1 .5-1.6c0-.4-.1-1-.2-1.9 0-.1-.1-.4-.1-.8-.1-.5-.1-.9-.1-1.4 0-1 .2-1.9.5-2.7.3-.7.7-1.3 1.1-1.7.4-.4.8-.7 1.1-.9h2.8v.2c-.5.2-.9.6-1.3 1.1-.4.5-.8 1.1-1 1.8-.3.7-.4 1.5-.4 2.3 0 .7.1 1.4.2 2.2 0 .1 0 .3.1.7.1.4.1.8.1 1.1-.1 1.7-.8 2.7-2.4 3zM429.7 581.4c-.5.9-1.3 1.6-2.3 2.1-1 .5-2.3.8-3.7.8-1.4 0-2.7-.2-3.9-.7-1.1-.5-2.1-1.2-2.7-2.1-.7-.9-1.1-2-1.2-3.3h4.3c.1.8.4 1.5 1 2.1.6.6 1.3.8 2.3.8.8 0 1.5-.2 2-.7.5-.5.7-1 .7-1.8 0-.6-.2-1.2-.5-1.6-.4-.4-.8-.8-1.4-1-.6-.3-1.3-.5-2.3-.9-1.3-.4-2.3-.8-3.1-1.3-.8-.4-1.5-1-2.1-1.8-.6-.8-.9-1.8-.9-3.1 0-1.8.6-3.2 1.9-4.2 1.3-1 2.9-1.5 5-1.5 2.2 0 3.9.5 5.2 1.6 1.3 1 2 2.4 2.2 4.2h-4.4c-.1-.7-.4-1.3-.9-1.8s-1.2-.7-2.1-.7c-.8 0-1.4.2-1.8.6-.5.4-.7 1-.7 1.7 0 .6.2 1.1.5 1.5.4.4.8.7 1.4 1 .5.3 1.3.5 2.2.8 1.3.5 2.4.9 3.2 1.3.8.4 1.5 1 2.1 1.8.6.8.9 1.9.9 3.2-.1 1.2-.4 2.1-.9 3zM444 563.6c1 .5 1.7 1.2 2.3 2 .5.9.8 1.8.8 2.8 0 1.3-.4 2.4-1.1 3.2-.7.8-1.7 1.4-2.8 1.6v.1c2.9.9 4.3 2.5 4.3 5.1 0 1.8-.6 3.2-1.8 4.3-1.2 1.1-2.8 1.6-5 1.6-2.3 0-4.1-.6-5.4-1.7-1.4-1.1-2.1-2.8-2.3-5.1h4c.1 1 .4 1.9 1 2.5.6.6 1.4.9 2.5.9.9 0 1.6-.3 2.2-.8.5-.5.8-1.2.8-2 0-1-.4-1.7-1.1-2.3-.8-.5-1.9-.8-3.3-.8h-.8v-3.3h.8c2.7 0 4.1-.9 4.1-2.8 0-.8-.2-1.5-.7-2-.5-.5-1.1-.7-2-.7-.9 0-1.6.3-2.1.8-.6.6-.9 1.3-1 2.3h-4c.1-2.1.8-3.7 2-4.8 1.2-1.1 3-1.7 5.2-1.7 1.2 0 2.4.3 3.4.8z"/>
	</g>
	<path d="M301.1 448.3c.9.5 1.6 1.3 2.1 2.4.5 1 .8 2.2.8 3.6s-.3 2.6-.8 3.6-1.2 1.8-2.1 2.4-1.9.8-3 .8-2.1-.3-2.9-.8c-.8-.5-1.4-1.3-1.7-2.1v2.8h-3.4v-17.8h3.4v7.2c.3-.9.9-1.6 1.7-2.1.8-.5 1.7-.8 2.9-.8 1.1 0 2.1.3 3 .8zm-6.6 3.2c-.7.7-1 1.6-1 2.8 0 1.2.3 2.1 1 2.8.7.7 1.5 1 2.5 1 1.1 0 1.9-.3 2.5-1 .6-.7 1-1.6 1-2.8 0-1.2-.3-2.1-1-2.8s-1.5-1-2.5-1-1.8.3-2.5 1z"/>
	<g>
		<path d="M432.7 459.7c-1.6 1-4.4 1.6-6.7 1.6-3.7 0-7.7-1.4-7.7-5.4 0-2.2 1.8-3.9 4.1-4.3v-.1c-2.1-.6-3.2-1.9-3.2-3.7 0-2.4 2.4-4.8 7.4-4.8 2.4 0 4.2.5 5.6 1.3l-.8 2.8c-.9-.5-2.6-1-4.2-1-2.1 0-3.5.9-3.5 2.1 0 1.4 1.8 2 4.4 2h1.9v3h-2c-2.8 0-4.9.6-4.9 2.3 0 1.7 1.9 2.5 4.1 2.5 1.7 0 3.8-.6 4.9-1.2l.6 2.9z"/>
	</g>
	<g>
		<circle cx="568.4" cy="227.4" r="28.5" class="st7"/>
		<path d="M522.5 217.8l15.5 10.7-15.5 10.8" class="st5"/>
		<circle cx="709.9" cy="227.4" r="28.5" class="st7"/>
		<circle cx="851.5" cy="227.4" r="28.5" class="st7"/>
		<path d="M664 217.8l15.5 10.7-15.5 10.8M796.7 217.8l15.5 10.7-15.5 10.8M597.8 228.5h83.6M738.4 228.5h73.8" class="st5"/>
		<path d="M816.8 212.6c-14.5-13.9-20.3-35.7-12.1-55 10.6-25.1 39.6-36.9 64.7-26.4 25.1 10.6 36.9 39.6 26.4 64.7-1.5 3.6-3.4 7-5.7 10" class="st6"/>
		<path d="M889.4 194.8l.3 11.9 10.6-5.3" class="st5"/>
		<path d="M683 218.1c-21-14.3-28.9-43-16.3-65.5 13.3-23.8 43.4-32.3 67.2-19s32.3 43.4 19 67.2c-1.9 3.4-4.2 6.6-6.8 9.3" class="st6"/>
		<path d="M746.7 199.1l-1 11.8 11.2-4" class="st5"/>
		<circle cx="851.7" cy="227.5" r="36.6" class="st7"/>
		<path d="M490.5 228.5h49.4" class="st5"/>
		<path d="M570.3 95.4c.8.5 1.4 1.2 1.7 2.1v-2.8h3.4V108H572v-2.8c-.3.9-.9 1.6-1.7 2.1-.8.5-1.8.8-2.9.8-1.1 0-2.1-.3-3-.8-.9-.5-1.6-1.3-2.1-2.4-.5-1-.8-2.2-.8-3.6s.3-2.6.8-3.6 1.2-1.8 2.1-2.4c.9-.5 1.9-.8 3-.8 1.2.1 2.1.3 2.9.9zm-4.3 3.2c-.6.7-1 1.6-1 2.8 0 1.2.3 2.1 1 2.8.6.7 1.5 1 2.5 1s1.9-.3 2.5-1c.7-.7 1-1.6 1-2.8 0-1.2-.3-2.1-1-2.8-.7-.7-1.5-1-2.5-1-1.1-.1-1.9.3-2.5 1zM855 96c1.1.9 1.9 2.2 2.1 3.8h-3.6c-.1-.7-.5-1.3-1-1.7-.5-.4-1.2-.6-1.9-.6-.9 0-1.6.3-2.2 1-.6.7-.9 1.6-.9 2.9 0 1.3.3 2.3.9 2.9.6.7 1.3 1 2.2 1 .8 0 1.4-.2 1.9-.6.5-.4.8-1 1-1.7h3.6c-.3 1.6-1 2.9-2.1 3.8-1.1.9-2.6 1.4-4.3 1.4-1.3 0-2.4-.3-3.5-.8-1-.6-1.8-1.3-2.4-2.4-.6-1-.8-2.2-.8-3.6s.3-2.6.8-3.6c.6-1 1.3-1.8 2.4-2.4 1-.5 2.2-.8 3.5-.8 1.7 0 3.1.4 4.3 1.4z"/>
		<path d="M541 217.8c-20.6-14.4-28.3-42.9-15.9-65.2 13.3-23.8 43.4-32.3 67.2-19s32.3 43.4 19 67.2c-1.9 3.4-4.2 6.6-6.8 9.3" class="st6"/>
		<path d="M605.1 199.1l-1 11.8 11.2-4" class="st5"/>
		<path d="M569.2 235.3c-.5.9-1.3 1.7-2.4 2.2-1.1.6-2.4.8-3.9.8s-2.9-.3-4-.8c-1.2-.5-2.1-1.3-2.9-2.2-.7-1-1.1-2.1-1.2-3.4h4.5c.1.9.4 1.6 1 2.2.6.6 1.4.9 2.4.9.9 0 1.6-.2 2-.7.5-.5.7-1.1.7-1.8s-.2-1.2-.6-1.7c-.4-.4-.9-.8-1.4-1-.6-.3-1.4-.6-2.4-.9-1.3-.4-2.4-.9-3.3-1.3-.8-.4-1.6-1.1-2.2-1.9-.6-.8-.9-1.9-.9-3.2 0-1.8.7-3.3 2-4.3 1.3-1.1 3.1-1.6 5.2-1.6 2.3 0 4 .5 5.4 1.6 1.3 1.1 2.1 2.5 2.3 4.4H565c-.1-.8-.4-1.4-1-1.9-.5-.5-1.2-.7-2.1-.7-.8 0-1.4.2-1.9.6-.5.4-.7 1-.7 1.8 0 .6.2 1.1.6 1.6.4.4.8.8 1.4 1 .6.3 1.4.6 2.3.9 1.4.5 2.5.9 3.3 1.4.9.4 1.6 1.1 2.2 1.9.6.8.9 2 .9 3.3 0 .9-.2 1.9-.8 2.8zM571.6 220.8v-4h7.7v21.4h-4.5v-17.4h-3.2zM708.1 235.4c-.5.9-1.3 1.7-2.4 2.2-1.1.6-2.4.8-3.9.8s-2.9-.3-4-.8c-1.2-.5-2.1-1.3-2.9-2.2-.7-1-1.1-2.1-1.2-3.4h4.5c.1.9.4 1.6 1 2.2.6.6 1.4.9 2.4.9.9 0 1.6-.2 2-.7.5-.5.7-1.1.7-1.8s-.2-1.2-.6-1.7c-.4-.4-.9-.8-1.4-1-.6-.3-1.4-.6-2.4-.9-1.3-.4-2.4-.9-3.3-1.3-.8-.4-1.6-1.1-2.2-1.9-.6-.8-.9-1.9-.9-3.2 0-1.8.7-3.3 2-4.3 1.3-1.1 3.1-1.6 5.2-1.6 2.3 0 4 .5 5.4 1.6 1.3 1.1 2.1 2.5 2.3 4.4h-4.6c-.1-.8-.4-1.4-1-1.9-.5-.5-1.2-.7-2.1-.7-.8 0-1.4.2-1.9.6-.5.4-.7 1-.7 1.8 0 .6.2 1.1.6 1.6.4.4.8.8 1.4 1 .6.3 1.4.6 2.3.9 1.4.5 2.5.9 3.3 1.4.9.4 1.6 1.1 2.2 1.9.6.8.9 2 .9 3.3.1.9-.2 1.9-.7 2.8zM721.5 223.1c0-.9-.2-1.7-.7-2.2s-1.2-.8-2.1-.8c-2 0-3 1.4-3.2 4.1h-4.1c.1-2.5.9-4.4 2.3-5.7 1.4-1.3 3.2-2 5.3-2 2.2 0 3.9.6 5.1 1.7 1.2 1.1 1.8 2.7 1.8 4.6 0 1.5-.4 3-1.3 4.5s-2 2.9-3.3 4.1c-1.3 1.3-2.8 2.3-4.3 3.3h9.3v3.5h-15V235c6.8-4.9 10.2-8.8 10.2-11.9z"/>
		<g>
			<path d="M848.4 235.4c-.5.9-1.3 1.7-2.4 2.2-1.1.6-2.4.8-3.9.8s-2.9-.3-4-.8c-1.2-.5-2.1-1.3-2.9-2.2-.7-1-1.1-2.1-1.2-3.4h4.5c.1.9.4 1.6 1 2.2.6.6 1.4.9 2.4.9.9 0 1.6-.2 2-.7.5-.5.7-1.1.7-1.8s-.2-1.2-.6-1.7c-.4-.4-.9-.8-1.4-1-.6-.3-1.4-.6-2.4-.9-1.3-.4-2.4-.9-3.3-1.3-.8-.4-1.6-1.1-2.2-1.9-.6-.8-.9-1.9-.9-3.2 0-1.8.7-3.3 2-4.3 1.3-1.1 3.1-1.6 5.2-1.6 2.3 0 4 .5 5.4 1.6 1.3 1.1 2.1 2.5 2.3 4.4h-4.6c-.1-.8-.4-1.4-1-1.9-.5-.5-1.2-.7-2.1-.7-.8 0-1.4.2-1.9.6-.5.4-.7 1-.7 1.8 0 .6.2 1.1.6 1.6.4.4.8.8 1.4 1 .6.3 1.4.6 2.3.9 1.4.5 2.5.9 3.3 1.4.9.4 1.6 1.1 2.2 1.9.6.8.9 2 .9 3.3.1.9-.2 1.9-.7 2.8zM863.2 216.8c1 .5 1.8 1.2 2.4 2.1.5.9.8 1.9.8 3 0 1.4-.4 2.5-1.1 3.4-.7.9-1.7 1.4-3 1.6v.2c3 .9 4.5 2.6 4.5 5.3 0 1.8-.6 3.3-1.8 4.5-1.2 1.1-3 1.7-5.2 1.7-2.4 0-4.3-.6-5.7-1.8-1.4-1.2-2.2-3-2.4-5.3h4.2c.1 1.1.5 2 1.1 2.6.6.6 1.5 1 2.6 1 1 0 1.7-.3 2.3-.8.5-.5.8-1.2.8-2.1 0-1-.4-1.8-1.2-2.4s-1.9-.8-3.5-.8h-.9v-3.5h.9c2.8 0 4.2-.9 4.2-2.9 0-.9-.3-1.5-.8-2s-1.2-.7-2.1-.7c-.9 0-1.6.3-2.2.9-.6.6-.9 1.4-1 2.4H852c.1-2.2.8-3.9 2.1-5 1.3-1.2 3.1-1.8 5.4-1.8 1.4-.4 2.7-.1 3.7.4z"/>
		</g>
		<g>
			<path d="M646.3 214.3c-1.6 1-4.4 1.6-6.7 1.6-3.7 0-7.7-1.4-7.7-5.4 0-2.2 1.8-3.9 4.1-4.3v-.2c-2.1-.6-3.2-1.9-3.2-3.7 0-2.4 2.4-4.8 7.4-4.8 2.4 0 4.2.5 5.6 1.3l-.8 2.8c-.9-.5-2.6-1-4.2-1-2.1 0-3.5.9-3.5 2.1 0 1.4 1.8 2 4.4 2h1.9v3h-1.9c-2.8 0-4.9.6-4.9 2.3 0 1.7 1.9 2.5 4.1 2.5 1.7 0 3.8-.6 4.9-1.2l.5 3z"/>
		</g>
		<g>
			<path d="M784 212.5c-1.6 1-4.4 1.6-6.7 1.6-3.7 0-7.7-1.4-7.7-5.4 0-2.2 1.8-3.9 4.1-4.3v-.1c-2.1-.6-3.2-1.9-3.2-3.7 0-2.4 2.4-4.8 7.4-4.8 2.4 0 4.2.5 5.6 1.3l-.8 2.8c-.9-.5-2.6-1-4.2-1-2.1 0-3.5.9-3.5 2.1 0 1.4 1.8 2 4.4 2h1.9v3h-1.9c-2.8 0-4.9.6-4.9 2.3 0 1.7 1.9 2.5 4.1 2.5 1.7 0 3.8-.6 4.9-1.2l.5 2.9z"/>
		</g>
		<path d="M715.9 95.4c.9.5 1.6 1.3 2.1 2.4.5 1 .8 2.2.8 3.6s-.3 2.6-.8 3.6-1.2 1.8-2.1 2.4-1.9.8-3 .8-2.1-.3-2.9-.8c-.8-.5-1.4-1.3-1.7-2.1v2.8h-3.4V90.3h3.4v7.2c.3-.9.9-1.6 1.7-2.1.8-.5 1.7-.8 2.9-.8 1.1 0 2.1.2 3 .8zm-6.6 3.2c-.7.7-1 1.6-1 2.8 0 1.2.3 2.1 1 2.8.7.7 1.5 1 2.5 1 1.1 0 1.9-.3 2.5-1 .6-.7 1-1.6 1-2.8 0-1.2-.3-2.1-1-2.8s-1.5-1-2.5-1c-1-.1-1.9.3-2.5 1z"/>
	</g>
</svg>
