<svg xmlns="http://www.w3.org/2000/svg" width="411" height="270">
    <g fill="none" fill-rule="evenodd" transform="translate(2)">
        <g stroke="#000" stroke-linecap="round" stroke-width="4">
            <path d="M270.1 177.2c16.1-23.7 47.8-33.8 74.3-21.3 29.4 13.9 42 49 28.1 78.4-13.9 29.4-49 42-78.4 28.1-4.2-2-8.1-4.5-11.7-7.3"/>
            <path stroke-linejoin="round" d="M295.8 254.8l-14.1-.3 5.7 13"/>
        </g>
        <circle cx="266.6" cy="211.9" r="28.7" stroke="#000" stroke-width="4"/>
        <circle cx="266.6" cy="211.9" r="34.9" stroke="#000" stroke-width="4"/>
        <circle cx="113.3" cy="211.9" r="28.7" stroke="#000" stroke-width="4"/>
        <circle cx="113.3" cy="211.9" r="34.9" stroke="#000" stroke-width="4"/>
        <path stroke="#000" stroke-linecap="round" stroke-linejoin="round" stroke-width="4" d="M246.8 112.8l-13.6 6.4 11.5 9.7"/>
        <circle cx="189.9" cy="79.9" r="28.7" stroke="#000" stroke-width="4"/>
        <circle cx="189.9" cy="79.9" r="34.9" stroke="#000" stroke-width="4"/>
        <g stroke="#000" stroke-linecap="round" stroke-linejoin="round" stroke-width="4">
            <path d="M163.3 205.3l-13.2 9.2 13.2 9.2M231.3 214.5h-81.2"/>
        </g>
        <g stroke="#000" stroke-linecap="round" stroke-linejoin="round" stroke-width="4">
            <path d="M130.8 164.9l.9 15.9 14.6-6.4M173.6 112.2l-41.9 68.6"/>
        </g>
        <g stroke="#000" stroke-linecap="round" stroke-linejoin="round" stroke-width="4">
            <path d="M248.3 164.9l-1 15.9-14.5-6.4M205.5 112.2l41.8 68.6"/>
        </g>
        <g stroke="#000" stroke-linecap="round" stroke-width="4">
            <path d="M108.7 177.3c-16.1-23.8-47.8-34-74.4-21.5-29.4 13.9-42 49-28.1 78.4 13.9 29.4 49 42 78.4 28.1 4.2-2 8.1-4.5 11.7-7.3"/>
            <path stroke-linejoin="round" d="M82.9 254.8l14.1-.3-5.7 13"/>
        </g>
        <ellipse cx="269.1" cy="80.8" rx="78.5" ry="44.7"/>
        <path stroke="#000" stroke-linecap="round" stroke-width="4" d="M203.5 47.7c14.4-9.3 35.4-15.2 58.9-15.2 43.3 0 78.5 20 78.5 44.7 0 24.7-35.1 44.7-78.5 44.7-8.6 0-16.8-.8-24.5-2.2"/>
        <path fill="#000" fill-rule="nonzero" d="M128.3 113.4c1.4 1.1 2.3 2.6 2.8 4.4h-3.6c-.4-.9-.9-1.6-1.7-2.2-.8-.5-1.7-.8-2.8-.8-.9 0-1.7.2-2.4.7-.7.4-1.3 1.1-1.7 1.9-.4.8-.6 1.8-.6 2.9 0 1.1.2 2.1.6 2.9.4.8 1 1.5 1.7 1.9.7.4 1.5.7 2.4.7 1.1 0 2-.3 2.8-.8.8-.5 1.3-1.2 1.7-2.2h3.6c-.4 1.9-1.4 3.4-2.8 4.4-1.4 1.1-3.1 1.6-5.3 1.6-1.6 0-3-.4-4.3-1.1-1.2-.7-2.2-1.7-2.9-3.1-.7-1.3-1-2.8-1-4.5 0-1.7.3-3.2 1-4.5.7-1.3 1.6-2.3 2.9-3.1 1.2-.7 2.7-1.1 4.3-1.1 2.2.4 4 .9 5.3 2zM44.3 203c1.4 1.1 2.3 2.6 2.8 4.4h-3.6c-.4-.9-.9-1.6-1.7-2.2-.8-.5-1.7-.8-2.8-.8-.9 0-1.7.2-2.4.7-.7.4-1.3 1.1-1.7 1.9-.4.8-.6 1.8-.6 2.9 0 1.1.2 2.1.6 2.9.4.8 1 1.5 1.7 1.9.7.4 1.5.7 2.4.7 1.1 0 2-.3 2.8-.8.8-.5 1.3-1.2 1.7-2.2h3.6c-.4 1.9-1.4 3.4-2.8 4.4-1.4 1.1-3.1 1.6-5.3 1.6-1.6 0-3-.4-4.3-1.1-1.2-.7-2.2-1.7-2.9-3.1-.7-1.3-1-2.8-1-4.5 0-1.7.3-3.2 1-4.5.7-1.3 1.6-2.3 2.9-3.1 1.2-.7 2.7-1.1 4.3-1.1 2.2.4 4 .9 5.3 2zM193.3 252c1.4 1.1 2.3 2.6 2.8 4.4h-3.6c-.4-.9-.9-1.6-1.7-2.2-.8-.5-1.7-.8-2.8-.8-.9 0-1.7.2-2.4.7-.7.4-1.3 1.1-1.7 1.9-.4.8-.6 1.8-.6 2.9 0 1.1.2 2.1.6 2.9.4.8 1 1.5 1.7 1.9.7.4 1.5.7 2.4.7 1.1 0 2-.3 2.8-.8.8-.5 1.3-1.2 1.7-2.2h3.6c-.4 1.9-1.4 3.4-2.8 4.4-1.4 1.1-3.1 1.6-5.3 1.6-1.6 0-3-.4-4.3-1.1-1.2-.7-2.2-1.7-2.9-3.1-.7-1.3-1-2.8-1-4.5 0-1.7.3-3.2 1-4.5.7-1.3 1.6-2.3 2.9-3.1 1.2-.7 2.7-1.1 4.3-1.1 2.1.4 3.9.9 5.3 2z"/>
        <g stroke="#000" stroke-linecap="round" stroke-linejoin="round" stroke-width="4">
            <path d="M129 72.6l13 9-13 9.1M100.5 81.6H142"/>
        </g>
        <path fill="#000" fill-rule="nonzero" d="M268.9 1.2c.8.5 1.4 1.2 1.7 2.1V.5h3.4v13.3h-3.4V11c-.3.9-.9 1.6-1.7 2.1-.8.5-1.8.8-2.9.8-1.1 0-2.1-.3-3-.8-.9-.5-1.6-1.3-2.1-2.4-.5-1-.8-2.2-.8-3.6s.3-2.6.8-3.6 1.2-1.8 2.1-2.4c.9-.5 1.9-.8 3-.8 1.1.1 2.1.4 2.9.9zm-4.4 3.2c-.6.7-1 1.6-1 2.8 0 1.2.3 2.1 1 2.8.6.7 1.5 1 2.5 1s1.9-.3 2.5-1c.7-.7 1-1.6 1-2.8 0-1.2-.3-2.1-1-2.8-.7-.7-1.5-1-2.5-1s-1.9.3-2.5 1zM274.2 142.6c.9.5 1.6 1.3 2.1 2.4.5 1 .8 2.2.8 3.6s-.3 2.6-.8 3.6-1.2 1.8-2.1 2.4c-.9.6-1.9.8-3 .8s-2.1-.3-2.9-.8c-.8-.5-1.4-1.3-1.7-2.1v2.8h-3.4v-17.8h3.4v7.2c.3-.9.9-1.6 1.7-2.1.8-.5 1.7-.8 2.9-.8 1.1 0 2.1.3 3 .8zm-6.6 3.2c-.7.7-1 1.6-1 2.8 0 1.2.3 2.1 1 2.8.7.7 1.5 1 2.5 1 1.1 0 1.9-.3 2.5-1 .6-.7 1-1.6 1-2.8 0-1.2-.3-2.1-1-2.8-.7-.7-1.5-1-2.5-1s-1.9.3-2.5 1zM406.1 204.2c.9.5 1.6 1.3 2.1 2.4.5 1 .8 2.2.8 3.6s-.3 2.6-.8 3.6-1.2 1.8-2.1 2.4c-.9.6-1.9.8-3 .8s-2.1-.3-2.9-.8c-.8-.5-1.4-1.3-1.7-2.1v2.8h-3.4v-17.8h3.4v7.2c.3-.9.9-1.6 1.7-2.1.8-.5 1.7-.8 2.9-.8 1.1 0 2.1.3 3 .8zm-6.6 3.2c-.7.7-1 1.6-1 2.8 0 1.2.3 2.1 1 2.8.7.7 1.5 1 2.5 1 1.1 0 1.9-.3 2.5-1 .6-.7 1-1.6 1-2.8 0-1.2-.3-2.1-1-2.8-.7-.7-1.5-1-2.5-1s-1.8.3-2.5 1z"/>
    </g>
</svg>
