<?xml version="1.0" encoding="UTF-8"?>
<svg width="414px" height="173px" viewBox="0 0 414 173" version="1.1" xmlns="http://www.w3.org/2000/svg" xmlns:xlink="http://www.w3.org/1999/xlink">
    <!-- Generator: Sketch 51.1 (57501) - http://www.bohemiancoding.com/sketch -->
    <title>DFAvsNFA_example_2</title>
    <desc>Created with Sketch.</desc>
    <defs></defs>
    <g id="Page-1" stroke="none" stroke-width="1" fill="none" fill-rule="evenodd">
        <g id="DFAvsNFA_example_2" transform="translate(2.000000, 0.000000)">
            <g id="Group">
                <g transform="translate(0.000000, 36.000000)" stroke="#000000" stroke-width="4">
                    <circle id="Oval" cx="78.1" cy="100.4" r="28.5"></circle>
                    <polyline id="Shape" stroke-linecap="round" stroke-linejoin="round" points="34.2 90.7 49.6 101.5 34.2 112.2"></polyline>
                    <circle id="Oval" cx="219.7" cy="100.4" r="28.5"></circle>
                    <circle id="Oval" cx="361.3" cy="100.4" r="28.5"></circle>
                    <polyline id="Shape" stroke-linecap="round" stroke-linejoin="round" points="175.2 90.7 190.7 101.5 175.2 112.2"></polyline>
                    <polyline id="Shape" stroke-linecap="round" stroke-linejoin="round" points="310.5 90.7 326 101.5 310.5 112.2"></polyline>
                    <path d="M106.6,101.5 L191.2,101.5" id="Shape" stroke-linecap="round" stroke-linejoin="round"></path>
                    <path d="M248.2,101.5 L326,101.5" id="Shape" stroke-linecap="round" stroke-linejoin="round"></path>
                    <g transform="translate(30.000000, 0.000000)" id="Shape" stroke-linecap="round">
                        <path d="M75.4,91.8 C97.2,77.7 105.7,48.4 92.9,25.5 C79.6,1.7 49.5,-6.8 25.7,6.5 C1.9,19.8 -6.6,49.9 6.7,73.7 C8.6,77.1 10.9,80.3 13.5,83"></path>
                        <polyline stroke-linejoin="round" points="12.8 72 13.8 83.8 2.7 79.8"></polyline>
                    </g>
                    <g transform="translate(170.000000, 0.000000)" id="Shape" stroke-linecap="round">
                        <path d="M77.1,90.7 C97.7,76.2 105.4,47.9 92.9,25.6 C79.6,1.8 49.5,-6.7 25.7,6.6 C1.9,19.9 -6.6,50 6.7,73.8 C8.6,77.2 10.9,80.4 13.5,83.1"></path>
                        <polyline stroke-linejoin="round" points="13 72 14 83.8 2.8 79.8"></polyline>
                    </g>
                    <g transform="translate(310.000000, 0.000000)" id="Shape" stroke-linecap="round">
                        <path d="M82.6,86.4 C99.1,71.1 104.4,45.8 93.1,25.6 C79.8,1.8 49.7,-6.7 25.9,6.6 C2.1,19.9 -6.4,50 6.9,73.8 C8.8,77.2 11.1,80.4 13.7,83.1"></path>
                        <polyline stroke-linejoin="round" points="13.1 72 14.1 83.8 2.9 79.8"></polyline>
                    </g>
                    <circle id="Oval" cx="361.3" cy="100.4" r="34.3"></circle>
                    <path d="M0.3,101.5 L49.6,101.5" id="Shape" stroke-linecap="round" stroke-linejoin="round"></path>
                </g>
                <path d="M80.1,6 C80.9,6.5 81.5,7.2 81.8,8.1 L81.8,5.3 L85.2,5.3 L85.2,18.6 L81.8,18.6 L81.8,15.8 C81.5,16.7 80.9,17.4 80.1,17.9 C79.3,18.4 78.3,18.7 77.2,18.7 C76.1,18.7 75.1,18.4 74.2,17.9 C73.3,17.4 72.6,16.6 72.1,15.5 C71.6,14.5 71.3,13.3 71.3,11.9 C71.3,10.5 71.6,9.3 72.1,8.3 C72.6,7.3 73.3,6.5 74.2,5.9 C75.1,5.4 76.1,5.1 77.2,5.1 C78.3,5.2 79.3,5.4 80.1,6 Z M75.7,9.2 C75.1,9.9 74.7,10.8 74.7,12 C74.7,13.2 75,14.1 75.7,14.8 C76.3,15.5 77.2,15.8 78.2,15.8 C79.2,15.8 80.1,15.5 80.7,14.8 C81.4,14.1 81.7,13.2 81.7,12 C81.7,10.8 81.4,9.9 80.7,9.2 C80,8.5 79.2,8.2 78.2,8.2 C77.2,8.1 76.3,8.5 75.7,9.2 Z" id="Shape" fill="#000000" fill-rule="nonzero"></path>
                <path d="M223,6 C223.9,6.5 224.6,7.3 225.1,8.4 C225.6,9.4 225.9,10.6 225.9,12 C225.9,13.4 225.6,14.6 225.1,15.6 C224.6,16.6 223.9,17.4 223,18 C222.1,18.6 221.1,18.8 220,18.8 C218.9,18.8 217.9,18.5 217.1,18 C216.3,17.5 215.7,16.7 215.4,15.9 L215.4,18.7 L212,18.7 L212,0.9 L215.4,0.9 L215.4,8.1 C215.7,7.2 216.3,6.5 217.1,6 C217.9,5.5 218.8,5.2 220,5.2 C221.1,5.2 222.1,5.4 223,6 Z M216.3,9.2 C215.6,9.9 215.3,10.8 215.3,12 C215.3,13.2 215.6,14.1 216.3,14.8 C217,15.5 217.8,15.8 218.8,15.8 C219.9,15.8 220.7,15.5 221.3,14.8 C221.9,14.1 222.3,13.2 222.3,12 C222.3,10.8 222,9.9 221.3,9.2 C220.6,8.5 219.8,8.2 218.8,8.2 C217.9,8.1 217,8.5 216.3,9.2 Z" id="Shape" fill="#000000" fill-rule="nonzero"></path>
                <path d="M361.3,6.6 C362.4,7.5 363.2,8.8 363.4,10.4 L359.8,10.4 C359.7,9.7 359.3,9.1 358.8,8.7 C358.3,8.3 357.6,8.1 356.9,8.1 C356,8.1 355.3,8.4 354.7,9.1 C354.1,9.8 353.8,10.7 353.8,12 C353.8,13.3 354.1,14.3 354.7,14.9 C355.3,15.6 356,15.9 356.9,15.9 C357.7,15.9 358.3,15.7 358.8,15.3 C359.3,14.9 359.6,14.3 359.8,13.6 L363.4,13.6 C363.1,15.2 362.4,16.5 361.3,17.4 C360.2,18.3 358.7,18.8 357,18.8 C355.7,18.8 354.6,18.5 353.5,18 C352.5,17.4 351.7,16.7 351.1,15.6 C350.5,14.6 350.3,13.4 350.3,12 C350.3,10.6 350.6,9.4 351.1,8.4 C351.7,7.4 352.4,6.6 353.5,6 C354.5,5.5 355.7,5.2 357,5.2 C358.7,5.2 360.1,5.6 361.3,6.6 Z" id="Shape" fill="#000000" fill-rule="nonzero"></path>
                <path d="M156.1,115.5 C154.5,116.5 151.7,117.1 149.4,117.1 C145.7,117.1 141.7,115.7 141.7,111.7 C141.7,109.5 143.5,107.8 145.8,107.4 L145.8,107.3 C143.7,106.7 142.6,105.4 142.6,103.6 C142.6,101.2 145,98.8 150,98.8 C152.4,98.8 154.2,99.3 155.6,100.1 L154.8,102.9 C153.9,102.4 152.2,101.9 150.6,101.9 C148.5,101.9 147.1,102.8 147.1,104 C147.1,105.4 148.9,106 151.5,106 L153.4,106 L153.4,109 L151.5,109 C148.7,109 146.6,109.6 146.6,111.3 C146.6,113 148.5,113.8 150.7,113.8 C152.4,113.8 154.5,113.2 155.6,112.6 L156.1,115.5 Z" id="Shape" fill="#000000" fill-rule="nonzero"></path>
                <path d="M294.3,115.5 C292.7,116.5 289.9,117.1 287.6,117.1 C283.9,117.1 279.9,115.7 279.9,111.7 C279.9,109.5 281.7,107.8 284,107.4 L284,107.3 C281.9,106.7 280.8,105.4 280.8,103.6 C280.8,101.2 283.2,98.8 288.2,98.8 C290.6,98.8 292.4,99.3 293.8,100.1 L293,102.9 C292.1,102.4 290.4,101.9 288.8,101.9 C286.7,101.9 285.3,102.8 285.3,104 C285.3,105.4 287.1,106 289.7,106 L291.6,106 L291.6,109 L289.7,109 C286.9,109 284.8,109.6 284.8,111.3 C284.8,113 286.7,113.8 288.9,113.8 C290.6,113.8 292.7,113.2 293.8,112.6 L294.3,115.5 Z" id="Shape" fill="#000000" fill-rule="nonzero"></path>
            </g>
        </g>
    </g>
</svg>