<svg xmlns="http://www.w3.org/2000/svg" width="414" height="173">
    <g fill="none" fill-rule="evenodd">
        <g stroke="#000" stroke-width="4" transform="translate(2 36)">
            <circle cx="78.1" cy="100.4" r="28.5"/>
            <path stroke-linecap="round" stroke-linejoin="round" d="M34.2 90.7l15.4 10.8-15.4 10.7"/>
            <circle cx="219.7" cy="100.4" r="28.5"/>
            <circle cx="361.3" cy="100.4" r="28.5"/>
            <path stroke-linecap="round" stroke-linejoin="round" d="M175.2 90.7l15.5 10.8-15.5 10.7M310.5 90.7l15.5 10.8-15.5 10.7M106.6 101.5h84.6M248.2 101.5H326"/>
            <g stroke-linecap="round">
                <path d="M105.4 91.8c21.8-14.1 30.3-43.4 17.5-66.3-13.3-23.8-43.4-32.3-67.2-19-23.8 13.3-32.3 43.4-19 67.2 1.9 3.4 4.2 6.6 6.8 9.3"/>
                <path stroke-linejoin="round" d="M42.8 72l1 11.8-11.1-4"/>
            </g>
            <g stroke-linecap="round">
                <path d="M247.1 90.7c20.6-14.5 28.3-42.8 15.8-65.1-13.3-23.8-43.4-32.3-67.2-19-23.8 13.3-32.3 43.4-19 67.2 1.9 3.4 4.2 6.6 6.8 9.3"/>
                <path stroke-linejoin="round" d="M183 72l1 11.8-11.2-4"/>
            </g>
            <g stroke-linecap="round">
                <path d="M392.6 86.4c16.5-15.3 21.8-40.6 10.5-60.8-13.3-23.8-43.4-32.3-67.2-19-23.8 13.3-32.3 43.4-19 67.2 1.9 3.4 4.2 6.6 6.8 9.3"/>
                <path stroke-linejoin="round" d="M323.1 72l1 11.8-11.2-4"/>
            </g>
            <circle cx="361.3" cy="100.4" r="34.3"/>
            <path stroke-linecap="round" stroke-linejoin="round" d="M.3 101.5h49.3"/>
        </g>
        <path fill="#000" fill-rule="nonzero" d="M82.1 6c.8.5 1.4 1.2 1.7 2.1V5.3h3.4v13.3h-3.4v-2.8c-.3.9-.9 1.6-1.7 2.1-.8.5-1.8.8-2.9.8-1.1 0-2.1-.3-3-.8-.9-.5-1.6-1.3-2.1-2.4-.5-1-.8-2.2-.8-3.6s.3-2.6.8-3.6 1.2-1.8 2.1-2.4c.9-.5 1.9-.8 3-.8 1.1.1 2.1.3 2.9.9zm-4.4 3.2c-.6.7-1 1.6-1 2.8 0 1.2.3 2.1 1 2.8.6.7 1.5 1 2.5 1s1.9-.3 2.5-1c.7-.7 1-1.6 1-2.8 0-1.2-.3-2.1-1-2.8-.7-.7-1.5-1-2.5-1-1-.1-1.9.3-2.5 1zM225 6c.9.5 1.6 1.3 2.1 2.4.5 1 .8 2.2.8 3.6s-.3 2.6-.8 3.6-1.2 1.8-2.1 2.4c-.9.6-1.9.8-3 .8s-2.1-.3-2.9-.8c-.8-.5-1.4-1.3-1.7-2.1v2.8H214V.9h3.4v7.2c.3-.9.9-1.6 1.7-2.1.8-.5 1.7-.8 2.9-.8 1.1 0 2.1.2 3 .8zm-6.7 3.2c-.7.7-1 1.6-1 2.8 0 1.2.3 2.1 1 2.8.7.7 1.5 1 2.5 1 1.1 0 1.9-.3 2.5-1 .6-.7 1-1.6 1-2.8 0-1.2-.3-2.1-1-2.8-.7-.7-1.5-1-2.5-1-.9-.1-1.8.3-2.5 1zM363.3 6.6c1.1.9 1.9 2.2 2.1 3.8h-3.6c-.1-.7-.5-1.3-1-1.7-.5-.4-1.2-.6-1.9-.6-.9 0-1.6.3-2.2 1-.6.7-.9 1.6-.9 2.9 0 1.3.3 2.3.9 2.9.6.7 1.3 1 2.2 1 .8 0 1.4-.2 1.9-.6.5-.4.8-1 1-1.7h3.6c-.3 1.6-1 2.9-2.1 3.8-1.1.9-2.6 1.4-4.3 1.4-1.3 0-2.4-.3-3.5-.8-1-.6-1.8-1.3-2.4-2.4-.6-1-.8-2.2-.8-3.6s.3-2.6.8-3.6c.6-1 1.3-1.8 2.4-2.4 1-.5 2.2-.8 3.5-.8 1.7 0 3.1.4 4.3 1.4zM158.1 115.5c-1.6 1-4.4 1.6-6.7 1.6-3.7 0-7.7-1.4-7.7-5.4 0-2.2 1.8-3.9 4.1-4.3v-.1c-2.1-.6-3.2-1.9-3.2-3.7 0-2.4 2.4-4.8 7.4-4.8 2.4 0 4.2.5 5.6 1.3l-.8 2.8c-.9-.5-2.6-1-4.2-1-2.1 0-3.5.9-3.5 2.1 0 1.4 1.8 2 4.4 2h1.9v3h-1.9c-2.8 0-4.9.6-4.9 2.3 0 1.7 1.9 2.5 4.1 2.5 1.7 0 3.8-.6 4.9-1.2l.5 2.9zM296.3 115.5c-1.6 1-4.4 1.6-6.7 1.6-3.7 0-7.7-1.4-7.7-5.4 0-2.2 1.8-3.9 4.1-4.3v-.1c-2.1-.6-3.2-1.9-3.2-3.7 0-2.4 2.4-4.8 7.4-4.8 2.4 0 4.2.5 5.6 1.3l-.8 2.8c-.9-.5-2.6-1-4.2-1-2.1 0-3.5.9-3.5 2.1 0 1.4 1.8 2 4.4 2h1.9v3h-1.9c-2.8 0-4.9.6-4.9 2.3 0 1.7 1.9 2.5 4.1 2.5 1.7 0 3.8-.6 4.9-1.2l.5 2.9z"/>
    </g>
</svg>
