<svg xmlns="http://www.w3.org/2000/svg" id="Layer_1" viewBox="0 0 1024 768">
	<style>
		.st0{stroke-linecap:round}.st0,.st1,.st2{fill:none;stroke:#000;stroke-width:4;stroke-miterlimit:10}.st2{stroke-linecap:round;stroke-linejoin:round}
	</style>
	<path d="M303.7 299c14.5 12.7 23.7 31.3 23.7 52.2 0 38.2-31 69.2-69.2 69.2s-69.2-31-69.2-69.2c0-9.3 1.8-18.1 5.1-26.2m68.4-147.4c23.1-19.1 57.1-31.2 95-31.2 46.5 0 87.1 18.2 109 45.3m88.8 1.1c21.6-27.7 62.7-46.4 109.9-46.4 31.6 0 60.5 8.4 82.6 22.3" class="st0"/>
	<circle cx="776.5" cy="249.7" r="84.9" class="st1"/>
	<path d="M441.3 461.7c-7.4-19.3-11.6-41.2-11.6-64.3 0-37 10.7-70.8 28.1-96m105.5-1.6c17.8 25.4 28.7 59.4 28.7 96.9 0 24.1-4.5 46.8-12.5 66.6" class="st0"/>
	<circle cx="511.3" cy="513.8" r="84.9" class="st1"/>
	<circle cx="251.1" cy="249.2" r="72.5" class="st1"/>
	<path d="M252.5 264.7c-1.2 2-3 3.7-5.4 4.9-2.4 1.2-5.3 1.9-8.7 1.9-3.4 0-6.4-.6-9-1.7-2.7-1.1-4.8-2.8-6.4-5-1.6-2.2-2.5-4.7-2.7-7.6h10.1c.2 1.9 1 3.5 2.3 4.8 1.3 1.3 3.1 1.9 5.3 1.9 2 0 3.5-.5 4.6-1.6 1.1-1.1 1.6-2.4 1.6-4.1 0-1.5-.4-2.7-1.3-3.7s-1.9-1.7-3.2-2.3c-1.3-.6-3.1-1.3-5.4-2-3-1-5.4-2-7.3-2.9-1.9-1-3.5-2.4-4.8-4.2-1.3-1.8-2-4.3-2-7.2 0-4.1 1.5-7.3 4.4-9.7 2.9-2.4 6.8-3.5 11.7-3.5 5 0 9.1 1.2 12 3.6 3 2.4 4.7 5.7 5.1 9.7h-10.3c-.3-1.7-1-3.1-2.2-4.2-1.2-1.1-2.8-1.7-4.8-1.7-1.8 0-3.2.5-4.3 1.4-1.1.9-1.6 2.3-1.6 4 0 1.4.4 2.6 1.2 3.5.8.9 1.9 1.7 3.2 2.3 1.3.6 3 1.2 5.2 2 3.1 1.1 5.5 2.1 7.5 3 1.9.9 3.5 2.4 4.9 4.3 1.3 1.9 2 4.4 2 7.4.1 2.4-.5 4.6-1.7 6.7zm5.3-32.5v-8.9H275V271h-10v-38.7h-7.2z"/>
	<circle cx="510.4" cy="249.7" r="72.5" class="st1"/>
	<path d="M504.3 265.1c-1.2 2-3 3.7-5.4 4.9-2.4 1.2-5.3 1.9-8.7 1.9-3.4 0-6.4-.6-9-1.7-2.7-1.1-4.8-2.8-6.4-5-1.6-2.2-2.5-4.7-2.7-7.6h10.1c.2 1.9 1 3.5 2.3 4.8 1.3 1.3 3.1 1.9 5.3 1.9 2 0 3.5-.5 4.6-1.6 1.1-1.1 1.6-2.4 1.6-4.1 0-1.5-.4-2.7-1.3-3.7s-1.9-1.7-3.2-2.3c-1.3-.6-3.1-1.3-5.4-2-3-1-5.4-2-7.3-2.9-1.9-1-3.5-2.4-4.8-4.2-1.3-1.8-2-4.3-2-7.2 0-4.1 1.5-7.3 4.4-9.7 2.9-2.4 6.8-3.5 11.7-3.5 5 0 9.1 1.2 12 3.6 3 2.4 4.7 5.7 5.1 9.7h-10.3c-.3-1.7-1-3.1-2.2-4.2-1.2-1.1-2.8-1.7-4.8-1.7-1.8 0-3.2.5-4.3 1.4-1.1.9-1.6 2.3-1.6 4 0 1.4.4 2.6 1.2 3.5.8.9 1.9 1.7 3.2 2.3 1.3.6 3 1.2 5.2 2 3.1 1.1 5.5 2.1 7.5 3 1.9.9 3.5 2.4 4.9 4.3 1.3 1.9 2 4.4 2 7.4.1 2.4-.5 4.7-1.7 6.7zm29.9-27.5c0-2.1-.5-3.8-1.5-5-1-1.2-2.6-1.8-4.8-1.8-4.5 0-6.8 3-7.1 9.1h-9.2c.3-5.6 2-9.9 5.1-12.8 3.1-2.9 7.1-4.4 11.9-4.4 4.9 0 8.7 1.3 11.3 3.8 2.6 2.5 3.9 5.9 3.9 10.2 0 3.3-1 6.7-2.9 10-2 3.4-4.4 6.4-7.5 9.2-3 2.8-6.2 5.2-9.5 7.3h20.9v7.8h-33.5v-7.1c15.3-10.5 22.9-19.3 22.9-26.3z"/>
	<circle cx="776.5" cy="249.7" r="72.5" class="st1"/>
	<path d="M770.4 265.1c-1.2 2-3 3.7-5.4 4.9-2.4 1.2-5.3 1.9-8.7 1.9-3.4 0-6.4-.6-9-1.7-2.7-1.1-4.8-2.8-6.4-5-1.6-2.2-2.5-4.7-2.7-7.6h10.1c.2 1.9 1 3.5 2.3 4.8 1.3 1.3 3.1 1.9 5.3 1.9 2 0 3.5-.5 4.6-1.6 1.1-1.1 1.6-2.4 1.6-4.1 0-1.5-.4-2.7-1.3-3.7s-1.9-1.7-3.2-2.3c-1.3-.6-3.1-1.3-5.4-2-3-1-5.4-2-7.3-2.9-1.9-1-3.5-2.4-4.8-4.2-1.3-1.8-2-4.3-2-7.2 0-4.1 1.5-7.3 4.4-9.7 2.9-2.4 6.8-3.5 11.7-3.5 5 0 9.1 1.2 12 3.6 3 2.4 4.7 5.7 5.1 9.7H761c-.3-1.7-1-3.1-2.2-4.2-1.2-1.1-2.8-1.7-4.8-1.7-1.8 0-3.2.5-4.3 1.4-1.1.9-1.6 2.3-1.6 4 0 1.4.4 2.6 1.2 3.5.8.9 1.9 1.7 3.2 2.3 1.3.6 3 1.2 5.2 2 3.1 1.1 5.5 2.1 7.5 3 1.9.9 3.5 2.4 4.9 4.3 1.4 1.9 2 4.4 2 7.4.1 2.4-.5 4.7-1.7 6.7zm33.2-41.4c2.3 1.1 4.1 2.7 5.3 4.7 1.2 2 1.8 4.2 1.8 6.6 0 3.1-.8 5.6-2.5 7.5-1.7 2-3.9 3.2-6.6 3.6v.3c6.7 2 10 5.9 10 11.7 0 4.1-1.4 7.4-4.1 10-2.7 2.5-6.6 3.8-11.6 3.8-5.3 0-9.5-1.3-12.7-3.9-3.1-2.6-4.9-6.6-5.3-11.9h9.3c.2 2.4 1 4.4 2.4 5.8 1.4 1.4 3.3 2.1 5.8 2.1 2.2 0 3.8-.6 5.1-1.8 1.2-1.2 1.8-2.8 1.8-4.7 0-2.3-.9-4-2.6-5.3-1.8-1.2-4.3-1.8-7.8-1.8h-2v-7.8h2c6.3.1 9.4-2.1 9.4-6.5 0-1.9-.6-3.5-1.7-4.6-1.1-1.1-2.7-1.7-4.6-1.7-2 0-3.7.6-5 1.9-1.3 1.3-2 3.1-2.2 5.4h-9.3c.3-4.9 1.8-8.6 4.7-11.2 2.9-2.6 6.9-3.9 12-3.9 3.3 0 6.1.5 8.4 1.7z"/>
	<circle cx="511.3" cy="513.8" r="72.5" class="st1"/>
	<path d="M502.1 529.3c-1.2 2-3 3.7-5.4 4.9-2.4 1.2-5.3 1.9-8.7 1.9-3.4 0-6.4-.6-9-1.7-2.7-1.1-4.8-2.8-6.4-5-1.6-2.2-2.5-4.7-2.7-7.6H480c.2 1.9 1 3.5 2.3 4.8 1.3 1.3 3.1 1.9 5.3 1.9 2 0 3.5-.5 4.6-1.6 1.1-1.1 1.6-2.4 1.6-4.1 0-1.5-.4-2.7-1.3-3.7s-1.9-1.7-3.2-2.3c-1.3-.6-3.1-1.3-5.4-2-3-1-5.4-2-7.3-2.9-1.9-1-3.5-2.4-4.8-4.2-1.3-1.8-2-4.3-2-7.2 0-4.1 1.5-7.3 4.4-9.7 2.9-2.4 6.8-3.5 11.7-3.5 5 0 9.1 1.2 12 3.6 3 2.4 4.7 5.7 5.1 9.7h-10.3c-.3-1.7-1-3.1-2.2-4.2-1.2-1.1-2.8-1.7-4.8-1.7-1.8 0-3.2.5-4.3 1.4-1.1.9-1.6 2.3-1.6 4 0 1.4.4 2.6 1.2 3.5.8.9 1.9 1.7 3.2 2.3 1.3.6 3 1.2 5.2 2 3.1 1.1 5.5 2.1 7.5 3 1.9.9 3.5 2.4 4.9 4.3 1.3 1.9 2 4.4 2 7.4.1 2.4-.5 4.6-1.7 6.7zm7.2-3.3v-7.9l22.8-30.7h10.2v30.4h6.2v8.2h-6.2v9.6h-9.6V526h-23.4zm24.1-27.5L519 517.8h14.4v-19.3z"/>
	<path d="M450.3 187.5l16.1 4.3-2.8-16.4m267.3-6.1l16.5-1.5-8.2-14.4M445.4 445.8l-4.3 16-12.8-10.7m150-144.1l-14.9-7.3-.4 16.6m-363.2 20.5l-4.4-16-12.7 10.7" class="st2"/>
	<path d="M336.3 109.3c0-1 .3-1.8.8-2.4.5-.6 1.3-.9 2.3-.9v1.3c-.4 0-.7.1-.9.4-.2.2-.3.6-.3 1.1v.4h1.4v2.6h-2.8c-.3-.8-.5-1.7-.5-2.5zm4.1 0c0-1 .3-1.8.8-2.4.5-.6 1.3-.9 2.3-.9v1.3c-.4 0-.7.1-.9.4-.2.2-.3.6-.3 1.1v.4h1.4v2.6h-2.8c-.4-.8-.5-1.7-.5-2.5zm19.1 3.8c.8.5 1.4 1.2 1.7 2.1v-2.8h3.4v13.3h-3.4V123c-.3.9-.9 1.6-1.7 2.1-.8.5-1.8.8-2.9.8-1.1 0-2.1-.3-3-.8-.9-.5-1.6-1.3-2.1-2.4-.5-1-.8-2.2-.8-3.6s.3-2.6.8-3.6 1.2-1.8 2.1-2.4c.9-.5 1.9-.8 3-.8s2.1.2 2.9.8zm-4.4 3.2c-.6.7-1 1.6-1 2.8 0 1.2.3 2.1 1 2.8.6.7 1.5 1 2.5 1s1.9-.3 2.5-1c.7-.7 1-1.6 1-2.8 0-1.2-.3-2.1-1-2.8-.7-.7-1.5-1-2.5-1-1-.1-1.9.3-2.5 1zm20.4-7.7c0 1-.3 1.9-.8 2.4-.5.6-1.3.9-2.2.9v-1.3c.4 0 .7-.1.9-.4.2-.2.3-.6.3-1.1v-.5h-1.4V106h2.8c.3.9.4 1.7.4 2.6zm4.1 0c0 1-.3 1.8-.8 2.4-.5.6-1.3.9-2.3.9v-1.3c.4 0 .7-.1.9-.4.2-.2.3-.6.3-1.1v-.5h-1.4V106h2.8c.4.9.5 1.8.5 2.6zm259.7.7c0-1 .3-1.8.8-2.4.5-.6 1.3-.9 2.3-.9v1.3c-.4 0-.7.1-.9.4-.2.2-.3.6-.3 1.1v.4h1.4v2.6h-2.8c-.3-.8-.5-1.7-.5-2.5zm4.1 0c0-1 .3-1.8.8-2.4.5-.6 1.3-.9 2.3-.9v1.3c-.4 0-.7.1-.9.4-.2.2-.3.6-.3 1.1v.4h1.4v2.6h-2.8c-.4-.8-.5-1.7-.5-2.5zm19.1 3.8c.8.5 1.4 1.2 1.7 2.1V108h3.4v17.8h-3.4V123c-.4.9-.9 1.6-1.7 2.1-.8.5-1.7.8-2.9.8s-2.1-.3-3-.8c-.9-.5-1.6-1.3-2.1-2.4-.5-1-.8-2.2-.8-3.6s.3-2.6.8-3.6 1.2-1.8 2.1-2.4c.9-.5 1.9-.8 3-.8s2.1.2 2.9.8zm-4.4 3.2c-.6.7-1 1.6-1 2.8 0 1.2.3 2.1 1 2.8.6.7 1.5 1 2.5 1s1.9-.3 2.5-1c.7-.7 1-1.6 1-2.8 0-1.2-.3-2.1-1-2.8-.7-.7-1.5-1-2.5-1-1-.1-1.9.3-2.5 1zm20.4-7.7c0 1-.3 1.9-.8 2.4-.5.6-1.3.9-2.2.9v-1.3c.4 0 .7-.1.9-.4.2-.2.3-.6.3-1.1v-.5h-1.4V106h2.8c.3.9.4 1.7.4 2.6zm4.1 0c0 1-.3 1.8-.8 2.4-.5.6-1.3.9-2.3.9v-1.3c.4 0 .7-.1.9-.4.2-.2.3-.6.3-1.1v-.5h-1.4V106h2.8c.4.9.5 1.8.5 2.6zM372.5 362.7c0-1 .3-1.8.8-2.4s1.3-.9 2.3-.9v1.3c-.4 0-.7.1-.9.4-.2.2-.3.6-.3 1.1v.4h1.4v2.6H373c-.4-.8-.5-1.6-.5-2.5zm4 0c0-1 .3-1.8.8-2.4.5-.6 1.3-.9 2.3-.9v1.3c-.4 0-.7.1-.9.4-.2.2-.3.6-.3 1.1v.4h1.4v2.6H377c-.3-.8-.5-1.6-.5-2.5zm21.3 4.4c1.1.9 1.9 2.2 2.1 3.8h-3.6c-.1-.7-.5-1.3-1-1.7-.5-.4-1.2-.6-1.9-.6-.9 0-1.6.3-2.2 1-.6.7-.9 1.6-.9 2.9s.3 2.3.9 2.9c.6.7 1.3 1 2.2 1 .8 0 1.4-.2 1.9-.6s.8-1 1-1.7h3.6c-.3 1.6-1 2.9-2.1 3.8s-2.6 1.4-4.3 1.4c-1.3 0-2.4-.3-3.5-.8-1-.6-1.8-1.3-2.4-2.4-.6-1-.8-2.2-.8-3.6s.3-2.6.8-3.6c.6-1 1.3-1.8 2.4-2.4 1-.5 2.2-.8 3.5-.8 1.7 0 3.2.5 4.3 1.4zm12.4-5.1c0 1-.3 1.9-.8 2.4-.5.6-1.3.9-2.2.9V364c.4 0 .7-.1.9-.4.2-.2.3-.6.3-1.1v-.5H407v-2.6h2.8c.3.9.4 1.8.4 2.6zm4.1 0c0 1-.3 1.8-.8 2.4-.5.6-1.3.9-2.3.9V364c.4 0 .7-.1.9-.4.2-.2.3-.6.3-1.1v-.5H411v-2.6h2.8c.4 1 .5 1.8.5 2.6zm190.2.7c0-1 .3-1.8.8-2.4.5-.6 1.3-.9 2.3-.9v1.3c-.4 0-.7.1-.9.4-.2.2-.3.6-.3 1.1v.4h1.4v2.6H605c-.4-.8-.5-1.6-.5-2.5zm4 0c0-1 .3-1.8.8-2.4.5-.6 1.3-.9 2.3-.9v1.3c-.4 0-.7.1-.9.4-.2.2-.3.6-.3 1.1v.4h1.4v2.6H609c-.3-.8-.5-1.6-.5-2.5zm34.2-.7c0 1-.3 1.9-.8 2.4-.5.6-1.3.9-2.2.9V364c.4 0 .7-.1.9-.4.2-.2.3-.6.3-1.1v-.5h-1.4v-2.6h2.8c.2.9.4 1.8.4 2.6zm4 0c0 1-.3 1.8-.8 2.4-.5.6-1.3.9-2.3.9V364c.4 0 .7-.1.9-.4.2-.2.3-.6.3-1.1v-.5h-1.4v-2.6h2.8c.4 1 .5 1.8.5 2.6zm-408.5 79.7c0-1 .3-1.8.8-2.4.5-.6 1.3-.9 2.3-.9v1.3c-.4 0-.7.1-.9.4s-.3.6-.3 1.1v.4h1.4v2.6h-2.8c-.3-.8-.5-1.6-.5-2.5zm4.1 0c0-1 .3-1.8.8-2.4.5-.6 1.3-.9 2.3-.9v1.3c-.4 0-.7.1-.9.4-.2.2-.3.6-.3 1.1v.4h1.4v2.6h-2.8c-.4-.8-.5-1.6-.5-2.5zm14.3 2.2v4.4h6v2.6h-6v4.6h6.7v2.7h-10.1v-16.9h10.1v2.7h-6.7zm17.2-2.9c0 1-.3 1.9-.8 2.4-.5.6-1.3.9-2.2.9V443c.4 0 .7-.1.9-.4.2-.2.3-.6.3-1.1v-.5h-1.4v-2.6h2.8c.2.9.4 1.8.4 2.6zm4 0c0 1-.3 1.8-.8 2.4-.5.6-1.3.9-2.3.9V443c.4 0 .7-.1.9-.4.2-.2.3-.6.3-1.1v-.5h-1.4v-2.6h2.8c.4 1 .5 1.8.5 2.6z"/>
	<path d="M161.6 238.3l15.6 10.9-15.6 10.9m-41-10.9h57.1" class="st2"/>
	<path d="M632.7 366.1c.9.5 1.6 1.3 2.1 2.4.5 1 .8 2.2.8 3.6s-.3 2.6-.8 3.6-1.2 1.8-2.1 2.4-1.9.8-3 .8-2.1-.3-2.9-.8c-.8-.5-1.4-1.3-1.7-2.1v2.8h-3.4V361h3.4v7.2c.3-.9.9-1.6 1.7-2.1.8-.5 1.7-.8 2.9-.8 1.1 0 2.1.2 3 .8zm-6.7 3.2c-.7.7-1 1.6-1 2.8 0 1.2.3 2.1 1 2.8.7.7 1.5 1 2.5 1 1.1 0 1.9-.3 2.5-1 .6-.7 1-1.6 1-2.8 0-1.2-.3-2.1-1-2.8s-1.5-1-2.5-1c-.9-.1-1.8.3-2.5 1z"/>
</svg>
