<svg xmlns="http://www.w3.org/2000/svg" id="Layer_1" viewBox="0 0 1024 768">
	<style>
		.st0{stroke-linecap:round}.st0,.st1{fill:none;stroke:#000;stroke-width:4;stroke-miterlimit:10}
	</style>
	<path d="M261.5 178.7c23.1-19.1 57.1-31.2 95-31.2 46.6 0 87.3 18.3 109.1 45.5m89.4 0c21.8-27.2 62.5-45.6 109.2-45.6 32.1 0 61.5 8.7 83.7 23" class="st0"/>
	<circle cx="775.5" cy="250.8" r="84.9" class="st1"/>
	<path d="M441.3 465.5c-8-20-12.6-42.8-12.6-67 0-37.5 10.9-71.7 28.8-97.1m105.2 0c17.6 25.3 28.3 59.2 28.3 96.4 0 24.1-4.5 46.8-12.5 66.6" class="st0"/>
	<circle cx="510.4" cy="515" r="84.9" class="st1"/>
	<circle cx="250.1" cy="250.3" r="72.5" class="st1"/>
	<path d="M251.5 265.8c-1.2 2-3 3.7-5.4 4.9-2.4 1.2-5.3 1.9-8.7 1.9-3.4 0-6.4-.6-9-1.7-2.7-1.1-4.8-2.8-6.4-5-1.6-2.2-2.5-4.7-2.7-7.6h10.1c.2 1.9 1 3.5 2.3 4.8 1.3 1.3 3.1 1.9 5.3 1.9 2 0 3.5-.5 4.6-1.6 1.1-1.1 1.6-2.4 1.6-4.1 0-1.5-.4-2.7-1.3-3.7s-1.9-1.7-3.2-2.3c-1.3-.6-3.1-1.3-5.4-2-3-1-5.4-2-7.3-2.9-1.9-1-3.5-2.4-4.8-4.2-1.3-1.8-2-4.3-2-7.2 0-4.1 1.5-7.3 4.4-9.7 2.9-2.4 6.8-3.5 11.7-3.5 5 0 9.1 1.2 12 3.6 3 2.4 4.7 5.7 5.1 9.7h-10.3c-.3-1.7-1-3.1-2.2-4.2-1.2-1.1-2.8-1.7-4.8-1.7-1.8 0-3.2.5-4.3 1.4-1.1.9-1.6 2.3-1.6 4 0 1.4.4 2.6 1.2 3.5.8.9 1.9 1.7 3.2 2.3 1.3.6 3 1.2 5.2 2 3.1 1.1 5.5 2.1 7.5 3 1.9.9 3.5 2.4 4.9 4.3 1.3 1.9 2 4.4 2 7.4.1 2.4-.5 4.6-1.7 6.7zm5.3-32.5v-8.9H274V272h-10v-38.7h-7.2z"/>
	<circle cx="509.4" cy="250.8" r="72.5" class="st1"/>
	<path d="M503.3 266.2c-1.2 2-3 3.7-5.4 4.9-2.4 1.2-5.3 1.9-8.7 1.9-3.4 0-6.4-.6-9-1.7-2.7-1.1-4.8-2.8-6.4-5-1.6-2.2-2.5-4.7-2.7-7.6h10.1c.2 1.9 1 3.5 2.3 4.8 1.3 1.3 3.1 1.9 5.3 1.9 2 0 3.5-.5 4.6-1.6 1.1-1.1 1.6-2.4 1.6-4.1 0-1.5-.4-2.7-1.3-3.7s-1.9-1.7-3.2-2.3c-1.3-.6-3.1-1.3-5.4-2-3-1-5.4-2-7.3-2.9-1.9-1-3.5-2.4-4.8-4.2-1.3-1.8-2-4.3-2-7.2 0-4.1 1.5-7.3 4.4-9.7 2.9-2.4 6.8-3.5 11.7-3.5 5 0 9.1 1.2 12 3.6 3 2.4 4.7 5.7 5.1 9.7H494c-.3-1.7-1-3.1-2.2-4.2-1.2-1.1-2.8-1.7-4.8-1.7-1.8 0-3.2.5-4.3 1.4-1.1.9-1.6 2.3-1.6 4 0 1.4.4 2.6 1.2 3.5.8.9 1.9 1.7 3.2 2.3 1.3.6 3 1.2 5.2 2 3.1 1.1 5.5 2.1 7.5 3 1.9.9 3.5 2.4 4.9 4.3 1.3 1.9 2 4.4 2 7.4.1 2.4-.5 4.7-1.8 6.7zm29.9-27.5c0-2.1-.5-3.8-1.5-5-1-1.2-2.6-1.8-4.8-1.8-4.5 0-6.8 3-7.1 9.1h-9.2c.3-5.6 2-9.9 5.1-12.8 3.1-2.9 7.1-4.4 11.9-4.4 4.9 0 8.7 1.3 11.3 3.8 2.6 2.5 3.9 5.9 3.9 10.2 0 3.3-1 6.7-2.9 10-2 3.4-4.4 6.4-7.5 9.2-3 2.8-6.2 5.2-9.5 7.3h20.9v7.8h-33.5V265c15.3-10.5 22.9-19.3 22.9-26.3z"/>
	<circle cx="775.5" cy="250.8" r="72.5" class="st1"/>
	<path d="M769.4 266.2c-1.2 2-3 3.7-5.4 4.9-2.4 1.2-5.3 1.9-8.7 1.9-3.4 0-6.4-.6-9-1.7-2.7-1.1-4.8-2.8-6.4-5-1.6-2.2-2.5-4.7-2.7-7.6h10.1c.2 1.9 1 3.5 2.3 4.8 1.3 1.3 3.1 1.9 5.3 1.9 2 0 3.5-.5 4.6-1.6 1.1-1.1 1.6-2.4 1.6-4.1 0-1.5-.4-2.7-1.3-3.7s-1.9-1.7-3.2-2.3c-1.3-.6-3.1-1.3-5.4-2-3-1-5.4-2-7.3-2.9-1.9-1-3.5-2.4-4.8-4.2-1.3-1.8-2-4.3-2-7.2 0-4.1 1.5-7.3 4.4-9.7 2.9-2.4 6.8-3.5 11.7-3.5 5 0 9.1 1.2 12 3.6 3 2.4 4.7 5.7 5.1 9.7H760c-.3-1.7-1-3.1-2.2-4.2-1.2-1.1-2.8-1.7-4.8-1.7-1.8 0-3.2.5-4.3 1.4-1.1.9-1.6 2.3-1.6 4 0 1.4.4 2.6 1.2 3.5.8.9 1.9 1.7 3.2 2.3 1.3.6 3 1.2 5.2 2 3.1 1.1 5.5 2.1 7.5 3 1.9.9 3.5 2.4 4.9 4.3 1.4 1.9 2 4.4 2 7.4.2 2.4-.4 4.7-1.7 6.7zm33.2-41.4c2.3 1.1 4.1 2.7 5.3 4.7 1.2 2 1.8 4.2 1.8 6.6 0 3.1-.8 5.6-2.5 7.5-1.7 2-3.9 3.2-6.6 3.6v.3c6.7 2 10 5.9 10 11.7 0 4.1-1.4 7.4-4.1 10-2.7 2.5-6.6 3.8-11.6 3.8-5.3 0-9.5-1.3-12.7-3.9-3.1-2.6-4.9-6.6-5.3-11.9h9.3c.2 2.4 1 4.4 2.4 5.8 1.4 1.4 3.3 2.1 5.8 2.1 2.2 0 3.8-.6 5.1-1.8 1.2-1.2 1.8-2.8 1.8-4.7 0-2.3-.9-4-2.6-5.3-1.8-1.2-4.3-1.8-7.8-1.8h-2v-7.8h2c6.3.1 9.4-2.1 9.4-6.5 0-1.9-.6-3.5-1.7-4.6-1.1-1.1-2.7-1.7-4.6-1.7-2 0-3.7.6-5 1.9-1.3 1.3-2 3.1-2.2 5.4h-9.3c.3-4.9 1.8-8.6 4.7-11.2 2.9-2.6 6.9-3.9 12-3.9 3.3 0 6.1.5 8.4 1.7z"/>
	<circle cx="510.4" cy="515" r="72.5" class="st1"/>
	<path d="M501.1 530.4c-1.2 2-3 3.7-5.4 4.9-2.4 1.2-5.3 1.9-8.7 1.9-3.4 0-6.4-.6-9-1.7-2.7-1.1-4.8-2.8-6.4-5-1.6-2.2-2.5-4.7-2.7-7.6H479c.2 1.9 1 3.5 2.3 4.8 1.3 1.3 3.1 1.9 5.3 1.9 2 0 3.5-.5 4.6-1.6 1.1-1.1 1.6-2.4 1.6-4.1 0-1.5-.4-2.7-1.3-3.7s-1.9-1.7-3.2-2.3c-1.3-.6-3.1-1.3-5.4-2-3-1-5.4-2-7.3-2.9-1.9-1-3.5-2.4-4.8-4.2-1.3-1.8-2-4.3-2-7.2 0-4.1 1.5-7.3 4.4-9.7 2.9-2.4 6.8-3.5 11.7-3.5 5 0 9.1 1.2 12 3.6 3 2.4 4.7 5.7 5.1 9.7h-10.3c-.3-1.7-1-3.1-2.2-4.2-1.2-1.1-2.8-1.7-4.8-1.7-1.8 0-3.2.5-4.3 1.4-1.1.9-1.6 2.3-1.6 4 0 1.4.4 2.6 1.2 3.5.8.9 1.9 1.7 3.2 2.3 1.3.6 3 1.2 5.2 2 3.1 1.1 5.5 2.1 7.5 3 1.9.9 3.5 2.4 4.9 4.3 1.3 1.9 2 4.4 2 7.4.2 2.4-.5 4.6-1.7 6.7zm7.2-3.3v-7.9l22.8-30.7h10.2v30.4h6.2v8.2h-6.2v9.6h-9.6v-9.6h-23.4zm24.1-27.5L518 518.9h14.4v-19.3z"/>
	<path fill="none" stroke="#000" stroke-linecap="round" stroke-linejoin="round" stroke-miterlimit="10" stroke-width="4" d="M160.9 239.4l15.7 10.9-15.7 10.9m-41-10.9h57.2"/>
</svg>
