<?xml version="1.0" encoding="UTF-8"?>
<svg width="845px" height="380px" viewBox="0 0 845 380" version="1.1" xmlns="http://www.w3.org/2000/svg" xmlns:xlink="http://www.w3.org/1999/xlink">
    <!-- Generator: Sketch 51.1 (57501) - http://www.bohemiancoding.com/sketch -->
    <title>Group 4</title>
    <desc>Created with Sketch.</desc>
    <defs></defs>
    <g id="Page-1" stroke="none" stroke-width="1" fill="none" fill-rule="evenodd">
        <g id="Group-4" transform="translate(2.000000, 0.000000)">
            <path d="M546.6,19.2 L546.6,237.9 M611.6,19.2 L611.6,237.9 M676.6,19.2 L676.6,237.9 M487.1,193.5 L803.8,193.5 M487.1,128.5 L802.4,128.8 M487.1,63.5 L802.4,63.8" id="Shape" stroke="#000000" stroke-width="4" stroke-linecap="round"></path>
            <path d="M580.1,36.6 C580.9,37.1 581.5,37.8 581.8,38.7 L581.8,36 L585.2,36 L585.2,49.3 L581.8,49.3 L581.8,46.5 C581.5,47.4 580.9,48.1 580.1,48.6 C579.3,49.1 578.3,49.4 577.2,49.4 C576.1,49.4 575.1,49.1 574.2,48.6 C573.3,48.1 572.6,47.3 572.1,46.2 C571.6,45.2 571.3,44 571.3,42.6 C571.3,41.2 571.6,40 572.1,39 C572.6,38 573.3,37.2 574.2,36.6 C575.1,36.1 576.1,35.8 577.2,35.8 C578.3,35.8 579.3,36.1 580.1,36.6 Z M575.7,39.8 C575.1,40.5 574.7,41.4 574.7,42.6 C574.7,43.8 575,44.7 575.7,45.4 C576.3,46.1 577.2,46.4 578.2,46.4 C579.2,46.4 580.1,46.1 580.7,45.4 C581.4,44.7 581.7,43.8 581.7,42.6 C581.7,41.4 581.4,40.5 580.7,39.8 C580,39.1 579.2,38.8 578.2,38.8 C577.2,38.8 576.3,39.1 575.7,39.8 Z M714.4,33.2 C715.8,34.3 716.7,35.8 717.2,37.6 L713.6,37.6 C713.2,36.7 712.7,36 711.9,35.4 C711.1,34.9 710.2,34.6 709.1,34.6 C708.2,34.6 707.4,34.8 706.7,35.3 C706,35.7 705.4,36.4 705,37.2 C704.6,38 704.4,39 704.4,40.1 C704.4,41.2 704.6,42.2 705,43 C705.4,43.8 706,44.5 706.7,44.9 C707.4,45.3 708.2,45.6 709.1,45.6 C710.2,45.6 711.1,45.3 711.9,44.8 C712.7,44.3 713.2,43.6 713.6,42.6 L717.2,42.6 C716.8,44.5 715.8,46 714.4,47 C713,48.1 711.3,48.6 709.1,48.6 C707.5,48.6 706.1,48.2 704.8,47.5 C703.6,46.8 702.6,45.8 701.9,44.4 C701.2,43.1 700.9,41.6 700.9,39.9 C700.9,38.2 701.2,36.7 701.9,35.4 C702.6,34.1 703.5,33.1 704.8,32.3 C706,31.6 707.5,31.2 709.1,31.2 C711.3,31.5 713,32.1 714.4,33.2 Z M517.3,104.2 C516.8,105.1 516,105.8 515,106.3 C514,106.8 512.7,107.1 511.3,107.1 C509.9,107.1 508.6,106.9 507.4,106.4 C506.3,105.9 505.3,105.2 504.7,104.3 C504,103.4 503.6,102.3 503.5,101 L507.8,101 C507.9,101.8 508.2,102.5 508.8,103.1 C509.4,103.7 510.1,103.9 511.1,103.9 C511.9,103.9 512.6,103.7 513.1,103.2 C513.6,102.7 513.8,102.2 513.8,101.4 C513.8,100.8 513.6,100.2 513.3,99.8 C512.9,99.4 512.5,99 511.9,98.8 C511.3,98.5 510.6,98.3 509.6,97.9 C508.3,97.5 507.3,97.1 506.5,96.6 C505.7,96.2 505,95.6 504.4,94.8 C503.8,94 503.5,93 503.5,91.7 C503.5,89.9 504.1,88.5 505.4,87.5 C506.7,86.5 508.3,86 510.4,86 C512.6,86 514.3,86.5 515.6,87.6 C516.9,88.6 517.6,90 517.8,91.8 L513.4,91.8 C513.3,91.1 513,90.5 512.5,90 C512,89.5 511.3,89.3 510.4,89.3 C509.6,89.3 509,89.5 508.6,89.9 C508.1,90.3 507.9,90.9 507.9,91.6 C507.9,92.2 508.1,92.7 508.4,93.1 C508.8,93.5 509.2,93.8 509.8,94.1 C510.3,94.4 511.1,94.6 512,94.9 C513.3,95.4 514.4,95.8 515.2,96.2 C516,96.6 516.7,97.2 517.3,98 C517.9,98.8 518.2,99.9 518.2,101.2 C518.1,102.4 517.8,103.4 517.3,104.2 Z M519.6,90.3 L519.6,86.5 L527,86.5 L527,107 L522.7,107 L522.7,90.3 L519.6,90.3 Z M514.9,169.4 C514.4,170.3 513.6,171 512.6,171.5 C511.6,172 510.3,172.3 508.9,172.3 C507.5,172.3 506.2,172.1 505,171.6 C503.9,171.1 502.9,170.4 502.3,169.5 C501.6,168.6 501.2,167.5 501.1,166.2 L505.4,166.2 C505.5,167 505.8,167.7 506.4,168.3 C507,168.9 507.7,169.1 508.7,169.1 C509.5,169.1 510.2,168.9 510.7,168.4 C511.2,167.9 511.4,167.4 511.4,166.6 C511.4,166 511.2,165.4 510.9,165 C510.5,164.6 510.1,164.2 509.5,164 C508.9,163.7 508.2,163.5 507.2,163.1 C505.9,162.7 504.9,162.3 504.1,161.8 C503.3,161.4 502.6,160.8 502,160 C501.4,159.2 501.1,158.2 501.1,156.9 C501.1,155.1 501.7,153.7 503,152.7 C504.3,151.7 505.9,151.2 508,151.2 C510.2,151.2 511.9,151.7 513.2,152.8 C514.5,153.8 515.2,155.2 515.4,157 L511,157 C510.9,156.3 510.6,155.7 510.1,155.2 C509.6,154.7 508.9,154.5 508,154.5 C507.2,154.5 506.6,154.7 506.2,155.1 C505.7,155.5 505.5,156.1 505.5,156.8 C505.5,157.4 505.7,157.9 506,158.3 C506.4,158.7 506.8,159 507.4,159.3 C507.9,159.6 508.7,159.8 509.6,160.1 C510.9,160.6 512,161 512.8,161.4 C513.6,161.8 514.3,162.4 514.9,163.2 C515.5,164 515.8,165.1 515.8,166.4 C515.7,167.6 515.4,168.5 514.9,169.4 Z M527.7,157.6 C527.7,156.7 527.5,156 527,155.5 C526.5,155 525.9,154.7 525,154.7 C523.1,154.7 522.1,156 522,158.6 L518,158.6 C518.1,156.2 518.8,154.3 520.2,153.1 C521.6,151.9 523.3,151.2 525.3,151.2 C527.4,151.2 529,151.7 530.1,152.8 C531.2,153.9 531.8,155.4 531.8,157.2 C531.8,158.6 531.4,160.1 530.5,161.5 C529.7,162.9 528.6,164.3 527.3,165.5 C526,166.7 524.6,167.8 523.2,168.6 L532.1,168.6 L532.1,171.9 L517.7,171.9 L517.7,168.8 C524.4,164.4 527.7,160.6 527.7,157.6 Z M514.4,226.2 C513.9,227.1 513.1,227.8 512.1,228.3 C511.1,228.8 509.8,229.1 508.4,229.1 C507,229.1 505.7,228.9 504.5,228.4 C503.4,227.9 502.4,227.2 501.8,226.3 C501.1,225.4 500.7,224.3 500.6,223 L504.9,223 C505,223.8 505.3,224.5 505.9,225.1 C506.5,225.7 507.2,225.9 508.2,225.9 C509,225.9 509.7,225.7 510.2,225.2 C510.7,224.7 510.9,224.2 510.9,223.4 C510.9,222.8 510.7,222.2 510.4,221.8 C510,221.4 509.6,221 509,220.8 C508.4,220.5 507.7,220.3 506.7,219.9 C505.4,219.5 504.4,219.1 503.6,218.6 C502.8,218.2 502.1,217.6 501.5,216.8 C500.9,216 500.6,215 500.6,213.7 C500.6,211.9 501.2,210.5 502.5,209.5 C503.8,208.5 505.4,208 507.5,208 C509.7,208 511.4,208.5 512.7,209.6 C514,210.6 514.7,212 514.9,213.8 L510.5,213.8 C510.4,213.1 510.1,212.5 509.6,212 C509.1,211.5 508.4,211.3 507.5,211.3 C506.7,211.3 506.1,211.5 505.7,211.9 C505.2,212.3 505,212.9 505,213.6 C505,214.2 505.2,214.7 505.5,215.1 C505.9,215.5 506.3,215.8 506.9,216.1 C507.4,216.4 508.2,216.6 509.1,216.9 C510.4,217.4 511.5,217.8 512.3,218.2 C513.1,218.6 513.8,219.2 514.4,220 C515,220.8 515.3,221.9 515.3,223.2 C515.2,224.3 514.9,225.3 514.4,226.2 Z M528.6,208.3 C529.6,208.8 530.3,209.5 530.9,210.3 C531.4,211.2 531.7,212.1 531.7,213.1 C531.7,214.4 531.3,215.5 530.6,216.3 C529.9,217.1 528.9,217.7 527.8,217.9 L527.8,218 C530.7,218.9 532.1,220.5 532.1,223.1 C532.1,224.9 531.5,226.3 530.3,227.4 C529.1,228.5 527.5,229 525.3,229 C523,229 521.2,228.4 519.9,227.3 C518.5,226.2 517.8,224.5 517.6,222.2 L521.6,222.2 C521.7,223.2 522,224.1 522.6,224.7 C523.2,225.3 524,225.6 525.1,225.6 C526,225.6 526.7,225.3 527.3,224.8 C527.8,224.3 528.1,223.6 528.1,222.8 C528.1,221.8 527.7,221.1 527,220.5 C526.2,220 525.1,219.7 523.7,219.7 L522.9,219.7 L522.9,216.4 L523.7,216.4 C526.4,216.4 527.8,215.5 527.8,213.6 C527.8,212.8 527.6,212.1 527.1,211.6 C526.6,211.1 526,210.9 525.1,210.9 C524.2,210.9 523.5,211.2 523,211.7 C522.4,212.3 522.1,213 522,214 L518,214 C518.1,211.9 518.8,210.3 520,209.2 C521.2,208.1 523,207.5 525.2,207.5 C526.5,207.6 527.6,207.9 528.6,208.3 Z" id="Shape" fill="#000000" fill-rule="nonzero"></path>
            <path d="M546.6,63.5 L502.2,23.5 M743.8,19.2 L743.8,237.9" id="Shape" stroke="#000000" stroke-width="4" stroke-linecap="round"></path>
            <path d="M508.6,3.5 L507.4,10.4 L505.3,10.4 L506.5,3.5 L508.6,3.5 Z M507,0.8 C507.3,0.5 507.6,0.4 508.1,0.4 C508.4,0.4 508.7,0.5 508.9,0.7 C509.1,0.9 509.2,1.1 509.2,1.4 C509.2,1.8 509.1,2.1 508.8,2.3 C508.5,2.6 508.2,2.7 507.7,2.7 C507.4,2.7 507.1,2.6 506.9,2.4 C506.7,2.2 506.6,2 506.6,1.7 C506.6,1.4 506.7,1.1 507,0.8 Z M516.1,4 C516.5,4.4 516.7,4.9 516.7,5.6 C516.7,5.8 516.7,6.1 516.6,6.4 L515.9,10.4 L513.8,10.4 L514.5,6.6 L514.5,6.2 C514.5,5.9 514.4,5.6 514.2,5.4 C514,5.2 513.7,5.1 513.4,5.1 C513,5.1 512.6,5.2 512.3,5.5 C512,5.8 511.8,6.2 511.7,6.7 L511.1,10.4 L509,10.4 L510.2,3.5 L512.3,3.5 L512.1,4.7 C512.4,4.3 512.7,4 513.2,3.7 C513.6,3.5 514.1,3.3 514.7,3.3 C515.2,3.4 515.7,3.6 516.1,4 Z M524.6,4.1 C525,4.6 525.3,5.2 525.3,6.1 C525.3,6.4 525.3,6.7 525.2,7 C525.1,7.7 524.8,8.4 524.5,8.9 C524.1,9.4 523.7,9.9 523.2,10.1 C522.7,10.4 522.2,10.5 521.6,10.5 C521.1,10.5 520.6,10.4 520.3,10.1 C520,9.9 519.7,9.5 519.6,9.1 L518.8,13.7 L516.7,13.7 L518.5,3.4 L520.6,3.4 L520.4,4.7 C520.6,4.3 521,4 521.4,3.7 C521.8,3.5 522.3,3.3 522.8,3.3 C523.6,3.4 524.2,3.7 524.6,4.1 Z M522.4,8.2 C522.7,7.9 522.9,7.5 523,7 L523,6.6 C523,6.2 522.9,5.9 522.7,5.7 C522.5,5.5 522.2,5.4 521.8,5.4 C521.4,5.4 521,5.6 520.6,5.9 C520.2,6.2 520,6.6 520,7.1 L520,7.5 C520,7.9 520.1,8.2 520.3,8.5 C520.5,8.7 520.8,8.8 521.2,8.8 C521.7,8.7 522.1,8.5 522.4,8.2 Z M533.7,3.5 L532.5,10.4 L530.4,10.4 L530.6,9.1 C530.3,9.5 530,9.8 529.5,10.1 C529.1,10.3 528.6,10.5 528,10.5 C527.3,10.5 526.8,10.3 526.4,9.9 C526,9.5 525.8,9 525.8,8.3 C525.8,8.1 525.8,7.8 525.9,7.5 L526.6,3.5 L528.7,3.5 L528,7.3 L528,7.7 C528,8.1 528.1,8.3 528.3,8.5 C528.5,8.7 528.8,8.8 529.1,8.8 C529.5,8.8 529.9,8.7 530.2,8.4 C530.5,8.1 530.7,7.7 530.8,7.2 L531.5,3.5 L533.7,3.5 Z M536.8,7.9 L536.8,8.1 C536.8,8.3 536.8,8.4 536.9,8.5 C537,8.6 537.2,8.6 537.4,8.6 L538.1,8.6 L537.8,10.4 L536.8,10.4 C536.1,10.4 535.6,10.3 535.2,10 C534.8,9.7 534.6,9.2 534.6,8.6 C534.6,8.3 534.6,8.1 534.7,7.9 L535.1,5.3 L534.2,5.3 L534.5,3.5 L535.4,3.5 L535.7,1.8 L537.8,1.8 L537.5,3.5 L538.9,3.5 L538.6,5.3 L537.2,5.3 L536.8,7.9 Z M476.7,50.8 C476.4,51.1 476,51.4 475.6,51.6 C475.1,51.8 474.6,51.9 474,51.9 C473,51.9 472.2,51.7 471.6,51.2 C471,50.7 470.7,50 470.7,49.2 L473,49.2 C473,49.5 473,49.8 473.2,50 C473.4,50.2 473.6,50.3 474,50.3 C474.3,50.3 474.5,50.2 474.7,50 C474.9,49.8 475,49.6 475,49.3 C475,49.1 474.9,48.9 474.8,48.8 C474.7,48.7 474.5,48.5 474.3,48.4 C474.1,48.3 473.8,48.2 473.5,48 C473,47.8 472.6,47.6 472.3,47.5 C472,47.3 471.8,47.1 471.5,46.8 C471.3,46.5 471.2,46.1 471.2,45.6 L471.2,45 C471.3,44.4 471.7,43.8 472.3,43.5 C472.9,43.1 473.6,42.9 474.5,42.9 C475.5,42.9 476.3,43.1 476.8,43.6 C477.3,44.1 477.6,44.7 477.6,45.5 L475.3,45.5 C475.3,45.2 475.2,45 475.1,44.8 C474.9,44.6 474.7,44.5 474.4,44.5 C474.1,44.5 473.9,44.6 473.7,44.7 C473.5,44.9 473.4,45.1 473.4,45.4 C473.4,45.6 473.5,45.8 473.6,45.9 C473.7,46 473.9,46.2 474.1,46.2 C474.3,46.3 474.5,46.4 474.9,46.5 C475.4,46.7 475.8,46.9 476.1,47 C476.4,47.2 476.6,47.4 476.9,47.7 C477.1,48 477.2,48.4 477.2,48.9 L477.2,49.5 C477.1,50 476.9,50.4 476.7,50.8 Z M480.9,49.2 L480.9,49.4 C480.9,49.6 480.9,49.7 481,49.8 C481.1,49.9 481.3,49.9 481.5,49.9 L482.2,49.9 L481.9,51.7 L480.9,51.7 C480.2,51.7 479.7,51.6 479.3,51.3 C478.9,51 478.7,50.5 478.7,49.9 C478.7,49.6 478.7,49.4 478.8,49.2 L479.2,46.6 L478.3,46.6 L478.6,44.8 L479.5,44.8 L479.8,43.1 L481.9,43.1 L481.6,44.8 L483,44.8 L482.7,46.6 L481.3,46.6 L480.9,49.2 Z M488.4,45.1 C488.8,45.3 489,45.7 489.1,46.1 L489.3,44.8 L491.4,44.8 L490.2,51.7 L488.1,51.7 L488.3,50.4 C488.1,50.8 487.7,51.1 487.3,51.4 C486.9,51.6 486.4,51.8 485.8,51.8 C485,51.8 484.4,51.6 484,51.1 C483.6,50.6 483.3,49.9 483.3,49.1 C483.3,48.8 483.3,48.4 483.4,48.1 C483.5,47.4 483.8,46.8 484.1,46.3 C484.4,45.8 484.9,45.4 485.4,45.1 C485.9,44.8 486.4,44.7 487,44.7 C487.6,44.8 488,44.9 488.4,45.1 Z M486.3,47.1 C486,47.4 485.8,47.8 485.7,48.3 L485.7,48.7 C485.7,49.1 485.8,49.4 486,49.6 C486.2,49.8 486.5,49.9 486.9,49.9 C487.3,49.9 487.7,49.7 488.1,49.4 C488.4,49.1 488.7,48.7 488.7,48.2 L488.7,47.8 C488.7,47.4 488.6,47.1 488.4,46.8 C488.2,46.6 487.9,46.5 487.5,46.5 C487,46.6 486.6,46.8 486.3,47.1 Z M494.5,49.2 L494.5,49.4 C494.5,49.6 494.5,49.7 494.6,49.8 C494.7,49.9 494.9,49.9 495.1,49.9 L495.8,49.9 L495.5,51.7 L494.5,51.7 C493.8,51.7 493.3,51.6 492.9,51.3 C492.5,51 492.3,50.5 492.3,49.9 C492.3,49.6 492.3,49.4 492.4,49.2 L492.8,46.6 L491.9,46.6 L492.2,44.8 L493.1,44.8 L493.4,43.1 L495.5,43.1 L495.2,44.8 L496.6,44.8 L496.3,46.6 L495,46.6 L494.5,49.2 Z M503.3,45.5 C503.8,46 504.1,46.6 504.1,47.4 C504.1,47.6 504.1,47.8 504,48.1 C504,48.3 503.9,48.5 503.8,48.7 L499,48.7 L499,49 C499,49.8 499.4,50.1 500.1,50.1 C500.4,50.1 500.7,50 500.9,49.9 C501.1,49.7 501.3,49.5 501.4,49.3 L503.7,49.3 C503.4,50.1 503,50.7 502.3,51.1 C501.6,51.6 500.8,51.8 499.9,51.8 C499,51.8 498.3,51.6 497.8,51.1 C497.3,50.6 497,49.9 497,49 C497,48.7 497,48.5 497.1,48.2 C497.2,47.5 497.5,46.9 497.9,46.4 C498.3,45.9 498.8,45.5 499.4,45.2 C500,44.9 500.6,44.8 501.3,44.8 C502.1,44.8 502.8,45 503.3,45.5 Z M502,47.4 C502,47.1 501.9,46.8 501.7,46.7 C501.5,46.6 501.2,46.5 500.9,46.5 C500.5,46.5 500.2,46.6 499.9,46.8 C499.6,47 499.4,47.4 499.3,47.8 L502,47.8 L502,47.4 Z M595,93.8 C595,93.4 595,93 595.1,92.7 C595.2,92.3 595.2,92.1 595.2,92 C595.4,91.2 595.4,90.4 595.4,89.8 C595.4,89 595.3,88.2 595,87.5 C594.7,86.8 594.4,86.2 594,85.7 C593.6,85.2 593.1,84.8 592.7,84.6 L592.7,84.4 L595.5,84.4 C595.9,84.6 596.2,84.9 596.6,85.3 C597,85.7 597.4,86.3 597.7,87 C598,87.7 598.2,88.6 598.2,89.7 C598.2,90.2 598.2,90.7 598.1,91.1 C598,91.6 598,91.8 598,91.9 C597.9,92.7 597.8,93.4 597.8,93.8 C597.8,94.4 598,94.9 598.3,95.4 C598.6,95.9 599.2,96.1 600,96.2 L600,97.3 C599.2,97.4 598.6,97.7 598.3,98.1 C598,98.5 597.8,99.1 597.8,99.7 C597.8,100.1 597.9,100.7 598,101.6 C598,101.7 598.1,102 598.1,102.4 C598.1,102.8 598.2,103.3 598.2,103.8 C598.2,104.8 598,105.7 597.7,106.5 C597.4,107.2 597,107.8 596.6,108.2 C596.2,108.6 595.8,108.9 595.5,109.1 L592.7,109.1 L592.7,108.9 C593.2,108.7 593.6,108.3 594,107.8 C594.4,107.3 594.8,106.7 595,106 C595.3,105.3 595.4,104.5 595.4,103.7 C595.4,103 595.3,102.3 595.2,101.4 C595.2,101.3 595.2,101 595.1,100.7 C595,100.3 595,100 595,99.6 C595,98.1 595.8,97.2 597.4,96.8 C595.8,96.2 595,95.3 595,93.8 Z M558.1,96.5 C559.7,96.8 560.5,97.8 560.5,99.3 C560.5,99.7 560.5,100 560.4,100.4 C560.3,100.8 560.3,101 560.3,101.1 C560.1,101.9 560.1,102.7 560.1,103.4 C560.1,104.2 560.2,105 560.5,105.7 C560.8,106.4 561.1,107 561.5,107.5 C561.9,108 562.4,108.4 562.8,108.6 L562.8,108.8 L560,108.8 C559.6,108.6 559.3,108.3 558.9,107.9 C558.5,107.5 558.1,106.9 557.8,106.2 C557.5,105.5 557.3,104.6 557.3,103.5 C557.3,103 557.3,102.5 557.4,102.1 C557.5,101.7 557.5,101.4 557.5,101.3 C557.6,100.5 557.7,99.8 557.7,99.4 C557.7,98.8 557.5,98.3 557.2,97.8 C556.9,97.3 556.3,97.1 555.5,97 L555.5,96 C556.3,95.9 556.9,95.6 557.2,95.2 C557.5,94.8 557.7,94.2 557.7,93.6 C557.7,93.2 557.6,92.6 557.5,91.7 C557.5,91.6 557.4,91.3 557.4,90.9 C557.3,90.4 557.3,90 557.3,89.5 C557.3,88.5 557.5,87.6 557.8,86.8 C558.1,86.1 558.5,85.5 558.9,85.1 C559.3,84.7 559.7,84.4 560,84.2 L562.8,84.2 L562.8,84.4 C562.3,84.6 561.9,85 561.5,85.5 C561.1,86 560.7,86.6 560.5,87.3 C560.2,88 560.1,88.8 560.1,89.6 C560.1,90.3 560.2,91 560.3,91.8 C560.3,91.9 560.3,92.1 560.4,92.5 C560.5,92.9 560.5,93.3 560.5,93.6 C560.4,95.3 559.6,96.2 558.1,96.5 Z M579.2,104.6 C578.7,105.5 577.9,106.2 576.9,106.7 C575.9,107.2 574.6,107.5 573.2,107.5 C571.8,107.5 570.5,107.3 569.3,106.8 C568.2,106.3 567.2,105.6 566.6,104.7 C565.9,103.8 565.5,102.7 565.4,101.4 L569.7,101.4 C569.8,102.2 570.1,102.9 570.7,103.5 C571.3,104.1 572,104.3 573,104.3 C573.8,104.3 574.5,104.1 575,103.6 C575.5,103.1 575.7,102.6 575.7,101.8 C575.7,101.2 575.5,100.6 575.2,100.2 C574.8,99.8 574.4,99.4 573.8,99.2 C573.2,98.9 572.5,98.7 571.5,98.3 C570.2,97.9 569.2,97.5 568.4,97 C567.6,96.6 566.9,96 566.3,95.2 C565.7,94.4 565.4,93.4 565.4,92.1 C565.4,90.3 566,88.9 567.3,87.9 C568.6,86.9 570.2,86.4 572.3,86.4 C574.5,86.4 576.2,86.9 577.5,88 C578.8,89 579.5,90.4 579.7,92.2 L575.3,92.2 C575.2,91.5 574.9,90.9 574.4,90.4 C573.9,89.9 573.2,89.7 572.3,89.7 C571.5,89.7 570.9,89.9 570.5,90.3 C570,90.7 569.8,91.3 569.8,92 C569.8,92.6 570,93.1 570.3,93.5 C570.7,93.9 571.1,94.2 571.7,94.5 C572.2,94.8 573,95 573.9,95.3 C575.2,95.8 576.3,96.2 577.1,96.6 C577.9,97 578.6,97.6 579.2,98.4 C579.8,99.2 580.1,100.3 580.1,101.6 C580,102.8 579.7,103.7 579.2,104.6 Z M581.5,90.6 L581.5,86.8 L588.9,86.8 L588.9,107.3 L584.6,107.3 L584.6,90.6 L581.5,90.6 Z M662.1,158.9 C662.1,158.5 662.1,158.1 662.2,157.8 C662.3,157.4 662.3,157.2 662.3,157.1 C662.5,156.3 662.5,155.5 662.5,154.9 C662.5,154.1 662.4,153.3 662.1,152.6 C661.8,151.9 661.5,151.3 661.1,150.8 C660.7,150.3 660.2,149.9 659.8,149.7 L659.8,149.5 L662.6,149.5 C663,149.7 663.3,150 663.7,150.4 C664.1,150.8 664.5,151.4 664.8,152.1 C665.1,152.8 665.3,153.7 665.3,154.8 C665.3,155.3 665.3,155.8 665.2,156.2 C665.1,156.7 665.1,156.9 665.1,157 C665,157.8 664.9,158.5 664.9,158.9 C664.9,159.5 665.1,160 665.4,160.5 C665.7,161 666.3,161.2 667.1,161.3 L667.1,162.4 C666.3,162.5 665.7,162.8 665.4,163.2 C665.1,163.6 664.9,164.2 664.9,164.8 C664.9,165.2 665,165.8 665.1,166.7 C665.1,166.8 665.2,167.1 665.2,167.5 C665.2,167.9 665.3,168.4 665.3,168.9 C665.3,169.9 665.1,170.8 664.8,171.6 C664.5,172.3 664.1,172.9 663.7,173.3 C663.3,173.7 662.9,174 662.6,174.2 L659.8,174.2 L659.8,174 C660.3,173.8 660.7,173.4 661.1,172.9 C661.5,172.4 661.9,171.8 662.1,171.1 C662.4,170.4 662.5,169.6 662.5,168.8 C662.5,168.1 662.4,167.4 662.3,166.5 C662.3,166.4 662.3,166.1 662.2,165.8 C662.1,165.4 662.1,165.1 662.1,164.7 C662.1,163.2 662.9,162.3 664.5,161.9 C662.9,161.4 662.1,160.5 662.1,158.9 Z M621.1,161.7 C622.7,162 623.5,163 623.5,164.5 C623.5,164.9 623.5,165.2 623.4,165.6 C623.3,166 623.3,166.2 623.3,166.3 C623.1,167.1 623.1,167.9 623.1,168.6 C623.1,169.4 623.2,170.2 623.5,170.9 C623.8,171.6 624.1,172.2 624.5,172.7 C624.9,173.2 625.4,173.6 625.8,173.8 L625.8,174 L623,174 C622.6,173.8 622.3,173.5 621.9,173.1 C621.5,172.7 621.1,172.1 620.8,171.4 C620.5,170.7 620.3,169.8 620.3,168.7 C620.3,168.2 620.3,167.7 620.4,167.3 C620.5,166.9 620.5,166.6 620.5,166.5 C620.6,165.7 620.7,165 620.7,164.6 C620.7,164 620.5,163.5 620.2,163 C619.9,162.5 619.3,162.3 618.5,162.2 L618.5,161.1 C619.3,161 619.9,160.7 620.2,160.3 C620.5,159.9 620.7,159.3 620.7,158.7 C620.7,158.3 620.6,157.7 620.5,156.8 C620.5,156.7 620.4,156.4 620.4,156 C620.3,155.5 620.3,155.1 620.3,154.6 C620.3,153.6 620.5,152.7 620.8,151.9 C621.1,151.2 621.5,150.6 621.9,150.2 C622.3,149.8 622.7,149.5 623,149.3 L625.8,149.3 L625.8,149.5 C625.3,149.7 624.9,150.1 624.5,150.6 C624.1,151.1 623.7,151.7 623.5,152.4 C623.2,153.1 623.1,153.9 623.1,154.7 C623.1,155.4 623.2,156.1 623.3,156.9 C623.3,157 623.3,157.2 623.4,157.6 C623.5,158 623.5,158.4 623.5,158.7 C623.4,160.5 622.7,161.4 621.1,161.7 Z M640.6,169.5 C640.1,170.4 639.3,171.1 638.3,171.6 C637.3,172.1 636,172.4 634.6,172.4 C633.2,172.4 631.9,172.2 630.7,171.7 C629.6,171.2 628.6,170.5 628,169.6 C627.3,168.7 626.9,167.6 626.8,166.3 L631.1,166.3 C631.2,167.1 631.5,167.8 632.1,168.4 C632.7,169 633.4,169.2 634.4,169.2 C635.2,169.2 635.9,169 636.4,168.5 C636.9,168 637.1,167.5 637.1,166.7 C637.1,166.1 636.9,165.5 636.6,165.1 C636.2,164.7 635.8,164.3 635.2,164.1 C634.6,163.8 633.9,163.6 632.9,163.2 C631.6,162.8 630.6,162.4 629.8,161.9 C629,161.5 628.3,160.9 627.7,160.1 C627.1,159.3 626.8,158.3 626.8,157 C626.8,155.2 627.4,153.8 628.7,152.8 C630,151.8 631.6,151.3 633.7,151.3 C635.9,151.3 637.6,151.8 638.9,152.9 C640.2,153.9 640.9,155.3 641.1,157.1 L636.7,157.1 C636.6,156.4 636.3,155.8 635.8,155.3 C635.3,154.8 634.6,154.6 633.7,154.6 C632.9,154.6 632.3,154.8 631.9,155.2 C631.4,155.6 631.2,156.2 631.2,156.9 C631.2,157.5 631.4,158 631.7,158.4 C632.1,158.8 632.5,159.1 633.1,159.4 C633.6,159.7 634.4,159.9 635.3,160.2 C636.6,160.7 637.7,161.1 638.5,161.5 C639.3,161.9 640,162.5 640.6,163.3 C641.2,164.1 641.5,165.2 641.5,166.5 C641.4,167.7 641.1,168.6 640.6,169.5 Z M653.4,157.7 C653.4,156.8 653.2,156.1 652.7,155.6 C652.3,155.1 651.6,154.8 650.7,154.8 C648.8,154.8 647.8,156.1 647.7,158.7 L643.7,158.7 C643.8,156.3 644.5,154.4 645.9,153.2 C647.3,152 649,151.3 651,151.3 C653.1,151.3 654.7,151.8 655.8,152.9 C656.9,154 657.5,155.5 657.5,157.3 C657.5,158.7 657.1,160.2 656.2,161.6 C655.4,163 654.3,164.4 653,165.6 C651.7,166.8 650.3,167.9 648.9,168.7 L657.8,168.7 L657.8,172 L643.4,172 L643.4,169 C650.2,164.4 653.4,160.7 653.4,157.7 Z M729.5,218.5 C729.5,218.1 729.5,217.7 729.6,217.4 C729.7,217 729.7,216.8 729.7,216.7 C729.9,215.9 729.9,215.1 729.9,214.5 C729.9,213.7 729.8,212.9 729.5,212.2 C729.2,211.5 728.9,210.9 728.5,210.4 C728.1,209.9 727.6,209.5 727.2,209.3 L727.2,209.1 L730,209.1 C730.4,209.3 730.7,209.6 731.1,210 C731.5,210.4 731.9,211 732.2,211.7 C732.5,212.4 732.7,213.3 732.7,214.4 C732.7,214.9 732.7,215.4 732.6,215.8 C732.5,216.2 732.5,216.5 732.5,216.6 C732.4,217.4 732.3,218.1 732.3,218.5 C732.3,219.1 732.5,219.6 732.8,220.1 C733.1,220.6 733.7,220.8 734.5,220.9 L734.5,222 C733.7,222.1 733.1,222.4 732.8,222.8 C732.5,223.3 732.3,223.8 732.3,224.4 C732.3,224.8 732.4,225.5 732.5,226.3 C732.5,226.4 732.6,226.7 732.6,227.1 C732.6,227.5 732.7,228 732.7,228.5 C732.7,229.5 732.5,230.4 732.2,231.2 C731.9,231.9 731.5,232.5 731.1,232.9 C730.7,233.3 730.3,233.6 730,233.8 L727.2,233.8 L727.2,233.6 C727.7,233.4 728.1,233 728.5,232.5 C728.9,232 729.3,231.4 729.5,230.7 C729.8,230 729.9,229.2 729.9,228.4 C729.9,227.7 729.8,227 729.7,226.1 C729.7,226 729.7,225.7 729.6,225.4 C729.5,225 729.5,224.7 729.5,224.3 C729.5,222.8 730.3,221.9 731.9,221.5 C730.3,221 729.5,220 729.5,218.5 Z M688.5,221.3 C690.1,221.6 690.9,222.6 690.9,224.1 C690.9,224.5 690.9,224.8 690.8,225.2 C690.7,225.6 690.7,225.8 690.7,225.9 C690.5,226.7 690.5,227.5 690.5,228.2 C690.5,229 690.6,229.8 690.9,230.5 C691.2,231.2 691.5,231.8 691.9,232.3 C692.3,232.8 692.8,233.2 693.2,233.4 L693.2,233.6 L690.4,233.6 C690,233.4 689.7,233.1 689.3,232.7 C688.9,232.3 688.5,231.7 688.2,231 C687.9,230.3 687.7,229.4 687.7,228.3 C687.7,227.8 687.7,227.3 687.8,226.9 C687.9,226.5 687.9,226.2 687.9,226.1 C688,225.3 688.1,224.6 688.1,224.2 C688.1,223.6 687.9,223.1 687.6,222.6 C687.3,222.1 686.7,221.9 685.9,221.8 L685.9,220.7 C686.7,220.6 687.3,220.3 687.6,219.9 C687.9,219.5 688.1,218.9 688.1,218.3 C688.1,217.9 688,217.3 687.9,216.4 C687.9,216.3 687.8,216 687.8,215.6 C687.7,215.1 687.7,214.7 687.7,214.2 C687.7,213.2 687.9,212.3 688.2,211.5 C688.5,210.8 688.9,210.2 689.3,209.8 C689.7,209.4 690.1,209.1 690.4,208.9 L693.2,208.9 L693.2,209.1 C692.7,209.3 692.3,209.7 691.9,210.2 C691.5,210.7 691.1,211.3 690.9,212 C690.6,212.7 690.5,213.5 690.5,214.3 C690.5,215 690.6,215.7 690.7,216.5 C690.7,216.6 690.7,216.8 690.8,217.2 C690.9,217.6 690.9,218 690.9,218.3 C690.8,220 690.1,221 688.5,221.3 Z M708.3,228.9 C707.8,229.8 707,230.5 706,231 C705,231.5 703.7,231.8 702.3,231.8 C700.9,231.8 699.6,231.6 698.4,231.1 C697.3,230.6 696.3,229.9 695.7,229 C695,228.1 694.6,227 694.5,225.7 L698.8,225.7 C698.9,226.5 699.2,227.2 699.8,227.8 C700.4,228.4 701.1,228.6 702.1,228.6 C702.9,228.6 703.6,228.4 704.1,227.9 C704.6,227.4 704.8,226.9 704.8,226.1 C704.8,225.5 704.6,224.9 704.3,224.5 C703.9,224.1 703.5,223.7 702.9,223.5 C702.3,223.2 701.6,223 700.6,222.6 C699.3,222.2 698.3,221.8 697.5,221.3 C696.7,220.9 696,220.3 695.4,219.5 C694.8,218.7 694.5,217.7 694.5,216.4 C694.5,214.6 695.1,213.2 696.4,212.2 C697.7,211.2 699.3,210.7 701.4,210.7 C703.6,210.7 705.3,211.2 706.6,212.3 C707.9,213.3 708.6,214.7 708.8,216.5 L704.4,216.5 C704.3,215.8 704,215.2 703.5,214.7 C703,214.2 702.3,214 701.4,214 C700.6,214 700,214.2 699.6,214.6 C699.1,215 698.9,215.6 698.9,216.3 C698.9,216.9 699.1,217.4 699.4,217.8 C699.8,218.2 700.2,218.5 700.8,218.8 C701.3,219.1 702.1,219.3 703,219.6 C704.3,220.1 705.4,220.5 706.2,220.9 C707,221.3 707.7,221.9 708.3,222.7 C708.9,223.5 709.2,224.6 709.2,225.9 C709.1,227.1 708.8,228 708.3,228.9 Z M722.5,211.1 C723.5,211.6 724.2,212.3 724.8,213.1 C725.3,214 725.6,214.9 725.6,215.9 C725.6,217.2 725.2,218.3 724.5,219.1 C723.8,219.9 722.8,220.5 721.7,220.7 L721.7,220.8 C724.6,221.7 726,223.3 726,225.9 C726,227.7 725.4,229.1 724.2,230.2 C723,231.3 721.4,231.8 719.2,231.8 C716.9,231.8 715.1,231.2 713.8,230.1 C712.4,229 711.7,227.3 711.5,225 L715.5,225 C715.6,226 715.9,226.9 716.5,227.5 C717.1,228.1 717.9,228.4 719,228.4 C719.9,228.4 720.6,228.1 721.2,227.6 C721.7,227.1 722,226.4 722,225.6 C722,224.6 721.6,223.9 720.9,223.3 C720.1,222.8 719,222.5 717.6,222.5 L716.8,222.5 L716.8,219.2 L717.6,219.2 C720.3,219.2 721.7,218.3 721.7,216.4 C721.7,215.6 721.5,214.9 721,214.4 C720.5,213.9 719.9,213.7 719,213.7 C718.1,213.7 717.4,214 716.9,214.5 C716.3,215.1 716,215.8 715.9,216.8 L711.9,216.8 C712,214.7 712.7,213.1 713.9,212 C715.1,210.9 716.9,210.3 719.1,210.3 C720.4,210.3 721.5,210.6 722.5,211.1 Z M837.4,94.1 C837.4,93.7 837.4,93.3 837.5,93 C837.6,92.6 837.6,92.4 837.6,92.3 C837.8,91.5 837.8,90.7 837.8,90.1 C837.8,89.3 837.7,88.5 837.4,87.8 C837.1,87.1 836.8,86.5 836.4,86 C836,85.5 835.5,85.1 835.1,84.9 L835.1,84.7 L837.9,84.7 C838.3,84.9 838.6,85.2 839,85.6 C839.4,86 839.8,86.6 840.1,87.3 C840.4,88 840.6,88.9 840.6,90 C840.6,90.5 840.6,91 840.5,91.4 C840.4,91.8 840.4,92.1 840.4,92.2 C840.3,93 840.2,93.7 840.2,94.1 C840.2,94.7 840.4,95.2 840.7,95.7 C841,96.2 841.6,96.4 842.4,96.5 L842.4,97.6 C841.6,97.7 841,98 840.7,98.4 C840.4,98.9 840.2,99.4 840.2,100 C840.2,100.4 840.3,101.1 840.4,101.9 C840.4,102 840.5,102.3 840.5,102.7 C840.5,103.1 840.6,103.6 840.6,104.1 C840.6,105.1 840.4,106 840.1,106.8 C839.8,107.5 839.4,108.1 839,108.5 C838.6,108.9 838.2,109.2 837.9,109.4 L835.1,109.4 L835.1,109.2 C835.6,109 836,108.6 836.4,108.1 C836.8,107.6 837.2,107 837.4,106.3 C837.7,105.6 837.8,104.8 837.8,104 C837.8,103.3 837.7,102.6 837.6,101.7 C837.6,101.6 837.6,101.3 837.5,101 C837.4,100.6 837.4,100.3 837.4,99.9 C837.4,98.4 838.2,97.5 839.8,97.1 C838.2,96.6 837.4,95.7 837.4,94.1 Z M755.6,96.9 C757.2,97.3 758,98.2 758,99.7 C758,100.1 758,100.4 757.9,100.8 C757.8,101.2 757.8,101.4 757.8,101.5 C757.6,102.3 757.6,103.1 757.6,103.8 C757.6,104.6 757.7,105.4 758,106.1 C758.3,106.8 758.6,107.4 759,107.9 C759.4,108.4 759.9,108.8 760.3,109 L760.3,109.2 L757.5,109.2 C757.1,109 756.8,108.7 756.4,108.3 C756,107.9 755.6,107.3 755.3,106.6 C755,105.9 754.8,105 754.8,103.9 C754.8,103.4 754.8,102.9 754.9,102.5 C755,102.1 755,101.8 755,101.7 C755.1,100.9 755.2,100.2 755.2,99.8 C755.2,99.2 755,98.7 754.7,98.2 C754.4,97.7 753.8,97.5 753,97.4 L753,96.3 C753.8,96.2 754.4,95.9 754.7,95.5 C755,95 755.2,94.5 755.2,93.9 C755.2,93.5 755.1,92.9 755,92 C755,91.9 754.9,91.6 754.9,91.2 C754.9,90.8 754.8,90.3 754.8,89.8 C754.8,88.8 755,87.9 755.3,87.1 C755.6,86.4 756,85.8 756.4,85.4 C756.8,85 757.2,84.7 757.5,84.5 L760.3,84.5 L760.3,84.7 C759.8,84.9 759.4,85.3 759,85.8 C758.6,86.3 758.2,86.9 758,87.6 C757.7,88.3 757.6,89.1 757.6,89.9 C757.6,90.6 757.7,91.3 757.8,92.1 C757.8,92.2 757.8,92.4 757.9,92.8 C758,93.2 758,93.6 758,93.9 C757.9,95.7 757.1,96.6 755.6,96.9 Z M816.8,104.6 C816.3,105.5 815.5,106.2 814.5,106.7 C813.5,107.2 812.2,107.5 810.8,107.5 C809.4,107.5 808.1,107.3 806.9,106.8 C805.8,106.3 804.8,105.6 804.2,104.7 C803.5,103.8 803.1,102.7 803,101.4 L807.3,101.4 C807.4,102.2 807.7,102.9 808.3,103.5 C808.9,104.1 809.6,104.3 810.6,104.3 C811.4,104.3 812.1,104.1 812.6,103.6 C813.1,103.1 813.3,102.6 813.3,101.8 C813.3,101.2 813.1,100.6 812.8,100.2 C812.4,99.8 812,99.4 811.4,99.2 C810.8,98.9 810.1,98.7 809.1,98.3 C807.8,97.9 806.8,97.5 806,97 C805.2,96.6 804.5,96 803.9,95.2 C803.3,94.4 803,93.4 803,92.1 C803,90.3 803.6,88.9 804.9,87.9 C806.2,86.9 807.8,86.4 809.9,86.4 C812.1,86.4 813.8,86.9 815.1,88 C816.4,89 817.1,90.4 817.3,92.2 L812.9,92.2 C812.8,91.5 812.5,90.9 812,90.4 C811.5,89.9 810.8,89.7 809.9,89.7 C809.1,89.7 808.5,89.9 808.1,90.3 C807.6,90.7 807.4,91.3 807.4,92 C807.4,92.6 807.6,93.1 807.9,93.5 C808.3,93.9 808.7,94.2 809.3,94.5 C809.8,94.8 810.6,95 811.5,95.3 C812.8,95.8 813.9,96.2 814.7,96.6 C815.5,97 816.2,97.6 816.8,98.4 C817.4,99.2 817.7,100.3 817.7,101.6 C817.6,102.8 817.4,103.7 816.8,104.6 Z M831.1,86.7 C832.1,87.2 832.8,87.9 833.4,88.7 C833.9,89.6 834.2,90.5 834.2,91.5 C834.2,92.8 833.8,93.9 833.1,94.7 C832.4,95.5 831.4,96.1 830.3,96.3 L830.3,96.4 C833.2,97.3 834.6,98.9 834.6,101.5 C834.6,103.3 834,104.7 832.8,105.8 C831.6,106.9 830,107.4 827.8,107.4 C825.5,107.4 823.7,106.8 822.4,105.7 C821,104.6 820.3,102.9 820.1,100.6 L824.1,100.6 C824.2,101.6 824.5,102.5 825.1,103.1 C825.7,103.7 826.5,104 827.6,104 C828.5,104 829.2,103.7 829.8,103.2 C830.3,102.7 830.6,102 830.6,101.2 C830.6,100.2 830.2,99.5 829.5,98.9 C828.7,98.4 827.6,98.1 826.2,98.1 L825.4,98.1 L825.4,94.8 L826.2,94.8 C828.9,94.8 830.3,93.9 830.3,92 C830.3,91.2 830.1,90.5 829.6,90 C829.1,89.5 828.5,89.3 827.6,89.3 C826.7,89.3 826,89.6 825.5,90.1 C824.9,90.7 824.6,91.4 824.5,92.4 L820.5,92.4 C820.6,90.3 821.3,88.7 822.5,87.6 C823.7,86.5 825.5,85.9 827.7,85.9 C828.9,86 830.1,86.3 831.1,86.7 Z M775.5,104.7 C775,105.6 774.2,106.4 773.1,106.9 C772,107.5 770.7,107.7 769.2,107.7 C767.7,107.7 766.3,107.4 765.2,106.9 C764,106.4 763.1,105.6 762.3,104.7 C761.6,103.7 761.2,102.6 761.1,101.3 L765.6,101.3 C765.7,102.2 766,102.9 766.6,103.5 C767.2,104.1 768,104.4 769,104.4 C769.9,104.4 770.6,104.2 771,103.7 C771.5,103.2 771.7,102.6 771.7,101.9 C771.7,101.2 771.5,100.7 771.1,100.2 C770.7,99.8 770.2,99.4 769.7,99.2 C769.1,98.9 768.3,98.6 767.3,98.3 C766,97.9 764.9,97.4 764,97 C763.2,96.6 762.4,95.9 761.8,95.1 C761.2,94.3 760.9,93.2 760.9,91.9 C760.9,90.1 761.6,88.6 762.9,87.6 C764.2,86.5 766,86 768.1,86 C770.4,86 772.1,86.5 773.5,87.6 C774.8,88.7 775.6,90.1 775.8,92 L771.2,92 C771.1,91.2 770.8,90.6 770.2,90.1 C769.7,89.6 769,89.4 768.1,89.4 C767.3,89.4 766.7,89.6 766.2,90 C765.7,90.4 765.5,91 765.5,91.8 C765.5,92.4 765.7,92.9 766.1,93.4 C766.5,93.8 766.9,94.2 767.5,94.4 C768.1,94.7 768.9,95 769.8,95.3 C771.2,95.8 772.3,96.2 773.1,96.7 C774,97.1 774.7,97.8 775.3,98.6 C775.9,99.4 776.2,100.6 776.2,101.9 C776.3,102.8 776,103.8 775.5,104.7 Z M788.8,92.3 C788.8,91.4 788.6,90.6 788.1,90.1 C787.6,89.6 786.9,89.3 786,89.3 C784,89.3 783,90.7 782.8,93.4 L778.7,93.4 C778.8,90.9 779.6,89 781,87.7 C782.4,86.4 784.2,85.7 786.3,85.7 C788.5,85.7 790.2,86.3 791.4,87.4 C792.6,88.5 793.2,90.1 793.2,92 C793.2,93.5 792.8,95 791.9,96.5 C791,98 789.9,99.4 788.6,100.6 C787.3,101.9 785.8,102.9 784.3,103.9 L793.6,103.9 L793.6,107.4 L778.6,107.4 L778.6,104.2 C785.4,99.4 788.8,95.5 788.8,92.3 Z M802,107 C802,107.9 801.8,108.6 801.3,109.1 C800.8,109.7 800.1,109.9 799.2,109.9 L799.2,108.8 C799.6,108.8 799.8,108.7 800,108.5 C800.2,108.3 800.3,108 800.3,107.6 L800.3,107.4 L799,107.4 L799,104.7 L801.6,104.7 C801.8,105.5 802,106.2 802,107 Z M648.1,36.3 C649,36.8 649.7,37.6 650.2,38.7 C650.7,39.7 651,40.9 651,42.3 C651,43.7 650.7,44.9 650.2,45.9 C649.7,46.9 649,47.7 648.1,48.3 C647.2,48.9 646.2,49.1 645.1,49.1 C644,49.1 643,48.8 642.2,48.3 C641.4,47.8 640.8,47 640.5,46.2 L640.5,49 L637.1,49 L637.1,31.2 L640.5,31.2 L640.5,38.4 C640.8,37.5 641.4,36.8 642.2,36.3 C643,35.8 643.9,35.5 645.1,35.5 C646.2,35.5 647.2,35.8 648.1,36.3 Z M641.5,39.5 C640.8,40.2 640.5,41.1 640.5,42.3 C640.5,43.5 640.8,44.4 641.5,45.1 C642.2,45.8 643,46.1 644,46.1 C645.1,46.1 645.9,45.8 646.5,45.1 C647.1,44.4 647.5,43.5 647.5,42.3 C647.5,41.1 647.2,40.2 646.5,39.5 C645.8,38.8 645,38.5 644,38.5 C643,38.5 642.2,38.8 641.5,39.5 Z M779.7,47.7 C778.1,48.7 775.3,49.3 773,49.3 C769.3,49.3 765.3,47.9 765.3,43.9 C765.3,41.7 767.1,40 769.4,39.6 L769.4,39.5 C767.3,38.9 766.2,37.6 766.2,35.8 C766.2,33.4 768.6,31 773.6,31 C776,31 777.8,31.5 779.2,32.3 L778.4,35.1 C777.5,34.6 775.8,34.1 774.2,34.1 C772.1,34.1 770.7,35 770.7,36.2 C770.7,37.6 772.5,38.2 775.1,38.2 L777,38.2 L777,41.2 L775,41.2 C772.2,41.2 770.1,41.8 770.1,43.5 C770.1,45.2 772,46 774.2,46 C775.9,46 778,45.4 779.1,44.8 L779.7,47.7 Z" id="Shape" fill="#000000" fill-rule="nonzero"></path>
            <g id="Group" transform="translate(0.000000, 16.000000)">
                <g id="Group-3" transform="translate(754.000000, 133.000000)" fill="#000000" fill-rule="nonzero">
                    <path d="M43.9,10 C43.9,9.6 43.9,9.2 44,8.9 C44.1,8.5 44.1,8.3 44.1,8.2 C44.3,7.4 44.3,6.6 44.3,6 C44.3,5.2 44.2,4.4 43.9,3.7 C43.6,3 43.3,2.4 42.9,1.9 C42.5,1.4 42,1 41.6,0.8 L41.6,0.6 L44.4,0.6 C44.8,0.8 45.1,1.1 45.5,1.5 C45.9,1.9 46.3,2.5 46.6,3.2 C46.9,3.9 47.1,4.8 47.1,5.9 C47.1,6.4 47.1,6.9 47,7.3 C46.9,7.8 46.9,8 46.9,8.1 C46.8,8.9 46.7,9.6 46.7,10 C46.7,10.6 46.9,11.1 47.2,11.6 C47.5,12.1 48.1,12.3 48.9,12.4 L48.9,13.5 C48.1,13.6 47.5,13.9 47.2,14.3 C46.9,14.7 46.7,15.3 46.7,15.9 C46.7,16.3 46.8,16.9 46.9,17.8 C46.9,17.9 47,18.2 47,18.6 C47,19 47.1,19.5 47.1,20 C47.1,21 46.9,21.9 46.6,22.7 C46.3,23.4 45.9,24 45.5,24.4 C45.1,24.8 44.7,25.1 44.4,25.3 L41.6,25.3 L41.6,25.1 C42.1,24.9 42.5,24.5 42.9,24 C43.3,23.5 43.7,22.9 43.9,22.2 C44.2,21.5 44.3,20.7 44.3,19.9 C44.3,19.2 44.2,18.5 44.1,17.6 C44.1,17.5 44.1,17.2 44,16.9 C43.9,16.5 43.9,16.2 43.9,15.8 C43.9,14.3 44.7,13.4 46.3,13 C44.7,12.5 43.9,11.5 43.9,10 Z" id="Path"></path>
                    <path d="M2.9,12.8 C4.5,13.1 5.3,14.1 5.3,15.6 C5.3,16 5.3,16.3 5.2,16.7 C5.1,17.1 5.1,17.3 5.1,17.4 C4.9,18.2 4.9,19 4.9,19.7 C4.9,20.5 5,21.3 5.3,22 C5.6,22.7 5.9,23.3 6.3,23.8 C6.7,24.3 7.2,24.7 7.6,24.9 L7.6,25.1 L4.8,25.1 C4.4,24.9 4.1,24.6 3.7,24.2 C3.3,23.8 2.9,23.2 2.6,22.5 C2.3,21.8 2.1,20.9 2.1,19.8 C2.1,19.3 2.1,18.8 2.2,18.4 C2.3,18 2.3,17.7 2.3,17.6 C2.4,16.8 2.5,16.1 2.5,15.7 C2.5,15.1 2.3,14.6 2,14.1 C1.7,13.6 1.1,13.4 0.3,13.3 L0.3,12.2 C1.1,12.1 1.7,11.8 2,11.4 C2.3,11 2.5,10.4 2.5,9.8 C2.5,9.4 2.4,8.8 2.3,7.9 C2.3,7.8 2.2,7.5 2.2,7.1 C2.1,6.6 2.1,6.2 2.1,5.7 C2.1,4.7 2.3,3.8 2.6,3 C2.9,2.3 3.3,1.7 3.7,1.3 C4.1,0.9 4.5,0.6 4.8,0.4 L7.6,0.4 L7.6,0.6 C7.1,0.8 6.7,1.2 6.3,1.7 C5.9,2.2 5.5,2.8 5.3,3.5 C5,4.2 4.9,5 4.9,5.8 C4.9,6.5 5,7.2 5.1,8 C5.1,8.1 5.1,8.3 5.2,8.7 C5.3,9.1 5.3,9.5 5.3,9.8 C5.2,11.5 4.5,12.5 2.9,12.8 Z" id="Path"></path>
                    <path d="M22.7,20.4 C22.2,21.3 21.4,22 20.4,22.5 C19.4,23 18.1,23.3 16.7,23.3 C15.3,23.3 14,23.1 12.8,22.6 C11.7,22.1 10.7,21.4 10.1,20.5 C9.4,19.6 9,18.5 8.9,17.2 L13.2,17.2 C13.3,18 13.6,18.7 14.2,19.3 C14.8,19.9 15.5,20.1 16.5,20.1 C17.3,20.1 18,19.9 18.5,19.4 C19,18.9 19.2,18.4 19.2,17.6 C19.2,17 19,16.4 18.7,16 C18.3,15.6 17.9,15.2 17.3,15 C16.7,14.7 16,14.5 15,14.1 C13.7,13.7 12.7,13.3 11.9,12.8 C11.1,12.4 10.4,11.8 9.8,11 C9.2,10.2 8.9,9.2 8.9,7.9 C8.9,6.1 9.5,4.7 10.8,3.7 C12.1,2.7 13.7,2.2 15.8,2.2 C18,2.2 19.7,2.7 21,3.8 C22.3,4.8 23,6.2 23.2,8 L18.8,8 C18.7,7.3 18.4,6.7 17.9,6.2 C17.4,5.7 16.7,5.5 15.8,5.5 C15,5.5 14.4,5.7 14,6.1 C13.5,6.5 13.3,7.1 13.3,7.8 C13.3,8.4 13.5,8.9 13.8,9.3 C14.2,9.7 14.6,10 15.2,10.3 C15.7,10.6 16.5,10.8 17.4,11.1 C18.7,11.6 19.8,12 20.6,12.4 C21.4,12.8 22.1,13.4 22.7,14.2 C23.3,15 23.6,16.1 23.6,17.4 C23.5,18.6 23.2,19.5 22.7,20.4 Z" id="Path"></path>
                    <path d="M37,2.6 C38,3.1 38.7,3.8 39.3,4.6 C39.8,5.5 40.1,6.4 40.1,7.4 C40.1,8.7 39.7,9.8 39,10.6 C38.3,11.4 37.3,12 36.2,12.2 L36.2,12.3 C39.1,13.2 40.5,14.8 40.5,17.4 C40.5,19.2 39.9,20.6 38.7,21.7 C37.5,22.8 35.9,23.3 33.7,23.3 C31.4,23.3 29.6,22.7 28.3,21.6 C26.9,20.5 26.2,18.8 26,16.5 L30,16.5 C30.1,17.5 30.4,18.4 31,19 C31.6,19.6 32.4,19.9 33.5,19.9 C34.4,19.9 35.1,19.6 35.7,19.1 C36.2,18.6 36.5,17.9 36.5,17.1 C36.5,16.1 36.1,15.4 35.4,14.8 C34.6,14.3 33.5,14 32.1,14 L31.3,14 L31.3,10.7 L32.1,10.7 C34.8,10.7 36.2,9.8 36.2,7.9 C36.2,7.1 36,6.4 35.5,5.9 C35,5.4 34.4,5.2 33.5,5.2 C32.6,5.2 31.9,5.5 31.4,6 C30.8,6.6 30.5,7.3 30.4,8.3 L26.4,8.3 C26.5,6.2 27.2,4.6 28.4,3.5 C29.6,2.4 31.4,1.8 33.6,1.8 C34.8,1.8 36,2.1 37,2.6 Z" id="Path"></path>
                </g>
                <circle id="Oval" stroke="#000000" stroke-width="4" fill="#F5A623" cx="78.4" cy="137.4" r="28.5"></circle>
                <circle id="Oval" stroke="#000000" stroke-width="4" fill="#F5A623" cx="219.9" cy="137.4" r="28.5"></circle>
                <circle id="Oval" stroke="#000000" stroke-width="4" fill="#F5A623" cx="361.5" cy="137.4" r="28.5"></circle>
                <path d="M174,127.8 L189.5,138.5 L174,149.3 M306.7,127.8 L322.2,138.5 L306.7,149.3 M107.8,138.5 L191.4,138.5 M248.4,138.5 L322.2,138.5" id="Shape" stroke="#000000" stroke-width="4" stroke-linecap="round" stroke-linejoin="round"></path>
                <g stroke-linecap="round" transform="translate(310.000000, 37.000000)" id="Shape" stroke="#000000" stroke-width="4">
                    <path d="M16.8,85.6 C2.3,71.7 -3.5,49.9 4.7,30.6 C15.3,5.5 44.3,-6.3 69.4,4.2 C94.5,14.8 106.3,43.8 95.8,68.9 C94.3,72.5 92.4,75.9 90.1,78.9"></path>
                    <polyline stroke-linejoin="round" points="89.4 67.8 89.7 79.7 100.3 74.4"></polyline>
                </g>
                <g stroke-linecap="round" transform="translate(170.000000, 37.000000)" id="Shape" stroke="#000000" stroke-width="4">
                    <path d="M23,91.1 C2,76.8 -5.9,48.1 6.7,25.6 C20,1.8 50.1,-6.7 73.9,6.6 C97.7,19.9 106.2,50 92.9,73.8 C91,77.2 88.7,80.4 86.1,83.1"></path>
                    <polyline stroke-linejoin="round" points="86.7 72.1 85.7 83.9 96.9 79.9"></polyline>
                </g>
                <circle id="Oval" stroke="#000000" stroke-width="4" cx="361.7" cy="137.5" r="36.6"></circle>
                <g id="Group-2" transform="translate(0.000000, 127.000000)" stroke="#000000" stroke-linecap="round" stroke-linejoin="round" stroke-width="4">
                    <polyline id="Shape" points="32.5 0.8 48 11.5 32.5 22.3"></polyline>
                    <path d="M0.5,11.5 L49.9,11.5" id="Shape"></path>
                </g>
                <g id="Group-2" transform="translate(82.000000, 336.500000) rotate(-90.000000) translate(-82.000000, -336.500000) translate(56.000000, 325.000000)" stroke="#000000" stroke-linecap="round" stroke-linejoin="round" stroke-width="4">
                    <polyline id="Shape" points="36.5 0.8 52 11.5 36.5 22.3"></polyline>
                    <path d="M0.5,11.5 L49.9,11.5" id="Shape"></path>
                </g>
                <path d="M80.3,5.4 C81.1,5.9 81.7,6.6 82,7.5 L82,4.7 L85.4,4.7 L85.4,18 L82,18 L82,15.2 C81.7,16.1 81.1,16.8 80.3,17.3 C79.5,17.8 78.5,18.1 77.4,18.1 C76.3,18.1 75.3,17.8 74.4,17.3 C73.5,16.8 72.8,16 72.3,14.9 C71.8,13.9 71.5,12.7 71.5,11.3 C71.5,9.9 71.8,8.7 72.3,7.7 C72.8,6.7 73.5,5.9 74.4,5.3 C75.3,4.8 76.3,4.5 77.4,4.5 C78.6,4.6 79.5,4.8 80.3,5.4 Z M76,8.6 C75.4,9.3 75,10.2 75,11.4 C75,12.6 75.3,13.5 76,14.2 C76.6,14.9 77.5,15.2 78.5,15.2 C79.5,15.2 80.4,14.9 81,14.2 C81.7,13.5 82,12.6 82,11.4 C82,10.2 81.7,9.3 81,8.6 C80.3,7.9 79.5,7.6 78.5,7.6 C77.4,7.5 76.6,7.9 76,8.6 Z M365,6 C366.1,6.9 366.9,8.2 367.1,9.8 L363.5,9.8 C363.4,9.1 363,8.5 362.5,8.1 C362,7.7 361.3,7.5 360.6,7.5 C359.7,7.5 359,7.8 358.4,8.5 C357.8,9.2 357.5,10.1 357.5,11.4 C357.5,12.7 357.8,13.7 358.4,14.3 C359,15 359.7,15.3 360.6,15.3 C361.4,15.3 362,15.1 362.5,14.7 C363,14.3 363.3,13.7 363.5,13 L367.1,13 C366.8,14.6 366.1,15.9 365,16.8 C363.9,17.7 362.4,18.2 360.7,18.2 C359.4,18.2 358.3,17.9 357.2,17.4 C356.2,16.8 355.4,16.1 354.8,15 C354.2,14 354,12.8 354,11.4 C354,10 354.3,8.8 354.8,7.8 C355.4,6.8 356.1,6 357.2,5.4 C358.2,4.9 359.4,4.6 360.7,4.6 C362.4,4.6 363.8,5 365,6 Z" id="Shape" fill="#000000" fill-rule="nonzero"></path>
                <g stroke-linecap="round" transform="translate(29.000000, 37.000000)" id="Shape" stroke="#000000" stroke-width="4">
                    <path d="M22,90.8 C1.4,76.4 -6.3,47.9 6.1,25.6 C19.4,1.8 49.5,-6.7 73.3,6.6 C97.1,19.9 105.6,50 92.3,73.8 C90.4,77.2 88.1,80.4 85.5,83.1"></path>
                    <polyline stroke-linejoin="round" points="86.1 72.1 85.1 83.9 96.3 79.9"></polyline>
                </g>
                <path d="M79.2,145.3 C78.7,146.2 77.9,147 76.8,147.5 C75.7,148.1 74.4,148.3 72.9,148.3 C71.4,148.3 70,148 68.9,147.5 C67.7,147 66.8,146.2 66,145.3 C65.3,144.3 64.9,143.2 64.8,141.9 L69.3,141.9 C69.4,142.8 69.7,143.5 70.3,144.1 C70.9,144.7 71.7,145 72.7,145 C73.6,145 74.3,144.8 74.7,144.3 C75.2,143.8 75.4,143.2 75.4,142.5 C75.4,141.8 75.2,141.3 74.8,140.8 C74.4,140.4 73.9,140 73.4,139.8 C72.8,139.5 72,139.2 71,138.9 C69.7,138.5 68.6,138 67.7,137.6 C66.9,137.2 66.1,136.5 65.5,135.7 C64.9,134.9 64.6,133.8 64.6,132.5 C64.6,130.7 65.3,129.2 66.6,128.2 C67.9,127.1 69.7,126.6 71.8,126.6 C74.1,126.6 75.8,127.1 77.2,128.2 C78.5,129.3 79.3,130.7 79.5,132.6 L75,132.6 C74.9,131.8 74.6,131.2 74,130.7 C73.5,130.2 72.8,130 71.9,130 C71.1,130 70.5,130.2 70,130.6 C69.5,131 69.3,131.6 69.3,132.4 C69.3,133 69.5,133.5 69.9,134 C70.3,134.4 70.7,134.8 71.3,135 C71.9,135.3 72.7,135.6 73.6,135.9 C75,136.4 76.1,136.8 76.9,137.3 C77.8,137.7 78.5,138.4 79.1,139.2 C79.7,140 80,141.2 80,142.5 C80,143.4 79.8,144.4 79.2,145.3 Z M81.6,130.8 L81.6,126.8 L89.3,126.8 L89.3,148.2 L84.8,148.2 L84.8,130.8 L81.6,130.8 Z M218.1,145.4 C217.6,146.3 216.8,147.1 215.7,147.6 C214.6,148.2 213.3,148.4 211.8,148.4 C210.3,148.4 208.9,148.1 207.8,147.6 C206.6,147.1 205.7,146.3 204.9,145.4 C204.2,144.4 203.8,143.3 203.7,142 L208.2,142 C208.3,142.9 208.6,143.6 209.2,144.2 C209.8,144.8 210.6,145.1 211.6,145.1 C212.5,145.1 213.2,144.9 213.6,144.4 C214.1,143.9 214.3,143.3 214.3,142.6 C214.3,141.9 214.1,141.4 213.7,140.9 C213.3,140.5 212.8,140.1 212.3,139.9 C211.7,139.6 210.9,139.3 209.9,139 C208.6,138.6 207.5,138.1 206.6,137.7 C205.8,137.3 205,136.6 204.4,135.8 C203.8,135 203.5,133.9 203.5,132.6 C203.5,130.8 204.2,129.3 205.5,128.3 C206.8,127.2 208.6,126.7 210.7,126.7 C213,126.7 214.7,127.2 216.1,128.3 C217.4,129.4 218.2,130.8 218.4,132.7 L213.8,132.7 C213.7,131.9 213.4,131.3 212.8,130.8 C212.3,130.3 211.6,130.1 210.7,130.1 C209.9,130.1 209.3,130.3 208.8,130.7 C208.3,131.1 208.1,131.7 208.1,132.5 C208.1,133.1 208.3,133.6 208.7,134.1 C209.1,134.5 209.5,134.9 210.1,135.1 C210.7,135.4 211.5,135.7 212.4,136 C213.8,136.5 214.9,136.9 215.7,137.4 C216.6,137.8 217.3,138.5 217.9,139.3 C218.5,140.1 218.8,141.3 218.8,142.6 C218.9,143.5 218.6,144.5 218.1,145.4 Z M231.5,133.1 C231.5,132.2 231.3,131.4 230.8,130.9 C230.3,130.4 229.6,130.1 228.7,130.1 C226.7,130.1 225.7,131.5 225.5,134.2 L221.4,134.2 C221.5,131.7 222.3,129.8 223.7,128.5 C225.1,127.2 226.9,126.5 229,126.5 C231.2,126.5 232.9,127.1 234.1,128.2 C235.3,129.3 235.9,130.9 235.9,132.8 C235.9,134.3 235.5,135.8 234.6,137.3 C233.7,138.8 232.6,140.2 231.3,141.4 C230,142.7 228.5,143.7 227,144.7 L236.3,144.7 L236.3,148.2 L221.3,148.2 L221.3,145 C228.1,140.1 231.5,136.2 231.5,133.1 Z M358.4,145.4 C357.9,146.3 357.1,147.1 356,147.6 C354.9,148.2 353.6,148.4 352.1,148.4 C350.6,148.4 349.2,148.1 348.1,147.6 C346.9,147.1 346,146.3 345.2,145.4 C344.5,144.4 344.1,143.3 344,142 L348.5,142 C348.6,142.9 348.9,143.6 349.5,144.2 C350.1,144.8 350.9,145.1 351.9,145.1 C352.8,145.1 353.5,144.9 353.9,144.4 C354.4,143.9 354.6,143.3 354.6,142.6 C354.6,141.9 354.4,141.4 354,140.9 C353.6,140.5 353.1,140.1 352.6,139.9 C352,139.6 351.2,139.3 350.2,139 C348.9,138.6 347.8,138.1 346.9,137.7 C346.1,137.3 345.3,136.6 344.7,135.8 C344.1,135 343.8,133.9 343.8,132.6 C343.8,130.8 344.5,129.3 345.8,128.3 C347.1,127.2 348.9,126.7 351,126.7 C353.3,126.7 355,127.2 356.4,128.3 C357.7,129.4 358.5,130.8 358.7,132.7 L354.1,132.7 C354,131.9 353.7,131.3 353.1,130.8 C352.6,130.3 351.9,130.1 351,130.1 C350.2,130.1 349.6,130.3 349.1,130.7 C348.6,131.1 348.4,131.7 348.4,132.5 C348.4,133.1 348.6,133.6 349,134.1 C349.4,134.5 349.8,134.9 350.4,135.1 C351,135.4 351.8,135.7 352.7,136 C354.1,136.5 355.2,136.9 356,137.4 C356.9,137.8 357.6,138.5 358.2,139.3 C358.8,140.1 359.1,141.3 359.1,142.6 C359.2,143.5 358.9,144.5 358.4,145.4 Z M373.2,126.8 C374.2,127.3 375,128 375.6,128.9 C376.1,129.8 376.4,130.8 376.4,131.9 C376.4,133.3 376,134.4 375.3,135.3 C374.6,136.2 373.6,136.7 372.3,136.9 L372.3,137.1 C375.3,138 376.8,139.7 376.8,142.4 C376.8,144.2 376.2,145.7 375,146.9 C373.8,148 372,148.6 369.8,148.6 C367.4,148.6 365.5,148 364.1,146.8 C362.7,145.6 361.9,143.8 361.7,141.5 L365.9,141.5 C366,142.6 366.4,143.5 367,144.1 C367.6,144.7 368.5,145.1 369.6,145.1 C370.6,145.1 371.3,144.8 371.9,144.3 C372.4,143.8 372.7,143.1 372.7,142.2 C372.7,141.2 372.3,140.4 371.5,139.8 C370.7,139.2 369.6,139 368,139 L367.1,139 L367.1,135.5 L368,135.5 C370.8,135.5 372.2,134.6 372.2,132.6 C372.2,131.7 371.9,131.1 371.4,130.6 C370.9,130.1 370.2,129.9 369.3,129.9 C368.4,129.9 367.7,130.2 367.1,130.8 C366.5,131.4 366.2,132.2 366.1,133.2 L362,133.2 C362.1,131 362.8,129.3 364.1,128.2 C365.4,127 367.2,126.4 369.5,126.4 C370.9,126 372.2,126.3 373.2,126.8 Z M156.3,124.3 C154.7,125.3 151.9,125.9 149.6,125.9 C145.9,125.9 141.9,124.5 141.9,120.5 C141.9,118.3 143.7,116.6 146,116.2 L146,116 C143.9,115.4 142.8,114.1 142.8,112.3 C142.8,109.9 145.2,107.5 150.2,107.5 C152.6,107.5 154.4,108 155.8,108.8 L155,111.6 C154.1,111.1 152.4,110.6 150.8,110.6 C148.7,110.6 147.3,111.5 147.3,112.7 C147.3,114.1 149.1,114.7 151.7,114.7 L153.6,114.7 L153.6,117.7 L151.7,117.7 C148.9,117.7 146.8,118.3 146.8,120 C146.8,121.7 148.7,122.5 150.9,122.5 C152.6,122.5 154.7,121.9 155.8,121.3 L156.3,124.3 Z M294,122.5 C292.4,123.5 289.6,124.1 287.3,124.1 C283.6,124.1 279.6,122.7 279.6,118.7 C279.6,116.5 281.4,114.8 283.7,114.4 L283.7,114.3 C281.6,113.7 280.5,112.4 280.5,110.6 C280.5,108.2 282.9,105.8 287.9,105.8 C290.3,105.8 292.1,106.3 293.5,107.1 L292.7,109.9 C291.8,109.4 290.1,108.9 288.5,108.9 C286.4,108.9 285,109.8 285,111 C285,112.4 286.8,113 289.4,113 L291.3,113 L291.3,116 L289.4,116 C286.6,116 284.5,116.6 284.5,118.3 C284.5,120 286.4,120.8 288.6,120.8 C290.3,120.8 292.4,120.2 293.5,119.6 L294,122.5 Z M225.9,5.4 C226.8,5.9 227.5,6.7 228,7.8 C228.5,8.8 228.8,10 228.8,11.4 C228.8,12.8 228.5,14 228,15 C227.5,16 226.8,16.8 225.9,17.4 C225,18 224,18.2 222.9,18.2 C221.8,18.2 220.8,17.9 220,17.4 C219.2,16.9 218.6,16.1 218.3,15.3 L218.3,18.1 L214.9,18.1 L214.9,0.3 L218.3,0.3 L218.3,7.5 C218.6,6.6 219.2,5.9 220,5.4 C220.8,4.9 221.7,4.6 222.9,4.6 C224,4.6 225,4.8 225.9,5.4 Z M219.3,8.6 C218.6,9.3 218.3,10.2 218.3,11.4 C218.3,12.6 218.6,13.5 219.3,14.2 C220,14.9 220.8,15.2 221.8,15.2 C222.9,15.2 223.7,14.9 224.3,14.2 C224.9,13.5 225.3,12.6 225.3,11.4 C225.3,10.2 225,9.3 224.3,8.6 C223.6,7.9 222.8,7.6 221.8,7.6 C220.8,7.5 219.9,7.9 219.3,8.6 Z" id="Shape" fill="#000000" fill-rule="nonzero"></path>
            </g>
            <text id="“abc”" font-family="PTMono-Regular, PT Mono" font-size="52" font-weight="normal" fill="#000000">
                <tspan x="35" y="307">“abc”</tspan>
            </text>
        </g>
    </g>
</svg>