<svg xmlns="http://www.w3.org/2000/svg" width="845" height="240">
    <g fill="none" fill-rule="evenodd">
        <path stroke="#000" stroke-linecap="round" stroke-width="4" d="M548.6 19.2v218.7M613.6 19.2v218.7M678.6 19.2v218.7"/>
        <g stroke="#000" stroke-linecap="round" stroke-width="4">
            <path d="M489.1 193.5h316.7M489.1 128.5l315.3.3M489.1 63.5l315.3.3"/>
        </g>
        <path fill="#000" fill-rule="nonzero" d="M582.1 36.6c.8.5 1.4 1.2 1.7 2.1V36h3.4v13.3h-3.4v-2.8c-.3.9-.9 1.6-1.7 2.1-.8.5-1.8.8-2.9.8-1.1 0-2.1-.3-3-.8-.9-.5-1.6-1.3-2.1-2.4-.5-1-.8-2.2-.8-3.6s.3-2.6.8-3.6 1.2-1.8 2.1-2.4c.9-.5 1.9-.8 3-.8s2.1.3 2.9.8zm-4.4 3.2c-.6.7-1 1.6-1 2.8 0 1.2.3 2.1 1 2.8.6.7 1.5 1 2.5 1s1.9-.3 2.5-1c.7-.7 1-1.6 1-2.8 0-1.2-.3-2.1-1-2.8-.7-.7-1.5-1-2.5-1s-1.9.3-2.5 1zM716.4 33.2c1.4 1.1 2.3 2.6 2.8 4.4h-3.6c-.4-.9-.9-1.6-1.7-2.2-.8-.5-1.7-.8-2.8-.8-.9 0-1.7.2-2.4.7-.7.4-1.3 1.1-1.7 1.9-.4.8-.6 1.8-.6 2.9 0 1.1.2 2.1.6 2.9.4.8 1 1.5 1.7 1.9.7.4 1.5.7 2.4.7 1.1 0 2-.3 2.8-.8.8-.5 1.3-1.2 1.7-2.2h3.6c-.4 1.9-1.4 3.4-2.8 4.4-1.4 1.1-3.1 1.6-5.3 1.6-1.6 0-3-.4-4.3-1.1-1.2-.7-2.2-1.7-2.9-3.1-.7-1.3-1-2.8-1-4.5 0-1.7.3-3.2 1-4.5.7-1.3 1.6-2.3 2.9-3.1 1.2-.7 2.7-1.1 4.3-1.1 2.2.3 3.9.9 5.3 2z"/>
        <g fill="#000" fill-rule="nonzero">
            <path d="M519.3 104.2c-.5.9-1.3 1.6-2.3 2.1-1 .5-2.3.8-3.7.8-1.4 0-2.7-.2-3.9-.7-1.1-.5-2.1-1.2-2.7-2.1-.7-.9-1.1-2-1.2-3.3h4.3c.1.8.4 1.5 1 2.1.6.6 1.3.8 2.3.8.8 0 1.5-.2 2-.7.5-.5.7-1 .7-1.8 0-.6-.2-1.2-.5-1.6-.4-.4-.8-.8-1.4-1-.6-.3-1.3-.5-2.3-.9-1.3-.4-2.3-.8-3.1-1.3-.8-.4-1.5-1-2.1-1.8-.6-.8-.9-1.8-.9-3.1 0-1.8.6-3.2 1.9-4.2 1.3-1 2.9-1.5 5-1.5 2.2 0 3.9.5 5.2 1.6 1.3 1 2 2.4 2.2 4.2h-4.4c-.1-.7-.4-1.3-.9-1.8s-1.2-.7-2.1-.7c-.8 0-1.4.2-1.8.6-.5.4-.7 1-.7 1.7 0 .6.2 1.1.5 1.5.4.4.8.7 1.4 1 .5.3 1.3.5 2.2.8 1.3.5 2.4.9 3.2 1.3.8.4 1.5 1 2.1 1.8.6.8.9 1.9.9 3.2-.1 1.2-.4 2.2-.9 3zM521.6 90.3v-3.8h7.4V107h-4.3V90.3z"/>
        </g>
        <g fill="#000" fill-rule="nonzero">
            <path d="M516.9 169.4c-.5.9-1.3 1.6-2.3 2.1-1 .5-2.3.8-3.7.8-1.4 0-2.7-.2-3.9-.7-1.1-.5-2.1-1.2-2.7-2.1-.7-.9-1.1-2-1.2-3.3h4.3c.1.8.4 1.5 1 2.1.6.6 1.3.8 2.3.8.8 0 1.5-.2 2-.7.5-.5.7-1 .7-1.8 0-.6-.2-1.2-.5-1.6-.4-.4-.8-.8-1.4-1-.6-.3-1.3-.5-2.3-.9-1.3-.4-2.3-.8-3.1-1.3-.8-.4-1.5-1-2.1-1.8-.6-.8-.9-1.8-.9-3.1 0-1.8.6-3.2 1.9-4.2 1.3-1 2.9-1.5 5-1.5 2.2 0 3.9.5 5.2 1.6 1.3 1 2 2.4 2.2 4.2H513c-.1-.7-.4-1.3-.9-1.8s-1.2-.7-2.1-.7c-.8 0-1.4.2-1.8.6-.5.4-.7 1-.7 1.7 0 .6.2 1.1.5 1.5.4.4.8.7 1.4 1 .5.3 1.3.5 2.2.8 1.3.5 2.4.9 3.2 1.3.8.4 1.5 1 2.1 1.8.6.8.9 1.9.9 3.2-.1 1.2-.4 2.1-.9 3zM529.7 157.6c0-.9-.2-1.6-.7-2.1-.5-.5-1.1-.8-2-.8-1.9 0-2.9 1.3-3 3.9h-4c.1-2.4.8-4.3 2.2-5.5 1.4-1.2 3.1-1.9 5.1-1.9 2.1 0 3.7.5 4.8 1.6 1.1 1.1 1.7 2.6 1.7 4.4 0 1.4-.4 2.9-1.3 4.3-.8 1.4-1.9 2.8-3.2 4-1.3 1.2-2.7 2.3-4.1 3.1h8.9v3.3h-14.4v-3.1c6.7-4.4 10-8.2 10-11.2z"/>
        </g>
        <g fill="#000" fill-rule="nonzero">
            <path d="M516.4 226.2c-.5.9-1.3 1.6-2.3 2.1-1 .5-2.3.8-3.7.8-1.4 0-2.7-.2-3.9-.7-1.1-.5-2.1-1.2-2.7-2.1-.7-.9-1.1-2-1.2-3.3h4.3c.1.8.4 1.5 1 2.1.6.6 1.3.8 2.3.8.8 0 1.5-.2 2-.7.5-.5.7-1 .7-1.8 0-.6-.2-1.2-.5-1.6-.4-.4-.8-.8-1.4-1-.6-.3-1.3-.5-2.3-.9-1.3-.4-2.3-.8-3.1-1.3-.8-.4-1.5-1-2.1-1.8-.6-.8-.9-1.8-.9-3.1 0-1.8.6-3.2 1.9-4.2 1.3-1 2.9-1.5 5-1.5 2.2 0 3.9.5 5.2 1.6 1.3 1 2 2.4 2.2 4.2h-4.4c-.1-.7-.4-1.3-.9-1.8s-1.2-.7-2.1-.7c-.8 0-1.4.2-1.8.6-.5.4-.7 1-.7 1.7 0 .6.2 1.1.5 1.5.4.4.8.7 1.4 1 .5.3 1.3.5 2.2.8 1.3.5 2.4.9 3.2 1.3.8.4 1.5 1 2.1 1.8.6.8.9 1.9.9 3.2-.1 1.1-.4 2.1-.9 3zM530.6 208.3c1 .5 1.7 1.2 2.3 2 .5.9.8 1.8.8 2.8 0 1.3-.4 2.4-1.1 3.2-.7.8-1.7 1.4-2.8 1.6v.1c2.9.9 4.3 2.5 4.3 5.1 0 1.8-.6 3.2-1.8 4.3-1.2 1.1-2.8 1.6-5 1.6-2.3 0-4.1-.6-5.4-1.7-1.4-1.1-2.1-2.8-2.3-5.1h4c.1 1 .4 1.9 1 2.5.6.6 1.4.9 2.5.9.9 0 1.6-.3 2.2-.8.5-.5.8-1.2.8-2 0-1-.4-1.7-1.1-2.3-.8-.5-1.9-.8-3.3-.8h-.8v-3.3h.8c2.7 0 4.1-.9 4.1-2.8 0-.8-.2-1.5-.7-2-.5-.5-1.1-.7-2-.7-.9 0-1.6.3-2.1.8-.6.6-.9 1.3-1 2.3h-4c.1-2.1.8-3.7 2-4.8 1.2-1.1 3-1.7 5.2-1.7 1.3.1 2.4.4 3.4.8z"/>
        </g>
        <path stroke="#000" stroke-linecap="round" stroke-width="4" d="M548.6 63.5l-44.4-40M745.8 19.2v218.7"/>
        <g fill="#000" fill-rule="nonzero">
            <path d="M510.6 3.5l-1.2 6.9h-2.1l1.2-6.9h2.1zM509 .8c.3-.3.6-.4 1.1-.4.3 0 .6.1.8.3.2.2.3.4.3.7 0 .4-.1.7-.4.9-.3.3-.6.4-1.1.4-.3 0-.6-.1-.8-.3-.2-.2-.3-.4-.3-.7 0-.3.1-.6.4-.9zM518.1 4c.4.4.6.9.6 1.6 0 .2 0 .5-.1.8l-.7 4h-2.1l.7-3.8v-.4c0-.3-.1-.6-.3-.8-.2-.2-.5-.3-.8-.3-.4 0-.8.1-1.1.4-.3.3-.5.7-.6 1.2l-.6 3.7H511l1.2-6.9h2.1l-.2 1.2c.3-.4.6-.7 1.1-1 .4-.2.9-.4 1.5-.4.5.1 1 .3 1.4.7zM526.6 4.1c.4.5.7 1.1.7 2 0 .3 0 .6-.1.9-.1.7-.4 1.4-.7 1.9-.4.5-.8 1-1.3 1.2-.5.3-1 .4-1.6.4-.5 0-1-.1-1.3-.4-.3-.2-.6-.6-.7-1l-.8 4.6h-2.1l1.8-10.3h2.1l-.2 1.3c.2-.4.6-.7 1-1 .4-.2.9-.4 1.4-.4.8.1 1.4.4 1.8.8zm-2.2 4.1c.3-.3.5-.7.6-1.2v-.4c0-.4-.1-.7-.3-.9-.2-.2-.5-.3-.9-.3s-.8.2-1.2.5c-.4.3-.6.7-.6 1.2v.4c0 .4.1.7.3 1 .2.2.5.3.9.3.5-.1.9-.3 1.2-.6zM535.7 3.5l-1.2 6.9h-2.1l.2-1.3c-.3.4-.6.7-1.1 1-.4.2-.9.4-1.5.4-.7 0-1.2-.2-1.6-.6-.4-.4-.6-.9-.6-1.6 0-.2 0-.5.1-.8l.7-4h2.1l-.7 3.8v.4c0 .4.1.6.3.8.2.2.5.3.8.3.4 0 .8-.1 1.1-.4.3-.3.5-.7.6-1.2l.7-3.7h2.2zM538.8 7.9v.2c0 .2 0 .3.1.4.1.1.3.1.5.1h.7l-.3 1.8h-1c-.7 0-1.2-.1-1.6-.4-.4-.3-.6-.8-.6-1.4 0-.3 0-.5.1-.7l.4-2.6h-.9l.3-1.8h.9l.3-1.7h2.1l-.3 1.7h1.4l-.3 1.8h-1.4l-.4 2.6z"/>
        </g>
        <g fill="#000" fill-rule="nonzero">
            <path d="M478.7 50.8c-.3.3-.7.6-1.1.8-.5.2-1 .3-1.6.3-1 0-1.8-.2-2.4-.7-.6-.5-.9-1.2-.9-2h2.3c0 .3 0 .6.2.8.2.2.4.3.8.3.3 0 .5-.1.7-.3.2-.2.3-.4.3-.7 0-.2-.1-.4-.2-.5-.1-.1-.3-.3-.5-.4-.2-.1-.5-.2-.8-.4-.5-.2-.9-.4-1.2-.5-.3-.2-.5-.4-.8-.7-.2-.3-.3-.7-.3-1.2V45c.1-.6.5-1.2 1.1-1.5.6-.4 1.3-.6 2.2-.6 1 0 1.8.2 2.3.7.5.5.8 1.1.8 1.9h-2.3c0-.3-.1-.5-.2-.7-.2-.2-.4-.3-.7-.3-.3 0-.5.1-.7.2-.2.2-.3.4-.3.7 0 .2.1.4.2.5.1.1.3.3.5.3.2.1.4.2.8.3.5.2.9.4 1.2.5.3.2.5.4.8.7.2.3.3.7.3 1.2v.6c-.1.5-.3.9-.5 1.3zM482.9 49.2v.2c0 .2 0 .3.1.4.1.1.3.1.5.1h.7l-.3 1.8h-1c-.7 0-1.2-.1-1.6-.4-.4-.3-.6-.8-.6-1.4 0-.3 0-.5.1-.7l.4-2.6h-.9l.3-1.8h.9l.3-1.7h2.1l-.3 1.7h1.4l-.3 1.8h-1.4l-.4 2.6zM490.4 45.1c.4.2.6.6.7 1l.2-1.3h2.1l-1.2 6.9h-2.1l.2-1.3c-.2.4-.6.7-1 1-.4.2-.9.4-1.5.4-.8 0-1.4-.2-1.8-.7-.4-.5-.7-1.2-.7-2 0-.3 0-.7.1-1 .1-.7.4-1.3.7-1.8.3-.5.8-.9 1.3-1.2.5-.3 1-.4 1.6-.4.6.1 1 .2 1.4.4zm-2.1 2c-.3.3-.5.7-.6 1.2v.4c0 .4.1.7.3.9.2.2.5.3.9.3s.8-.2 1.2-.5c.3-.3.6-.7.6-1.2v-.4c0-.4-.1-.7-.3-1-.2-.2-.5-.3-.9-.3-.5.1-.9.3-1.2.6zM496.5 49.2v.2c0 .2 0 .3.1.4.1.1.3.1.5.1h.7l-.3 1.8h-1c-.7 0-1.2-.1-1.6-.4-.4-.3-.6-.8-.6-1.4 0-.3 0-.5.1-.7l.4-2.6h-.9l.3-1.8h.9l.3-1.7h2.1l-.3 1.7h1.4l-.3 1.8H497l-.5 2.6zM505.3 45.5c.5.5.8 1.1.8 1.9 0 .2 0 .4-.1.7 0 .2-.1.4-.2.6H501v.3c0 .8.4 1.1 1.1 1.1.3 0 .6-.1.8-.2.2-.2.4-.4.5-.6h2.3c-.3.8-.7 1.4-1.4 1.8-.7.5-1.5.7-2.4.7-.9 0-1.6-.2-2.1-.7-.5-.5-.8-1.2-.8-2.1 0-.3 0-.5.1-.8.1-.7.4-1.3.8-1.8s.9-.9 1.5-1.2c.6-.3 1.2-.4 1.9-.4.8 0 1.5.2 2 .7zm-1.3 1.9c0-.3-.1-.6-.3-.7-.2-.1-.5-.2-.8-.2-.4 0-.7.1-1 .3-.3.2-.5.6-.6 1h2.7v-.4z"/>
        </g>
        <g fill="#000" fill-rule="nonzero">
            <path d="M597 93.8c0-.4 0-.8.1-1.1.1-.4.1-.6.1-.7.2-.8.2-1.6.2-2.2 0-.8-.1-1.6-.4-2.3-.3-.7-.6-1.3-1-1.8s-.9-.9-1.3-1.1v-.2h2.8c.4.2.7.5 1.1.9.4.4.8 1 1.1 1.7.3.7.5 1.6.5 2.7 0 .5 0 1-.1 1.4-.1.5-.1.7-.1.8-.1.8-.2 1.5-.2 1.9 0 .6.2 1.1.5 1.6s.9.7 1.7.8v1.1c-.8.1-1.4.4-1.7.8-.3.4-.5 1-.5 1.6 0 .4.1 1 .2 1.9 0 .1.1.4.1.8s.1.9.1 1.4c0 1-.2 1.9-.5 2.7-.3.7-.7 1.3-1.1 1.7-.4.4-.8.7-1.1.9h-2.8v-.2c.5-.2.9-.6 1.3-1.1.4-.5.8-1.1 1-1.8.3-.7.4-1.5.4-2.3 0-.7-.1-1.4-.2-2.3 0-.1 0-.4-.1-.7-.1-.4-.1-.7-.1-1.1 0-1.5.8-2.4 2.4-2.8-1.6-.6-2.4-1.5-2.4-3zM560.1 96.5c1.6.3 2.4 1.3 2.4 2.8 0 .4 0 .7-.1 1.1-.1.4-.1.6-.1.7-.2.8-.2 1.6-.2 2.3 0 .8.1 1.6.4 2.3.3.7.6 1.3 1 1.8s.9.9 1.3 1.1v.2H562c-.4-.2-.7-.5-1.1-.9-.4-.4-.8-1-1.1-1.7-.3-.7-.5-1.6-.5-2.7 0-.5 0-1 .1-1.4.1-.4.1-.7.1-.8.1-.8.2-1.5.2-1.9 0-.6-.2-1.1-.5-1.6s-.9-.7-1.7-.8v-1c.8-.1 1.4-.4 1.7-.8.3-.4.5-1 .5-1.6 0-.4-.1-1-.2-1.9 0-.1-.1-.4-.1-.8-.1-.5-.1-.9-.1-1.4 0-1 .2-1.9.5-2.7.3-.7.7-1.3 1.1-1.7.4-.4.8-.7 1.1-.9h2.8v.2c-.5.2-.9.6-1.3 1.1-.4.5-.8 1.1-1 1.8-.3.7-.4 1.5-.4 2.3 0 .7.1 1.4.2 2.2 0 .1 0 .3.1.7.1.4.1.8.1 1.1-.1 1.7-.9 2.6-2.4 2.9zM581.2 104.6c-.5.9-1.3 1.6-2.3 2.1-1 .5-2.3.8-3.7.8-1.4 0-2.7-.2-3.9-.7-1.1-.5-2.1-1.2-2.7-2.1-.7-.9-1.1-2-1.2-3.3h4.3c.1.8.4 1.5 1 2.1.6.6 1.3.8 2.3.8.8 0 1.5-.2 2-.7.5-.5.7-1 .7-1.8 0-.6-.2-1.2-.5-1.6-.4-.4-.8-.8-1.4-1-.6-.3-1.3-.5-2.3-.9-1.3-.4-2.3-.8-3.1-1.3-.8-.4-1.5-1-2.1-1.8-.6-.8-.9-1.8-.9-3.1 0-1.8.6-3.2 1.9-4.2 1.3-1 2.9-1.5 5-1.5 2.2 0 3.9.5 5.2 1.6 1.3 1 2 2.4 2.2 4.2h-4.4c-.1-.7-.4-1.3-.9-1.8s-1.2-.7-2.1-.7c-.8 0-1.4.2-1.8.6-.5.4-.7 1-.7 1.7 0 .6.2 1.1.5 1.5.4.4.8.7 1.4 1 .5.3 1.3.5 2.2.8 1.3.5 2.4.9 3.2 1.3.8.4 1.5 1 2.1 1.8.6.8.9 1.9.9 3.2-.1 1.2-.4 2.1-.9 3zM583.5 90.6v-3.8h7.4v20.5h-4.3V90.6h-3.1z"/>
        </g>
        <g fill="#000" fill-rule="nonzero">
            <path d="M664.1 158.9c0-.4 0-.8.1-1.1.1-.4.1-.6.1-.7.2-.8.2-1.6.2-2.2 0-.8-.1-1.6-.4-2.3-.3-.7-.6-1.3-1-1.8s-.9-.9-1.3-1.1v-.2h2.8c.4.2.7.5 1.1.9.4.4.8 1 1.1 1.7.3.7.5 1.6.5 2.7 0 .5 0 1-.1 1.4-.1.5-.1.7-.1.8-.1.8-.2 1.5-.2 1.9 0 .6.2 1.1.5 1.6s.9.7 1.7.8v1.1c-.8.1-1.4.4-1.7.8-.3.4-.5 1-.5 1.6 0 .4.1 1 .2 1.9 0 .1.1.4.1.8s.1.9.1 1.4c0 1-.2 1.9-.5 2.7-.3.7-.7 1.3-1.1 1.7-.4.4-.8.7-1.1.9h-2.8v-.2c.5-.2.9-.6 1.3-1.1.4-.5.8-1.1 1-1.8.3-.7.4-1.5.4-2.3 0-.7-.1-1.4-.2-2.3 0-.1 0-.4-.1-.7-.1-.4-.1-.7-.1-1.1 0-1.5.8-2.4 2.4-2.8-1.6-.5-2.4-1.4-2.4-3zM623.1 161.7c1.6.3 2.4 1.3 2.4 2.8 0 .4 0 .7-.1 1.1-.1.4-.1.6-.1.7-.2.8-.2 1.6-.2 2.3 0 .8.1 1.6.4 2.3.3.7.6 1.3 1 1.8s.9.9 1.3 1.1v.2H625c-.4-.2-.7-.5-1.1-.9-.4-.4-.8-1-1.1-1.7-.3-.7-.5-1.6-.5-2.7 0-.5 0-1 .1-1.4.1-.4.1-.7.1-.8.1-.8.2-1.5.2-1.9 0-.6-.2-1.1-.5-1.6s-.9-.7-1.7-.8v-1.1c.8-.1 1.4-.4 1.7-.8.3-.4.5-1 .5-1.6 0-.4-.1-1-.2-1.9 0-.1-.1-.4-.1-.8-.1-.5-.1-.9-.1-1.4 0-1 .2-1.9.5-2.7.3-.7.7-1.3 1.1-1.7.4-.4.8-.7 1.1-.9h2.8v.2c-.5.2-.9.6-1.3 1.1-.4.5-.8 1.1-1 1.8-.3.7-.4 1.5-.4 2.3 0 .7.1 1.4.2 2.2 0 .1 0 .3.1.7.1.4.1.8.1 1.1-.1 1.8-.8 2.7-2.4 3zM642.6 169.5c-.5.9-1.3 1.6-2.3 2.1-1 .5-2.3.8-3.7.8-1.4 0-2.7-.2-3.9-.7-1.1-.5-2.1-1.2-2.7-2.1-.7-.9-1.1-2-1.2-3.3h4.3c.1.8.4 1.5 1 2.1.6.6 1.3.8 2.3.8.8 0 1.5-.2 2-.7.5-.5.7-1 .7-1.8 0-.6-.2-1.2-.5-1.6-.4-.4-.8-.8-1.4-1-.6-.3-1.3-.5-2.3-.9-1.3-.4-2.3-.8-3.1-1.3-.8-.4-1.5-1-2.1-1.8-.6-.8-.9-1.8-.9-3.1 0-1.8.6-3.2 1.9-4.2 1.3-1 2.9-1.5 5-1.5 2.2 0 3.9.5 5.2 1.6 1.3 1 2 2.4 2.2 4.2h-4.4c-.1-.7-.4-1.3-.9-1.8s-1.2-.7-2.1-.7c-.8 0-1.4.2-1.8.6-.5.4-.7 1-.7 1.7 0 .6.2 1.1.5 1.5.4.4.8.7 1.4 1 .5.3 1.3.5 2.2.8 1.3.5 2.4.9 3.2 1.3.8.4 1.5 1 2.1 1.8.6.8.9 1.9.9 3.2-.1 1.2-.4 2.1-.9 3zM655.4 157.7c0-.9-.2-1.6-.7-2.1-.4-.5-1.1-.8-2-.8-1.9 0-2.9 1.3-3 3.9h-4c.1-2.4.8-4.3 2.2-5.5 1.4-1.2 3.1-1.9 5.1-1.9 2.1 0 3.7.5 4.8 1.6 1.1 1.1 1.7 2.6 1.7 4.4 0 1.4-.4 2.9-1.3 4.3-.8 1.4-1.9 2.8-3.2 4-1.3 1.2-2.7 2.3-4.1 3.1h8.9v3.3h-14.4v-3c6.8-4.6 10-8.3 10-11.3z"/>
        </g>
        <g fill="#000" fill-rule="nonzero">
            <path d="M731.5 218.5c0-.4 0-.8.1-1.1.1-.4.1-.6.1-.7.2-.8.2-1.6.2-2.2 0-.8-.1-1.6-.4-2.3-.3-.7-.6-1.3-1-1.8s-.9-.9-1.3-1.1v-.2h2.8c.4.2.7.5 1.1.9.4.4.8 1 1.1 1.7.3.7.5 1.6.5 2.7 0 .5 0 1-.1 1.4-.1.4-.1.7-.1.8-.1.8-.2 1.5-.2 1.9 0 .6.2 1.1.5 1.6s.9.7 1.7.8v1.1c-.8.1-1.4.4-1.7.8-.3.5-.5 1-.5 1.6 0 .4.1 1.1.2 1.9 0 .1.1.4.1.8s.1.9.1 1.4c0 1-.2 1.9-.5 2.7-.3.7-.7 1.3-1.1 1.7-.4.4-.8.7-1.1.9h-2.8v-.2c.5-.2.9-.6 1.3-1.1.4-.5.8-1.1 1-1.8.3-.7.4-1.5.4-2.3 0-.7-.1-1.4-.2-2.3 0-.1 0-.4-.1-.7-.1-.4-.1-.7-.1-1.1 0-1.5.8-2.4 2.4-2.8-1.6-.5-2.4-1.5-2.4-3zM690.5 221.3c1.6.3 2.4 1.3 2.4 2.8 0 .4 0 .7-.1 1.1-.1.4-.1.6-.1.7-.2.8-.2 1.6-.2 2.3 0 .8.1 1.6.4 2.3.3.7.6 1.3 1 1.8s.9.9 1.3 1.1v.2h-2.8c-.4-.2-.7-.5-1.1-.9-.4-.4-.8-1-1.1-1.7-.3-.7-.5-1.6-.5-2.7 0-.5 0-1 .1-1.4.1-.4.1-.7.1-.8.1-.8.2-1.5.2-1.9 0-.6-.2-1.1-.5-1.6s-.9-.7-1.7-.8v-1.1c.8-.1 1.4-.4 1.7-.8.3-.4.5-1 .5-1.6 0-.4-.1-1-.2-1.9 0-.1-.1-.4-.1-.8-.1-.5-.1-.9-.1-1.4 0-1 .2-1.9.5-2.7.3-.7.7-1.3 1.1-1.7.4-.4.8-.7 1.1-.9h2.8v.2c-.5.2-.9.6-1.3 1.1-.4.5-.8 1.1-1 1.8-.3.7-.4 1.5-.4 2.3 0 .7.1 1.4.2 2.2 0 .1 0 .3.1.7.1.4.1.8.1 1.1-.1 1.7-.8 2.7-2.4 3zM710.3 228.9c-.5.9-1.3 1.6-2.3 2.1-1 .5-2.3.8-3.7.8-1.4 0-2.7-.2-3.9-.7-1.1-.5-2.1-1.2-2.7-2.1-.7-.9-1.1-2-1.2-3.3h4.3c.1.8.4 1.5 1 2.1.6.6 1.3.8 2.3.8.8 0 1.5-.2 2-.7.5-.5.7-1 .7-1.8 0-.6-.2-1.2-.5-1.6-.4-.4-.8-.8-1.4-1-.6-.3-1.3-.5-2.3-.9-1.3-.4-2.3-.8-3.1-1.3-.8-.4-1.5-1-2.1-1.8-.6-.8-.9-1.8-.9-3.1 0-1.8.6-3.2 1.9-4.2 1.3-1 2.9-1.5 5-1.5 2.2 0 3.9.5 5.2 1.6 1.3 1 2 2.4 2.2 4.2h-4.4c-.1-.7-.4-1.3-.9-1.8s-1.2-.7-2.1-.7c-.8 0-1.4.2-1.8.6-.5.4-.7 1-.7 1.7 0 .6.2 1.1.5 1.5.4.4.8.7 1.4 1 .5.3 1.3.5 2.2.8 1.3.5 2.4.9 3.2 1.3.8.4 1.5 1 2.1 1.8.6.8.9 1.9.9 3.2-.1 1.2-.4 2.1-.9 3zM724.5 211.1c1 .5 1.7 1.2 2.3 2 .5.9.8 1.8.8 2.8 0 1.3-.4 2.4-1.1 3.2-.7.8-1.7 1.4-2.8 1.6v.1c2.9.9 4.3 2.5 4.3 5.1 0 1.8-.6 3.2-1.8 4.3-1.2 1.1-2.8 1.6-5 1.6-2.3 0-4.1-.6-5.4-1.7-1.4-1.1-2.1-2.8-2.3-5.1h4c.1 1 .4 1.9 1 2.5.6.6 1.4.9 2.5.9.9 0 1.6-.3 2.2-.8.5-.5.8-1.2.8-2 0-1-.4-1.7-1.1-2.3-.8-.5-1.9-.8-3.3-.8h-.8v-3.3h.8c2.7 0 4.1-.9 4.1-2.8 0-.8-.2-1.5-.7-2-.5-.5-1.1-.7-2-.7-.9 0-1.6.3-2.1.8-.6.6-.9 1.3-1 2.3h-4c.1-2.1.8-3.7 2-4.8 1.2-1.1 3-1.7 5.2-1.7 1.3 0 2.4.3 3.4.8z"/>
        </g>
        <g fill="#000" fill-rule="nonzero">
            <path d="M839.4 94.1c0-.4 0-.8.1-1.1.1-.4.1-.6.1-.7.2-.8.2-1.6.2-2.2 0-.8-.1-1.6-.4-2.3-.3-.7-.6-1.3-1-1.8s-.9-.9-1.3-1.1v-.2h2.8c.4.2.7.5 1.1.9.4.4.8 1 1.1 1.7.3.7.5 1.6.5 2.7 0 .5 0 1-.1 1.4-.1.4-.1.7-.1.8-.1.8-.2 1.5-.2 1.9 0 .6.2 1.1.5 1.6s.9.7 1.7.8v1.1c-.8.1-1.4.4-1.7.8-.3.5-.5 1-.5 1.6 0 .4.1 1.1.2 1.9 0 .1.1.4.1.8s.1.9.1 1.4c0 1-.2 1.9-.5 2.7-.3.7-.7 1.3-1.1 1.7-.4.4-.8.7-1.1.9h-2.8v-.2c.5-.2.9-.6 1.3-1.1.4-.5.8-1.1 1-1.8.3-.7.4-1.5.4-2.3 0-.7-.1-1.4-.2-2.3 0-.1 0-.4-.1-.7-.1-.4-.1-.7-.1-1.1 0-1.5.8-2.4 2.4-2.8-1.6-.5-2.4-1.4-2.4-3zM757.6 96.9c1.6.4 2.4 1.3 2.4 2.8 0 .4 0 .7-.1 1.1-.1.4-.1.6-.1.7-.2.8-.2 1.6-.2 2.3 0 .8.1 1.6.4 2.3.3.7.6 1.3 1 1.8s.9.9 1.3 1.1v.2h-2.8c-.4-.2-.7-.5-1.1-.9-.4-.4-.8-1-1.1-1.7-.3-.7-.5-1.6-.5-2.7 0-.5 0-1 .1-1.4.1-.4.1-.7.1-.8.1-.8.2-1.5.2-1.9 0-.6-.2-1.1-.5-1.6s-.9-.7-1.7-.8v-1.1c.8-.1 1.4-.4 1.7-.8.3-.5.5-1 .5-1.6 0-.4-.1-1-.2-1.9 0-.1-.1-.4-.1-.8s-.1-.9-.1-1.4c0-1 .2-1.9.5-2.7.3-.7.7-1.3 1.1-1.7.4-.4.8-.7 1.1-.9h2.8v.2c-.5.2-.9.6-1.3 1.1-.4.5-.8 1.1-1 1.8-.3.7-.4 1.5-.4 2.3 0 .7.1 1.4.2 2.2 0 .1 0 .3.1.7.1.4.1.8.1 1.1-.1 1.8-.9 2.7-2.4 3zM818.8 104.6c-.5.9-1.3 1.6-2.3 2.1-1 .5-2.3.8-3.7.8-1.4 0-2.7-.2-3.9-.7-1.1-.5-2.1-1.2-2.7-2.1-.7-.9-1.1-2-1.2-3.3h4.3c.1.8.4 1.5 1 2.1.6.6 1.3.8 2.3.8.8 0 1.5-.2 2-.7.5-.5.7-1 .7-1.8 0-.6-.2-1.2-.5-1.6-.4-.4-.8-.8-1.4-1-.6-.3-1.3-.5-2.3-.9-1.3-.4-2.3-.8-3.1-1.3-.8-.4-1.5-1-2.1-1.8-.6-.8-.9-1.8-.9-3.1 0-1.8.6-3.2 1.9-4.2 1.3-1 2.9-1.5 5-1.5 2.2 0 3.9.5 5.2 1.6 1.3 1 2 2.4 2.2 4.2h-4.4c-.1-.7-.4-1.3-.9-1.8s-1.2-.7-2.1-.7c-.8 0-1.4.2-1.8.6-.5.4-.7 1-.7 1.7 0 .6.2 1.1.5 1.5.4.4.8.7 1.4 1 .5.3 1.3.5 2.2.8 1.3.5 2.4.9 3.2 1.3.8.4 1.5 1 2.1 1.8.6.8.9 1.9.9 3.2-.1 1.2-.3 2.1-.9 3zM833.1 86.7c1 .5 1.7 1.2 2.3 2 .5.9.8 1.8.8 2.8 0 1.3-.4 2.4-1.1 3.2-.7.8-1.7 1.4-2.8 1.6v.1c2.9.9 4.3 2.5 4.3 5.1 0 1.8-.6 3.2-1.8 4.3-1.2 1.1-2.8 1.6-5 1.6-2.3 0-4.1-.6-5.4-1.7-1.4-1.1-2.1-2.8-2.3-5.1h4c.1 1 .4 1.9 1 2.5.6.6 1.4.9 2.5.9.9 0 1.6-.3 2.2-.8.5-.5.8-1.2.8-2 0-1-.4-1.7-1.1-2.3-.8-.5-1.9-.8-3.3-.8h-.8v-3.3h.8c2.7 0 4.1-.9 4.1-2.8 0-.8-.2-1.5-.7-2-.5-.5-1.1-.7-2-.7-.9 0-1.6.3-2.1.8-.6.6-.9 1.3-1 2.3h-4c.1-2.1.8-3.7 2-4.8 1.2-1.1 3-1.7 5.2-1.7 1.2.1 2.4.4 3.4.8zM777.5 104.7c-.5.9-1.3 1.7-2.4 2.2-1.1.6-2.4.8-3.9.8s-2.9-.3-4-.8c-1.2-.5-2.1-1.3-2.9-2.2-.7-1-1.1-2.1-1.2-3.4h4.5c.1.9.4 1.6 1 2.2.6.6 1.4.9 2.4.9.9 0 1.6-.2 2-.7.5-.5.7-1.1.7-1.8s-.2-1.2-.6-1.7c-.4-.4-.9-.8-1.4-1-.6-.3-1.4-.6-2.4-.9-1.3-.4-2.4-.9-3.3-1.3-.8-.4-1.6-1.1-2.2-1.9-.6-.8-.9-1.9-.9-3.2 0-1.8.7-3.3 2-4.3 1.3-1.1 3.1-1.6 5.2-1.6 2.3 0 4 .5 5.4 1.6 1.3 1.1 2.1 2.5 2.3 4.4h-4.6c-.1-.8-.4-1.4-1-1.9-.5-.5-1.2-.7-2.1-.7-.8 0-1.4.2-1.9.6-.5.4-.7 1-.7 1.8 0 .6.2 1.1.6 1.6.4.4.8.8 1.4 1 .6.3 1.4.6 2.3.9 1.4.5 2.5.9 3.3 1.4.9.4 1.6 1.1 2.2 1.9.6.8.9 2 .9 3.3.1.9-.2 1.9-.7 2.8zM790.8 92.3c0-.9-.2-1.7-.7-2.2-.5-.5-1.2-.8-2.1-.8-2 0-3 1.4-3.2 4.1h-4.1c.1-2.5.9-4.4 2.3-5.7 1.4-1.3 3.2-2 5.3-2 2.2 0 3.9.6 5.1 1.7 1.2 1.1 1.8 2.7 1.8 4.6 0 1.5-.4 3-1.3 4.5s-2 2.9-3.3 4.1c-1.3 1.3-2.8 2.3-4.3 3.3h9.3v3.5h-15v-3.2c6.8-4.8 10.2-8.7 10.2-11.9zM804 107c0 .9-.2 1.6-.7 2.1-.5.6-1.2.8-2.1.8v-1.1c.4 0 .6-.1.8-.3.2-.2.3-.5.3-.9v-.2H801v-2.7h2.6c.2.8.4 1.5.4 2.3z"/>
        </g>
        <g fill="#000" fill-rule="nonzero">
            <path d="M799.9 159c0-.4 0-.8.1-1.1.1-.4.1-.6.1-.7.2-.8.2-1.6.2-2.2 0-.8-.1-1.6-.4-2.3-.3-.7-.6-1.3-1-1.8s-.9-.9-1.3-1.1v-.2h2.8c.4.2.7.5 1.1.9.4.4.8 1 1.1 1.7.3.7.5 1.6.5 2.7 0 .5 0 1-.1 1.4-.1.5-.1.7-.1.8-.1.8-.2 1.5-.2 1.9 0 .6.2 1.1.5 1.6s.9.7 1.7.8v1.1c-.8.1-1.4.4-1.7.8-.3.4-.5 1-.5 1.6 0 .4.1 1 .2 1.9 0 .1.1.4.1.8s.1.9.1 1.4c0 1-.2 1.9-.5 2.7-.3.7-.7 1.3-1.1 1.7-.4.4-.8.7-1.1.9h-2.8v-.2c.5-.2.9-.6 1.3-1.1.4-.5.8-1.1 1-1.8.3-.7.4-1.5.4-2.3 0-.7-.1-1.4-.2-2.3 0-.1 0-.4-.1-.7-.1-.4-.1-.7-.1-1.1 0-1.5.8-2.4 2.4-2.8-1.6-.5-2.4-1.5-2.4-3zM758.9 161.8c1.6.3 2.4 1.3 2.4 2.8 0 .4 0 .7-.1 1.1-.1.4-.1.6-.1.7-.2.8-.2 1.6-.2 2.3 0 .8.1 1.6.4 2.3.3.7.6 1.3 1 1.8s.9.9 1.3 1.1v.2h-2.8c-.4-.2-.7-.5-1.1-.9-.4-.4-.8-1-1.1-1.7-.3-.7-.5-1.6-.5-2.7 0-.5 0-1 .1-1.4.1-.4.1-.7.1-.8.1-.8.2-1.5.2-1.9 0-.6-.2-1.1-.5-1.6s-.9-.7-1.7-.8v-1.1c.8-.1 1.4-.4 1.7-.8.3-.4.5-1 .5-1.6 0-.4-.1-1-.2-1.9 0-.1-.1-.4-.1-.8-.1-.5-.1-.9-.1-1.4 0-1 .2-1.9.5-2.7.3-.7.7-1.3 1.1-1.7.4-.4.8-.7 1.1-.9h2.8v.2c-.5.2-.9.6-1.3 1.1-.4.5-.8 1.1-1 1.8-.3.7-.4 1.5-.4 2.3 0 .7.1 1.4.2 2.2 0 .1 0 .3.1.7.1.4.1.8.1 1.1-.1 1.7-.8 2.7-2.4 3zM778.7 169.4c-.5.9-1.3 1.6-2.3 2.1-1 .5-2.3.8-3.7.8-1.4 0-2.7-.2-3.9-.7-1.1-.5-2.1-1.2-2.7-2.1-.7-.9-1.1-2-1.2-3.3h4.3c.1.8.4 1.5 1 2.1.6.6 1.3.8 2.3.8.8 0 1.5-.2 2-.7.5-.5.7-1 .7-1.8 0-.6-.2-1.2-.5-1.6-.4-.4-.8-.8-1.4-1-.6-.3-1.3-.5-2.3-.9-1.3-.4-2.3-.8-3.1-1.3-.8-.4-1.5-1-2.1-1.8-.6-.8-.9-1.8-.9-3.1 0-1.8.6-3.2 1.9-4.2 1.3-1 2.9-1.5 5-1.5 2.2 0 3.9.5 5.2 1.6 1.3 1 2 2.4 2.2 4.2h-4.4c-.1-.7-.4-1.3-.9-1.8s-1.2-.7-2.1-.7c-.8 0-1.4.2-1.8.6-.5.4-.7 1-.7 1.7 0 .6.2 1.1.5 1.5.4.4.8.7 1.4 1 .5.3 1.3.5 2.2.8 1.3.5 2.4.9 3.2 1.3.8.4 1.5 1 2.1 1.8.6.8.9 1.9.9 3.2-.1 1.2-.4 2.1-.9 3zM793 151.6c1 .5 1.7 1.2 2.3 2 .5.9.8 1.8.8 2.8 0 1.3-.4 2.4-1.1 3.2-.7.8-1.7 1.4-2.8 1.6v.1c2.9.9 4.3 2.5 4.3 5.1 0 1.8-.6 3.2-1.8 4.3-1.2 1.1-2.8 1.6-5 1.6-2.3 0-4.1-.6-5.4-1.7-1.4-1.1-2.1-2.8-2.3-5.1h4c.1 1 .4 1.9 1 2.5.6.6 1.4.9 2.5.9.9 0 1.6-.3 2.2-.8.5-.5.8-1.2.8-2 0-1-.4-1.7-1.1-2.3-.8-.5-1.9-.8-3.3-.8h-.8v-3.3h.8c2.7 0 4.1-.9 4.1-2.8 0-.8-.2-1.5-.7-2-.5-.5-1.1-.7-2-.7-.9 0-1.6.3-2.1.8-.6.6-.9 1.3-1 2.3h-4c.1-2.1.8-3.7 2-4.8 1.2-1.1 3-1.7 5.2-1.7 1.2 0 2.4.3 3.4.8z"/>
        </g>
        <path fill="#000" fill-rule="nonzero" d="M650.1 36.3c.9.5 1.6 1.3 2.1 2.4.5 1 .8 2.2.8 3.6s-.3 2.6-.8 3.6-1.2 1.8-2.1 2.4c-.9.6-1.9.8-3 .8s-2.1-.3-2.9-.8c-.8-.5-1.4-1.3-1.7-2.1V49h-3.4V31.2h3.4v7.2c.3-.9.9-1.6 1.7-2.1.8-.5 1.7-.8 2.9-.8 1.1 0 2.1.3 3 .8zm-6.6 3.2c-.7.7-1 1.6-1 2.8 0 1.2.3 2.1 1 2.8.7.7 1.5 1 2.5 1 1.1 0 1.9-.3 2.5-1 .6-.7 1-1.6 1-2.8 0-1.2-.3-2.1-1-2.8-.7-.7-1.5-1-2.5-1s-1.8.3-2.5 1zM781.7 47.7c-1.6 1-4.4 1.6-6.7 1.6-3.7 0-7.7-1.4-7.7-5.4 0-2.2 1.8-3.9 4.1-4.3v-.1c-2.1-.6-3.2-1.9-3.2-3.7 0-2.4 2.4-4.8 7.4-4.8 2.4 0 4.2.5 5.6 1.3l-.8 2.8c-.9-.5-2.6-1-4.2-1-2.1 0-3.5.9-3.5 2.1 0 1.4 1.8 2 4.4 2h1.9v3h-2c-2.8 0-4.9.6-4.9 2.3 0 1.7 1.9 2.5 4.1 2.5 1.7 0 3.8-.6 4.9-1.2l.6 2.9z"/>
        <g transform="translate(2 16)">
            <circle cx="78.4" cy="137.4" r="28.5" stroke="#000" stroke-width="4"/>
            <path stroke="#000" stroke-linecap="round" stroke-linejoin="round" stroke-width="4" d="M32.5 127.8L48 138.5l-15.5 10.8"/>
            <circle cx="219.9" cy="137.4" r="28.5" stroke="#000" stroke-width="4"/>
            <circle cx="361.5" cy="137.4" r="28.5" stroke="#000" stroke-width="4"/>
            <path stroke="#000" stroke-linecap="round" stroke-linejoin="round" stroke-width="4" d="M174 127.8l15.5 10.7-15.5 10.8M306.7 127.8l15.5 10.7-15.5 10.8M107.8 138.5h83.6M248.4 138.5h73.8"/>
            <g stroke="#000" stroke-linecap="round" stroke-width="4">
                <path d="M326.8 122.6c-14.5-13.9-20.3-35.7-12.1-55 10.6-25.1 39.6-36.9 64.7-26.4 25.1 10.6 36.9 39.6 26.4 64.7-1.5 3.6-3.4 7-5.7 10"/>
                <path stroke-linejoin="round" d="M399.4 104.8l.3 11.9 10.6-5.3"/>
            </g>
            <g stroke="#000" stroke-linecap="round" stroke-width="4">
                <path d="M193 128.1c-21-14.3-28.9-43-16.3-65.5 13.3-23.8 43.4-32.3 67.2-19 23.8 13.3 32.3 43.4 19 67.2-1.9 3.4-4.2 6.6-6.8 9.3"/>
                <path stroke-linejoin="round" d="M256.7 109.1l-1 11.8 11.2-4"/>
            </g>
            <circle cx="361.7" cy="137.5" r="36.6" stroke="#000" stroke-width="4"/>
            <path stroke="#000" stroke-linecap="round" stroke-linejoin="round" stroke-width="4" d="M.5 138.5h49.4"/>
            <path fill="#000" fill-rule="nonzero" d="M80.3 5.4c.8.5 1.4 1.2 1.7 2.1V4.7h3.4V18H82v-2.8c-.3.9-.9 1.6-1.7 2.1-.8.5-1.8.8-2.9.8-1.1 0-2.1-.3-3-.8-.9-.5-1.6-1.3-2.1-2.4-.5-1-.8-2.2-.8-3.6s.3-2.6.8-3.6 1.2-1.8 2.1-2.4c.9-.5 1.9-.8 3-.8 1.2.1 2.1.3 2.9.9zM76 8.6c-.6.7-1 1.6-1 2.8 0 1.2.3 2.1 1 2.8.6.7 1.5 1 2.5 1s1.9-.3 2.5-1c.7-.7 1-1.6 1-2.8 0-1.2-.3-2.1-1-2.8-.7-.7-1.5-1-2.5-1-1.1-.1-1.9.3-2.5 1zM365 6c1.1.9 1.9 2.2 2.1 3.8h-3.6c-.1-.7-.5-1.3-1-1.7-.5-.4-1.2-.6-1.9-.6-.9 0-1.6.3-2.2 1-.6.7-.9 1.6-.9 2.9 0 1.3.3 2.3.9 2.9.6.7 1.3 1 2.2 1 .8 0 1.4-.2 1.9-.6.5-.4.8-1 1-1.7h3.6c-.3 1.6-1 2.9-2.1 3.8-1.1.9-2.6 1.4-4.3 1.4-1.3 0-2.4-.3-3.5-.8-1-.6-1.8-1.3-2.4-2.4-.6-1-.8-2.2-.8-3.6s.3-2.6.8-3.6c.6-1 1.3-1.8 2.4-2.4 1-.5 2.2-.8 3.5-.8 1.7 0 3.1.4 4.3 1.4z"/>
            <g stroke="#000" stroke-linecap="round" stroke-width="4">
                <path d="M51 127.8c-20.6-14.4-28.3-42.9-15.9-65.2 13.3-23.8 43.4-32.3 67.2-19 23.8 13.3 32.3 43.4 19 67.2-1.9 3.4-4.2 6.6-6.8 9.3"/>
                <path stroke-linejoin="round" d="M115.1 109.1l-1 11.8 11.2-4"/>
            </g>
            <g fill="#000" fill-rule="nonzero">
                <path d="M79.2 145.3c-.5.9-1.3 1.7-2.4 2.2-1.1.6-2.4.8-3.9.8s-2.9-.3-4-.8c-1.2-.5-2.1-1.3-2.9-2.2-.7-1-1.1-2.1-1.2-3.4h4.5c.1.9.4 1.6 1 2.2.6.6 1.4.9 2.4.9.9 0 1.6-.2 2-.7.5-.5.7-1.1.7-1.8s-.2-1.2-.6-1.7c-.4-.4-.9-.8-1.4-1-.6-.3-1.4-.6-2.4-.9-1.3-.4-2.4-.9-3.3-1.3-.8-.4-1.6-1.1-2.2-1.9-.6-.8-.9-1.9-.9-3.2 0-1.8.7-3.3 2-4.3 1.3-1.1 3.1-1.6 5.2-1.6 2.3 0 4 .5 5.4 1.6 1.3 1.1 2.1 2.5 2.3 4.4H75c-.1-.8-.4-1.4-1-1.9-.5-.5-1.2-.7-2.1-.7-.8 0-1.4.2-1.9.6-.5.4-.7 1-.7 1.8 0 .6.2 1.1.6 1.6.4.4.8.8 1.4 1 .6.3 1.4.6 2.3.9 1.4.5 2.5.9 3.3 1.4.9.4 1.6 1.1 2.2 1.9.6.8.9 2 .9 3.3 0 .9-.2 1.9-.8 2.8zM81.6 130.8v-4h7.7v21.4h-4.5v-17.4z"/>
            </g>
            <g fill="#000" fill-rule="nonzero">
                <path d="M218.1 145.4c-.5.9-1.3 1.7-2.4 2.2-1.1.6-2.4.8-3.9.8s-2.9-.3-4-.8c-1.2-.5-2.1-1.3-2.9-2.2-.7-1-1.1-2.1-1.2-3.4h4.5c.1.9.4 1.6 1 2.2.6.6 1.4.9 2.4.9.9 0 1.6-.2 2-.7.5-.5.7-1.1.7-1.8s-.2-1.2-.6-1.7c-.4-.4-.9-.8-1.4-1-.6-.3-1.4-.6-2.4-.9-1.3-.4-2.4-.9-3.3-1.3-.8-.4-1.6-1.1-2.2-1.9-.6-.8-.9-1.9-.9-3.2 0-1.8.7-3.3 2-4.3 1.3-1.1 3.1-1.6 5.2-1.6 2.3 0 4 .5 5.4 1.6 1.3 1.1 2.1 2.5 2.3 4.4h-4.6c-.1-.8-.4-1.4-1-1.9-.5-.5-1.2-.7-2.1-.7-.8 0-1.4.2-1.9.6-.5.4-.7 1-.7 1.8 0 .6.2 1.1.6 1.6.4.4.8.8 1.4 1 .6.3 1.4.6 2.3.9 1.4.5 2.5.9 3.3 1.4.9.4 1.6 1.1 2.2 1.9.6.8.9 2 .9 3.3.1.9-.2 1.9-.7 2.8zM231.5 133.1c0-.9-.2-1.7-.7-2.2-.5-.5-1.2-.8-2.1-.8-2 0-3 1.4-3.2 4.1h-4.1c.1-2.5.9-4.4 2.3-5.7 1.4-1.3 3.2-2 5.3-2 2.2 0 3.9.6 5.1 1.7 1.2 1.1 1.8 2.7 1.8 4.6 0 1.5-.4 3-1.3 4.5s-2 2.9-3.3 4.1c-1.3 1.3-2.8 2.3-4.3 3.3h9.3v3.5h-15V145c6.8-4.9 10.2-8.8 10.2-11.9z"/>
            </g>
            <g fill="#000" fill-rule="nonzero">
                <path d="M358.4 145.4c-.5.9-1.3 1.7-2.4 2.2-1.1.6-2.4.8-3.9.8s-2.9-.3-4-.8c-1.2-.5-2.1-1.3-2.9-2.2-.7-1-1.1-2.1-1.2-3.4h4.5c.1.9.4 1.6 1 2.2.6.6 1.4.9 2.4.9.9 0 1.6-.2 2-.7.5-.5.7-1.1.7-1.8s-.2-1.2-.6-1.7c-.4-.4-.9-.8-1.4-1-.6-.3-1.4-.6-2.4-.9-1.3-.4-2.4-.9-3.3-1.3-.8-.4-1.6-1.1-2.2-1.9-.6-.8-.9-1.9-.9-3.2 0-1.8.7-3.3 2-4.3 1.3-1.1 3.1-1.6 5.2-1.6 2.3 0 4 .5 5.4 1.6 1.3 1.1 2.1 2.5 2.3 4.4h-4.6c-.1-.8-.4-1.4-1-1.9-.5-.5-1.2-.7-2.1-.7-.8 0-1.4.2-1.9.6-.5.4-.7 1-.7 1.8 0 .6.2 1.1.6 1.6.4.4.8.8 1.4 1 .6.3 1.4.6 2.3.9 1.4.5 2.5.9 3.3 1.4.9.4 1.6 1.1 2.2 1.9.6.8.9 2 .9 3.3.1.9-.2 1.9-.7 2.8zM373.2 126.8c1 .5 1.8 1.2 2.4 2.1.5.9.8 1.9.8 3 0 1.4-.4 2.5-1.1 3.4-.7.9-1.7 1.4-3 1.6v.2c3 .9 4.5 2.6 4.5 5.3 0 1.8-.6 3.3-1.8 4.5-1.2 1.1-3 1.7-5.2 1.7-2.4 0-4.3-.6-5.7-1.8-1.4-1.2-2.2-3-2.4-5.3h4.2c.1 1.1.5 2 1.1 2.6.6.6 1.5 1 2.6 1 1 0 1.7-.3 2.3-.8.5-.5.8-1.2.8-2.1 0-1-.4-1.8-1.2-2.4-.8-.6-1.9-.8-3.5-.8h-.9v-3.5h.9c2.8 0 4.2-.9 4.2-2.9 0-.9-.3-1.5-.8-2s-1.2-.7-2.1-.7c-.9 0-1.6.3-2.2.9-.6.6-.9 1.4-1 2.4H362c.1-2.2.8-3.9 2.1-5 1.3-1.2 3.1-1.8 5.4-1.8 1.4-.4 2.7-.1 3.7.4z"/>
            </g>
            <path fill="#000" fill-rule="nonzero" d="M156.3 124.3c-1.6 1-4.4 1.6-6.7 1.6-3.7 0-7.7-1.4-7.7-5.4 0-2.2 1.8-3.9 4.1-4.3v-.2c-2.1-.6-3.2-1.9-3.2-3.7 0-2.4 2.4-4.8 7.4-4.8 2.4 0 4.2.5 5.6 1.3l-.8 2.8c-.9-.5-2.6-1-4.2-1-2.1 0-3.5.9-3.5 2.1 0 1.4 1.8 2 4.4 2h1.9v3h-1.9c-2.8 0-4.9.6-4.9 2.3 0 1.7 1.9 2.5 4.1 2.5 1.7 0 3.8-.6 4.9-1.2l.5 3zM294 122.5c-1.6 1-4.4 1.6-6.7 1.6-3.7 0-7.7-1.4-7.7-5.4 0-2.2 1.8-3.9 4.1-4.3v-.1c-2.1-.6-3.2-1.9-3.2-3.7 0-2.4 2.4-4.8 7.4-4.8 2.4 0 4.2.5 5.6 1.3l-.8 2.8c-.9-.5-2.6-1-4.2-1-2.1 0-3.5.9-3.5 2.1 0 1.4 1.8 2 4.4 2h1.9v3h-1.9c-2.8 0-4.9.6-4.9 2.3 0 1.7 1.9 2.5 4.1 2.5 1.7 0 3.8-.6 4.9-1.2l.5 2.9zM225.9 5.4c.9.5 1.6 1.3 2.1 2.4.5 1 .8 2.2.8 3.6s-.3 2.6-.8 3.6-1.2 1.8-2.1 2.4c-.9.6-1.9.8-3 .8s-2.1-.3-2.9-.8c-.8-.5-1.4-1.3-1.7-2.1v2.8h-3.4V.3h3.4v7.2c.3-.9.9-1.6 1.7-2.1.8-.5 1.7-.8 2.9-.8 1.1 0 2.1.2 3 .8zm-6.6 3.2c-.7.7-1 1.6-1 2.8 0 1.2.3 2.1 1 2.8.7.7 1.5 1 2.5 1 1.1 0 1.9-.3 2.5-1 .6-.7 1-1.6 1-2.8 0-1.2-.3-2.1-1-2.8-.7-.7-1.5-1-2.5-1-1-.1-1.9.3-2.5 1z"/>
        </g>
    </g>
</svg>
