<?xml version="1.0" encoding="UTF-8"?>
<svg width="845px" height="240px" viewBox="0 0 845 240" version="1.1" xmlns="http://www.w3.org/2000/svg" xmlns:xlink="http://www.w3.org/1999/xlink">
    <!-- Generator: Sketch 51.1 (57501) - http://www.bohemiancoding.com/sketch -->
    <title>DFA_table</title>
    <desc>Created with Sketch.</desc>
    <defs></defs>
    <g id="Page-1" stroke="none" stroke-width="1" fill="none" fill-rule="evenodd">
        <g id="DFA_table" transform="translate(2.000000, 0.000000)">
            <g id="Group" transform="translate(470.000000, 0.000000)">
                <path d="M76.6,19.2 L76.6,237.9" id="Shape" stroke="#000000" stroke-width="4" stroke-linecap="round"></path>
                <path d="M141.6,19.2 L141.6,237.9" id="Shape" stroke="#000000" stroke-width="4" stroke-linecap="round"></path>
                <path d="M206.6,19.2 L206.6,237.9" id="Shape" stroke="#000000" stroke-width="4" stroke-linecap="round"></path>
                <g transform="translate(17.000000, 63.000000)" id="Shape" stroke="#000000" stroke-linecap="round" stroke-width="4">
                    <path d="M0.1,130.5 L316.8,130.5"></path>
                    <path d="M0.1,65.5 L315.4,65.8"></path>
                    <path d="M0.1,0.5 L315.4,0.8"></path>
                </g>
                <path d="M110.1,36.6 C110.9,37.1 111.5,37.8 111.8,38.7 L111.8,36 L115.2,36 L115.2,49.3 L111.8,49.3 L111.8,46.5 C111.5,47.4 110.9,48.1 110.1,48.6 C109.3,49.1 108.3,49.4 107.2,49.4 C106.1,49.4 105.1,49.1 104.2,48.6 C103.3,48.1 102.6,47.3 102.1,46.2 C101.6,45.2 101.3,44 101.3,42.6 C101.3,41.2 101.6,40 102.1,39 C102.6,38 103.3,37.2 104.2,36.6 C105.1,36.1 106.1,35.8 107.2,35.8 C108.3,35.8 109.3,36.1 110.1,36.6 Z M105.7,39.8 C105.1,40.5 104.7,41.4 104.7,42.6 C104.7,43.8 105,44.7 105.7,45.4 C106.3,46.1 107.2,46.4 108.2,46.4 C109.2,46.4 110.1,46.1 110.7,45.4 C111.4,44.7 111.7,43.8 111.7,42.6 C111.7,41.4 111.4,40.5 110.7,39.8 C110,39.1 109.2,38.8 108.2,38.8 C107.2,38.8 106.3,39.1 105.7,39.8 Z" id="Shape" fill="#000000" fill-rule="nonzero"></path>
                <path d="M244.4,33.2 C245.8,34.3 246.7,35.8 247.2,37.6 L243.6,37.6 C243.2,36.7 242.7,36 241.9,35.4 C241.1,34.9 240.2,34.6 239.1,34.6 C238.2,34.6 237.4,34.8 236.7,35.3 C236,35.7 235.4,36.4 235,37.2 C234.6,38 234.4,39 234.4,40.1 C234.4,41.2 234.6,42.2 235,43 C235.4,43.8 236,44.5 236.7,44.9 C237.4,45.3 238.2,45.6 239.1,45.6 C240.2,45.6 241.1,45.3 241.9,44.8 C242.7,44.3 243.2,43.6 243.6,42.6 L247.2,42.6 C246.8,44.5 245.8,46 244.4,47 C243,48.1 241.3,48.6 239.1,48.6 C237.5,48.6 236.1,48.2 234.8,47.5 C233.6,46.8 232.6,45.8 231.9,44.4 C231.2,43.1 230.9,41.6 230.9,39.9 C230.9,38.2 231.2,36.7 231.9,35.4 C232.6,34.1 233.5,33.1 234.8,32.3 C236,31.6 237.5,31.2 239.1,31.2 C241.3,31.5 243,32.1 244.4,33.2 Z" id="Shape" fill="#000000" fill-rule="nonzero"></path>
                <g transform="translate(33.000000, 86.000000)" fill="#000000" fill-rule="nonzero" id="Shape">
                    <path d="M14.3,18.2 C13.8,19.1 13,19.8 12,20.3 C11,20.8 9.7,21.1 8.3,21.1 C6.9,21.1 5.6,20.9 4.4,20.4 C3.3,19.9 2.3,19.2 1.7,18.3 C1,17.4 0.6,16.3 0.5,15 L4.8,15 C4.9,15.8 5.2,16.5 5.8,17.1 C6.4,17.7 7.1,17.9 8.1,17.9 C8.9,17.9 9.6,17.7 10.1,17.2 C10.6,16.7 10.8,16.2 10.8,15.4 C10.8,14.8 10.6,14.2 10.3,13.8 C9.9,13.4 9.5,13 8.9,12.8 C8.3,12.5 7.6,12.3 6.6,11.9 C5.3,11.5 4.3,11.1 3.5,10.6 C2.7,10.2 2,9.6 1.4,8.8 C0.8,8 0.5,7 0.5,5.7 C0.5,3.9 1.1,2.5 2.4,1.5 C3.7,0.5 5.3,-5.68434189e-14 7.4,-5.68434189e-14 C9.6,-5.68434189e-14 11.3,0.5 12.6,1.6 C13.9,2.6 14.6,4 14.8,5.8 L10.4,5.8 C10.3,5.1 10,4.5 9.5,4 C9,3.5 8.3,3.3 7.4,3.3 C6.6,3.3 6,3.5 5.6,3.9 C5.1,4.3 4.9,4.9 4.9,5.6 C4.9,6.2 5.1,6.7 5.4,7.1 C5.8,7.5 6.2,7.8 6.8,8.1 C7.3,8.4 8.1,8.6 9,8.9 C10.3,9.4 11.4,9.8 12.2,10.2 C13,10.6 13.7,11.2 14.3,12 C14.9,12.8 15.2,13.9 15.2,15.2 C15.1,16.4 14.8,17.4 14.3,18.2 Z"></path>
                    <polygon points="16.6 4.3 16.6 0.5 24 0.5 24 21 19.7 21 19.7 4.3"></polygon>
                </g>
                <g transform="translate(31.000000, 151.000000)" fill="#000000" fill-rule="nonzero" id="Shape">
                    <path d="M13.9,18.4 C13.4,19.3 12.6,20 11.6,20.5 C10.6,21 9.3,21.3 7.9,21.3 C6.5,21.3 5.2,21.1 4,20.6 C2.9,20.1 1.9,19.4 1.3,18.5 C0.6,17.6 0.2,16.5 0.1,15.2 L4.4,15.2 C4.5,16 4.8,16.7 5.4,17.3 C6,17.9 6.7,18.1 7.7,18.1 C8.5,18.1 9.2,17.9 9.7,17.4 C10.2,16.9 10.4,16.4 10.4,15.6 C10.4,15 10.2,14.4 9.9,14 C9.5,13.6 9.1,13.2 8.5,13 C7.9,12.7 7.2,12.5 6.2,12.1 C4.9,11.7 3.9,11.3 3.1,10.8 C2.3,10.4 1.6,9.8 1,9 C0.4,8.2 0.1,7.2 0.1,5.9 C0.1,4.1 0.7,2.7 2,1.7 C3.3,0.7 4.9,0.2 7,0.2 C9.2,0.2 10.9,0.7 12.2,1.8 C13.5,2.8 14.2,4.2 14.4,6 L10,6 C9.9,5.3 9.6,4.7 9.1,4.2 C8.6,3.7 7.9,3.5 7,3.5 C6.2,3.5 5.6,3.7 5.2,4.1 C4.7,4.5 4.5,5.1 4.5,5.8 C4.5,6.4 4.7,6.9 5,7.3 C5.4,7.7 5.8,8 6.4,8.3 C6.9,8.6 7.7,8.8 8.6,9.1 C9.9,9.6 11,10 11.8,10.4 C12.6,10.8 13.3,11.4 13.9,12.2 C14.5,13 14.8,14.1 14.8,15.4 C14.7,16.6 14.4,17.5 13.9,18.4 Z"></path>
                    <path d="M26.7,6.6 C26.7,5.7 26.5,5 26,4.5 C25.5,4 24.9,3.7 24,3.7 C22.1,3.7 21.1,5 21,7.6 L17,7.6 C17.1,5.2 17.8,3.3 19.2,2.1 C20.6,0.9 22.3,0.2 24.3,0.2 C26.4,0.2 28,0.7 29.1,1.8 C30.2,2.9 30.8,4.4 30.8,6.2 C30.8,7.6 30.4,9.1 29.5,10.5 C28.7,11.9 27.6,13.3 26.3,14.5 C25,15.7 23.6,16.8 22.2,17.6 L31.1,17.6 L31.1,20.9 L16.7,20.9 L16.7,17.8 C23.4,13.4 26.7,9.6 26.7,6.6 Z"></path>
                </g>
                <g transform="translate(30.000000, 207.000000)" fill="#000000" fill-rule="nonzero" id="Shape">
                    <path d="M14.4,19.2 C13.9,20.1 13.1,20.8 12.1,21.3 C11.1,21.8 9.8,22.1 8.4,22.1 C7,22.1 5.7,21.9 4.5,21.4 C3.4,20.9 2.4,20.2 1.8,19.3 C1.1,18.4 0.7,17.3 0.6,16 L4.9,16 C5,16.8 5.3,17.5 5.9,18.1 C6.5,18.7 7.2,18.9 8.2,18.9 C9,18.9 9.7,18.7 10.2,18.2 C10.7,17.7 10.9,17.2 10.9,16.4 C10.9,15.8 10.7,15.2 10.4,14.8 C10,14.4 9.6,14 9,13.8 C8.4,13.5 7.7,13.3 6.7,12.9 C5.4,12.5 4.4,12.1 3.6,11.6 C2.8,11.2 2.1,10.6 1.5,9.8 C0.9,9 0.6,8 0.6,6.7 C0.6,4.9 1.2,3.5 2.5,2.5 C3.8,1.5 5.4,1 7.5,1 C9.7,1 11.4,1.5 12.7,2.6 C14,3.6 14.7,5 14.9,6.8 L10.5,6.8 C10.4,6.1 10.1,5.5 9.6,5 C9.1,4.5 8.4,4.3 7.5,4.3 C6.7,4.3 6.1,4.5 5.7,4.9 C5.2,5.3 5,5.9 5,6.6 C5,7.2 5.2,7.7 5.5,8.1 C5.9,8.5 6.3,8.8 6.9,9.1 C7.4,9.4 8.2,9.6 9.1,9.9 C10.4,10.4 11.5,10.8 12.3,11.2 C13.1,11.6 13.8,12.2 14.4,13 C15,13.8 15.3,14.9 15.3,16.2 C15.2,17.3 14.9,18.3 14.4,19.2 Z"></path>
                    <path d="M28.6,1.3 C29.6,1.8 30.3,2.5 30.9,3.3 C31.4,4.2 31.7,5.1 31.7,6.1 C31.7,7.4 31.3,8.5 30.6,9.3 C29.9,10.1 28.9,10.7 27.8,10.9 L27.8,11 C30.7,11.9 32.1,13.5 32.1,16.1 C32.1,17.9 31.5,19.3 30.3,20.4 C29.1,21.5 27.5,22 25.3,22 C23,22 21.2,21.4 19.9,20.3 C18.5,19.2 17.8,17.5 17.6,15.2 L21.6,15.2 C21.7,16.2 22,17.1 22.6,17.7 C23.2,18.3 24,18.6 25.1,18.6 C26,18.6 26.7,18.3 27.3,17.8 C27.8,17.3 28.1,16.6 28.1,15.8 C28.1,14.8 27.7,14.1 27,13.5 C26.2,13 25.1,12.7 23.7,12.7 L22.9,12.7 L22.9,9.4 L23.7,9.4 C26.4,9.4 27.8,8.5 27.8,6.6 C27.8,5.8 27.6,5.1 27.1,4.6 C26.6,4.1 26,3.9 25.1,3.9 C24.2,3.9 23.5,4.2 23,4.7 C22.4,5.3 22.1,6 22,7 L18,7 C18.1,4.9 18.8,3.3 20,2.2 C21.2,1.1 23,0.5 25.2,0.5 C26.5,0.6 27.6,0.9 28.6,1.3 Z"></path>
                </g>
                <path d="M76.6,63.5 L32.2,23.5" id="Shape" stroke="#000000" stroke-width="4" stroke-linecap="round"></path>
                <path d="M273.8,19.2 L273.8,237.9" id="Shape" stroke="#000000" stroke-width="4" stroke-linecap="round"></path>
                <g transform="translate(35.000000, 0.000000)" fill="#000000" fill-rule="nonzero" id="Shape">
                    <path d="M3.6,3.5 L2.4,10.4 L0.3,10.4 L1.5,3.5 L3.6,3.5 Z M2,0.8 C2.3,0.5 2.6,0.4 3.1,0.4 C3.4,0.4 3.7,0.5 3.9,0.7 C4.1,0.9 4.2,1.1 4.2,1.4 C4.2,1.8 4.1,2.1 3.8,2.3 C3.5,2.6 3.2,2.7 2.7,2.7 C2.4,2.7 2.1,2.6 1.9,2.4 C1.7,2.2 1.6,2 1.6,1.7 C1.6,1.4 1.7,1.1 2,0.8 Z"></path>
                    <path d="M11.1,4 C11.5,4.4 11.7,4.9 11.7,5.6 C11.7,5.8 11.7,6.1 11.6,6.4 L10.9,10.4 L8.8,10.4 L9.5,6.6 C9.5,6.5 9.5,6.3 9.5,6.2 C9.5,5.9 9.4,5.6 9.2,5.4 C9,5.2 8.7,5.1 8.4,5.1 C8,5.1 7.6,5.2 7.3,5.5 C7,5.8 6.8,6.2 6.7,6.7 L6.1,10.4 L4,10.4 L5.2,3.5 L7.3,3.5 L7.1,4.7 C7.4,4.3 7.7,4 8.2,3.7 C8.6,3.5 9.1,3.3 9.7,3.3 C10.2,3.4 10.7,3.6 11.1,4 Z"></path>
                    <path d="M19.6,4.1 C20,4.6 20.3,5.2 20.3,6.1 C20.3,6.4 20.3,6.7 20.2,7 C20.1,7.7 19.8,8.4 19.5,8.9 C19.1,9.4 18.7,9.9 18.2,10.1 C17.7,10.4 17.2,10.5 16.6,10.5 C16.1,10.5 15.6,10.4 15.3,10.1 C15,9.9 14.7,9.5 14.6,9.1 L13.8,13.7 L11.7,13.7 L13.5,3.4 L15.6,3.4 L15.4,4.7 C15.6,4.3 16,4 16.4,3.7 C16.8,3.5 17.3,3.3 17.8,3.3 C18.6,3.4 19.2,3.7 19.6,4.1 Z M17.4,8.2 C17.7,7.9 17.9,7.5 18,7 C18,6.9 18,6.7 18,6.6 C18,6.2 17.9,5.9 17.7,5.7 C17.5,5.5 17.2,5.4 16.8,5.4 C16.4,5.4 16,5.6 15.6,5.9 C15.2,6.2 15,6.6 15,7.1 C15,7.2 15,7.4 15,7.5 C15,7.9 15.1,8.2 15.3,8.5 C15.5,8.7 15.8,8.8 16.2,8.8 C16.7,8.7 17.1,8.5 17.4,8.2 Z"></path>
                    <path d="M28.7,3.5 L27.5,10.4 L25.4,10.4 L25.6,9.1 C25.3,9.5 25,9.8 24.5,10.1 C24.1,10.3 23.6,10.5 23,10.5 C22.3,10.5 21.8,10.3 21.4,9.9 C21,9.5 20.8,9 20.8,8.3 C20.8,8.1 20.8,7.8 20.9,7.5 L21.6,3.5 L23.7,3.5 L23,7.3 C23,7.4 23,7.6 23,7.7 C23,8.1 23.1,8.3 23.3,8.5 C23.5,8.7 23.8,8.8 24.1,8.8 C24.5,8.8 24.9,8.7 25.2,8.4 C25.5,8.1 25.7,7.7 25.8,7.2 L26.5,3.5 L28.7,3.5 Z"></path>
                    <path d="M31.8,7.9 C31.8,8 31.8,8.1 31.8,8.1 C31.8,8.3 31.8,8.4 31.9,8.5 C32,8.6 32.2,8.6 32.4,8.6 L33.1,8.6 L32.8,10.4 L31.8,10.4 C31.1,10.4 30.6,10.3 30.2,10 C29.8,9.7 29.6,9.2 29.6,8.6 C29.6,8.3 29.6,8.1 29.7,7.9 L30.1,5.3 L29.2,5.3 L29.5,3.5 L30.4,3.5 L30.7,1.8 L32.8,1.8 L32.5,3.5 L33.9,3.5 L33.6,5.3 L32.2,5.3 L31.8,7.9 Z"></path>
                </g>
                <g transform="translate(0.000000, 42.000000)" fill="#000000" fill-rule="nonzero" id="Shape">
                    <path d="M6.7,8.8 C6.4,9.1 6,9.4 5.6,9.6 C5.1,9.8 4.6,9.9 4,9.9 C3,9.9 2.2,9.7 1.6,9.2 C1,8.7 0.7,8 0.7,7.2 L3,7.2 C3,7.5 3,7.8 3.2,8 C3.4,8.2 3.6,8.3 4,8.3 C4.3,8.3 4.5,8.2 4.7,8 C4.9,7.8 5,7.6 5,7.3 C5,7.1 4.9,6.9 4.8,6.8 C4.7,6.7 4.5,6.5 4.3,6.4 C4.1,6.3 3.8,6.2 3.5,6 C3,5.8 2.6,5.6 2.3,5.5 C2,5.3 1.8,5.1 1.5,4.8 C1.3,4.5 1.2,4.1 1.2,3.6 C1.2,3.4 1.2,3.2 1.2,3 C1.3,2.4 1.7,1.8 2.3,1.5 C2.9,1.1 3.6,0.9 4.5,0.9 C5.5,0.9 6.3,1.1 6.8,1.6 C7.3,2.1 7.6,2.7 7.6,3.5 L5.3,3.5 C5.3,3.2 5.2,3 5.1,2.8 C4.9,2.6 4.7,2.5 4.4,2.5 C4.1,2.5 3.9,2.6 3.7,2.7 C3.5,2.9 3.4,3.1 3.4,3.4 C3.4,3.6 3.5,3.8 3.6,3.9 C3.7,4 3.9,4.2 4.1,4.2 C4.3,4.3 4.5,4.4 4.9,4.5 C5.4,4.7 5.8,4.9 6.1,5 C6.4,5.2 6.6,5.4 6.9,5.7 C7.1,6 7.2,6.4 7.2,6.9 C7.2,7.1 7.2,7.3 7.2,7.5 C7.1,8 6.9,8.4 6.7,8.8 Z"></path>
                    <path d="M10.9,7.2 C10.9,7.3 10.9,7.4 10.9,7.4 C10.9,7.6 10.9,7.7 11,7.8 C11.1,7.9 11.3,7.9 11.5,7.9 L12.2,7.9 L11.9,9.7 L10.9,9.7 C10.2,9.7 9.7,9.6 9.3,9.3 C8.9,9 8.7,8.5 8.7,7.9 C8.7,7.6 8.7,7.4 8.8,7.2 L9.2,4.6 L8.3,4.6 L8.6,2.8 L9.5,2.8 L9.8,1.1 L11.9,1.1 L11.6,2.8 L13,2.8 L12.7,4.6 L11.3,4.6 L10.9,7.2 Z"></path>
                    <path d="M18.4,3.1 C18.8,3.3 19,3.7 19.1,4.1 L19.3,2.8 L21.4,2.8 L20.2,9.7 L18.1,9.7 L18.3,8.4 C18.1,8.8 17.7,9.1 17.3,9.4 C16.9,9.6 16.4,9.8 15.8,9.8 C15,9.8 14.4,9.6 14,9.1 C13.6,8.6 13.3,7.9 13.3,7.1 C13.3,6.8 13.3,6.4 13.4,6.1 C13.5,5.4 13.8,4.8 14.1,4.3 C14.4,3.8 14.9,3.4 15.4,3.1 C15.9,2.8 16.4,2.7 17,2.7 C17.6,2.8 18,2.9 18.4,3.1 Z M16.3,5.1 C16,5.4 15.8,5.8 15.7,6.3 C15.7,6.4 15.7,6.6 15.7,6.7 C15.7,7.1 15.8,7.4 16,7.6 C16.2,7.8 16.5,7.9 16.9,7.9 C17.3,7.9 17.7,7.7 18.1,7.4 C18.4,7.1 18.7,6.7 18.7,6.2 C18.7,6.1 18.7,5.9 18.7,5.8 C18.7,5.4 18.6,5.1 18.4,4.8 C18.2,4.6 17.9,4.5 17.5,4.5 C17,4.6 16.6,4.8 16.3,5.1 Z"></path>
                    <path d="M24.5,7.2 C24.5,7.3 24.5,7.4 24.5,7.4 C24.5,7.6 24.5,7.7 24.6,7.8 C24.7,7.9 24.9,7.9 25.1,7.9 L25.8,7.9 L25.5,9.7 L24.5,9.7 C23.8,9.7 23.3,9.6 22.9,9.3 C22.5,9 22.3,8.5 22.3,7.9 C22.3,7.6 22.3,7.4 22.4,7.2 L22.8,4.6 L21.9,4.6 L22.2,2.8 L23.1,2.8 L23.4,1.1 L25.5,1.1 L25.2,2.8 L26.6,2.8 L26.3,4.6 L25,4.6 L24.5,7.2 Z"></path>
                    <path d="M33.3,3.5 C33.8,4 34.1,4.6 34.1,5.4 C34.1,5.6 34.1,5.8 34,6.1 C34,6.3 33.9,6.5 33.8,6.7 L29,6.7 C29,6.9 29,7 29,7 C29,7.8 29.4,8.1 30.1,8.1 C30.4,8.1 30.7,8 30.9,7.9 C31.1,7.7 31.3,7.5 31.4,7.3 L33.7,7.3 C33.4,8.1 33,8.7 32.3,9.1 C31.6,9.6 30.8,9.8 29.9,9.8 C29,9.8 28.3,9.6 27.8,9.1 C27.3,8.6 27,7.9 27,7 C27,6.7 27,6.5 27.1,6.2 C27.2,5.5 27.5,4.9 27.9,4.4 C28.3,3.9 28.8,3.5 29.4,3.2 C30,2.9 30.6,2.8 31.3,2.8 C32.1,2.8 32.8,3 33.3,3.5 Z M32,5.4 C32,5.1 31.9,4.8 31.7,4.7 C31.5,4.6 31.2,4.5 30.9,4.5 C30.5,4.5 30.2,4.6 29.9,4.8 C29.6,5 29.4,5.4 29.3,5.8 L32,5.8 C32,5.7 32,5.5 32,5.4 Z"></path>
                </g>
                <g transform="translate(85.000000, 84.000000)" fill="#000000" fill-rule="nonzero" id="Shape">
                    <path d="M40,9.8 C40,9.4 40,9 40.1,8.7 C40.2,8.3 40.2,8.1 40.2,8 C40.4,7.2 40.4,6.4 40.4,5.8 C40.4,5 40.3,4.2 40,3.5 C39.7,2.8 39.4,2.2 39,1.7 C38.6,1.2 38.1,0.8 37.7,0.6 L37.7,0.4 L40.5,0.4 C40.9,0.6 41.2,0.9 41.6,1.3 C42,1.7 42.4,2.3 42.7,3 C43,3.7 43.2,4.6 43.2,5.7 C43.2,6.2 43.2,6.7 43.1,7.1 C43,7.6 43,7.8 43,7.9 C42.9,8.7 42.8,9.4 42.8,9.8 C42.8,10.4 43,10.9 43.3,11.4 C43.6,11.9 44.2,12.1 45,12.2 L45,13.3 C44.2,13.4 43.6,13.7 43.3,14.1 C43,14.5 42.8,15.1 42.8,15.7 C42.8,16.1 42.9,16.7 43,17.6 C43,17.7 43.1,18 43.1,18.4 C43.1,18.8 43.2,19.3 43.2,19.8 C43.2,20.8 43,21.7 42.7,22.5 C42.4,23.2 42,23.8 41.6,24.2 C41.2,24.6 40.8,24.9 40.5,25.1 L37.7,25.1 L37.7,24.9 C38.2,24.7 38.6,24.3 39,23.8 C39.4,23.3 39.8,22.7 40,22 C40.3,21.3 40.4,20.5 40.4,19.7 C40.4,19 40.3,18.3 40.2,17.4 C40.2,17.3 40.2,17 40.1,16.7 C40,16.3 40,16 40,15.6 C40,14.1 40.8,13.2 42.4,12.8 C40.8,12.2 40,11.3 40,9.8 Z"></path>
                    <path d="M3.1,12.5 C4.7,12.8 5.5,13.8 5.5,15.3 C5.5,15.7 5.5,16 5.4,16.4 C5.3,16.8 5.3,17 5.3,17.1 C5.1,17.9 5.1,18.7 5.1,19.4 C5.1,20.2 5.2,21 5.5,21.7 C5.8,22.4 6.1,23 6.5,23.5 C6.9,24 7.4,24.4 7.8,24.6 L7.8,24.8 L5,24.8 C4.6,24.6 4.3,24.3 3.9,23.9 C3.5,23.5 3.1,22.9 2.8,22.2 C2.5,21.5 2.3,20.6 2.3,19.5 C2.3,19 2.3,18.5 2.4,18.1 C2.5,17.7 2.5,17.4 2.5,17.3 C2.6,16.5 2.7,15.8 2.7,15.4 C2.7,14.8 2.5,14.3 2.2,13.8 C1.9,13.3 1.3,13.1 0.5,13 L0.5,12 C1.3,11.9 1.9,11.6 2.2,11.2 C2.5,10.8 2.7,10.2 2.7,9.6 C2.7,9.2 2.6,8.6 2.5,7.7 C2.5,7.6 2.4,7.3 2.4,6.9 C2.3,6.4 2.3,6 2.3,5.5 C2.3,4.5 2.5,3.6 2.8,2.8 C3.1,2.1 3.5,1.5 3.9,1.1 C4.3,0.7 4.7,0.4 5,0.2 L7.8,0.2 L7.8,0.4 C7.3,0.6 6.9,1 6.5,1.5 C6.1,2 5.7,2.6 5.5,3.3 C5.2,4 5.1,4.8 5.1,5.6 C5.1,6.3 5.2,7 5.3,7.8 C5.3,7.9 5.3,8.1 5.4,8.5 C5.5,8.9 5.5,9.3 5.5,9.6 C5.4,11.3 4.6,12.2 3.1,12.5 Z"></path>
                    <g transform="translate(10.000000, 2.000000)">
                        <path d="M14.2,18.6 C13.7,19.5 12.9,20.2 11.9,20.7 C10.9,21.2 9.6,21.5 8.2,21.5 C6.8,21.5 5.5,21.3 4.3,20.8 C3.2,20.3 2.2,19.6 1.6,18.7 C0.9,17.8 0.5,16.7 0.4,15.4 L4.7,15.4 C4.8,16.2 5.1,16.9 5.7,17.5 C6.3,18.1 7,18.3 8,18.3 C8.8,18.3 9.5,18.1 10,17.6 C10.5,17.1 10.7,16.6 10.7,15.8 C10.7,15.2 10.5,14.6 10.2,14.2 C9.8,13.8 9.4,13.4 8.8,13.2 C8.2,12.9 7.5,12.7 6.5,12.3 C5.2,11.9 4.2,11.5 3.4,11 C2.6,10.6 1.9,10 1.3,9.2 C0.7,8.4 0.4,7.4 0.4,6.1 C0.4,4.3 1,2.9 2.3,1.9 C3.6,0.9 5.2,0.4 7.3,0.4 C9.5,0.4 11.2,0.9 12.5,2 C13.8,3 14.5,4.4 14.7,6.2 L10.3,6.2 C10.2,5.5 9.9,4.9 9.4,4.4 C8.9,3.9 8.2,3.7 7.3,3.7 C6.5,3.7 5.9,3.9 5.5,4.3 C5,4.7 4.8,5.3 4.8,6 C4.8,6.6 5,7.1 5.3,7.5 C5.7,7.9 6.1,8.2 6.7,8.5 C7.2,8.8 8,9 8.9,9.3 C10.2,9.8 11.3,10.2 12.1,10.6 C12.9,11 13.6,11.6 14.2,12.4 C14.8,13.2 15.1,14.3 15.1,15.6 C15,16.8 14.7,17.7 14.2,18.6 Z"></path>
                        <polygon points="16.5 4.6 16.5 0.8 23.9 0.8 23.9 21.3 19.6 21.3 19.6 4.6 16.5 4.6"></polygon>
                    </g>
                </g>
                <g transform="translate(148.000000, 149.000000)" fill="#000000" fill-rule="nonzero" id="Shape">
                    <path d="M44.1,9.9 C44.1,9.5 44.1,9.1 44.2,8.8 C44.3,8.4 44.3,8.2 44.3,8.1 C44.5,7.3 44.5,6.5 44.5,5.9 C44.5,5.1 44.4,4.3 44.1,3.6 C43.8,2.9 43.5,2.3 43.1,1.8 C42.7,1.3 42.2,0.9 41.8,0.7 L41.8,0.5 L44.6,0.5 C45,0.7 45.3,1 45.7,1.4 C46.1,1.8 46.5,2.4 46.8,3.1 C47.1,3.8 47.3,4.7 47.3,5.8 C47.3,6.3 47.3,6.8 47.2,7.2 C47.1,7.7 47.1,7.9 47.1,8 C47,8.8 46.9,9.5 46.9,9.9 C46.9,10.5 47.1,11 47.4,11.5 C47.7,12 48.3,12.2 49.1,12.3 L49.1,13.4 C48.3,13.5 47.7,13.8 47.4,14.2 C47.1,14.6 46.9,15.2 46.9,15.8 C46.9,16.2 47,16.8 47.1,17.7 C47.1,17.8 47.2,18.1 47.2,18.5 C47.2,18.9 47.3,19.4 47.3,19.9 C47.3,20.9 47.1,21.8 46.8,22.6 C46.5,23.3 46.1,23.9 45.7,24.3 C45.3,24.7 44.9,25 44.6,25.2 L41.8,25.2 L41.8,25 C42.3,24.8 42.7,24.4 43.1,23.9 C43.5,23.4 43.9,22.8 44.1,22.1 C44.4,21.4 44.5,20.6 44.5,19.8 C44.5,19.1 44.4,18.4 44.3,17.5 C44.3,17.4 44.3,17.1 44.2,16.8 C44.1,16.4 44.1,16.1 44.1,15.7 C44.1,14.2 44.9,13.3 46.5,12.9 C44.9,12.4 44.1,11.5 44.1,9.9 Z"></path>
                    <path d="M3.1,12.7 C4.7,13 5.5,14 5.5,15.5 C5.5,15.9 5.5,16.2 5.4,16.6 C5.3,17 5.3,17.2 5.3,17.3 C5.1,18.1 5.1,18.9 5.1,19.6 C5.1,20.4 5.2,21.2 5.5,21.9 C5.8,22.6 6.1,23.2 6.5,23.7 C6.9,24.2 7.4,24.6 7.8,24.8 L7.8,25 L5,25 C4.6,24.8 4.3,24.5 3.9,24.1 C3.5,23.7 3.1,23.1 2.8,22.4 C2.5,21.7 2.3,20.8 2.3,19.7 C2.3,19.2 2.3,18.7 2.4,18.3 C2.5,17.9 2.5,17.6 2.5,17.5 C2.6,16.7 2.7,16 2.7,15.6 C2.7,15 2.5,14.5 2.2,14 C1.9,13.5 1.3,13.3 0.5,13.2 L0.5,12.1 C1.3,12 1.9,11.7 2.2,11.3 C2.5,10.9 2.7,10.3 2.7,9.7 C2.7,9.3 2.6,8.7 2.5,7.8 C2.5,7.7 2.4,7.4 2.4,7 C2.3,6.5 2.3,6.1 2.3,5.6 C2.3,4.6 2.5,3.7 2.8,2.9 C3.1,2.2 3.5,1.6 3.9,1.2 C4.3,0.8 4.7,0.5 5,0.3 L7.8,0.3 L7.8,0.5 C7.3,0.7 6.9,1.1 6.5,1.6 C6.1,2.1 5.7,2.7 5.5,3.4 C5.2,4.1 5.1,4.9 5.1,5.7 C5.1,6.4 5.2,7.1 5.3,7.9 C5.3,8 5.3,8.2 5.4,8.6 C5.5,9 5.5,9.4 5.5,9.7 C5.4,11.5 4.7,12.4 3.1,12.7 Z"></path>
                    <g transform="translate(8.000000, 2.000000)">
                        <path d="M14.6,18.5 C14.1,19.4 13.3,20.1 12.3,20.6 C11.3,21.1 10,21.4 8.6,21.4 C7.2,21.4 5.9,21.2 4.7,20.7 C3.6,20.2 2.6,19.5 2,18.6 C1.3,17.7 0.9,16.6 0.8,15.3 L5.1,15.3 C5.2,16.1 5.5,16.8 6.1,17.4 C6.7,18 7.4,18.2 8.4,18.2 C9.2,18.2 9.9,18 10.4,17.5 C10.9,17 11.1,16.5 11.1,15.7 C11.1,15.1 10.9,14.5 10.6,14.1 C10.2,13.7 9.8,13.3 9.2,13.1 C8.6,12.8 7.9,12.6 6.9,12.2 C5.6,11.8 4.6,11.4 3.8,10.9 C3,10.5 2.3,9.9 1.7,9.1 C1.1,8.3 0.8,7.3 0.8,6 C0.8,4.2 1.4,2.8 2.7,1.8 C4,0.8 5.6,0.3 7.7,0.3 C9.9,0.3 11.6,0.8 12.9,1.9 C14.2,2.9 14.9,4.3 15.1,6.1 L10.7,6.1 C10.6,5.4 10.3,4.8 9.8,4.3 C9.3,3.8 8.6,3.6 7.7,3.6 C6.9,3.6 6.3,3.8 5.9,4.2 C5.4,4.6 5.2,5.2 5.2,5.9 C5.2,6.5 5.4,7 5.7,7.4 C6.1,7.8 6.5,8.1 7.1,8.4 C7.6,8.7 8.4,8.9 9.3,9.2 C10.6,9.7 11.7,10.1 12.5,10.5 C13.3,10.9 14,11.5 14.6,12.3 C15.2,13.1 15.5,14.2 15.5,15.5 C15.4,16.7 15.1,17.6 14.6,18.5 Z"></path>
                        <path d="M27.4,6.7 C27.4,5.8 27.2,5.1 26.7,4.6 C26.3,4.1 25.6,3.8 24.7,3.8 C22.8,3.8 21.8,5.1 21.7,7.7 L17.7,7.7 C17.8,5.3 18.5,3.4 19.9,2.2 C21.3,1 23,0.3 25,0.3 C27.1,0.3 28.7,0.8 29.8,1.9 C30.9,3 31.5,4.5 31.5,6.3 C31.5,7.7 31.1,9.2 30.2,10.6 C29.4,12 28.3,13.4 27,14.6 C25.7,15.8 24.3,16.9 22.9,17.7 L31.8,17.7 L31.8,21 L17.4,21 L17.4,18 C24.2,13.4 27.4,9.7 27.4,6.7 Z"></path>
                    </g>
                </g>
                <g transform="translate(215.000000, 208.000000)" fill="#000000" fill-rule="nonzero" id="Shape">
                    <path d="M44.5,10.5 C44.5,10.1 44.5,9.7 44.6,9.4 C44.7,9 44.7,8.8 44.7,8.7 C44.9,7.9 44.9,7.1 44.9,6.5 C44.9,5.7 44.8,4.9 44.5,4.2 C44.2,3.5 43.9,2.9 43.5,2.4 C43.1,1.9 42.6,1.5 42.2,1.3 L42.2,1.1 L45,1.1 C45.4,1.3 45.7,1.6 46.1,2 C46.5,2.4 46.9,3 47.2,3.7 C47.5,4.4 47.7,5.3 47.7,6.4 C47.7,6.9 47.7,7.4 47.6,7.8 C47.5,8.2 47.5,8.5 47.5,8.6 C47.4,9.4 47.3,10.1 47.3,10.5 C47.3,11.1 47.5,11.6 47.8,12.1 C48.1,12.6 48.7,12.8 49.5,12.9 L49.5,14 C48.7,14.1 48.1,14.4 47.8,14.8 C47.5,15.3 47.3,15.8 47.3,16.4 C47.3,16.8 47.4,17.5 47.5,18.3 C47.5,18.4 47.6,18.7 47.6,19.1 C47.6,19.5 47.7,20 47.7,20.5 C47.7,21.5 47.5,22.4 47.2,23.2 C46.9,23.9 46.5,24.5 46.1,24.9 C45.7,25.3 45.3,25.6 45,25.8 L42.2,25.8 L42.2,25.6 C42.7,25.4 43.1,25 43.5,24.5 C43.9,24 44.3,23.4 44.5,22.7 C44.8,22 44.9,21.2 44.9,20.4 C44.9,19.7 44.8,19 44.7,18.1 C44.7,18 44.7,17.7 44.6,17.4 C44.5,17 44.5,16.7 44.5,16.3 C44.5,14.8 45.3,13.9 46.9,13.5 C45.3,13 44.5,12 44.5,10.5 Z"></path>
                    <path d="M3.5,13.3 C5.1,13.6 5.9,14.6 5.9,16.1 C5.9,16.5 5.9,16.8 5.8,17.2 C5.7,17.6 5.7,17.8 5.7,17.9 C5.5,18.7 5.5,19.5 5.5,20.2 C5.5,21 5.6,21.8 5.9,22.5 C6.2,23.2 6.5,23.8 6.9,24.3 C7.3,24.8 7.8,25.2 8.2,25.4 L8.2,25.6 L5.4,25.6 C5,25.4 4.7,25.1 4.3,24.7 C3.9,24.3 3.5,23.7 3.2,23 C2.9,22.3 2.7,21.4 2.7,20.3 C2.7,19.8 2.7,19.3 2.8,18.9 C2.9,18.5 2.9,18.2 2.9,18.1 C3,17.3 3.1,16.6 3.1,16.2 C3.1,15.6 2.9,15.1 2.6,14.6 C2.3,14.1 1.7,13.9 0.9,13.8 L0.9,12.7 C1.7,12.6 2.3,12.3 2.6,11.9 C2.9,11.5 3.1,10.9 3.1,10.3 C3.1,9.9 3,9.3 2.9,8.4 C2.9,8.3 2.8,8 2.8,7.6 C2.7,7.1 2.7,6.7 2.7,6.2 C2.7,5.2 2.9,4.3 3.2,3.5 C3.5,2.8 3.9,2.2 4.3,1.8 C4.7,1.4 5.1,1.1 5.4,0.9 L8.2,0.9 L8.2,1.1 C7.7,1.3 7.3,1.7 6.9,2.2 C6.5,2.7 6.1,3.3 5.9,4 C5.6,4.7 5.5,5.5 5.5,6.3 C5.5,7 5.6,7.7 5.7,8.5 C5.7,8.6 5.7,8.8 5.8,9.2 C5.9,9.6 5.9,10 5.9,10.3 C5.8,12 5.1,13 3.5,13.3 Z"></path>
                    <g transform="translate(9.000000, 2.000000)">
                        <path d="M14.3,18.9 C13.8,19.8 13,20.5 12,21 C11,21.5 9.7,21.8 8.3,21.8 C6.9,21.8 5.6,21.6 4.4,21.1 C3.3,20.6 2.3,19.9 1.7,19 C1,18.1 0.6,17 0.5,15.7 L4.8,15.7 C4.9,16.5 5.2,17.2 5.8,17.8 C6.4,18.4 7.1,18.6 8.1,18.6 C8.9,18.6 9.6,18.4 10.1,17.9 C10.6,17.4 10.8,16.9 10.8,16.1 C10.8,15.5 10.6,14.9 10.3,14.5 C9.9,14.1 9.5,13.7 8.9,13.5 C8.3,13.2 7.6,13 6.6,12.6 C5.3,12.2 4.3,11.8 3.5,11.3 C2.7,10.9 2,10.3 1.4,9.5 C0.8,8.7 0.5,7.7 0.5,6.4 C0.5,4.6 1.1,3.2 2.4,2.2 C3.7,1.2 5.3,0.7 7.4,0.7 C9.6,0.7 11.3,1.2 12.6,2.3 C13.9,3.3 14.6,4.7 14.8,6.5 L10.4,6.5 C10.3,5.8 10,5.2 9.5,4.7 C9,4.2 8.3,4 7.4,4 C6.6,4 6,4.2 5.6,4.6 C5.1,5 4.9,5.6 4.9,6.3 C4.9,6.9 5.1,7.4 5.4,7.8 C5.8,8.2 6.2,8.5 6.8,8.8 C7.3,9.1 8.1,9.3 9,9.6 C10.3,10.1 11.4,10.5 12.2,10.9 C13,11.3 13.7,11.9 14.3,12.7 C14.9,13.5 15.2,14.6 15.2,15.9 C15.1,17.1 14.8,18 14.3,18.9 Z"></path>
                        <path d="M28.5,1.1 C29.5,1.6 30.2,2.3 30.8,3.1 C31.3,4 31.6,4.9 31.6,5.9 C31.6,7.2 31.2,8.3 30.5,9.1 C29.8,9.9 28.8,10.5 27.7,10.7 L27.7,10.8 C30.6,11.7 32,13.3 32,15.9 C32,17.7 31.4,19.1 30.2,20.2 C29,21.3 27.4,21.8 25.2,21.8 C22.9,21.8 21.1,21.2 19.8,20.1 C18.4,19 17.7,17.3 17.5,15 L21.5,15 C21.6,16 21.9,16.9 22.5,17.5 C23.1,18.1 23.9,18.4 25,18.4 C25.9,18.4 26.6,18.1 27.2,17.6 C27.7,17.1 28,16.4 28,15.6 C28,14.6 27.6,13.9 26.9,13.3 C26.1,12.8 25,12.5 23.6,12.5 L22.8,12.5 L22.8,9.2 L23.6,9.2 C26.3,9.2 27.7,8.3 27.7,6.4 C27.7,5.6 27.5,4.9 27,4.4 C26.5,3.9 25.9,3.7 25,3.7 C24.1,3.7 23.4,4 22.9,4.5 C22.3,5.1 22,5.8 21.9,6.8 L17.9,6.8 C18,4.7 18.7,3.1 19.9,2 C21.1,0.9 22.9,0.3 25.1,0.3 C26.4,0.3 27.5,0.6 28.5,1.1 Z"></path>
                    </g>
                </g>
                <g transform="translate(283.000000, 84.000000)" fill="#000000" fill-rule="nonzero" id="Shape">
                    <path d="M84.4,10.1 C84.4,9.7 84.4,9.3 84.5,9 C84.6,8.6 84.6,8.4 84.6,8.3 C84.8,7.5 84.8,6.7 84.8,6.1 C84.8,5.3 84.7,4.5 84.4,3.8 C84.1,3.1 83.8,2.5 83.4,2 C83,1.5 82.5,1.1 82.1,0.9 L82.1,0.7 L84.9,0.7 C85.3,0.9 85.6,1.2 86,1.6 C86.4,2 86.8,2.6 87.1,3.3 C87.4,4 87.6,4.9 87.6,6 C87.6,6.5 87.6,7 87.5,7.4 C87.4,7.8 87.4,8.1 87.4,8.2 C87.3,9 87.2,9.7 87.2,10.1 C87.2,10.7 87.4,11.2 87.7,11.7 C88,12.2 88.6,12.4 89.4,12.5 L89.4,13.6 C88.6,13.7 88,14 87.7,14.4 C87.4,14.9 87.2,15.4 87.2,16 C87.2,16.4 87.3,17.1 87.4,17.9 C87.4,18 87.5,18.3 87.5,18.7 C87.5,19.1 87.6,19.6 87.6,20.1 C87.6,21.1 87.4,22 87.1,22.8 C86.8,23.5 86.4,24.1 86,24.5 C85.6,24.9 85.2,25.2 84.9,25.4 L82.1,25.4 L82.1,25.2 C82.6,25 83,24.6 83.4,24.1 C83.8,23.6 84.2,23 84.4,22.3 C84.7,21.6 84.8,20.8 84.8,20 C84.8,19.3 84.7,18.6 84.6,17.7 C84.6,17.6 84.6,17.3 84.5,17 C84.4,16.6 84.4,16.3 84.4,15.9 C84.4,14.4 85.2,13.5 86.8,13.1 C85.2,12.6 84.4,11.7 84.4,10.1 Z"></path>
                    <path d="M2.6,12.9 C4.2,13.3 5,14.2 5,15.7 C5,16.1 5,16.4 4.9,16.8 C4.8,17.2 4.8,17.4 4.8,17.5 C4.6,18.3 4.6,19.1 4.6,19.8 C4.6,20.6 4.7,21.4 5,22.1 C5.3,22.8 5.6,23.4 6,23.9 C6.4,24.4 6.9,24.8 7.3,25 L7.3,25.2 L4.5,25.2 C4.1,25 3.8,24.7 3.4,24.3 C3,23.9 2.6,23.3 2.3,22.6 C2,21.9 1.8,21 1.8,19.9 C1.8,19.4 1.8,18.9 1.9,18.5 C2,18.1 2,17.8 2,17.7 C2.1,16.9 2.2,16.2 2.2,15.8 C2.2,15.2 2,14.7 1.7,14.2 C1.4,13.7 0.8,13.5 -5.68434189e-14,13.4 L-5.68434189e-14,12.3 C0.8,12.2 1.4,11.9 1.7,11.5 C2,11 2.2,10.5 2.2,9.9 C2.2,9.5 2.1,8.9 2,8 C2,7.9 1.9,7.6 1.9,7.2 C1.9,6.8 1.8,6.3 1.8,5.8 C1.8,4.8 2,3.9 2.3,3.1 C2.6,2.4 3,1.8 3.4,1.4 C3.8,1 4.2,0.7 4.5,0.5 L7.3,0.5 L7.3,0.7 C6.8,0.9 6.4,1.3 6,1.8 C5.6,2.3 5.2,2.9 5,3.6 C4.7,4.3 4.6,5.1 4.6,5.9 C4.6,6.6 4.7,7.3 4.8,8.1 C4.8,8.2 4.8,8.4 4.9,8.8 C5,9.2 5,9.6 5,9.9 C4.9,11.7 4.1,12.6 2.6,12.9 Z"></path>
                    <g transform="translate(50.000000, 1.000000)">
                        <path d="M13.8,19.6 C13.3,20.5 12.5,21.2 11.5,21.7 C10.5,22.2 9.2,22.5 7.8,22.5 C6.4,22.5 5.1,22.3 3.9,21.8 C2.8,21.3 1.8,20.6 1.2,19.7 C0.5,18.8 0.1,17.7 5.68434189e-14,16.4 L4.3,16.4 C4.4,17.2 4.7,17.9 5.3,18.5 C5.9,19.1 6.6,19.3 7.6,19.3 C8.4,19.3 9.1,19.1 9.6,18.6 C10.1,18.1 10.3,17.6 10.3,16.8 C10.3,16.2 10.1,15.6 9.8,15.2 C9.4,14.8 9,14.4 8.4,14.2 C7.8,13.9 7.1,13.7 6.1,13.3 C4.8,12.9 3.8,12.5 3,12 C2.2,11.6 1.5,11 0.9,10.2 C0.3,9.4 5.68434189e-14,8.4 5.68434189e-14,7.1 C5.68434189e-14,5.3 0.6,3.9 1.9,2.9 C3.2,1.9 4.8,1.4 6.9,1.4 C9.1,1.4 10.8,1.9 12.1,3 C13.4,4 14.1,5.4 14.3,7.2 L9.9,7.2 C9.8,6.5 9.5,5.9 9,5.4 C8.5,4.9 7.8,4.7 6.9,4.7 C6.1,4.7 5.5,4.9 5.1,5.3 C4.6,5.7 4.4,6.3 4.4,7 C4.4,7.6 4.6,8.1 4.9,8.5 C5.3,8.9 5.7,9.2 6.3,9.5 C6.8,9.8 7.6,10 8.5,10.3 C9.8,10.8 10.9,11.2 11.7,11.6 C12.5,12 13.2,12.6 13.8,13.4 C14.4,14.2 14.7,15.3 14.7,16.6 C14.6,17.8 14.4,18.7 13.8,19.6 Z"></path>
                        <path d="M28.1,1.7 C29.1,2.2 29.8,2.9 30.4,3.7 C30.9,4.6 31.2,5.5 31.2,6.5 C31.2,7.8 30.8,8.9 30.1,9.7 C29.4,10.5 28.4,11.1 27.3,11.3 L27.3,11.4 C30.2,12.3 31.6,13.9 31.6,16.5 C31.6,18.3 31,19.7 29.8,20.8 C28.6,21.9 27,22.4 24.8,22.4 C22.5,22.4 20.7,21.8 19.4,20.7 C18,19.6 17.3,17.9 17.1,15.6 L21.1,15.6 C21.2,16.6 21.5,17.5 22.1,18.1 C22.7,18.7 23.5,19 24.6,19 C25.5,19 26.2,18.7 26.8,18.2 C27.3,17.7 27.6,17 27.6,16.2 C27.6,15.2 27.2,14.5 26.5,13.9 C25.7,13.4 24.6,13.1 23.2,13.1 L22.4,13.1 L22.4,9.8 L23.2,9.8 C25.9,9.8 27.3,8.9 27.3,7 C27.3,6.2 27.1,5.5 26.6,5 C26.1,4.5 25.5,4.3 24.6,4.3 C23.7,4.3 23,4.6 22.5,5.1 C21.9,5.7 21.6,6.4 21.5,7.4 L17.5,7.4 C17.6,5.3 18.3,3.7 19.5,2.6 C20.7,1.5 22.5,0.9 24.7,0.9 C25.9,1 27.1,1.3 28.1,1.7 Z"></path>
                    </g>
                    <g transform="translate(7.000000, 1.000000)">
                        <path d="M15.5,19.7 C15,20.6 14.2,21.4 13.1,21.9 C12,22.5 10.7,22.7 9.2,22.7 C7.7,22.7 6.3,22.4 5.2,21.9 C4,21.4 3.1,20.6 2.3,19.7 C1.6,18.7 1.2,17.6 1.1,16.3 L5.6,16.3 C5.7,17.2 6,17.9 6.6,18.5 C7.2,19.1 8,19.4 9,19.4 C9.9,19.4 10.6,19.2 11,18.7 C11.5,18.2 11.7,17.6 11.7,16.9 C11.7,16.2 11.5,15.7 11.1,15.2 C10.7,14.8 10.2,14.4 9.7,14.2 C9.1,13.9 8.3,13.6 7.3,13.3 C6,12.9 4.9,12.4 4,12 C3.2,11.6 2.4,10.9 1.8,10.1 C1.2,9.3 0.9,8.2 0.9,6.9 C0.9,5.1 1.6,3.6 2.9,2.6 C4.2,1.5 6,1 8.1,1 C10.4,1 12.1,1.5 13.5,2.6 C14.8,3.7 15.6,5.1 15.8,7 L11.2,7 C11.1,6.2 10.8,5.6 10.2,5.1 C9.7,4.6 9,4.4 8.1,4.4 C7.3,4.4 6.7,4.6 6.2,5 C5.7,5.4 5.5,6 5.5,6.8 C5.5,7.4 5.7,7.9 6.1,8.4 C6.5,8.8 6.9,9.2 7.5,9.4 C8.1,9.7 8.9,10 9.8,10.3 C11.2,10.8 12.3,11.2 13.1,11.7 C14,12.1 14.7,12.8 15.3,13.6 C15.9,14.4 16.2,15.6 16.2,16.9 C16.3,17.8 16,18.8 15.5,19.7 Z"></path>
                        <path d="M28.8,7.3 C28.8,6.4 28.6,5.6 28.1,5.1 C27.6,4.6 26.9,4.3 26,4.3 C24,4.3 23,5.7 22.8,8.4 L18.7,8.4 C18.8,5.9 19.6,4 21,2.7 C22.4,1.4 24.2,0.7 26.3,0.7 C28.5,0.7 30.2,1.3 31.4,2.4 C32.6,3.5 33.2,5.1 33.2,7 C33.2,8.5 32.8,10 31.9,11.5 C31,13 29.9,14.4 28.6,15.6 C27.3,16.9 25.8,17.9 24.3,18.9 L33.6,18.9 L33.6,22.4 L18.6,22.4 L18.6,19.2 C25.4,14.4 28.8,10.5 28.8,7.3 Z"></path>
                    </g>
                    <path d="M49,23 C49,23.9 48.8,24.6 48.3,25.1 C47.8,25.7 47.1,25.9 46.2,25.9 L46.2,24.8 C46.6,24.8 46.8,24.7 47,24.5 C47.2,24.3 47.3,24 47.3,23.6 L47.3,23.4 L46,23.4 L46,20.7 L48.6,20.7 C48.8,21.5 49,22.2 49,23 Z"></path>
                </g>
                <g transform="translate(284.000000, 149.000000)" fill="#000000" fill-rule="nonzero" id="Shape">
                    <path d="M43.9,10 C43.9,9.6 43.9,9.2 44,8.9 C44.1,8.5 44.1,8.3 44.1,8.2 C44.3,7.4 44.3,6.6 44.3,6 C44.3,5.2 44.2,4.4 43.9,3.7 C43.6,3 43.3,2.4 42.9,1.9 C42.5,1.4 42,1 41.6,0.8 L41.6,0.6 L44.4,0.6 C44.8,0.8 45.1,1.1 45.5,1.5 C45.9,1.9 46.3,2.5 46.6,3.2 C46.9,3.9 47.1,4.8 47.1,5.9 C47.1,6.4 47.1,6.9 47,7.3 C46.9,7.8 46.9,8 46.9,8.1 C46.8,8.9 46.7,9.6 46.7,10 C46.7,10.6 46.9,11.1 47.2,11.6 C47.5,12.1 48.1,12.3 48.9,12.4 L48.9,13.5 C48.1,13.6 47.5,13.9 47.2,14.3 C46.9,14.7 46.7,15.3 46.7,15.9 C46.7,16.3 46.8,16.9 46.9,17.8 C46.9,17.9 47,18.2 47,18.6 C47,19 47.1,19.5 47.1,20 C47.1,21 46.9,21.9 46.6,22.7 C46.3,23.4 45.9,24 45.5,24.4 C45.1,24.8 44.7,25.1 44.4,25.3 L41.6,25.3 L41.6,25.1 C42.1,24.9 42.5,24.5 42.9,24 C43.3,23.5 43.7,22.9 43.9,22.2 C44.2,21.5 44.3,20.7 44.3,19.9 C44.3,19.2 44.2,18.5 44.1,17.6 C44.1,17.5 44.1,17.2 44,16.9 C43.9,16.5 43.9,16.2 43.9,15.8 C43.9,14.3 44.7,13.4 46.3,13 C44.7,12.5 43.9,11.5 43.9,10 Z"></path>
                    <path d="M2.9,12.8 C4.5,13.1 5.3,14.1 5.3,15.6 C5.3,16 5.3,16.3 5.2,16.7 C5.1,17.1 5.1,17.3 5.1,17.4 C4.9,18.2 4.9,19 4.9,19.7 C4.9,20.5 5,21.3 5.3,22 C5.6,22.7 5.9,23.3 6.3,23.8 C6.7,24.3 7.2,24.7 7.6,24.9 L7.6,25.1 L4.8,25.1 C4.4,24.9 4.1,24.6 3.7,24.2 C3.3,23.8 2.9,23.2 2.6,22.5 C2.3,21.8 2.1,20.9 2.1,19.8 C2.1,19.3 2.1,18.8 2.2,18.4 C2.3,18 2.3,17.7 2.3,17.6 C2.4,16.8 2.5,16.1 2.5,15.7 C2.5,15.1 2.3,14.6 2,14.1 C1.7,13.6 1.1,13.4 0.3,13.3 L0.3,12.2 C1.1,12.1 1.7,11.8 2,11.4 C2.3,11 2.5,10.4 2.5,9.8 C2.5,9.4 2.4,8.8 2.3,7.9 C2.3,7.8 2.2,7.5 2.2,7.1 C2.1,6.6 2.1,6.2 2.1,5.7 C2.1,4.7 2.3,3.8 2.6,3 C2.9,2.3 3.3,1.7 3.7,1.3 C4.1,0.9 4.5,0.6 4.8,0.4 L7.6,0.4 L7.6,0.6 C7.1,0.8 6.7,1.2 6.3,1.7 C5.9,2.2 5.5,2.8 5.3,3.5 C5,4.2 4.9,5 4.9,5.8 C4.9,6.5 5,7.2 5.1,8 C5.1,8.1 5.1,8.3 5.2,8.7 C5.3,9.1 5.3,9.5 5.3,9.8 C5.2,11.5 4.5,12.5 2.9,12.8 Z"></path>
                    <g transform="translate(8.000000, 1.000000)">
                        <path d="M14.7,19.4 C14.2,20.3 13.4,21 12.4,21.5 C11.4,22 10.1,22.3 8.7,22.3 C7.3,22.3 6,22.1 4.8,21.6 C3.7,21.1 2.7,20.4 2.1,19.5 C1.4,18.6 1,17.5 0.9,16.2 L5.2,16.2 C5.3,17 5.6,17.7 6.2,18.3 C6.8,18.9 7.5,19.1 8.5,19.1 C9.3,19.1 10,18.9 10.5,18.4 C11,17.9 11.2,17.4 11.2,16.6 C11.2,16 11,15.4 10.7,15 C10.3,14.6 9.9,14.2 9.3,14 C8.7,13.7 8,13.5 7,13.1 C5.7,12.7 4.7,12.3 3.9,11.8 C3.1,11.4 2.4,10.8 1.8,10 C1.2,9.2 0.9,8.2 0.9,6.9 C0.9,5.1 1.5,3.7 2.8,2.7 C4.1,1.7 5.7,1.2 7.8,1.2 C10,1.2 11.7,1.7 13,2.8 C14.3,3.8 15,5.2 15.2,7 L10.8,7 C10.7,6.3 10.4,5.7 9.9,5.2 C9.4,4.7 8.7,4.5 7.8,4.5 C7,4.5 6.4,4.7 6,5.1 C5.5,5.5 5.3,6.1 5.3,6.8 C5.3,7.4 5.5,7.9 5.8,8.3 C6.2,8.7 6.6,9 7.2,9.3 C7.7,9.6 8.5,9.8 9.4,10.1 C10.7,10.6 11.8,11 12.6,11.4 C13.4,11.8 14.1,12.4 14.7,13.2 C15.3,14 15.6,15.1 15.6,16.4 C15.5,17.6 15.2,18.5 14.7,19.4 Z"></path>
                        <path d="M29,1.6 C30,2.1 30.7,2.8 31.3,3.6 C31.8,4.5 32.1,5.4 32.1,6.4 C32.1,7.7 31.7,8.8 31,9.6 C30.3,10.4 29.3,11 28.2,11.2 L28.2,11.3 C31.1,12.2 32.5,13.8 32.5,16.4 C32.5,18.2 31.9,19.6 30.7,20.7 C29.5,21.8 27.9,22.3 25.7,22.3 C23.4,22.3 21.6,21.7 20.3,20.6 C18.9,19.5 18.2,17.8 18,15.5 L22,15.5 C22.1,16.5 22.4,17.4 23,18 C23.6,18.6 24.4,18.9 25.5,18.9 C26.4,18.9 27.1,18.6 27.7,18.1 C28.2,17.6 28.5,16.9 28.5,16.1 C28.5,15.1 28.1,14.4 27.4,13.8 C26.6,13.3 25.5,13 24.1,13 L23.3,13 L23.3,9.7 L24.1,9.7 C26.8,9.7 28.2,8.8 28.2,6.9 C28.2,6.1 28,5.4 27.5,4.9 C27,4.4 26.4,4.2 25.5,4.2 C24.6,4.2 23.9,4.5 23.4,5 C22.8,5.6 22.5,6.3 22.4,7.3 L18.4,7.3 C18.5,5.2 19.2,3.6 20.4,2.5 C21.6,1.4 23.4,0.8 25.6,0.8 C26.8,0.8 28,1.1 29,1.6 Z"></path>
                    </g>
                </g>
                <path d="M178.1,36.3 C179,36.8 179.7,37.6 180.2,38.7 C180.7,39.7 181,40.9 181,42.3 C181,43.7 180.7,44.9 180.2,45.9 C179.7,46.9 179,47.7 178.1,48.3 C177.2,48.9 176.2,49.1 175.1,49.1 C174,49.1 173,48.8 172.2,48.3 C171.4,47.8 170.8,47 170.5,46.2 L170.5,49 L167.1,49 L167.1,31.2 L170.5,31.2 L170.5,38.4 C170.8,37.5 171.4,36.8 172.2,36.3 C173,35.8 173.9,35.5 175.1,35.5 C176.2,35.5 177.2,35.8 178.1,36.3 Z M171.5,39.5 C170.8,40.2 170.5,41.1 170.5,42.3 C170.5,43.5 170.8,44.4 171.5,45.1 C172.2,45.8 173,46.1 174,46.1 C175.1,46.1 175.9,45.8 176.5,45.1 C177.1,44.4 177.5,43.5 177.5,42.3 C177.5,41.1 177.2,40.2 176.5,39.5 C175.8,38.8 175,38.5 174,38.5 C173,38.5 172.2,38.8 171.5,39.5 Z" id="Shape" fill="#000000" fill-rule="nonzero"></path>
                <path d="M309.7,47.7 C308.1,48.7 305.3,49.3 303,49.3 C299.3,49.3 295.3,47.9 295.3,43.9 C295.3,41.7 297.1,40 299.4,39.6 L299.4,39.5 C297.3,38.9 296.2,37.6 296.2,35.8 C296.2,33.4 298.6,31 303.6,31 C306,31 307.8,31.5 309.2,32.3 L308.4,35.1 C307.5,34.6 305.8,34.1 304.2,34.1 C302.1,34.1 300.7,35 300.7,36.2 C300.7,37.6 302.5,38.2 305.1,38.2 L307,38.2 L307,41.2 L305,41.2 C302.2,41.2 300.1,41.8 300.1,43.5 C300.1,45.2 302,46 304.2,46 C305.9,46 308,45.4 309.1,44.8 L309.7,47.7 Z" id="Shape" fill="#000000" fill-rule="nonzero"></path>
            </g>
            <g id="Group" transform="translate(0.000000, 16.000000)">
                <circle id="Oval" stroke="#000000" stroke-width="4" cx="78.4" cy="137.4" r="28.5"></circle>
                <polyline id="Shape" stroke="#000000" stroke-width="4" stroke-linecap="round" stroke-linejoin="round" points="32.5 127.8 48 138.5 32.5 149.3"></polyline>
                <circle id="Oval" stroke="#000000" stroke-width="4" cx="219.9" cy="137.4" r="28.5"></circle>
                <circle id="Oval" stroke="#000000" stroke-width="4" cx="361.5" cy="137.4" r="28.5"></circle>
                <polyline id="Shape" stroke="#000000" stroke-width="4" stroke-linecap="round" stroke-linejoin="round" points="174 127.8 189.5 138.5 174 149.3"></polyline>
                <polyline id="Shape" stroke="#000000" stroke-width="4" stroke-linecap="round" stroke-linejoin="round" points="306.7 127.8 322.2 138.5 306.7 149.3"></polyline>
                <path d="M107.8,138.5 L191.4,138.5" id="Shape" stroke="#000000" stroke-width="4" stroke-linecap="round" stroke-linejoin="round"></path>
                <path d="M248.4,138.5 L322.2,138.5" id="Shape" stroke="#000000" stroke-width="4" stroke-linecap="round" stroke-linejoin="round"></path>
                <g transform="translate(310.000000, 37.000000)" id="Shape" stroke="#000000" stroke-linecap="round" stroke-width="4">
                    <path d="M16.8,85.6 C2.3,71.7 -3.5,49.9 4.7,30.6 C15.3,5.5 44.3,-6.3 69.4,4.2 C94.5,14.8 106.3,43.8 95.8,68.9 C94.3,72.5 92.4,75.9 90.1,78.9"></path>
                    <polyline stroke-linejoin="round" points="89.4 67.8 89.7 79.7 100.3 74.4"></polyline>
                </g>
                <g transform="translate(170.000000, 37.000000)" id="Shape" stroke="#000000" stroke-linecap="round" stroke-width="4">
                    <path d="M23,91.1 C2,76.8 -5.9,48.1 6.7,25.6 C20,1.8 50.1,-6.7 73.9,6.6 C97.7,19.9 106.2,50 92.9,73.8 C91,77.2 88.7,80.4 86.1,83.1"></path>
                    <polyline stroke-linejoin="round" points="86.7 72.1 85.7 83.9 96.9 79.9"></polyline>
                </g>
                <circle id="Oval" stroke="#000000" stroke-width="4" cx="361.7" cy="137.5" r="36.6"></circle>
                <path d="M0.5,138.5 L49.9,138.5" id="Shape" stroke="#000000" stroke-width="4" stroke-linecap="round" stroke-linejoin="round"></path>
                <path d="M80.3,5.4 C81.1,5.9 81.7,6.6 82,7.5 L82,4.7 L85.4,4.7 L85.4,18 L82,18 L82,15.2 C81.7,16.1 81.1,16.8 80.3,17.3 C79.5,17.8 78.5,18.1 77.4,18.1 C76.3,18.1 75.3,17.8 74.4,17.3 C73.5,16.8 72.8,16 72.3,14.9 C71.8,13.9 71.5,12.7 71.5,11.3 C71.5,9.9 71.8,8.7 72.3,7.7 C72.8,6.7 73.5,5.9 74.4,5.3 C75.3,4.8 76.3,4.5 77.4,4.5 C78.6,4.6 79.5,4.8 80.3,5.4 Z M76,8.6 C75.4,9.3 75,10.2 75,11.4 C75,12.6 75.3,13.5 76,14.2 C76.6,14.9 77.5,15.2 78.5,15.2 C79.5,15.2 80.4,14.9 81,14.2 C81.7,13.5 82,12.6 82,11.4 C82,10.2 81.7,9.3 81,8.6 C80.3,7.9 79.5,7.6 78.5,7.6 C77.4,7.5 76.6,7.9 76,8.6 Z" id="Shape" fill="#000000" fill-rule="nonzero"></path>
                <path d="M365,6 C366.1,6.9 366.9,8.2 367.1,9.8 L363.5,9.8 C363.4,9.1 363,8.5 362.5,8.1 C362,7.7 361.3,7.5 360.6,7.5 C359.7,7.5 359,7.8 358.4,8.5 C357.8,9.2 357.5,10.1 357.5,11.4 C357.5,12.7 357.8,13.7 358.4,14.3 C359,15 359.7,15.3 360.6,15.3 C361.4,15.3 362,15.1 362.5,14.7 C363,14.3 363.3,13.7 363.5,13 L367.1,13 C366.8,14.6 366.1,15.9 365,16.8 C363.9,17.7 362.4,18.2 360.7,18.2 C359.4,18.2 358.3,17.9 357.2,17.4 C356.2,16.8 355.4,16.1 354.8,15 C354.2,14 354,12.8 354,11.4 C354,10 354.3,8.8 354.8,7.8 C355.4,6.8 356.1,6 357.2,5.4 C358.2,4.9 359.4,4.6 360.7,4.6 C362.4,4.6 363.8,5 365,6 Z" id="Shape" fill="#000000" fill-rule="nonzero"></path>
                <g transform="translate(29.000000, 37.000000)" id="Shape" stroke="#000000" stroke-linecap="round" stroke-width="4">
                    <path d="M22,90.8 C1.4,76.4 -6.3,47.9 6.1,25.6 C19.4,1.8 49.5,-6.7 73.3,6.6 C97.1,19.9 105.6,50 92.3,73.8 C90.4,77.2 88.1,80.4 85.5,83.1"></path>
                    <polyline stroke-linejoin="round" points="86.1 72.1 85.1 83.9 96.3 79.9"></polyline>
                </g>
                <g transform="translate(64.000000, 126.000000)" fill="#000000" fill-rule="nonzero" id="Shape">
                    <path d="M15.2,19.3 C14.7,20.2 13.9,21 12.8,21.5 C11.7,22.1 10.4,22.3 8.9,22.3 C7.4,22.3 6,22 4.9,21.5 C3.7,21 2.8,20.2 2,19.3 C1.3,18.3 0.9,17.2 0.8,15.9 L5.3,15.9 C5.4,16.8 5.7,17.5 6.3,18.1 C6.9,18.7 7.7,19 8.7,19 C9.6,19 10.3,18.8 10.7,18.3 C11.2,17.8 11.4,17.2 11.4,16.5 C11.4,15.8 11.2,15.3 10.8,14.8 C10.4,14.4 9.9,14 9.4,13.8 C8.8,13.5 8,13.2 7,12.9 C5.7,12.5 4.6,12 3.7,11.6 C2.9,11.2 2.1,10.5 1.5,9.7 C0.9,8.9 0.6,7.8 0.6,6.5 C0.6,4.7 1.3,3.2 2.6,2.2 C3.9,1.1 5.7,0.6 7.8,0.6 C10.1,0.6 11.8,1.1 13.2,2.2 C14.5,3.3 15.3,4.7 15.5,6.6 L11,6.6 C10.9,5.8 10.6,5.2 10,4.7 C9.5,4.2 8.8,4 7.9,4 C7.1,4 6.5,4.2 6,4.6 C5.5,5 5.3,5.6 5.3,6.4 C5.3,7 5.5,7.5 5.9,8 C6.3,8.4 6.7,8.8 7.3,9 C7.9,9.3 8.7,9.6 9.6,9.9 C11,10.4 12.1,10.8 12.9,11.3 C13.8,11.7 14.5,12.4 15.1,13.2 C15.7,14 16,15.2 16,16.5 C16,17.4 15.8,18.4 15.2,19.3 Z"></path>
                    <polygon points="17.6 4.8 17.6 0.8 25.3 0.8 25.3 22.2 20.8 22.2 20.8 4.8"></polygon>
                </g>
                <g transform="translate(203.000000, 126.000000)" fill="#000000" fill-rule="nonzero" id="Shape">
                    <path d="M15.1,19.4 C14.6,20.3 13.8,21.1 12.7,21.6 C11.6,22.2 10.3,22.4 8.8,22.4 C7.3,22.4 5.9,22.1 4.8,21.6 C3.6,21.1 2.7,20.3 1.9,19.4 C1.2,18.4 0.8,17.3 0.7,16 L5.2,16 C5.3,16.9 5.6,17.6 6.2,18.2 C6.8,18.8 7.6,19.1 8.6,19.1 C9.5,19.1 10.2,18.9 10.6,18.4 C11.1,17.9 11.3,17.3 11.3,16.6 C11.3,15.9 11.1,15.4 10.7,14.9 C10.3,14.5 9.8,14.1 9.3,13.9 C8.7,13.6 7.9,13.3 6.9,13 C5.6,12.6 4.5,12.1 3.6,11.7 C2.8,11.3 2,10.6 1.4,9.8 C0.8,9 0.5,7.9 0.5,6.6 C0.5,4.8 1.2,3.3 2.5,2.3 C3.8,1.2 5.6,0.7 7.7,0.7 C10,0.7 11.7,1.2 13.1,2.3 C14.4,3.4 15.2,4.8 15.4,6.7 L10.8,6.7 C10.7,5.9 10.4,5.3 9.8,4.8 C9.3,4.3 8.6,4.1 7.7,4.1 C6.9,4.1 6.3,4.3 5.8,4.7 C5.3,5.1 5.1,5.7 5.1,6.5 C5.1,7.1 5.3,7.6 5.7,8.1 C6.1,8.5 6.5,8.9 7.1,9.1 C7.7,9.4 8.5,9.7 9.4,10 C10.8,10.5 11.9,10.9 12.7,11.4 C13.6,11.8 14.3,12.5 14.9,13.3 C15.5,14.1 15.8,15.3 15.8,16.6 C15.9,17.5 15.6,18.5 15.1,19.4 Z"></path>
                    <path d="M28.5,7.1 C28.5,6.2 28.3,5.4 27.8,4.9 C27.3,4.4 26.6,4.1 25.7,4.1 C23.7,4.1 22.7,5.5 22.5,8.2 L18.4,8.2 C18.5,5.7 19.3,3.8 20.7,2.5 C22.1,1.2 23.9,0.5 26,0.5 C28.2,0.5 29.9,1.1 31.1,2.2 C32.3,3.3 32.9,4.9 32.9,6.8 C32.9,8.3 32.5,9.8 31.6,11.3 C30.7,12.8 29.6,14.2 28.3,15.4 C27,16.7 25.5,17.7 24,18.7 L33.3,18.7 L33.3,22.2 L18.3,22.2 L18.3,19 C25.1,14.1 28.5,10.2 28.5,7.1 Z"></path>
                </g>
                <g transform="translate(343.000000, 126.000000)" fill="#000000" fill-rule="nonzero" id="Shape">
                    <path d="M15.4,19.4 C14.9,20.3 14.1,21.1 13,21.6 C11.9,22.2 10.6,22.4 9.1,22.4 C7.6,22.4 6.2,22.1 5.1,21.6 C3.9,21.1 3,20.3 2.2,19.4 C1.5,18.4 1.1,17.3 1,16 L5.5,16 C5.6,16.9 5.9,17.6 6.5,18.2 C7.1,18.8 7.9,19.1 8.9,19.1 C9.8,19.1 10.5,18.9 10.9,18.4 C11.4,17.9 11.6,17.3 11.6,16.6 C11.6,15.9 11.4,15.4 11,14.9 C10.6,14.5 10.1,14.1 9.6,13.9 C9,13.6 8.2,13.3 7.2,13 C5.9,12.6 4.8,12.1 3.9,11.7 C3.1,11.3 2.3,10.6 1.7,9.8 C1.1,9 0.8,7.9 0.8,6.6 C0.8,4.8 1.5,3.3 2.8,2.3 C4.1,1.2 5.9,0.7 8,0.7 C10.3,0.7 12,1.2 13.4,2.3 C14.7,3.4 15.5,4.8 15.7,6.7 L11.1,6.7 C11,5.9 10.7,5.3 10.1,4.8 C9.6,4.3 8.9,4.1 8,4.1 C7.2,4.1 6.6,4.3 6.1,4.7 C5.6,5.1 5.4,5.7 5.4,6.5 C5.4,7.1 5.6,7.6 6,8.1 C6.4,8.5 6.8,8.9 7.4,9.1 C8,9.4 8.8,9.7 9.7,10 C11.1,10.5 12.2,10.9 13,11.4 C13.9,11.8 14.6,12.5 15.2,13.3 C15.8,14.1 16.1,15.3 16.1,16.6 C16.2,17.5 15.9,18.5 15.4,19.4 Z"></path>
                    <path d="M30.2,0.8 C31.2,1.3 32,2 32.6,2.9 C33.1,3.8 33.4,4.8 33.4,5.9 C33.4,7.3 33,8.4 32.3,9.3 C31.6,10.2 30.6,10.7 29.3,10.9 L29.3,11.1 C32.3,12 33.8,13.7 33.8,16.4 C33.8,18.2 33.2,19.7 32,20.9 C30.8,22 29,22.6 26.8,22.6 C24.4,22.6 22.5,22 21.1,20.8 C19.7,19.6 18.9,17.8 18.7,15.5 L22.9,15.5 C23,16.6 23.4,17.5 24,18.1 C24.6,18.7 25.5,19.1 26.6,19.1 C27.6,19.1 28.3,18.8 28.9,18.3 C29.4,17.8 29.7,17.1 29.7,16.2 C29.7,15.2 29.3,14.4 28.5,13.8 C27.7,13.2 26.6,13 25,13 L24.1,13 L24.1,9.5 L25,9.5 C27.8,9.5 29.2,8.6 29.2,6.6 C29.2,5.7 28.9,5.1 28.4,4.6 C27.9,4.1 27.2,3.9 26.3,3.9 C25.4,3.9 24.7,4.2 24.1,4.8 C23.5,5.4 23.2,6.2 23.1,7.2 L19,7.2 C19.1,5 19.8,3.3 21.1,2.2 C22.4,1 24.2,0.4 26.5,0.4 C27.9,-4.16333634e-16 29.2,0.3 30.2,0.8 Z"></path>
                </g>
                <path d="M156.3,124.3 C154.7,125.3 151.9,125.9 149.6,125.9 C145.9,125.9 141.9,124.5 141.9,120.5 C141.9,118.3 143.7,116.6 146,116.2 L146,116 C143.9,115.4 142.8,114.1 142.8,112.3 C142.8,109.9 145.2,107.5 150.2,107.5 C152.6,107.5 154.4,108 155.8,108.8 L155,111.6 C154.1,111.1 152.4,110.6 150.8,110.6 C148.7,110.6 147.3,111.5 147.3,112.7 C147.3,114.1 149.1,114.7 151.7,114.7 L153.6,114.7 L153.6,117.7 L151.7,117.7 C148.9,117.7 146.8,118.3 146.8,120 C146.8,121.7 148.7,122.5 150.9,122.5 C152.6,122.5 154.7,121.9 155.8,121.3 L156.3,124.3 Z" id="Shape" fill="#000000" fill-rule="nonzero"></path>
                <path d="M294,122.5 C292.4,123.5 289.6,124.1 287.3,124.1 C283.6,124.1 279.6,122.7 279.6,118.7 C279.6,116.5 281.4,114.8 283.7,114.4 L283.7,114.3 C281.6,113.7 280.5,112.4 280.5,110.6 C280.5,108.2 282.9,105.8 287.9,105.8 C290.3,105.8 292.1,106.3 293.5,107.1 L292.7,109.9 C291.8,109.4 290.1,108.9 288.5,108.9 C286.4,108.9 285,109.8 285,111 C285,112.4 286.8,113 289.4,113 L291.3,113 L291.3,116 L289.4,116 C286.6,116 284.5,116.6 284.5,118.3 C284.5,120 286.4,120.8 288.6,120.8 C290.3,120.8 292.4,120.2 293.5,119.6 L294,122.5 Z" id="Shape" fill="#000000" fill-rule="nonzero"></path>
                <path d="M225.9,5.4 C226.8,5.9 227.5,6.7 228,7.8 C228.5,8.8 228.8,10 228.8,11.4 C228.8,12.8 228.5,14 228,15 C227.5,16 226.8,16.8 225.9,17.4 C225,18 224,18.2 222.9,18.2 C221.8,18.2 220.8,17.9 220,17.4 C219.2,16.9 218.6,16.1 218.3,15.3 L218.3,18.1 L214.9,18.1 L214.9,0.3 L218.3,0.3 L218.3,7.5 C218.6,6.6 219.2,5.9 220,5.4 C220.8,4.9 221.7,4.6 222.9,4.6 C224,4.6 225,4.8 225.9,5.4 Z M219.3,8.6 C218.6,9.3 218.3,10.2 218.3,11.4 C218.3,12.6 218.6,13.5 219.3,14.2 C220,14.9 220.8,15.2 221.8,15.2 C222.9,15.2 223.7,14.9 224.3,14.2 C224.9,13.5 225.3,12.6 225.3,11.4 C225.3,10.2 225,9.3 224.3,8.6 C223.6,7.9 222.8,7.6 221.8,7.6 C220.8,7.5 219.9,7.9 219.3,8.6 Z" id="Shape" fill="#000000" fill-rule="nonzero"></path>
            </g>
        </g>
    </g>
</svg>