<svg xmlns="http://www.w3.org/2000/svg" id="Layer_1" viewBox="0 0 1024 768">
	<style>
		.st0,.st1{fill:none;stroke:#000;stroke-width:4;stroke-miterlimit:10}.st1{stroke-linecap:round;stroke-linejoin:round}
	</style>
	<circle cx="491.7" cy="132.4" r="33.2" class="st0"/>
	<circle cx="656.6" cy="132.4" r="33.2" class="st0"/>
	<circle cx="821.5" cy="132.4" r="33.2" class="st0"/>
	<path d="M604.8 121.1l18 12.5-18 12.6M526 133.6h97.4m137.9-13.7l18 12.5-18 12.5m-71.5-12.5h88" class="st1"/>
	<path fill="none" stroke="#000" stroke-linecap="round" stroke-miterlimit="10" stroke-width="4" d="M500.8 276.8C524 244.2 570.4 235 603 258.2c32.6 23.2 40.2 68.4 17 101-23.2 32.6-68.4 40.2-101 17-4.7-3.3-8.9-7.2-12.5-11.3"/>
	<path d="M522.6 367.5l-17-3.4 4 16.9" class="st1"/>
	<circle cx="490.5" cy="317.2" r="33.2" class="st0"/>
	<circle cx="490.5" cy="317.2" r="40.4" class="st0"/>
	<circle cx="490.8" cy="563.6" r="33.2" class="st0"/>
	<circle cx="639.2" cy="488.6" r="33.2" class="st0"/>
	<circle cx="639.2" cy="638.6" r="33.2" class="st0"/>
	<circle cx="639.2" cy="488.6" r="40.4" class="st0"/>
	<circle cx="639.2" cy="638.6" r="40.4" class="st0"/>
	<path d="M520.2 548l79.6-50.5m-76.9 74.9l78 49.4" class="st1"/>
	<path d="M657.6 313.3c0-1 .3-1.8.8-2.4.5-.6 1.3-.9 2.3-.9v1.3c-.4 0-.7.1-.9.4-.2.2-.3.6-.3 1.1v.4h1.4v2.6H658c-.2-.8-.4-1.7-.4-2.5zm4.1 0c0-1 .3-1.8.8-2.4.5-.6 1.3-.9 2.3-.9v1.3c-.4 0-.7.1-.9.4-.2.2-.3.6-.3 1.1v.4h1.4v2.6h-2.8c-.4-.8-.5-1.7-.5-2.5zm21.3 13h-6.8l-1.2 3.4h-3.6l6.2-16.8h3.9l6.2 16.8h-3.6l-1.1-3.4zm-.9-2.5l-2.5-7.2-2.5 7.2h5zm15.4-11.2c0 1-.3 1.9-.8 2.4-.5.6-1.3.9-2.2.9v-1.3c.4 0 .7-.1.9-.4.2-.2.3-.6.3-1.1v-.5h-1.4V310h2.8c.2.9.4 1.7.4 2.6zm4 0c0 1-.3 1.8-.8 2.4-.5.6-1.3.9-2.3.9v-1.3c.4 0 .7-.1.9-.4.2-.2.3-.6.3-1.1v-.5h-1.4V310h2.8c.4.9.5 1.8.5 2.6zM547.6 90.9c0-1 .3-1.8.8-2.4.5-.6 1.3-.9 2.3-.9v1.3c-.4 0-.7.1-.9.4-.2.2-.3.6-.3 1.1v.4h1.4v2.6H548c-.3-.8-.4-1.7-.4-2.5zm4.1 0c0-1 .3-1.8.8-2.4.5-.6 1.3-.9 2.3-.9v1.3c-.4 0-.7.1-.9.4-.2.2-.3.6-.3 1.1v.4h1.4v2.6h-2.8c-.4-.8-.5-1.7-.5-2.5zm21.3 13h-6.8l-1.2 3.4h-3.6l6.2-16.8h3.9l6.2 16.8h-3.6l-1.1-3.4zm-.9-2.5l-2.5-7.2-2.5 7.2h5zm15.3-11.2c0 1-.3 1.9-.8 2.4-.5.6-1.3.9-2.2.9v-1.3c.4 0 .7-.1.9-.4.2-.2.3-.6.3-1.1v-.5h-1.4v-2.6h2.8c.3.9.4 1.7.4 2.6zm4.1 0c0 1-.3 1.8-.8 2.4-.5.6-1.3.9-2.3.9v-1.3c.4 0 .7-.1.9-.4.2-.2.3-.6.3-1.1v-.5h-1.4v-2.6h2.8c.4.9.5 1.8.5 2.6zM713.6 90.9c0-1 .3-1.8.8-2.4.5-.6 1.3-.9 2.3-.9v1.3c-.4 0-.7.1-.9.4-.2.2-.3.6-.3 1.1v.4h1.4v2.6H714c-.3-.8-.4-1.7-.4-2.5zm4.1 0c0-1 .3-1.8.8-2.4.5-.6 1.3-.9 2.3-.9v1.3c-.4 0-.7.1-.9.4-.2.2-.3.6-.3 1.1v.4h1.4v2.6h-2.8c-.4-.8-.5-1.7-.5-2.5zm22.9 9.1c.6.8.9 1.7.9 2.7 0 1.4-.5 2.5-1.4 3.4s-2.3 1.2-4.1 1.2h-7.3V90.4h7.1c1.7 0 3 .4 3.9 1.1s1.4 1.8 1.4 3.2c0 1.1-.3 1.9-.8 2.6-.6.7-1.3 1.1-2.2 1.3 1 .2 1.8.7 2.5 1.4zm-8.6-2.5h3c.8 0 1.5-.2 1.9-.6.4-.4.7-.9.7-1.6s-.2-1.2-.6-1.6c-.4-.4-1.1-.6-2-.6h-3v4.4zm5.3 6.5c.5-.4.7-1 .7-1.7 0-.8-.2-1.3-.7-1.7-.5-.4-1.2-.6-2.1-.6H732v4.7h3.2c.9-.1 1.6-.3 2.1-.7zm14.5-13.8c0 1-.3 1.9-.8 2.4-.5.6-1.3.9-2.2.9v-1.3c.4 0 .7-.1.9-.4.2-.2.3-.6.3-1.1v-.5h-1.4v-2.6h2.8c.2.9.4 1.7.4 2.6zm4 0c0 1-.3 1.8-.8 2.4-.5.6-1.3.9-2.3.9v-1.3c.4 0 .7-.1.9-.4.2-.2.3-.6.3-1.1v-.5h-1.4v-2.6h2.8c.4.9.5 1.8.5 2.6zM516.3 464.9c0-1 .3-1.8.8-2.4.5-.6 1.3-.9 2.3-.9v1.3c-.4 0-.7.1-.9.4s-.3.6-.3 1.1v.4h1.4v2.6h-2.8c-.3-.8-.5-1.7-.5-2.5zm4.1 0c0-1 .3-1.8.8-2.4.5-.6 1.3-.9 2.3-.9v1.3c-.4 0-.7.1-.9.4-.2.2-.3.6-.3 1.1v.4h1.4v2.6h-2.8c-.4-.8-.5-1.7-.5-2.5zm21.3 13h-6.8l-1.2 3.4h-3.6l6.2-16.8h3.9l6.2 16.8h-3.6l-1.1-3.4zm-.9-2.6l-2.5-7.2-2.5 7.2h5zm15.4-11.1c0 1-.3 1.9-.8 2.4s-1.3.9-2.2.9v-1.3c.4 0 .7-.1.9-.4s.3-.6.3-1.1v-.5H553v-2.6h2.8c.2.8.4 1.7.4 2.6zm4 0c0 1-.3 1.8-.8 2.4-.5.6-1.3.9-2.3.9v-1.3c.4 0 .7-.1.9-.4.2-.2.3-.6.3-1.1v-.5H557v-2.6h2.8c.3.9.4 1.7.4 2.6zM516.3 632.1c0-1 .3-1.8.8-2.4.5-.6 1.3-.9 2.3-.9v1.3c-.4 0-.7.1-.9.4s-.3.6-.3 1.1v.4h1.4v2.6h-2.8c-.3-.8-.5-1.6-.5-2.5zm4.1 0c0-1 .3-1.8.8-2.4s1.3-.9 2.3-.9v1.3c-.4 0-.7.1-.9.4s-.3.6-.3 1.1v.4h1.4v2.6h-2.8c-.4-.8-.5-1.6-.5-2.5zm22.9 9.2c.6.8.9 1.7.9 2.7 0 1.4-.5 2.5-1.4 3.4s-2.3 1.2-4.1 1.2h-7.3v-16.9h7.1c1.7 0 3 .4 3.9 1.1s1.4 1.8 1.4 3.2c0 1.1-.3 1.9-.8 2.6-.6.7-1.3 1.1-2.2 1.3 1 .1 1.9.6 2.5 1.4zm-8.5-2.6h3c.8 0 1.5-.2 1.9-.6.4-.4.7-.9.7-1.6s-.2-1.2-.6-1.6c-.4-.4-1.1-.6-2-.6h-3v4.4zm5.2 6.5c.5-.4.7-1 .7-1.7 0-.8-.2-1.3-.7-1.7-.5-.4-1.2-.6-2.1-.6h-3.2v4.7h3.2c1-.1 1.7-.3 2.1-.7zm14.5-13.8c0 1-.3 1.9-.8 2.4s-1.3.9-2.2.9v-1.3c.4 0 .7-.1.9-.4s.3-.6.3-1.1v-.5h-1.4v-2.6h2.8c.3.9.4 1.8.4 2.6zm4.1 0c0 1-.3 1.8-.8 2.4-.5.6-1.3.9-2.3.9v-1.3c.4 0 .7-.1.9-.4.2-.2.3-.6.3-1.1v-.5h-1.4v-2.6h2.8c.3 1 .5 1.8.5 2.6zM176.2 141H166l-1.8 5.1h-5.4l9.4-25.1h5.8l9.3 25.1H178l-1.8-5.1zm-1.3-3.8l-3.7-10.7-3.7 10.7h7.4zm36.9-2c.9 1.1 1.4 2.5 1.4 4 0 2.1-.7 3.8-2.1 5.1-1.4 1.2-3.5 1.9-6.2 1.9H194v-25.4h10.7c2.6 0 4.5.6 5.9 1.7 1.4 1.1 2.1 2.7 2.1 4.8 0 1.6-.4 2.9-1.2 3.9s-1.9 1.7-3.3 2c1.5.2 2.7.9 3.6 2zm-12.8-3.8h4.6c1.3 0 2.2-.3 2.9-.8.7-.6 1-1.4 1-2.4 0-1.1-.3-1.9-1-2.4-.6-.6-1.6-.9-3-.9H199v6.5zm7.9 9.7c.7-.6 1.1-1.4 1.1-2.6 0-1.1-.4-2-1.1-2.6-.7-.6-1.8-.9-3.1-.9H199v7h4.8c1.4 0 2.4-.3 3.1-.9zM176.2 319.4H166l-1.8 5.1h-5.4l9.4-25.1h5.8l9.3 25.1H178l-1.8-5.1zm-1.3-3.8l-3.7-10.7-3.7 10.7h7.4zm31.1-15.8l1.8 3.3-4.7 1.7 4.7 1.7-1.9 3.4-3.9-3.2.8 5h-3.7l.8-5-3.9 3.3-2-3.4 4.7-1.7-4.6-1.7 1.8-3.3 4 3.2-.8-5h3.8l-.8 5 3.9-3.3zM176.2 571H166l-1.8 5.1h-5.4l9.4-25.1h5.8l9.3 25.1H178l-1.8-5.1zm-1.3-3.9l-3.7-10.7-3.7 10.7h7.4zm24.1-16.4v25.4h-5.1v-25.4h5.1zm30.3 14.5c.9 1.1 1.4 2.5 1.4 4 0 2.1-.7 3.8-2.1 5.1-1.4 1.2-3.5 1.9-6.2 1.9h-10.9v-25.4h10.7c2.6 0 4.5.6 5.9 1.7 1.4 1.1 2.1 2.7 2.1 4.8 0 1.6-.4 2.9-1.2 3.9s-1.9 1.7-3.3 2c1.5.1 2.7.8 3.6 2zm-12.8-3.9h4.6c1.3 0 2.2-.3 2.9-.8.7-.6 1-1.4 1-2.4 0-1.1-.3-1.9-1-2.4-.6-.6-1.6-.9-3-.9h-4.5v6.5zm8 9.8c.7-.6 1.1-1.4 1.1-2.6s-.4-2-1.1-2.6c-.7-.6-1.8-.9-3.1-.9h-4.8v7h4.8c1.3-.1 2.3-.3 3.1-.9z"/>
	<path d="M440.5 122.8l15.7 10.8-15.7 10.9m-41-10.9h57.2M432.6 306.4l15.7 10.8-15.7 10.9m-41-10.9h57.2M440.5 552.7l15.6 10.9-15.6 10.8m-41-10.8h57.1" class="st1"/>
	<circle cx="821.5" cy="132.4" r="40.4" class="st0"/>
	<path d="M578.3 498.5l19 .6-7.1 17.6m-8.7 105.7l19-1.1-7.6-17.5" class="st1"/>
</svg>
